<?xml version="1.0" encoding="utf-8"?>
<!-- Generator: Adobe Illustrator 16.0.0, SVG Export Plug-In . SVG Version: 6.00 Build 0)  -->
<!DOCTYPE svg PUBLIC "-//W3C//DTD SVG 1.1//EN" "http://www.w3.org/Graphics/SVG/1.1/DTD/svg11.dtd">
<svg version="1.1" id="Layer_1" xmlns="http://www.w3.org/2000/svg" xmlns:xlink="http://www.w3.org/1999/xlink" x="0px" y="0px"
	 width="126px" height="126px" viewBox="0 0 126 126" enable-background="new 0 0 126 126" xml:space="preserve">
<g>
	<path d="M57.466,89.766c-1.062,0-1.749,0.093-2.155,0.188v13.788c0.406,0.094,1.063,0.094,1.656,0.094
		c4.313,0.031,7.129-2.345,7.129-7.379C64.126,92.079,61.563,89.766,57.466,89.766z"/>
	<path d="M99.98,36.402c-0.006-0.468-0.154-0.93-0.475-1.295L79.838,12.643c-0.004-0.006-0.01-0.008-0.016-0.014
		c-0.117-0.131-0.252-0.239-0.396-0.334c-0.043-0.028-0.086-0.053-0.131-0.078c-0.127-0.068-0.258-0.124-0.395-0.165
		c-0.037-0.011-0.07-0.026-0.107-0.036c-0.15-0.035-0.303-0.057-0.459-0.057H30c-2.205,0-4,1.795-4,4v94c0,2.206,1.795,4,4,4h66
		c2.207,0,4-1.794,4-4V36.626C100,36.551,99.988,36.477,99.98,36.402z M38.282,108.144c-2.742,0-5.06-0.719-6.3-1.502l1.013-3.722
		c0.881,0.458,2.904,1.306,4.93,1.306c2.579,0,3.884-1.24,3.884-2.839c0-2.09-2.09-3.036-4.276-3.036h-2.024v-3.559h1.926
		c1.666-0.032,3.787-0.652,3.787-2.448c0-1.273-1.045-2.219-3.135-2.219c-1.729,0-3.557,0.75-4.438,1.271l-1.012-3.59
		c1.273-0.816,3.818-1.6,6.562-1.6c4.537,0,7.051,2.384,7.051,5.288c0,2.253-1.272,4.017-3.885,4.929v0.065
		c2.547,0.457,4.603,2.384,4.603,5.158C46.966,105.401,43.668,108.144,38.282,108.144z M65.659,104.835
		c-2.22,1.846-5.597,2.721-9.724,2.721c-2.471,0-4.222-0.157-5.41-0.313V86.544c1.752-0.28,4.034-0.437,6.441-0.437
		c4.002,0,6.598,0.719,8.629,2.251c2.189,1.626,3.563,4.221,3.563,7.941C69.159,100.333,67.691,103.116,65.659,104.835z
		 M90.42,107.337l-0.313-8.065c-0.093-2.533-0.187-5.598-0.187-8.662h-0.094c-0.657,2.688-1.532,5.69-2.346,8.16l-2.564,8.223h-3.72
		l-2.251-8.159c-0.688-2.471-1.405-5.472-1.908-8.224h-0.062c-0.126,2.845-0.219,6.097-0.375,8.724l-0.375,8.004h-4.407
		l1.343-21.073h6.348l2.063,7.034c0.656,2.438,1.313,5.065,1.783,7.536h0.093c0.595-2.439,1.313-5.222,2.001-7.566l2.252-7.004
		h6.222l1.157,21.073H90.42z M30,79.876V15.959h46.334v20.466c0,1.104,0.895,2,2,2H96l0.002,41.451H30z"/>
</g>
<g>
	<path fill-rule="evenodd" clip-rule="evenodd" d="M84.449,55.88c-3.271,0.582-5.854,3.953-9.285,1.675
		c1.416-2.286,2.629-4.243,4.14-6.681c-1.235,0-1.648-0.086-2.009,0.014c-7.86,2.179-8.104,2.141-11.882-4.829
		c-1.09-2.011-2.189-2.653-4.148-1.229c-0.675,0.491-1.463,0.826-2.198,1.231c4.697-5.085,4.823-5.662,1.882-11.729
		c-0.773-1.596-1.692-3.17-2.809-4.538c-1.531-1.876-3.315-3.546-5.656-6.002c-0.727,3.961-0.816,6.97-1.864,9.597
		c-1.694,4.244-3.914,8.296-6.179,12.277c-0.361,0.634-2.119,0.473-3.232,0.68c-0.071-1.04-0.407-2.152-0.146-3.101
		c0.297-1.071,1.16-1.978,1.726-2.984c2.806-4.995,4.078-10.314,3.349-16.05c-0.313-2.461-1.632-3.591-4.115-2.981
		c-2.745,0.673-5.472,1.423-8.195,2.183c-1.714,0.478-1.806,1.33-1.203,3.053c1.02,2.917,1.923,6.014,2.057,9.07
		c0.243,5.622-0.237,5.895-5.877,6.452c0,1.949-0.19,3.959,0.092,5.899c0.115,0.785,1.186,1.92,1.955,2.041
		c5.875,0.928,10.217,4.239,13.858,8.633c1.615,1.948,2.965,4.116,4.76,6.639c0.202-1.128,0.49-1.744,0.378-2.276
		c-0.579-2.746-1.011-5.563-1.978-8.176c-0.941-2.545-0.512-3.979,2.115-4.785c1.793-0.551,3.529-1.292,5.29-1.948
		c-1.164,0.685-2.492,1.195-3.458,2.095c-1.673,1.559-1.183,3.729,0.891,4.521c0.77,0.294,1.616,0.385,2.428,0.567
		c-0.188,0.251-0.373,0.502-0.561,0.753c1.511,1.334,3.023,2.664,4.53,4.001c2.691,2.387,3.32-2.251,5.498-1.61
		c-0.701,1.221-1.587,2.374-2.063,3.676c-0.669,1.833-0.965,3.804-3.718,3.09c-4.148-1.076-5.687-2.642-5.54-5.522
		c0.068-1.348-0.183-2.712-0.289-4.068c-0.914,1.593-0.891,3.086-1.275,4.465c-0.814,2.916,0.204,4.548,2.788,6.128
		c4.823,2.949,9.34,6.399,13.994,9.625C69.461,76.4,70.47,77,71.457,77.63c0.261-0.199,0.521-0.399,0.783-0.6
		c-0.407-1.059-1.04-2.093-1.163-3.185c-0.143-1.258,0.079-2.586,0.354-3.837c0.051-0.233,1.43-0.539,1.624-0.315
		c0.83,0.954,1.492,2.068,2.104,3.186c0.152,0.278-0.115,0.785-0.145,0.948c-0.919-0.477-1.811-0.94-3.358-1.745
		c1.883,4.306,3.158,4.583,5.304,1.818c0.756-0.973,1.124-2.236,1.752-3.319c1.031-1.777,1.746-4.027,3.274-5.168
		C85.607,62.712,84.673,59.365,84.449,55.88z M59.192,58.688l-2.535-2.368c4.07,2.921,5.253,2.368,5.253,2.368
		C60.815,59.872,59.192,58.688,59.192,58.688z"/>
</g>
</svg>
