<?xml version="1.0" encoding="utf-8"?>
<!-- Generator: Adobe Illustrator 16.0.0, SVG Export Plug-In . SVG Version: 6.00 Build 0)  -->
<!DOCTYPE svg PUBLIC "-//W3C//DTD SVG 1.1//EN" "http://www.w3.org/Graphics/SVG/1.1/DTD/svg11.dtd">
<svg version="1.1" id="Layer_1" xmlns="http://www.w3.org/2000/svg" xmlns:xlink="http://www.w3.org/1999/xlink" x="0px" y="0px"
	 width="126px" height="126px" viewBox="0 0 126 126" enable-background="new 0 0 126 126" xml:space="preserve">
<g>
	<path d="M62.708,86.981c-1.251,0-2.062,0.11-2.54,0.221v16.237c0.479,0.11,1.252,0.11,1.951,0.11
		c5.081,0.037,8.396-2.761,8.396-8.689C70.551,89.706,67.532,86.981,62.708,86.981z"/>
	<path d="M99.98,36.234c-0.006-0.468-0.154-0.93-0.475-1.295L79.838,12.475c-0.004-0.006-0.01-0.008-0.016-0.014
		c-0.117-0.131-0.252-0.239-0.396-0.334c-0.043-0.028-0.086-0.053-0.131-0.078c-0.127-0.068-0.258-0.124-0.395-0.165
		c-0.037-0.011-0.07-0.026-0.107-0.036c-0.15-0.035-0.303-0.057-0.459-0.057H30c-2.205,0-4,1.795-4,4v94c0,2.206,1.795,4,4,4h66
		c2.207,0,4-1.794,4-4V36.458C100,36.383,99.988,36.309,99.98,36.234z M30,15.791h46.334v20.466c0,1.104,0.895,2,2,2H96
		l0.002,41.451H30V15.791z M40.092,108.859c-3.289,0-6.067-0.861-7.554-1.802l1.213-4.461c1.057,0.548,3.483,1.565,5.91,1.565
		c3.092,0,4.656-1.487,4.656-3.405c0-2.506-2.504-3.641-5.127-3.641h-2.426V92.85h2.31c1.995-0.039,4.54-0.783,4.54-2.936
		c0-1.525-1.253-2.66-3.758-2.66c-2.074,0-4.266,0.899-5.322,1.525l-1.214-4.305c1.526-0.979,4.58-1.919,7.867-1.919
		c5.44,0,8.454,2.858,8.454,6.342c0,2.701-1.525,4.814-4.658,5.91v0.078c3.053,0.548,5.519,2.857,5.519,6.185
		C50.502,105.571,46.55,108.859,40.092,108.859z M72.355,104.729c-2.614,2.172-6.591,3.203-11.451,3.203
		c-2.909,0-4.971-0.185-6.37-0.368V83.188c2.063-0.331,4.75-0.515,7.585-0.515c4.713,0,7.77,0.847,10.162,2.65
		c2.578,1.915,4.197,4.971,4.197,9.353C76.479,99.426,74.748,102.703,72.355,104.729z M86.234,108.042
		c-2.835,0-5.633-0.736-7.032-1.51l1.142-4.639c1.51,0.772,3.829,1.546,6.223,1.546c2.577,0,3.939-1.067,3.939-2.688
		c0-1.547-1.179-2.431-4.16-3.498c-4.124-1.436-6.813-3.719-6.813-7.327c0-4.234,3.535-7.475,9.39-7.475
		c2.798,0,4.86,0.59,6.333,1.252l-1.252,4.529c-0.994-0.479-2.762-1.179-5.191-1.179c-2.431,0-3.608,1.104-3.608,2.394
		c0,1.583,1.398,2.283,4.603,3.498c4.381,1.62,6.443,3.902,6.443,7.4C96.25,104.508,93.046,108.042,86.234,108.042z"/>
</g>
<g>
	<path d="M42.604,44.832c-0.018,0.004-0.037,0.009-0.054,0.015l0.108,0.108C42.642,44.914,42.622,44.873,42.604,44.832z"/>
	<path d="M79.255,32.615c-5.189,4.014-10.599,2.854-16.197,2.584c0,0,0.02,0.012,0.032,0.021c-0.544-0.032-1.087-0.047-1.629-0.021
		c-5.598,0.27-11.007,1.43-16.197-2.584c-2.74-2.12-6.406,0.322-5.96,3.738c0.381,2.92,2.128,5.662,3.301,8.479
		c0.004-0.001,0.008-0.002,0.011-0.004c-0.867-2.597-2.039-5.151-2.416-7.818c-0.171-1.218,1.415-3.855,2.007-3.799
		c2.102,0.202,4.253,1.068,6.072,2.191c0.453,0.279-0.062,2.539-0.501,3.756c-0.601,1.663-1.376,3.334-2.436,4.728
		c-0.485,0.638-1.774,0.663-2.727,0.942c0.014,0.043,0.029,0.085,0.044,0.127c0,0-0.11-0.109-0.11-0.108h0.002l-0.002-0.001
		c0.345,2.169,0.671,4.342,1.041,6.506c0.232,1.354,0.428,2.728,0.823,4.036c0.69,2.291,1.769,4.49,2.233,6.817
		c0.627,3.13,1.843,5.462,5.094,6.544c1.8,0.6,3.35,1.987,5.159,2.517c2.275,0.663,5.093,1.772,6.987,1.001
		c5.987-2.436,13.63-3.52,13.604-12.68c-0.004-1.271,1.172-2.509,1.619-3.824c0.447-1.313,0.807-2.612,0.988-3.906
		c0.547-1.561,1.651-5.624,1.872-7.01l-0.109,0.108c0.015-0.042,0.03-0.084,0.044-0.127c-0.952-0.279-2.242-0.305-2.727-0.942
		c-1.061-1.394-1.835-3.064-2.436-4.728c-0.439-1.217-0.954-3.477-0.501-3.756c1.819-1.123,3.971-1.989,6.072-2.191
		c0.592-0.057,2.178,2.581,2.006,3.799c-0.377,2.667-1.549,5.222-2.415,7.818c0.003,0.002,0.007,0.003,0.011,0.004
		c1.173-2.816,2.919-5.559,3.301-8.479C85.662,32.938,81.996,30.495,79.255,32.615z M61.082,38.066c0.488,0,0.977,0,1.466,0
		c0,2.466,0,4.931,0,7.396c-0.489,0-0.978,0-1.466,0C61.082,42.996,61.082,40.531,61.082,38.066z M55.595,54.758
		c-1.657,3.498-2.645,6.895-1.245,10.69c0.139,0.377-0.165,0.917-0.486,2.436c-4.762-6.382-0.802-11.407,0.831-16.844
		c-2.736-1.065-5.272-2.055-8.247-3.214c0.414-2.557,2.905-3.605,5.795-3.685c2.954-0.08,4.473,1.852,4.401,4.683
		C56.594,50.822,56.428,53.001,55.595,54.758z M65.616,67.915c-2.834,0-4.693,0-6.998,0c2.5-2.667,1.784-4.682-0.765-6.534
		c-0.671-0.486-1.32-1.823-1.106-2.488c0.237-0.736,1.414-1.467,2.291-1.635c1.489-0.285,3.109-0.366,4.588-0.082
		c1.245,0.239,2.368,1.117,3.546,1.713c-0.632,0.996-1.13,2.116-1.921,2.962C63.523,63.697,62.437,65.471,65.616,67.915z
		 M68.892,50.983c1.282,5.34,5.855,10.466,0.503,15.846c-0.03-0.693-0.29-1.479-0.054-2.064c1.327-3.292,0.271-6.183-1.069-9.187
		c-0.811-1.816-1.338-3.882-1.434-5.863c-0.13-2.671,0.569-5.348,3.91-5.548c3.113-0.186,5.633,0.987,6.414,3.686
		C74.113,49.007,71.662,49.936,68.892,50.983z"/>
	<polygon points="81.971,44.847 81.971,44.846 81.969,44.847 	"/>
</g>
</svg>
