<?xml version="1.0" encoding="utf-8"?>
<!-- Generator: Adobe Illustrator 16.0.0, SVG Export Plug-In . SVG Version: 6.00 Build 0)  -->
<!DOCTYPE svg PUBLIC "-//W3C//DTD SVG 1.1//EN" "http://www.w3.org/Graphics/SVG/1.1/DTD/svg11.dtd">
<svg version="1.1" id="Layer_1" xmlns="http://www.w3.org/2000/svg" xmlns:xlink="http://www.w3.org/1999/xlink" x="0px" y="0px"
	 width="126px" height="126px" viewBox="0 0 126 126" enable-background="new 0 0 126 126" xml:space="preserve">
<g>
	<path d="M84.562,88.657c-1.05,0-1.761,0.103-2.134,0.204v6.74c0.44,0.102,0.982,0.136,1.728,0.136c2.743,0,4.437-1.389,4.437-3.727
		C88.592,89.911,87.137,88.657,84.562,88.657z"/>
	<path d="M99.98,36.352c-0.006-0.468-0.154-0.93-0.475-1.295L79.838,12.592c-0.004-0.006-0.01-0.008-0.016-0.014
		c-0.117-0.131-0.252-0.239-0.396-0.334c-0.043-0.028-0.086-0.053-0.131-0.078c-0.127-0.068-0.258-0.124-0.395-0.165
		c-0.037-0.011-0.07-0.026-0.107-0.036c-0.15-0.035-0.303-0.057-0.459-0.057H30c-2.205,0-4,1.795-4,4v94c0,2.206,1.795,4,4,4h66
		c2.207,0,4-1.794,4-4V36.575C100,36.5,99.988,36.426,99.98,36.352z M41.009,108.134c-2.846,0-5.251-0.745-6.537-1.559l1.05-3.86
		c0.914,0.474,3.015,1.354,5.114,1.354c2.676,0,4.03-1.287,4.03-2.946c0-2.168-2.167-3.151-4.438-3.151H38.13V94.28h1.998
		c1.728-0.034,3.929-0.678,3.929-2.54c0-1.321-1.084-2.304-3.252-2.304c-1.795,0-3.691,0.779-4.606,1.321l-1.05-3.726
		c1.321-0.848,3.963-1.66,6.809-1.66c4.708,0,7.316,2.473,7.316,5.487c0,2.337-1.321,4.166-4.031,5.114v0.068
		c2.642,0.475,4.776,2.473,4.776,5.352C50.019,105.289,46.598,108.134,41.009,108.134z M73.285,106.712
		c-1.592,0.541-4.605,1.287-7.62,1.287c-4.167,0-7.182-1.051-9.281-3.083c-2.101-1.965-3.252-4.945-3.218-8.299
		c0.034-7.587,5.556-11.922,13.041-11.922c2.946,0,5.215,0.575,6.333,1.117l-1.084,4.132c-1.253-0.541-2.811-0.982-5.317-0.982
		c-4.301,0-7.553,2.439-7.553,7.385c0,4.708,2.946,7.485,7.18,7.485c1.186,0,2.135-0.135,2.541-0.339v-4.775h-3.522v-4.03h8.501
		V106.712z M91.607,97.295c-1.762,1.66-4.37,2.405-7.418,2.405c-0.678,0-1.287-0.034-1.762-0.102v8.163h-5.114V85.236
		c1.592-0.271,3.827-0.474,6.978-0.474c3.184,0,5.453,0.609,6.978,1.829c1.456,1.151,2.438,3.048,2.438,5.284
		C93.706,94.111,92.962,96.008,91.607,97.295z M30,79.825V15.908h46.334v20.466c0,1.104,0.895,2,2,2H96l0.002,41.451H30z"/>
</g>
<path d="M86.534,68.117c-0.698,0.377-1.301,0.404-1.892,0.088c-3.729-1.997-5.704-14.918-6.149-19.729l-0.142,0.013
	c-1.305-8.885-8.938-15.713-18.185-15.713c-10.163,0-18.403,8.239-18.403,18.402s8.24,18.403,18.403,18.403
	c8.208,0,15.156-5.378,17.528-12.8c1.058,5.323,2.92,11.535,6.003,13.186c0.567,0.304,1.161,0.456,1.769,0.456
	c0.665,0,1.345-0.183,2.019-0.547L86.534,68.117z M48.833,55.289c-2.544-0.164-4.474-2.361-4.31-4.903
	c0.164-2.546,2.36-4.476,4.907-4.312c2.542,0.164,4.473,2.362,4.305,4.908C53.574,53.524,51.377,55.454,48.833,55.289z
	 M58.876,66.759c-2.543-0.164-4.474-2.36-4.31-4.906c0.165-2.542,2.362-4.472,4.905-4.306c2.54,0.164,4.478,2.357,4.31,4.904
	C63.617,64.993,61.423,66.923,58.876,66.759z M57.591,51.304c0-1.378,1.118-2.501,2.499-2.501c1.38,0,2.502,1.123,2.502,2.501
	c0,1.379-1.122,2.5-2.502,2.5C58.709,53.804,57.591,52.683,57.591,51.304z M60.188,44.813c-2.543-0.163-4.474-2.36-4.314-4.906
	c0.167-2.544,2.361-4.474,4.908-4.307c2.545,0.164,4.474,2.357,4.31,4.902C64.926,43.047,62.729,44.975,60.188,44.813z
	 M70.002,56.655c-2.544-0.164-4.475-2.36-4.313-4.904c0.167-2.546,2.359-4.473,4.908-4.307c2.543,0.161,4.473,2.356,4.31,4.904
	C74.74,54.891,72.544,56.82,70.002,56.655z"/>
</svg>
