<?xml version="1.0" encoding="utf-8"?>
<!-- Generator: Adobe Illustrator 16.0.0, SVG Export Plug-In . SVG Version: 6.00 Build 0)  -->
<!DOCTYPE svg PUBLIC "-//W3C//DTD SVG 1.1//EN" "http://www.w3.org/Graphics/SVG/1.1/DTD/svg11.dtd">
<svg version="1.1" id="Layer_1" xmlns="http://www.w3.org/2000/svg" xmlns:xlink="http://www.w3.org/1999/xlink" x="0px" y="0px"
	 width="126px" height="126px" viewBox="0 0 126 126" enable-background="new 0 0 126 126" xml:space="preserve">
<g>
	<path d="M47.335,87.359h-0.079c-0.392,1.566-0.783,3.564-1.214,5.092l-1.566,5.602h5.836l-1.645-5.602
		C48.196,90.885,47.727,88.926,47.335,87.359z"/>
	<path d="M99.98,36.345c-0.006-0.468-0.154-0.93-0.475-1.295L79.838,12.585c-0.004-0.006-0.01-0.008-0.016-0.014
		c-0.117-0.131-0.252-0.239-0.396-0.334c-0.043-0.028-0.086-0.053-0.131-0.078c-0.127-0.068-0.258-0.124-0.395-0.165
		c-0.037-0.011-0.07-0.026-0.107-0.036c-0.15-0.035-0.303-0.057-0.459-0.057H30c-2.205,0-4,1.795-4,4v94c0,2.206,1.795,4,4,4h66
		c2.207,0,4-1.794,4-4V36.568C100,36.493,99.988,36.419,99.98,36.345z M53.21,109.294l-2.037-6.776h-7.56l-1.88,6.776h-6.188
		l8.069-26.4h7.834l8.186,26.4H53.21z M69.149,109.294h-5.993v-26.4h5.993V109.294z M90.456,87.79H80.311v6.032h9.479v4.856h-9.479
		v10.615h-5.993v-26.4h16.138V87.79z M30,79.818V15.901h46.334v20.466c0,1.104,0.895,2,2,2H96l0.002,41.451H30z"/>
</g>
<path d="M70.292,35.119c-9.775-6.834-9.748-8.438-9.748-8.438c-1.863,0.221-2.054,1.632-2.054,1.632V60.5
	c-1.399-0.486-3.07-0.572-4.783-0.151c-3.793,0.946-6.274,4.079-5.549,6.992c0.426,2.689,4.395,4.495,8.189,3.54
	c3.334-0.825,5.659-3.344,5.674-5.92h0.011l0.085-30.567c0,0,6.652-0.355,13.17,9.857C75.289,44.251,75.303,38.979,70.292,35.119z"
	/>
</svg>
