<?xml version="1.0" encoding="utf-8"?>
<!-- Generator: Adobe Illustrator 16.0.0, SVG Export Plug-In . SVG Version: 6.00 Build 0)  -->
<!DOCTYPE svg PUBLIC "-//W3C//DTD SVG 1.1//EN" "http://www.w3.org/Graphics/SVG/1.1/DTD/svg11.dtd">
<svg version="1.1" id="Layer_1" xmlns="http://www.w3.org/2000/svg" xmlns:xlink="http://www.w3.org/1999/xlink" x="0px" y="0px"
	 width="126px" height="126px" viewBox="0 0 126 126" enable-background="new 0 0 126 126" xml:space="preserve">
<g>
	<path d="M42.794,88.937h-0.069c-0.344,1.378-0.688,3.134-1.067,4.476l-1.377,4.924h5.129l-1.445-4.924
		C43.552,92.036,43.139,90.314,42.794,88.937z"/>
	<path d="M99.98,36.443c-0.006-0.468-0.154-0.93-0.475-1.295L79.838,12.684c-0.004-0.006-0.01-0.008-0.016-0.014
		c-0.117-0.131-0.252-0.239-0.396-0.334c-0.043-0.028-0.086-0.053-0.131-0.078c-0.127-0.068-0.258-0.124-0.395-0.165
		c-0.037-0.011-0.07-0.026-0.107-0.036C78.643,12.021,78.49,12,78.334,12H30c-2.205,0-4,1.795-4,4v94c0,2.206,1.795,4,4,4h66
		c2.207,0,4-1.794,4-4V36.667C100,36.592,99.988,36.518,99.98,36.443z M47.958,108.215l-1.79-5.954h-6.645l-1.652,5.954h-5.439
		l7.091-23.203h6.885l7.195,23.203H47.958z M62.38,108.561c-2.651,0-5.268-0.689-6.576-1.412l1.067-4.338
		c1.412,0.723,3.58,1.446,5.818,1.446c2.41,0,3.683-0.998,3.683-2.514c0-1.445-1.101-2.271-3.89-3.27
		c-3.855-1.343-6.368-3.478-6.368-6.852c0-3.958,3.305-6.989,8.779-6.989c2.616,0,4.544,0.552,5.921,1.172l-1.17,4.233
		c-0.93-0.447-2.583-1.102-4.854-1.102c-2.272,0-3.374,1.033-3.374,2.239c0,1.48,1.308,2.134,4.304,3.27
		c4.097,1.516,6.024,3.649,6.024,6.92C71.744,105.256,68.749,108.561,62.38,108.561z M87.508,108.215l-2.1-4.199
		c-0.861-1.617-1.412-2.823-2.066-4.166h-0.069c-0.481,1.343-1.067,2.549-1.79,4.166l-1.927,4.199h-5.991l6.713-11.737
		l-6.472-11.466h6.025l2.031,4.235c0.689,1.411,1.206,2.548,1.756,3.855h0.069c0.551-1.48,0.998-2.514,1.584-3.855l1.962-4.235h5.99
		l-6.542,11.326l6.885,11.877H87.508z M30,79.917V16h46.334v20.466c0,1.104,0.895,2,2,2H96l0.002,41.451H30z"/>
</g>
<g>
	<path d="M64.464,67.943H46.839V51.552h24.294v7.928c0.33-0.056,0.66-0.099,0.988-0.119v-21.35c0-0.112,0.007-0.224,0.022-0.335
		c0.194-1.436,1.442-3.104,3.726-3.372c0.68-0.073,1.355,0.132,1.879,0.565v-5.357H40.845v41.379h25.473
		C65.376,70.102,64.713,69.097,64.464,67.943z M46.839,32.787h24.294V48.85H46.839V32.787z M45.651,63.653h-3.277v-3.547h3.277
		V63.653z M45.651,55.629h-3.277v-3.547h3.277V55.629z M45.651,47.713h-3.277v-3.547h3.277V47.713z M45.651,39.688h-3.277v-3.545
		h3.277V39.688z"/>
	<path d="M82.765,43.404c-7.333-5.126-7.313-6.331-7.313-6.331c-1.397,0.164-1.54,1.224-1.54,1.224v24.147
		c-1.049-0.364-2.304-0.428-3.588-0.112c-2.846,0.709-4.707,3.061-4.163,5.246c0.319,2.017,3.297,3.372,6.144,2.655
		c2.501-0.62,4.246-2.509,4.256-4.442h0.008l0.064-22.932c0,0,4.991-0.267,9.88,7.396C86.513,50.255,86.524,46.299,82.765,43.404z"
		/>
</g>
</svg>
