<?xml version="1.0" encoding="utf-8"?>
<!-- Generator: Adobe Illustrator 16.0.0, SVG Export Plug-In . SVG Version: 6.00 Build 0)  -->
<!DOCTYPE svg PUBLIC "-//W3C//DTD SVG 1.1//EN" "http://www.w3.org/Graphics/SVG/1.1/DTD/svg11.dtd">
<svg version="1.1" id="Layer_1" xmlns="http://www.w3.org/2000/svg" xmlns:xlink="http://www.w3.org/1999/xlink" x="0px" y="0px"
	 width="126px" height="126px" viewBox="0 0 126 126" enable-background="new 0 0 126 126" xml:space="preserve">
<g>
	<path d="M62.711,87.59h-0.072c-0.359,1.439-0.719,3.275-1.115,4.678l-1.439,5.148h5.363l-1.512-5.148
		C63.502,90.828,63.07,89.029,62.711,87.59z"/>
	<path d="M84.563,97.02h-1.871v6.84c0.539,0.072,1.188,0.072,2.123,0.072c2.484,0,4.68-0.938,4.68-3.492
		C89.494,97.992,87.299,97.02,84.563,97.02z"/>
	<path d="M88.918,90.109c0-1.836-1.404-2.809-3.887-2.809c-1.188,0-1.873,0.072-2.34,0.145v5.65h1.799
		C87.371,93.096,88.918,91.908,88.918,90.109z"/>
	<path d="M99.98,36.568c-0.006-0.468-0.156-0.93-0.477-1.295L79.838,12.809c-0.006-0.006-0.012-0.008-0.016-0.014
		c-0.117-0.131-0.254-0.239-0.398-0.334c-0.043-0.028-0.086-0.053-0.131-0.078c-0.125-0.068-0.256-0.124-0.395-0.165
		c-0.037-0.011-0.07-0.026-0.107-0.036c-0.148-0.035-0.303-0.057-0.459-0.057H30c-2.205,0-4,1.795-4,4v94c0,2.206,1.795,4,4,4h66
		c2.205,0,4-1.794,4-4V36.792C100,36.717,99.988,36.643,99.98,36.568z M44.279,103.57c1.656,0,3.492-0.359,4.572-0.791l0.826,4.283
		c-1.008,0.504-3.275,1.043-6.227,1.043c-8.387,0-12.707-5.219-12.707-12.129c0-8.279,5.904-12.887,13.248-12.887
		c2.842,0,5.002,0.576,5.975,1.08l-1.115,4.355c-1.117-0.469-2.664-0.9-4.607-0.9c-4.355,0-7.74,2.627-7.74,8.027
		C36.504,100.512,39.385,103.57,44.279,103.57z M68.109,107.746l-1.871-6.227h-6.947l-1.727,6.227h-5.688l7.414-24.26h7.199
		l7.523,24.26H68.109z M92.734,105.803c-1.764,1.404-4.717,2.195-9.539,2.195c-2.699,0-4.715-0.18-5.939-0.359v-23.83
		c1.439-0.287,4.355-0.504,7.092-0.504c3.348,0,5.398,0.324,7.162,1.369c1.691,0.898,2.916,2.555,2.916,4.75
		c0,2.16-1.26,4.176-3.996,5.184v0.072c2.771,0.756,4.824,2.844,4.824,5.975C95.254,102.852,94.246,104.578,92.734,105.803z
		 M96,80.042H30V16.125h46.332v20.466c0,1.104,0.896,2,2,2H96V80.042z"/>
	<path d="M76.323,49.551V38.306H47.71v11.246h-1.636l-0.797-8.903l-4.195,8.903l0.1,22.993h41.723V49.551l-4.163-8.823l-0.776,8.823
		H76.323z M68.125,57.835H57.25V52.96h10.875V57.835z M74.388,49.551H49.646V39.91h24.742V49.551z"/>
	<rect x="50.175" y="34.916" width="23.943" height="1.604"/>
	<rect x="52.411" y="31.757" width="19.41" height="1.604"/>
	<rect x="58.208" y="54.001" width="9.042" height="1.423"/>
</g>
</svg>
