<?xml version="1.0" encoding="utf-8"?>
<!-- Generator: Adobe Illustrator 16.0.0, SVG Export Plug-In . SVG Version: 6.00 Build 0)  -->
<!DOCTYPE svg PUBLIC "-//W3C//DTD SVG 1.1//EN" "http://www.w3.org/Graphics/SVG/1.1/DTD/svg11.dtd">
<svg version="1.1" id="Layer_1" xmlns="http://www.w3.org/2000/svg" xmlns:xlink="http://www.w3.org/1999/xlink" x="0px" y="0px"
	 width="126px" height="126px" viewBox="0 0 126 126" enable-background="new 0 0 126 126" xml:space="preserve">
<g>
	<path fill-rule="evenodd" clip-rule="evenodd" d="M61.057,88.628h-0.068c-0.346,1.387-0.691,3.154-1.074,4.506l-1.385,4.959h5.164
		l-1.457-4.959C61.82,91.748,61.404,90.015,61.057,88.628z"/>
	<path fill-rule="evenodd" clip-rule="evenodd" d="M82.766,88.558c-1.178,0-1.941,0.105-2.393,0.209v15.289
		c0.451,0.104,1.18,0.104,1.838,0.104c4.785,0.035,7.904-2.6,7.904-8.182C90.15,91.125,87.309,88.558,82.766,88.558z"/>
	<path fill-rule="evenodd" clip-rule="evenodd" d="M99.98,36.443c-0.006-0.467-0.154-0.93-0.475-1.295L79.838,12.683
		c-0.004-0.006-0.01-0.008-0.016-0.014c-0.117-0.131-0.252-0.238-0.396-0.334c-0.043-0.027-0.086-0.053-0.131-0.078
		c-0.127-0.068-0.258-0.123-0.395-0.164c-0.037-0.012-0.07-0.027-0.107-0.037C78.643,12.021,78.488,12,78.334,12H30
		c-2.205,0-4,1.795-4,4v94c0,2.205,1.795,4,4,4h66c2.205,0,4-1.795,4-4V36.667C100,36.591,99.988,36.517,99.98,36.443z
		 M43.303,104.021c1.598,0,3.365-0.346,4.406-0.762l0.797,4.127c-0.971,0.484-3.154,1.004-5.998,1.004
		c-8.08,0-12.24-5.027-12.24-11.684c0-7.975,5.686-12.412,12.76-12.412c2.738,0,4.82,0.555,5.756,1.039l-1.074,4.195
		c-1.076-0.451-2.566-0.865-4.438-0.865c-4.197,0-7.457,2.529-7.457,7.73C35.814,101.074,38.59,104.021,43.303,104.021z
		 M66.26,108.044l-1.805-6h-6.691l-1.662,6h-5.479l7.141-23.369h6.936l7.246,23.369H66.26z M91.85,105.269
		c-2.463,2.047-6.207,3.018-10.783,3.018c-2.738,0-4.68-0.174-5.998-0.348V84.988c1.941-0.313,4.473-0.486,7.143-0.486
		c4.438,0,7.314,0.797,9.568,2.496c2.428,1.805,3.953,4.682,3.953,8.809C95.732,100.277,94.104,103.363,91.85,105.269z M30,79.917
		V16h46.334v20.467c0,1.104,0.895,2,2,2H96l0.002,41.451H30z"/>
	<path fill-rule="evenodd" clip-rule="evenodd" d="M72.23,61.683l-4.088-11.117h2.27v1.793h1.107v-4.695h-1.107v1.795h-2.678
		l-2.648-7.201c0.283-0.639,0.445-1.34,0.445-2.082c0-2.613-1.949-4.75-4.467-5.092V28.96h-1.387v6.123
		c-2.521,0.342-4.469,2.479-4.469,5.092c0,1.047,0.314,2.02,0.854,2.834l-2.375,6.449h-2.783v-1.795h-1.107v4.695h1.107v-1.793
		h2.377l-4.088,11.117l0.26,3.129l-1.521,6.777l3.422-5.996l2.459-2.305l6.898-17.658l6.902,17.658l2.457,2.305l3.422,5.996
		l-1.521-6.777L72.23,61.683z M60.451,43.753c-1.973,0-3.57-1.598-3.57-3.566c0-1.971,1.598-3.568,3.57-3.568
		c1.971,0,3.568,1.598,3.568,3.568C64.02,42.156,62.422,43.753,60.451,43.753z"/>
	<circle fill-rule="evenodd" clip-rule="evenodd" cx="60.451" cy="40.236" r="1.76"/>
</g>
</svg>
