<?xml version="1.0" encoding="utf-8"?>
<!-- Generator: Adobe Illustrator 16.0.0, SVG Export Plug-In . SVG Version: 6.00 Build 0)  -->
<!DOCTYPE svg PUBLIC "-//W3C//DTD SVG 1.1//EN" "http://www.w3.org/Graphics/SVG/1.1/DTD/svg11.dtd">
<svg version="1.1" id="Layer_1" xmlns="http://www.w3.org/2000/svg" xmlns:xlink="http://www.w3.org/1999/xlink" x="0px" y="0px"
	 width="126px" height="126px" viewBox="0 0 126 126" enable-background="new 0 0 126 126" xml:space="preserve">
<g>
	<g>
		<path d="M80.506,89.11c-1.195,0-1.873,0.097-2.229,0.162v6.006h1.938c2.455,0,3.908-1.227,3.908-3.132
			C84.123,90.144,82.766,89.142,80.506,89.11z"/>
		<path d="M99.873,36.931c-0.006-0.468-0.154-0.93-0.475-1.295L79.73,13.171c-0.004-0.006-0.01-0.008-0.016-0.014
			c-0.117-0.131-0.252-0.239-0.396-0.334c-0.043-0.028-0.086-0.053-0.131-0.078c-0.127-0.068-0.258-0.124-0.395-0.165
			c-0.037-0.011-0.07-0.026-0.107-0.036c-0.15-0.035-0.303-0.057-0.459-0.057H29.893c-2.205,0-4,1.795-4,4v94c0,2.206,1.795,4,4,4
			h66c2.207,0,4-1.794,4-4V37.155C99.893,37.08,99.881,37.005,99.873,36.931z M48.09,103.641c1.486,0,3.133-0.323,4.102-0.711
			l0.742,3.844c-0.904,0.452-2.939,0.938-5.586,0.938c-7.523,0-11.4-4.683-11.4-10.883c0-7.428,5.297-11.562,11.885-11.562
			c2.551,0,4.488,0.518,5.359,0.969l-1,3.908c-1.002-0.421-2.391-0.807-4.133-0.807c-3.908,0-6.943,2.356-6.943,7.2
			C41.115,100.897,43.697,103.641,48.09,103.641z M70.045,107.388H56.16V85.624h13.434v4.036H61.1v4.521h8.01v4.003H61.1v5.167
			h8.945V107.388z M84.801,107.388c-0.355-0.614-0.871-2.39-1.518-5.07c-0.582-2.712-1.518-3.456-3.52-3.487h-1.486v8.558h-4.875
			V85.914c1.582-0.259,3.939-0.452,6.555-0.452c3.229,0,5.488,0.484,7.039,1.711c1.293,1.034,2.002,2.551,2.002,4.554
			c0,2.776-1.969,4.682-3.842,5.358v0.1c1.518,0.612,2.357,2.066,2.906,4.067c0.678,2.454,1.355,5.296,1.775,6.137H84.801z
			 M29.893,80.405V16.488h46.334v20.466c0,1.104,0.895,2,2,2h17.666l0.002,41.451H29.893z"/>
	</g>
	<path d="M78.695,40.586c0-1.192-0.625-2.232-1.561-2.829c0.551-0.903,0.672-2.048,0.217-3.091l-0.559-1.283
		c-0.354-0.812-0.994-1.406-1.75-1.733c-0.035-0.807-0.352-1.605-0.969-2.222l-0.99-0.99c-0.795-0.795-1.891-1.101-2.922-0.932
		c-0.209-1.096-0.949-2.066-2.064-2.504l-1.303-0.514c-0.92-0.359-1.895-0.277-2.717,0.129c-0.584-0.493-1.326-0.801-2.15-0.801
		h-1.402c-1.035,0-1.949,0.479-2.566,1.215c-0.924-0.634-2.139-0.8-3.24-0.318l-1.283,0.557c-0.971,0.425-1.625,1.255-1.885,2.203
		c-0.795,0.045-1.576,0.359-2.182,0.965l-0.99,0.99c-0.689,0.688-1.006,1.601-0.973,2.503c-1.033,0.245-1.934,0.972-2.352,2.037
		l-0.514,1.302c-0.389,0.994-0.26,2.054,0.236,2.911c-0.627,0.608-1.021,1.46-1.021,2.405v1.399c0,0.99,0.434,1.87,1.115,2.483
		c-0.445,0.867-0.527,1.914-0.105,2.877l0.559,1.283c0.406,0.936,1.193,1.577,2.098,1.854c-0.082,0.953,0.227,1.932,0.957,2.66
		l0.99,0.99c0.75,0.753,1.77,1.059,2.752,0.948c0.326,0.85,0.984,1.568,1.898,1.928l0.203,0.081L45.1,72.389l6.943-3.807
		c0,0,1.793,11.311,1.793,10.976c0-0.271,4.15-15.183,5.758-20.94c0.295,0.088,0.607,0.139,0.932,0.139h0.584l6.836,18.226v-9.519
		l6.607,4.479L68.57,56.79l0.111-0.048c0.777-0.34,1.35-0.944,1.686-1.655c0.969,0.1,1.975-0.207,2.717-0.952l0.99-0.99
		c0.854-0.853,1.143-2.049,0.885-3.144c0.928-0.299,1.721-0.979,2.104-1.955l0.514-1.303c0.301-0.769,0.285-1.576,0.041-2.301
		c0.658-0.614,1.078-1.483,1.078-2.456V40.586z M61.227,53.241c-6.604,0-11.955-5.353-11.955-11.954
		c0-6.603,5.352-11.954,11.955-11.954c6.602,0,11.953,5.352,11.953,11.954C73.18,47.888,67.828,53.241,61.227,53.241z"/>
</g>
</svg>
