<?xml version="1.0" encoding="utf-8"?>
<!-- Generator: Adobe Illustrator 16.0.0, SVG Export Plug-In . SVG Version: 6.00 Build 0)  -->
<!DOCTYPE svg PUBLIC "-//W3C//DTD SVG 1.1//EN" "http://www.w3.org/Graphics/SVG/1.1/DTD/svg11.dtd">
<svg version="1.1" id="Layer_1" xmlns="http://www.w3.org/2000/svg" xmlns:xlink="http://www.w3.org/1999/xlink" x="0px" y="0px"
	 width="126px" height="126px" viewBox="0 0 126 126" enable-background="new 0 0 126 126" xml:space="preserve">
<g>
	<path d="M63.162,89.983h-0.045c-0.232,1.008-0.463,2.294-0.717,3.276l-0.926,3.604h3.445l-0.971-3.604
		C63.67,92.252,63.395,90.991,63.162,89.983z"/>
	<path d="M99.98,36.442c-0.006-0.468-0.154-0.929-0.475-1.295L79.838,12.682c-0.004-0.005-0.01-0.008-0.016-0.013
		c-0.117-0.132-0.252-0.239-0.396-0.334c-0.043-0.028-0.086-0.054-0.131-0.078c-0.127-0.069-0.258-0.124-0.395-0.165
		c-0.037-0.011-0.07-0.027-0.107-0.035C78.643,12.021,78.49,12,78.334,12H30c-2.205,0-4,1.794-4,4v94c0,2.205,1.795,4,4,4h66
		c2.207,0,4-1.795,4-4V36.666C100,36.591,99.988,36.517,99.98,36.442z M39.602,101.174c1.063,0,2.242-0.252,2.936-0.555l0.533,3
		c-0.648,0.353-2.105,0.73-4,0.73c-5.387,0-8.162-3.654-8.162-8.494c0-5.797,3.793-9.022,8.508-9.022
		c1.826,0,3.215,0.403,3.838,0.756l-0.717,3.05c-0.717-0.328-1.711-0.63-2.959-0.63c-2.797,0-4.971,1.84-4.971,5.62
		C34.607,99.031,36.457,101.174,39.602,101.174z M55.117,104.098h-9.734V87.11h3.537v13.761h6.197V104.098z M66.631,104.098
		l-1.203-4.36h-4.461l-1.109,4.36h-3.654l4.764-16.987h4.623l4.832,16.987H66.631z M76.318,104.35c-1.779,0-3.537-0.504-4.414-1.033
		l0.715-3.176c0.949,0.529,2.404,1.059,3.908,1.059c1.617,0,2.473-0.73,2.473-1.84c0-1.059-0.738-1.664-2.611-2.395
		c-2.59-0.982-4.277-2.545-4.277-5.016c0-2.898,2.219-5.116,5.895-5.116c1.758,0,3.053,0.403,3.977,0.856l-0.785,3.1
		c-0.625-0.326-1.734-0.806-3.26-0.806s-2.266,0.756-2.266,1.638c0,1.084,0.879,1.563,2.891,2.395
		c2.75,1.109,4.045,2.672,4.045,5.066C82.607,101.93,80.596,104.35,76.318,104.35z M88.805,104.35c-1.781,0-3.537-0.504-4.416-1.033
		l0.717-3.176c0.947,0.529,2.404,1.059,3.908,1.059c1.617,0,2.473-0.73,2.473-1.84c0-1.059-0.74-1.664-2.613-2.395
		c-2.588-0.982-4.277-2.545-4.277-5.016c0-2.898,2.221-5.116,5.896-5.116c1.758,0,3.051,0.403,3.977,0.856l-0.787,3.1
		c-0.623-0.326-1.732-0.806-3.26-0.806c-1.525,0-2.264,0.756-2.264,1.638c0,1.084,0.877,1.563,2.889,2.395
		c2.752,1.109,4.045,2.672,4.045,5.066C95.092,101.93,93.082,104.35,88.805,104.35z M30,79.916V16h46.334v20.465
		c0,1.104,0.895,2,2,2H96l0.002,41.451H30z"/>
	<path d="M59.701,54.034c0,0-2.172-4.186-2.092-7.245c0.059-2.185,4.988-4.346,6.924-7.483c1.93-3.139-0.242-6.196-0.242-6.196
		s0.484,2.254-0.803,4.586c-1.289,2.334-6.041,3.704-7.891,7.726C53.752,49.446,59.701,54.034,59.701,54.034z"/>
	<path d="M67.834,41.318c0,0-7.404,2.817-7.404,6.034c0,3.221,2.012,4.266,2.334,5.312c0.322,1.048-0.563,2.818-0.563,2.818
		s2.896-2.012,2.412-4.348c-0.484-2.333-2.738-3.059-1.447-5.391C64.027,44.181,67.834,41.318,67.834,41.318z"/>
	<path d="M58.9,58.287c7.639-0.273,8.539-1.711,9.336-2.402c-4.426,1.205-16.176,1.127-16.26,0.242
		c-0.078-0.885,3.621-1.61,3.621-1.61s-5.793,0-6.275,1.449C48.838,57.413,52.064,58.526,58.9,58.287z"/>
	<path d="M69.361,54.679c0,0,3.301,0,3.621,2.01c0.322,2.012-4.184,4.989-4.184,4.989s7.096-1.428,6.434-5.065
		C74.43,52.186,69.361,54.679,69.361,54.679z"/>
	<path d="M61.311,60.472c-3.352,0.377-7.402,0.08-7.727-0.485c-0.316-0.563,0.566-0.884,0.566-0.884
		c-4.027,0.967-1.826,2.654,2.893,2.979c4.043,0.276,8.564-1.208,8.564-1.208l1.391-1.125C66.998,59.748,63.811,60.19,61.311,60.472
		z"/>
	<path d="M55.117,63.265c0,0-1.826,0.051-1.932,1.017c-0.105,0.96,0.566,1.449,5.082,1.342c5.375-0.128,6.271-0.768,6.824-1.233
		l1.313-0.987c-3.514,0.455-3.787,0.58-5.775,0.637c-2.004,0.058-5.512,0.185-5.672-0.188
		C54.795,63.477,55.117,63.265,55.117,63.265z"/>
	<path d="M72.66,67.61c0.697-0.753-0.217-1.343-0.217-1.343s0.322,0.376-0.102,0.804c-0.432,0.428-4.35,1.5-10.627,1.822
		c-6.277,0.324-13.092-0.589-13.307-1.394c-0.209-0.804,3.488-1.446,3.488-1.446c-0.428,0.053-5.578,0.16-5.742,1.557
		c-0.158,1.393,2.254,2.52,11.914,2.52C67.725,70.129,71.965,68.358,72.66,67.61z"/>
	<path d="M68.904,70.774c-4.238,0.857-17.111,0.317-17.111,0.317s8.367,1.985,17.918,0.323c4.564-0.795,4.83-3.005,4.83-3.005
		S73.145,69.913,68.904,70.774z"/>
</g>
</svg>
