<?xml version="1.0" encoding="utf-8"?>
<!-- Generator: Adobe Illustrator 16.0.0, SVG Export Plug-In . SVG Version: 6.00 Build 0)  -->
<!DOCTYPE svg PUBLIC "-//W3C//DTD SVG 1.1//EN" "http://www.w3.org/Graphics/SVG/1.1/DTD/svg11.dtd">
<svg version="1.1" id="Layer_1" xmlns="http://www.w3.org/2000/svg" xmlns:xlink="http://www.w3.org/1999/xlink" x="0px" y="0px"
	 width="126px" height="126px" viewBox="0 0 126 126" enable-background="new 0 0 126 126" xml:space="preserve">
<g>
	<g>
		<path d="M99.873,36.544c-0.006-0.468-0.154-0.93-0.475-1.295L79.73,12.784c-0.004-0.006-0.01-0.008-0.016-0.014
			c-0.117-0.131-0.252-0.239-0.396-0.334c-0.043-0.028-0.086-0.053-0.131-0.078c-0.127-0.068-0.258-0.124-0.395-0.165
			c-0.037-0.011-0.07-0.026-0.107-0.036c-0.15-0.035-0.303-0.057-0.459-0.057H29.893c-2.205,0-4,1.795-4,4v94c0,2.206,1.795,4,4,4
			h66c2.207,0,4-1.794,4-4V36.768C99.893,36.692,99.881,36.618,99.873,36.544z M29.893,16.101h46.334v20.466c0,1.104,0.895,2,2,2
			h17.666l0.002,41.451H29.893V16.101z M43.475,103.445c1.449,0,3.057-0.314,4-0.692l0.725,3.748
			c-0.881,0.441-2.867,0.914-5.447,0.914c-7.34,0-11.121-4.567-11.121-10.616c0-7.245,5.166-11.276,11.592-11.276
			c2.488,0,4.379,0.505,5.23,0.945l-0.979,3.812c-0.975-0.41-2.33-0.787-4.031-0.787c-3.813,0-6.773,2.298-6.773,7.023
			C36.67,100.769,39.191,103.445,43.475,103.445z M59.412,107.446c-6.299,0-9.984-4.756-9.984-10.804
			c0-6.363,4.063-11.12,10.332-11.12c6.52,0,10.078,4.882,10.078,10.741C69.838,103.226,65.617,107.446,59.412,107.446z
			 M91.256,107.101l-0.314-8.127c-0.096-2.553-0.189-5.639-0.189-8.726h-0.094c-0.662,2.708-1.545,5.732-2.363,8.22l-2.582,8.285
			h-3.75l-2.266-8.221c-0.693-2.489-1.418-5.513-1.922-8.284h-0.064c-0.125,2.867-0.221,6.142-0.377,8.787l-0.377,8.065h-4.441
			l1.354-21.231h6.395l2.078,7.087c0.662,2.457,1.324,5.104,1.797,7.592h0.092c0.6-2.457,1.324-5.261,2.018-7.622l2.268-7.057h6.27
			l1.164,21.231H91.256z"/>
		<path d="M59.631,89.334c-3.242,0-5.131,3.086-5.131,7.213c0,4.158,1.951,7.088,5.164,7.088c3.246,0,5.104-3.087,5.104-7.214
			C64.768,92.609,62.941,89.334,59.631,89.334z"/>
	</g>
	<g>
		<path d="M40.648,34.683v37.294h41.545V34.683H40.648z M80.387,70.17H42.455V41.125h37.932V70.17z"/>
		<rect x="43.961" y="43.714" width="12.793" height="23.933"/>
		<polygon points="65.248,49.01 60.734,47.033 60.734,47.008 65.248,45.031 65.248,43.714 59.281,46.486 59.281,47.555 
			65.248,50.327 		"/>
		<polygon points="75.17,46.449 69.203,43.714 69.203,45.031 73.816,47.008 73.816,47.033 69.203,49.01 69.203,50.327 75.17,47.592 
					"/>
	</g>
</g>
</svg>
