<?xml version="1.0" encoding="utf-8"?>
<!-- Generator: Adobe Illustrator 16.0.0, SVG Export Plug-In . SVG Version: 6.00 Build 0)  -->
<!DOCTYPE svg PUBLIC "-//W3C//DTD SVG 1.1//EN" "http://www.w3.org/Graphics/SVG/1.1/DTD/svg11.dtd">
<svg version="1.1" id="Layer_1" xmlns="http://www.w3.org/2000/svg" xmlns:xlink="http://www.w3.org/1999/xlink" x="0px" y="0px"
	 width="126px" height="126px" viewBox="0 0 126 126" enable-background="new 0 0 126 126" xml:space="preserve">
<g>
	<path d="M83.557,88.94c-1.038,0-1.741,0.103-2.109,0.202v6.658c0.437,0.1,0.971,0.134,1.707,0.134c2.713,0,4.385-1.37,4.385-3.682
		C87.539,90.178,86.1,88.94,83.557,88.94z"/>
	<path d="M64.104,88.94c-1.038,0-1.741,0.103-2.109,0.202v6.658c0.438,0.1,0.972,0.134,1.708,0.134c2.713,0,4.384-1.37,4.384-3.682
		C68.086,90.178,66.647,88.94,64.104,88.94z"/>
	<path d="M99.98,36.45c-0.006-0.468-0.154-0.93-0.475-1.295L79.838,12.69c-0.004-0.006-0.01-0.008-0.016-0.014
		c-0.117-0.131-0.252-0.239-0.396-0.334c-0.043-0.028-0.086-0.053-0.131-0.078c-0.127-0.068-0.258-0.124-0.395-0.165
		c-0.037-0.011-0.07-0.026-0.107-0.036c-0.15-0.035-0.303-0.057-0.459-0.057H30c-2.205,0-4,1.795-4,4v94c0,2.206,1.795,4,4,4h66
		c2.207,0,4-1.794,4-4V36.674C100,36.599,99.988,36.524,99.98,36.45z M48.567,103.935c1.538,0,3.246-0.334,4.249-0.736l0.771,3.983
		c-0.937,0.471-3.047,0.972-5.792,0.972c-7.796,0-11.814-4.853-11.814-11.278c0-7.7,5.49-11.984,12.318-11.984
		c2.644,0,4.652,0.537,5.555,1.003l-1.037,4.051c-1.035-0.437-2.475-0.835-4.284-0.835c-4.051,0-7.196,2.44-7.196,7.462
		C41.336,101.09,44.015,103.935,48.567,103.935z M71.066,97.476c-1.74,1.641-4.317,2.377-7.331,2.377c-0.67,0-1.271-0.032-1.741-0.1
		v8.065h-5.053V85.561c1.574-0.268,3.783-0.47,6.895-0.47c3.146,0,5.39,0.603,6.896,1.81c1.439,1.135,2.411,3.011,2.411,5.22
		S72.403,96.205,71.066,97.476z M90.519,97.476c-1.74,1.641-4.317,2.377-7.33,2.377c-0.67,0-1.271-0.032-1.741-0.1v8.065h-5.054
		V85.561c1.574-0.268,3.782-0.47,6.896-0.47c3.145,0,5.389,0.603,6.894,1.81c1.44,1.135,2.411,3.011,2.411,5.22
		S91.858,96.205,90.519,97.476z M30,79.924V16.007h46.334v20.466c0,1.104,0.895,2,2,2H96l0.002,41.451H30z"/>
</g>
<g>
	<path d="M59.385,66.666c-1.489,0.663-4.306,1.215-7.507,1.215c-8.725,0-14.3-5.301-14.3-13.803c0-7.895,5.411-14.354,15.459-14.354
		c2.208,0,4.638,0.386,6.404,1.049l-1.325,6.238c-0.993-0.441-2.484-0.828-4.692-0.828c-4.417,0-7.288,3.147-7.233,7.564
		c0,4.969,3.313,7.563,7.399,7.563c1.987,0,3.533-0.33,4.803-0.828L59.385,66.666z"/>
	<path d="M69.699,47.617v5.069h4.86v2.187h-4.86v5.116H67.42v-5.116h-4.86v-2.187h4.86v-5.069H69.699z"/>
	<path d="M83.563,47.617v5.069h4.859v2.187h-4.859v5.116h-2.279v-5.116h-4.861v-2.187h4.861v-5.069H83.563z"/>
</g>
</svg>
