<?xml version="1.0" encoding="utf-8"?>
<!-- Generator: Adobe Illustrator 16.0.0, SVG Export Plug-In . SVG Version: 6.00 Build 0)  -->
<!DOCTYPE svg PUBLIC "-//W3C//DTD SVG 1.1//EN" "http://www.w3.org/Graphics/SVG/1.1/DTD/svg11.dtd">
<svg version="1.1" id="Layer_1" xmlns="http://www.w3.org/2000/svg" xmlns:xlink="http://www.w3.org/1999/xlink" x="0px" y="0px"
	 width="126px" height="126px" viewBox="0 0 126 126" enable-background="new 0 0 126 126" xml:space="preserve">
<g>
	<g>
		<path d="M99.873,36.931c-0.006-0.468-0.154-0.93-0.475-1.295L79.73,13.171c-0.004-0.006-0.01-0.008-0.016-0.014
			c-0.117-0.131-0.252-0.239-0.396-0.334c-0.043-0.028-0.086-0.053-0.131-0.078c-0.127-0.068-0.258-0.124-0.395-0.165
			c-0.037-0.011-0.07-0.026-0.107-0.036c-0.15-0.035-0.303-0.057-0.459-0.057H29.893c-2.205,0-4,1.795-4,4v94c0,2.206,1.795,4,4,4
			h66c2.207,0,4-1.794,4-4V37.155C99.893,37.08,99.881,37.005,99.873,36.931z M47.969,103.681c1.414,0,2.982-0.308,3.902-0.677
			l0.707,3.657c-0.859,0.431-2.797,0.891-5.314,0.891c-7.16,0-10.85-4.455-10.85-10.355c0-7.068,5.041-11.001,11.309-11.001
			c2.43,0,4.271,0.491,5.102,0.922l-0.953,3.718c-0.951-0.399-2.273-0.768-3.932-0.768c-3.719,0-6.607,2.242-6.607,6.852
			C41.332,101.069,43.789,103.681,47.969,103.681z M60.719,107.552c-2.365,0-4.701-0.614-5.869-1.26l0.953-3.873
			c1.26,0.646,3.195,1.291,5.193,1.291c2.15,0,3.287-0.891,3.287-2.242c0-1.291-0.982-2.029-3.471-2.919
			c-3.443-1.199-5.686-3.104-5.686-6.115c0-3.534,2.949-6.238,7.836-6.238c2.336,0,4.055,0.491,5.285,1.045l-1.045,3.778
			c-0.83-0.399-2.305-0.982-4.332-0.982c-2.029,0-3.012,0.922-3.012,1.997c0,1.321,1.168,1.905,3.842,2.919
			c3.656,1.353,5.377,3.259,5.377,6.178C69.078,104.602,66.404,107.552,60.719,107.552z M83.088,107.245
			c-0.338-0.583-0.83-2.273-1.445-4.825c-0.553-2.58-1.443-3.287-3.35-3.317h-1.412v8.143H72.24V86.81
			c1.506-0.246,3.748-0.431,6.238-0.431c3.072,0,5.225,0.462,6.699,1.629c1.229,0.983,1.904,2.428,1.904,4.333
			c0,2.643-1.875,4.455-3.656,5.101v0.093c1.443,0.584,2.242,1.967,2.766,3.872c0.645,2.335,1.291,5.039,1.689,5.838H83.088z
			 M29.893,80.405V16.488h46.334v20.466c0,1.104,0.895,2,2,2h17.666l0.002,41.451H29.893z"/>
		<path d="M79,89.853c-1.137,0-1.781,0.092-2.119,0.152v5.717h1.844c2.334,0,3.717-1.169,3.717-2.982
			C82.441,90.835,81.152,89.882,79,89.853z"/>
	</g>
	<g>
		<path d="M55.291,41.407c-5.775-1.984-13.248,1.095-10.801,8.253c1.238,3.623,5.367,5.937,8.264,8.064
			c5.779,4.245-4.674,6.2-7.953,5.724c0.539-0.536,1.078-1.072,1.617-1.607c0.859,0.362,1.691,0.779,2.496,1.252
			c0.844,0.468,1.666,0.935,2.541,1.342c1.096,0.51,2.922,0.974,4.111,0.488c1.652-0.674,2.822-1.571,4.059-2.873
			c1.145-1.206,2.578-4.924,4.246-2.922c0.766,0.918,2.191,1.048,3.254,0.756c0.859-0.236,1.613-0.838,2.322-1.34
			c1.396-0.989,2.357-0.567,4.113-0.523c4.959,0.125,8.621-1.676,12.393-4.773c1.496-1.229-0.639-3.338-2.121-2.121
			c-3.34,2.742-6.857,4.561-11.311,3.656c-2.367-0.48-3.711,0.55-5.563,1.861c-0.701,0.496-3.037-1.623-4.066-1.623
			c-1.74,0-3.117,2.014-4.043,3.174c-1.98,2.478-4.244,4.595-7.512,2.825c-1.67-0.905-3.494-2.204-5.445-2.389
			c-3.207-0.302-5.324,2.239-4.902,5.356c0.822,6.049,14.313,0.859,16.318-1.263c2.768-2.927-0.803-6.009-3.041-7.591
			c-2.77-1.957-6.887-4.272-7.313-8.007c-0.506-4.425,5.43-3.552,7.539-2.827C56.328,44.93,57.109,42.032,55.291,41.407
			L55.291,41.407z"/>
	</g>
</g>
</svg>
