<?xml version="1.0" encoding="utf-8"?>
<!-- Generator: Adobe Illustrator 16.0.0, SVG Export Plug-In . SVG Version: 6.00 Build 0)  -->
<!DOCTYPE svg PUBLIC "-//W3C//DTD SVG 1.1//EN" "http://www.w3.org/Graphics/SVG/1.1/DTD/svg11.dtd">
<svg version="1.1" id="Layer_1" xmlns="http://www.w3.org/2000/svg" xmlns:xlink="http://www.w3.org/1999/xlink" x="0px" y="0px"
	 width="126px" height="126px" viewBox="0 0 126 126" enable-background="new 0 0 126 126" xml:space="preserve">
<g>
	<g>
		<path d="M99.873,36.402c-0.006-0.468-0.154-0.93-0.475-1.295L79.73,12.643c-0.004-0.006-0.01-0.008-0.016-0.014
			c-0.117-0.131-0.252-0.239-0.396-0.334c-0.043-0.028-0.086-0.053-0.131-0.078c-0.127-0.068-0.258-0.124-0.395-0.165
			c-0.037-0.011-0.07-0.026-0.107-0.036c-0.15-0.035-0.303-0.057-0.459-0.057H29.893c-2.205,0-4,1.795-4,4v94c0,2.206,1.795,4,4,4
			h66c2.207,0,4-1.794,4-4V36.626C99.893,36.551,99.881,36.477,99.873,36.402z M44.852,105.02c1.559,0,3.285-0.339,4.303-0.745
			l0.779,4.031c-0.949,0.475-3.084,0.982-5.861,0.982c-7.893,0-11.957-4.912-11.957-11.416c0-7.791,5.555-12.127,12.465-12.127
			c2.678,0,4.709,0.542,5.623,1.017l-1.049,4.099c-1.051-0.44-2.508-0.847-4.336-0.847c-4.1,0-7.283,2.473-7.283,7.554
			C37.535,102.141,40.244,105.02,44.852,105.02z M71.953,98.922c0,7.047-3.557,10.4-9.518,10.4c-5.76,0-9.146-3.185-9.146-10.468
			V86.118h5.184v13.143c0,3.93,1.49,5.929,4.131,5.929c2.711,0,4.201-1.897,4.201-5.929V86.118h5.148V98.922z M88.387,108.949
			c-0.373-0.644-0.914-2.507-1.592-5.318c-0.609-2.846-1.592-3.625-3.693-3.658h-1.559v8.977H76.43V86.423
			c1.658-0.271,4.131-0.475,6.875-0.475c3.389,0,5.76,0.509,7.385,1.796c1.355,1.084,2.102,2.676,2.102,4.776
			c0,2.913-2.066,4.911-4.031,5.623v0.102c1.592,0.644,2.473,2.168,3.049,4.268c0.711,2.575,1.422,5.556,1.863,6.437H88.387z
			 M29.893,79.876V15.959h46.334v20.466c0,1.104,0.895,2,2,2h17.666l0.002,41.451H29.893z"/>
		<path d="M83.881,89.776c-1.254,0-1.965,0.102-2.338,0.169v6.301h2.033c2.574,0,4.1-1.287,4.1-3.285
			C87.676,90.86,86.252,89.811,83.881,89.776z"/>
	</g>
	<polygon points="62.186,49.655 74.715,46.513 47.617,38.215 55.914,65.313 59.057,52.784 75.039,68.769 78.17,65.64 	"/>
</g>
</svg>
