<?xml version="1.0" encoding="utf-8"?>
<!-- Generator: Adobe Illustrator 16.0.0, SVG Export Plug-In . SVG Version: 6.00 Build 0)  -->
<!DOCTYPE svg PUBLIC "-//W3C//DTD SVG 1.1//EN" "http://www.w3.org/Graphics/SVG/1.1/DTD/svg11.dtd">
<svg version="1.1" id="Layer_1" xmlns="http://www.w3.org/2000/svg" xmlns:xlink="http://www.w3.org/1999/xlink" x="0px" y="0px"
	 width="126px" height="126px" viewBox="0 0 126 126" enable-background="new 0 0 126 126" xml:space="preserve">
<g>
	<g>
		<path d="M40.12,88.889c-1.044,0-1.72,0.093-2.12,0.185v13.551c0.4,0.094,1.045,0.094,1.629,0.094
			c4.241,0.029,7.006-2.307,7.006-7.253C46.666,91.163,44.146,88.889,40.12,88.889z"/>
		<path d="M100.124,36.531c-0.006-0.468-0.154-0.93-0.475-1.295L79.981,12.771c-0.004-0.006-0.01-0.008-0.016-0.014
			c-0.117-0.131-0.252-0.239-0.396-0.334c-0.043-0.028-0.086-0.053-0.131-0.078c-0.127-0.068-0.258-0.124-0.395-0.165
			c-0.037-0.011-0.07-0.026-0.107-0.036c-0.15-0.035-0.303-0.057-0.459-0.057H30.143c-2.205,0-4,1.795-4,4v94c0,2.206,1.795,4,4,4
			h66c2.207,0,4-1.794,4-4V36.755C100.143,36.68,100.131,36.605,100.124,36.531z M48.171,103.7c-2.182,1.813-5.5,2.673-9.556,2.673
			c-2.428,0-4.148-0.152-5.317-0.307V85.724c1.721-0.276,3.964-0.431,6.331-0.431c3.933,0,6.484,0.706,8.481,2.213
			c2.151,1.597,3.503,4.147,3.503,7.805C51.613,99.274,50.169,102.01,48.171,103.7z M67.897,106.158H54.684V85.447h12.784v3.841
			h-8.082v4.302h7.621v3.81h-7.621v4.917h8.512V106.158z M88.913,106.158l-0.307-7.928c-0.092-2.489-0.185-5.501-0.185-8.512H88.33
			c-0.646,2.643-1.506,5.592-2.305,8.02l-2.52,8.083h-3.657L77.636,97.8c-0.676-2.428-1.382-5.378-1.875-8.081H75.7
			c-0.123,2.795-0.215,5.991-0.368,8.572l-0.369,7.867H70.63l1.321-20.711h6.238l2.028,6.914c0.645,2.396,1.29,4.978,1.751,7.404
			h0.092c0.584-2.396,1.291-5.132,1.967-7.436l2.213-6.883h6.114l1.137,20.711H88.913z M30.143,80.005V16.088h46.334v20.466
			c0,1.104,0.895,2,2,2h17.666l0.002,41.451H30.143z"/>
	</g>
	<path d="M77.9,43.214H63.575l-2.746-0.031c-0.206-0.515-0.291-1.003-0.305-1.417c-0.104-2.915,2.694-5.437,3.902-6.386
		c1.601-1.258,2.436-2.543,2.882-4.435c0.294-1.249-0.405-2.656-1.205-3.992l-0.733-1.216c-1.865-3.078-3.626-5.986-4.525-9.791
		c-0.074-0.313-0.222-0.635-0.758-0.635c-0.382,0-0.784,0.185-1.002,0.46c-0.175,0.222-0.22,0.48-0.141,0.815
		c0.679,2.87,1.867,5.688,3.74,8.865l0.235,0.396c1.312,2.203,3.507,5.889-0.754,8.683c-0.894,0.586-1.739,1.14-2.31,1.887
		c-1.06,1.385-1.474,3.369-1.136,5.444c0.076,0.464,0.193,0.914,0.333,1.352H47.529c-7.344,0-13.297,5.953-13.297,13.297
		c0,7.345,5.953,13.298,13.297,13.298c7.141,0,12.966-5.63,13.283-12.693h3.806c0.316,7.063,6.142,12.693,13.283,12.693
		c7.344,0,13.297-5.953,13.297-13.298C91.197,49.167,85.244,43.214,77.9,43.214z M48.389,49.719
		c1.358-0.498,2.863,0.199,3.361,1.557c0.498,1.358-0.199,2.863-1.557,3.361c-1.358,0.498-2.863-0.199-3.361-1.558
		C46.334,51.721,47.031,50.217,48.389,49.719z M40.4,55.438c-0.498-1.358,0.199-2.863,1.557-3.361
		c1.358-0.498,2.863,0.199,3.361,1.558c0.498,1.358-0.199,2.863-1.557,3.361C42.403,57.492,40.898,56.795,40.4,55.438z
		 M46.074,63.304c-1.358,0.498-2.863-0.199-3.361-1.558c-0.498-1.357,0.2-2.862,1.558-3.36c1.358-0.498,2.863,0.199,3.361,1.558
		C48.13,61.301,47.433,62.806,46.074,63.304z M52.506,60.945c-1.358,0.498-2.863-0.199-3.361-1.557
		c-0.498-1.358,0.199-2.863,1.558-3.361s2.863,0.199,3.361,1.558S53.864,60.447,52.506,60.945z M84.747,58.267h-4.591v4.591h-3.511
		v-4.591h-4.591v-3.511h4.591v-4.592h3.511v4.592h4.591V58.267z"/>
</g>
</svg>
