<?xml version="1.0" encoding="utf-8"?>
<!-- Generator: Adobe Illustrator 16.0.0, SVG Export Plug-In . SVG Version: 6.00 Build 0)  -->
<!DOCTYPE svg PUBLIC "-//W3C//DTD SVG 1.1//EN" "http://www.w3.org/Graphics/SVG/1.1/DTD/svg11.dtd">
<svg version="1.1" id="Layer_1" xmlns="http://www.w3.org/2000/svg" xmlns:xlink="http://www.w3.org/1999/xlink" x="0px" y="0px"
	 width="126px" height="126px" viewBox="0 0 126 126" enable-background="new 0 0 126 126" xml:space="preserve">
<g>
	<g>
		<path d="M99.98,38.278c-0.006-0.468-0.154-0.93-0.475-1.295L79.838,14.519c-0.004-0.006-0.01-0.008-0.016-0.014
			c-0.117-0.131-0.252-0.239-0.396-0.334c-0.043-0.028-0.086-0.053-0.131-0.078c-0.127-0.068-0.258-0.124-0.395-0.165
			c-0.037-0.011-0.07-0.026-0.107-0.036c-0.15-0.035-0.303-0.057-0.459-0.057H30c-2.205,0-4,1.795-4,4v94c0,2.206,1.795,4,4,4h66
			c2.207,0,4-1.794,4-4V38.502C100,38.427,99.988,38.353,99.98,38.278z M45.648,106.11c-2.166,1.801-5.461,2.655-9.49,2.655
			c-2.41,0-4.119-0.153-5.277-0.305V88.26c1.707-0.275,3.936-0.428,6.285-0.428c3.906,0,6.439,0.701,8.422,2.197
			c2.137,1.586,3.479,4.119,3.479,7.75C49.066,101.717,47.633,104.432,45.648,106.11z M69.82,108.552l-0.305-7.872
			c-0.092-2.473-0.184-5.463-0.184-8.454H69.24c-0.641,2.624-1.494,5.554-2.287,7.966l-2.504,8.024h-3.631l-2.197-7.964
			c-0.672-2.41-1.373-5.34-1.861-8.026h-0.061c-0.121,2.777-0.213,5.951-0.367,8.515l-0.365,7.812h-4.303l1.313-20.567h6.193
			l2.016,6.865c0.641,2.381,1.281,4.944,1.738,7.355h0.092c0.58-2.381,1.281-5.097,1.953-7.385l2.197-6.836h6.072l1.129,20.567
			H69.82z M95.121,107.606c-1.434,0.488-4.148,1.159-6.865,1.159c-3.754,0-6.469-0.945-8.361-2.777
			c-1.891-1.77-2.928-4.455-2.898-7.476C77.027,91.677,82,87.771,88.744,87.771c2.654,0,4.699,0.519,5.707,1.006L93.475,92.5
			c-1.129-0.488-2.533-0.885-4.791-0.885c-3.875,0-6.805,2.197-6.805,6.652c0,4.242,2.654,6.744,6.469,6.744
			c1.068,0,1.922-0.121,2.289-0.305v-4.303h-3.174v-3.631h7.658V107.606z M30,81.752V17.835h46.334v20.466c0,1.104,0.895,2,2,2H96
			l0.002,41.451H30z"/>
		<path d="M37.654,91.402c-1.039,0-1.709,0.092-2.105,0.184v13.457c0.396,0.092,1.037,0.092,1.617,0.092
			c4.211,0.03,6.957-2.289,6.957-7.202C44.154,93.66,41.652,91.402,37.654,91.402z"/>
	</g>
	<g>
		<path d="M87.279,58.16l-3.275-20.893c-0.023-0.151-0.152-0.264-0.307-0.264H40.643c-0.154,0-0.285,0.112-0.309,0.264l-3.279,20.92
			c-0.023,0.045-0.039,0.098-0.039,0.152v13.257c0,0.173,0.139,0.312,0.313,0.312h49.713c0.172,0,0.311-0.139,0.311-0.312V58.34
			C87.352,58.273,87.324,58.211,87.279,58.16z M62.844,41.344c7.404,0,13.406,3.098,13.406,6.918s-6.002,6.917-13.406,6.917
			s-13.406-3.097-13.406-6.917S55.439,41.344,62.844,41.344z M85.07,69.628H39.297v-9.319H85.07V69.628z"/>
		<path d="M78.879,66.73h3.938c0.172,0,0.311-0.139,0.311-0.312v-3.937c0-0.172-0.139-0.311-0.311-0.311h-3.938
			c-0.172,0-0.311,0.139-0.311,0.311v3.937C78.568,66.592,78.707,66.73,78.879,66.73z"/>
		<path d="M43.254,66.73h3.936c0.172,0,0.311-0.139,0.311-0.312v-3.937c0-0.172-0.139-0.311-0.311-0.311h-3.936
			c-0.172,0-0.313,0.139-0.313,0.311v3.937C42.941,66.592,43.082,66.73,43.254,66.73z"/>
		<path d="M49.748,66.73h3.932c0.172,0,0.311-0.139,0.311-0.312v-3.937c0-0.172-0.139-0.311-0.311-0.311h-3.932
			c-0.172,0-0.311,0.139-0.311,0.311v3.937C49.438,66.592,49.576,66.73,49.748,66.73z"/>
		<path d="M56.65,66.73h3.938c0.172,0,0.311-0.139,0.311-0.312v-3.937c0-0.172-0.139-0.311-0.311-0.311H56.65
			c-0.172,0-0.311,0.139-0.311,0.311v3.937C56.34,66.592,56.479,66.73,56.65,66.73z"/>
		<ellipse cx="62.793" cy="48.097" rx="10.918" ry="5.609"/>
	</g>
</g>
</svg>
