<?xml version="1.0" encoding="utf-8"?>
<!-- Generator: Adobe Illustrator 16.0.0, SVG Export Plug-In . SVG Version: 6.00 Build 0)  -->
<!DOCTYPE svg PUBLIC "-//W3C//DTD SVG 1.1//EN" "http://www.w3.org/Graphics/SVG/1.1/DTD/svg11.dtd">
<svg version="1.1" id="Layer_1" xmlns="http://www.w3.org/2000/svg" xmlns:xlink="http://www.w3.org/1999/xlink" x="0px" y="0px"
	 width="126px" height="126px" viewBox="0 0 126 126" enable-background="new 0 0 126 126" xml:space="preserve">
<g>
	<g>
		<path d="M84.682,90.504c-0.905,0-1.517,0.087-1.838,0.175v5.807c0.379,0.088,0.846,0.117,1.488,0.117
			c2.363,0,3.822-1.196,3.822-3.211C88.154,91.584,86.899,90.504,84.682,90.504z"/>
		<path d="M39.918,90.563c-0.992,0-1.634,0.087-2.014,0.175v12.867c0.379,0.087,0.992,0.087,1.547,0.087
			c4.026,0.03,6.652-2.188,6.652-6.886C46.133,92.722,43.74,90.563,39.918,90.563z"/>
		<path d="M99.98,36.548c-0.006-0.468-0.154-0.93-0.475-1.295L79.838,12.788c-0.004-0.006-0.01-0.008-0.016-0.014
			c-0.117-0.131-0.252-0.239-0.396-0.334c-0.043-0.028-0.086-0.053-0.131-0.078c-0.127-0.068-0.258-0.124-0.395-0.165
			c-0.037-0.011-0.07-0.026-0.107-0.036c-0.15-0.035-0.303-0.057-0.459-0.057H30c-2.205,0-4,1.795-4,4v94c0,2.206,1.795,4,4,4h66
			c2.207,0,4-1.794,4-4V36.771C100,36.696,99.988,36.622,99.98,36.548z M47.563,104.626c-2.071,1.721-5.223,2.538-9.074,2.538
			c-2.305,0-3.939-0.147-5.047-0.292V87.558c1.634-0.262,3.764-0.409,6.01-0.409c3.734,0,6.156,0.672,8.053,2.101
			c2.042,1.518,3.326,3.939,3.326,7.411C50.83,100.425,49.459,103.021,47.563,104.626z M70.673,106.96l-0.292-7.527
			c-0.087-2.363-0.175-5.223-0.175-8.083h-0.087c-0.613,2.509-1.43,5.311-2.188,7.616l-2.393,7.672h-3.472l-2.101-7.613
			c-0.643-2.306-1.313-5.106-1.78-7.675h-0.059c-0.117,2.656-0.204,5.69-0.351,8.142l-0.35,7.469h-4.113l1.254-19.664h5.923
			l1.925,6.563c0.613,2.276,1.226,4.728,1.664,7.033h0.088c0.554-2.277,1.225-4.873,1.867-7.061l2.101-6.535h5.806l1.08,19.664
			H70.673z M90.75,97.944c-1.517,1.429-3.764,2.071-6.39,2.071c-0.584,0-1.108-0.028-1.517-0.089v7.033h-4.406V87.558
			c1.371-0.233,3.297-0.409,6.01-0.409c2.742,0,4.697,0.525,6.01,1.575c1.254,0.992,2.101,2.626,2.101,4.553
			C92.559,95.201,91.917,96.835,90.75,97.944z M30,80.021V16.104h46.334V36.57c0,1.104,0.895,2,2,2H96l0.002,41.451H30z"/>
	</g>
	<path d="M82.626,48.597h-2.693V29.795H39.075v32.291h13.949v2.966H49.07v2.855h18.461v7.151h19.394V52.733L82.626,48.597z
		 M83.084,50.543l2.094,2.015h-2.094V50.543z M42.59,58.571V33.31h33.829v15.287h-8.888v9.975H42.59z M64.776,65.052v-2.966h2.754
		v2.966H64.776z M85.841,73.976H68.614V49.682H82v3.959h3.84V73.976z"/>
	<g>
		<rect x="70.5" y="56.462" width="11.75" height="1"/>
		<rect x="70.5" y="61.629" width="11.75" height="1"/>
		<rect x="70.5" y="67.087" width="11.75" height="1"/>
	</g>
</g>
</svg>
