<?xml version="1.0" encoding="utf-8"?>
<!-- Generator: Adobe Illustrator 16.0.0, SVG Export Plug-In . SVG Version: 6.00 Build 0)  -->
<!DOCTYPE svg PUBLIC "-//W3C//DTD SVG 1.1//EN" "http://www.w3.org/Graphics/SVG/1.1/DTD/svg11.dtd">
<svg version="1.1" id="Layer_1" xmlns="http://www.w3.org/2000/svg" xmlns:xlink="http://www.w3.org/1999/xlink" x="0px" y="0px"
	 width="126px" height="126px" viewBox="0 0 126 126" enable-background="new 0 0 126 126" xml:space="preserve">
<g>
	<path d="M100.123,36.531c-0.006-0.468-0.154-0.93-0.475-1.295L79.98,12.771c-0.004-0.006-0.01-0.008-0.016-0.014
		c-0.117-0.131-0.252-0.239-0.396-0.334c-0.043-0.028-0.086-0.053-0.131-0.078c-0.127-0.068-0.258-0.124-0.395-0.165
		c-0.037-0.011-0.07-0.026-0.107-0.036c-0.15-0.035-0.303-0.057-0.459-0.057H30.143c-2.205,0-4,1.795-4,4v94c0,2.206,1.795,4,4,4h66
		c2.207,0,4-1.794,4-4V36.755C100.143,36.68,100.131,36.605,100.123,36.531z M46.482,104.335c-2.086,1.734-5.258,2.556-9.137,2.556
		c-2.32,0-3.967-0.146-5.082-0.292V87.15c1.645-0.266,3.789-0.412,6.051-0.412c3.762,0,6.199,0.676,8.109,2.116
		c2.057,1.526,3.348,3.965,3.348,7.461C49.771,100.106,48.393,102.721,46.482,104.335z M71.158,106.687h-4.848l-1.676-8.52
		c-0.381-1.998-0.705-3.849-0.939-6.111h-0.059c-0.354,2.234-0.676,4.113-1.145,6.111l-1.881,8.52h-4.906l-4.701-19.802h4.789
		l1.498,8.168c0.441,2.35,0.852,4.905,1.176,6.902h0.059c0.324-2.143,0.793-4.523,1.293-6.962l1.674-8.108h4.76l1.586,8.343
		c0.441,2.321,0.764,4.437,1.059,6.641h0.059c0.293-2.204,0.732-4.523,1.145-6.875l1.617-8.108h4.553L71.158,106.687z
		 M94.891,105.775c-1.381,0.469-3.994,1.115-6.609,1.115c-3.613,0-6.229-0.91-8.049-2.672c-1.822-1.705-2.822-4.289-2.791-7.197
		c0.029-6.581,4.816-10.342,11.311-10.342c2.555,0,4.523,0.498,5.494,0.969l-0.941,3.584c-1.086-0.469-2.438-0.852-4.611-0.852
		c-3.73,0-6.553,2.115-6.553,6.405c0,4.083,2.557,6.491,6.229,6.491c1.029,0,1.852-0.116,2.203-0.293v-4.143h-3.055v-3.496h7.373
		V105.775z M30.143,80.005V16.088h46.334v20.466c0,1.104,0.895,2,2,2h17.666l0.002,41.451H30.143z"/>
	<path d="M38.785,90.176c-0.998,0-1.645,0.088-2.027,0.177v12.955c0.383,0.088,1,0.088,1.557,0.088
		c4.055,0.029,6.697-2.204,6.697-6.934C45.043,92.351,42.635,90.176,38.785,90.176z"/>
</g>
<g>
	<path d="M96.969,37.846H56.143V29.92h-7.926V15.016h-2V29.92h-7.924v7.926h-9.15v2h9.15v7.924h7.924v34.81h2V47.77h7.926v-7.924
		h40.826V37.846z M54.143,45.77h-13.85V31.92h13.85V45.77z"/>
	<circle cx="47.217" cy="38.845" r="3.175"/>
</g>
</svg>
