<?xml version="1.0" encoding="utf-8"?>
<!-- Generator: Adobe Illustrator 16.0.0, SVG Export Plug-In . SVG Version: 6.00 Build 0)  -->
<!DOCTYPE svg PUBLIC "-//W3C//DTD SVG 1.1//EN" "http://www.w3.org/Graphics/SVG/1.1/DTD/svg11.dtd">
<svg version="1.1" id="Layer_1" xmlns="http://www.w3.org/2000/svg" xmlns:xlink="http://www.w3.org/1999/xlink" x="0px" y="0px"
	 width="126px" height="126px" viewBox="0 0 126 126" enable-background="new 0 0 126 126" xml:space="preserve">
<g>
	<g>
		<path d="M42.076,89.876c-1.141,0-1.88,0.1-2.317,0.202v14.813c0.437,0.1,1.143,0.1,1.78,0.1c4.636,0.035,7.658-2.52,7.658-7.927
			C49.231,92.362,46.477,89.876,42.076,89.876z"/>
		<path d="M99.874,36.972c-0.006-0.468-0.154-0.93-0.475-1.295L79.731,13.212c-0.004-0.006-0.01-0.008-0.016-0.014
			c-0.117-0.131-0.252-0.239-0.396-0.334c-0.043-0.028-0.086-0.053-0.131-0.078c-0.127-0.068-0.258-0.124-0.395-0.165
			c-0.037-0.011-0.07-0.026-0.107-0.036c-0.15-0.035-0.303-0.057-0.459-0.057H29.893c-2.205,0-4,1.795-4,4v94c0,2.206,1.795,4,4,4
			h66c2.207,0,4-1.794,4-4V37.196C99.893,37.121,99.881,37.046,99.874,36.972z M50.877,106.066
			c-2.384,1.983-6.012,2.923-10.446,2.923c-2.654,0-4.534-0.167-5.812-0.336V86.417c1.881-0.303,4.333-0.471,6.919-0.471
			c4.3,0,7.088,0.772,9.272,2.419c2.351,1.746,3.829,4.534,3.829,8.531C54.64,101.229,53.061,104.218,50.877,106.066z
			 M68.813,108.754l-2.049-4.098c-0.84-1.58-1.377-2.756-2.016-4.064h-0.067c-0.47,1.309-1.042,2.484-1.747,4.064l-1.88,4.098
			h-5.846l6.55-11.453l-6.315-11.188h5.878l1.981,4.132c0.672,1.377,1.176,2.485,1.713,3.761h0.067
			c0.537-1.441,0.974-2.451,1.545-3.761l1.915-4.132h5.845l-6.382,11.052l6.717,11.589H68.813z M91.315,90.313h-8.7v5.174h8.129
			v4.164h-8.129v9.104h-5.14V86.114h13.839V90.313z M29.893,80.446V16.529h46.334v20.466c0,1.104,0.895,2,2,2h17.666l0.002,41.451
			H29.893z"/>
	</g>
	<path fill-rule="evenodd" clip-rule="evenodd" d="M85.377,71.167c-2.573-6.107-5.15-12.214-7.73-18.318
		c-1.416-3.349-2.844-6.69-4.258-10.04c-1.541-3.647-3.079-7.296-4.599-10.952c-0.333-0.8-0.83-1.352-1.713-1.493
		c-0.041-0.007-13.148,0.048-13.174,0.048c-0.829-0.01-1.302,0.471-1.604,1.172c-0.414,0.965-0.814,1.935-1.219,2.902
		c-1.507,3.604-3.014,7.205-4.519,10.808c-1.881,4.501-3.761,9.001-5.641,13.502c-0.167,0.397-0.359,0.788-0.495,1.197
		c-0.073,0.218-0.121,0.426-0.149,0.626l-0.031-0.033c0,0,0.004,0.069,0.012,0.195c-0.026,0.294-0.006,0.568,0.056,0.818
		l3.107,8.654c0.936,3.034,2.347,2.068,3.959,1.407c1.613-0.66,19.309-8.199,19.309-8.199l-23.205-0.235l8.339-0.67l7.84-18.907
		L56.17,32.508l4.625,9.902c1.065,2.526,2.123,5.054,3.189,7.579c1.915,4.532,3.836,9.06,5.747,13.595
		c1.587,3.764,1.73,4.096,3.311,7.863c4.143,0,8.284,0,12.427,0C84.961,70.207,85.897,72.403,85.377,71.167z"/>
</g>
</svg>
