<?xml version="1.0" encoding="utf-8"?>
<!-- Generator: Adobe Illustrator 16.0.0, SVG Export Plug-In . SVG Version: 6.00 Build 0)  -->
<!DOCTYPE svg PUBLIC "-//W3C//DTD SVG 1.1//EN" "http://www.w3.org/Graphics/SVG/1.1/DTD/svg11.dtd">
<svg version="1.1" id="Layer_1" xmlns="http://www.w3.org/2000/svg" xmlns:xlink="http://www.w3.org/1999/xlink" x="0px" y="0px"
	 width="126px" height="126px" viewBox="0 0 126 126" enable-background="new 0 0 126 126" xml:space="preserve">
<g>
	<path d="M99.98,36.442c-0.006-0.468-0.154-0.929-0.475-1.295L79.838,12.682c-0.004-0.005-0.01-0.008-0.016-0.013
		c-0.117-0.132-0.252-0.239-0.396-0.334c-0.043-0.028-0.086-0.054-0.131-0.078c-0.127-0.069-0.258-0.124-0.395-0.165
		c-0.037-0.011-0.07-0.027-0.107-0.035C78.643,12.021,78.49,12,78.334,12H30c-2.205,0-4,1.794-4,4v94c0,2.205,1.795,4,4,4h66
		c2.207,0,4-1.795,4-4V36.666C100,36.591,99.988,36.517,99.98,36.442z M52.254,107.693H36.775V83.432H51.75v4.5h-9.467v5.039h8.928
		v4.463h-8.928v5.76h9.971V107.693z M71.154,107.693H56V83.432h5.508v19.654h9.646V107.693z M89.227,87.932h-9.324v5.543h8.711
		v4.463h-8.711v9.756h-5.508V83.432h14.832V87.932z M30,79.916V16h46.334v20.465c0,1.104,0.895,2,2,2H96l0.002,41.451H30z"/>
	<path d="M63.908,69.074c-0.788-0.503-1.426-1.093-1.857-1.904c-0.385-0.725-0.838-0.789-0.838,0.032
		c0,0.849,0.514,1.449,1.571,2.038c0.335,0.186,0.782,0.302,0.794,0.773c0.011,0.407-0.35,0.604-0.671,0.715
		c-1.825,0.629-3.446,1.591-5.026,2.7c-1.164,0.816-2.463,0.195-2.494-1.107c-0.05-1.951,0.098-3.905-0.238-5.846
		c-0.065-0.37-0.035-0.848,0.443-0.977c0.434-0.118,0.58,0.299,0.752,0.586c0.582,0.982,1.447,1.206,2.469,0.891
		c1.409-0.434,2.965-2.67,2.79-4.147c-0.325-2.769-1.149-5.416-3.038-7.506c-0.537-0.594-1.047-1.24-1.459-1.928
		c-0.116-0.196-0.218-0.396-0.322-0.595c-0.512-0.95-1.03-2.315-1.161-3.275c-0.13-0.756-0.11-3.339-0.578-4.764
		c-0.447-1.268-1.29-2.519-2.493-3.172c-0.857-0.466-1.863-0.789-2.842-0.83c-0.548-0.023-1.139,0.03-1.672,0.163
		c-1.926,0.479-3.123,2.041-3.354,4.459c-0.065,0.689-0.066,1.396,0.018,2.082c0.391,3.214,0.053,6.091-2.346,8.681
		c-1.67,1.804-2.032,4.475-3.032,6.732c-0.36,0.817-0.32,1.783,1.111,1.66c0.45-0.04,0.798,0.331,1.088,0.654
		c1.545,1.729,2.809,3.652,3.822,5.731c0.362,0.744,0.614,1.602-0.014,2.343c-0.585,0.692-1.431,0.603-2.191,0.436
		c-1.953-0.425-3.89-0.919-5.832-1.39c-0.865-0.21-1.141-0.705-0.755-1.545c0.225-0.487,0.326-1.011,0.084-1.518
		c-0.547-1.14-0.191-1.658,1.053-1.812c0.59-0.074,1.063-0.292,1.327-0.746c0.413-0.71-0.141-0.836-0.837-0.399
		c-0.489,0.306-1.025,0.438-1.618,0.491c-0.858,0.078-1.134,0.679-0.97,1.514c0.167,0.847,0.314,1.665-0.011,2.555
		c-0.5,1.359-0.165,1.941,1.274,2.244c0.728,0.154,6.893,1.773,7.008,1.822c1.094,0.476,3.412-2.567,4.259-2.567
		c0.062,0,0.122,0,0.183,0c1.529,0,3.184,0.497,4.645,0.486c0.553-0.004,0.979,0.468,1.375,0.875
		c1.36,1.387,3.009,1.592,4.492,0.326c1.033-0.882,2.139-1.567,3.375-2.134c0.058-0.026,0.115-0.046,0.172-0.064
		c0.094-0.033,0.731-0.435,1.309-1.019C64.342,70.142,64.594,69.514,63.908,69.074z M53.426,69.399
		c-1.789,1.846-3.852,2.181-6.174,1.151c-0.19-0.084-1.35-0.417-0.957-0.883c0.67-0.797,0.439-1.534-0.255-2.187
		c-0.479-0.451-1.69-1.509-2.507-2.448c-0.539-0.62-1.12-1.836-1.27-2.643c-0.291-1.563-0.075-3.364-0.075-3.364
		c0.029-0.177,0.091-0.261,0.161-0.294c0.174-0.082,0.145,0.739,0.2,1.558c0.006,0.082,0.013,0.165,0.022,0.245
		c0.094,0.815,0.461,0.782,0.685-0.009c0.343-1.21,0.839-2.376,1.468-3.536c0.51-0.941,0.375-2.256,0.982-3.308
		c0.354-0.615,0.575-0.821,1.063-0.166c0.72,0.967,1.562,0.941,2.492,0.288c0.677-0.473,1.389-0.892,2.079-1.348
		c0.271-0.177,0.757-0.331,0.501-0.746c-0.229-0.37-0.627-0.088-0.936,0.05c-0.539,0.243-1.055,0.567-1.661,0.76
		c-0.782,0.25-0.85-0.104-0.085-0.405c0.847-0.333,1.629-0.641,2.408-0.956c0.277-0.112,0.67-0.286,0.488-0.629
		c-0.209-0.392-0.519-0.038-0.771,0.083c-1.109,0.527-2.256,0.913-3.502,0.898c-0.787-0.01-1.404-0.426-1.602-1.117
		c-0.191-0.674,0.606-0.814,0.99-1.189c0.137-0.134,0.275-0.253,0.412-0.352c0.244-0.175,0.467-0.304,0.462-0.366
		c-0.003-0.063,0-0.111,0-0.111c0.065-0.487,0.05-0.844-0.01-1.105c-0.138-0.598-1.306-0.825-1.667-0.379
		c-0.316,0.39-0.316,0.974-0.316,0.974c0.017,0.223-0.038,0.342-0.118,0.403c-0.192,0.145-0.448-0.678-0.201-1.46
		c0.273-0.864,0.758-0.998,1.288-0.998c1.943-0.001,1.777,2.694,1.715,2.746c-0.006,0.006-0.012,0.009-0.018,0.013
		c-0.01,0.006,0.193,0.067,0.412,0.212c0.221,0.146,0.445-0.009,0.477-0.406c0.018-0.24,0.026-0.484,0.043-0.72
		c0.015-1.579,0.906-1.936,1.58-1.845c1.992,0.267,1.746,2.694,1.684,2.746c-0.217,0.181-0.365,0.245-0.469,0.244
		c-0.297-0.001-0.193-0.544-0.173-0.696c0.015-0.096,0.023-0.187,0.032-0.274c0-0.167-0.006-0.34-0.026-0.513
		c-0.034-0.281-0.196-0.658-0.368-0.774c-0.174-0.117-0.966-0.216-1.332,0.278c-0.367,0.495-0.361,1.326-0.329,1.669
		c0.021,0.234,0.078,0.456,0.234,0.557c0.326,0.211,0.678,0.406,1.046,0.523c0.74,0.235,1.084,0.635,0.876,1.453
		c-0.166,0.655-0.013,1.285,0.331,1.878c1.158,2.019,2.466,5.694,3.031,8.309c0.175,0.803,0.449,1.28,0.616,0.993
		c0.165-0.288,0.378-1.204,0.419-2.023c0.05-0.958-0.01-2.23-0.481-3.328c-0.324-0.754-0.228-0.873,0.237-0.196
		c0.521,0.761,1.012,1.992,0.852,3.855c-0.07,0.819,0.035,1.729,0.371,2.051c0.338,0.322,0.075,0.277-0.618,0.363
		c-0.692,0.086-1.118,0.719-1.17,0.928c-0.039,0.16-0.102,0.274-0.191,0.33c-1.671,1.006-1.445,2.486-1.315,4.006
		C54.523,68.611,53.572,69.246,53.426,69.399z M47.773,47.279c0.201,0.42,0.018,0.482-0.155,0.087S47.572,46.859,47.773,47.279z
		 M51.725,47.096c-0.25-0.342-0.082-0.514,0.211-0.155C52.227,47.299,51.975,47.437,51.725,47.096z"/>
	<path d="M75.336,35.481c-0.908-0.352-1.656-1.08-2.03-1.99c-0.377-0.905-0.364-1.943,0.029-2.844
		c0.035-0.082,0.018-0.181-0.048-0.246l-1.957-1.957c-0.064-0.065-0.165-0.083-0.247-0.048c-0.899,0.395-1.937,0.407-2.843,0.03
		c-0.906-0.373-1.636-1.118-1.99-2.034c-0.024-0.056-0.056-0.139-0.209-0.14l-2.77-0.001c-0.092,0.001-0.176,0.06-0.209,0.145
		c-0.356,0.915-1.08,1.655-1.989,2.032c-0.905,0.375-1.94,0.363-2.843-0.031c-0.084-0.036-0.182-0.019-0.248,0.048l-1.959,1.959
		c-0.064,0.064-0.082,0.161-0.046,0.246c0.396,0.901,0.405,1.935,0.032,2.843c-0.377,0.907-1.119,1.634-2.035,1.99
		c-0.084,0.034-0.141,0.117-0.141,0.208l-0.002,2.771c0.002,0.153,0.082,0.184,0.145,0.207c0.467,0.183,0.889,0.457,1.245,0.814
		c0.34,0.339,0.604,0.734,0.785,1.177c0.376,0.908,0.366,1.944-0.028,2.844c-0.036,0.082-0.018,0.183,0.048,0.247l1.956,1.957
		c0.066,0.066,0.164,0.084,0.246,0.048c0.902-0.394,1.937-0.406,2.845-0.03c0.884,0.367,1.591,1.079,1.958,1.955
		c0.091-0.074,0.193-0.135,0.307-0.18c0.161-0.062,0.291-0.188,0.354-0.342c0.063-0.15,0.061-0.332-0.006-0.483
		c-0.199-0.465-0.1-0.987,0.252-1.337l0.928-0.927c0.35-0.351,0.871-0.452,1.328-0.256c0.16,0.069,0.342,0.072,0.493,0.009
		c0.151-0.063,0.278-0.191,0.337-0.344c0.182-0.463,0.634-0.77,1.126-0.77l1.312,0c0.329,0.002,0.631,0.126,0.854,0.348l0.154,0.155
		l0.107,0.243c0.077,0.197,0.197,0.307,0.345,0.368c0.155,0.064,0.337,0.063,0.487-0.005c0.436-0.187,0.919-0.102,1.27,0.204
		l0.61-0.611c0.063-0.063,0.082-0.165,0.047-0.25c-0.394-0.9-0.405-1.936-0.03-2.841c0.377-0.909,1.117-1.635,2.033-1.992
		c0.082-0.032,0.141-0.116,0.142-0.207l-0.001-2.77C75.479,35.537,75.398,35.505,75.336,35.481z M68.465,40.883
		c-2.1,2.1-5.516,2.099-7.617-0.002c-2.098-2.099-2.098-5.513,0.002-7.613c2.098-2.099,5.516-2.102,7.615-0.002
		C70.565,35.366,70.563,38.784,68.465,40.883z"/>
	<path d="M72.833,50.578c0.179-0.43,0.529-0.774,0.963-0.942c0.039-0.015,0.065-0.057,0.067-0.099v-1.312
		c0-0.072-0.04-0.089-0.067-0.1c-0.431-0.166-0.787-0.512-0.963-0.941c-0.179-0.43-0.173-0.921,0.014-1.348
		c0.018-0.039,0.008-0.085-0.021-0.116l-0.928-0.928c-0.031-0.031-0.078-0.04-0.117-0.023c-0.426,0.188-0.918,0.192-1.346,0.016
		c-0.43-0.177-0.775-0.53-0.943-0.964c-0.012-0.026-0.027-0.066-0.1-0.067l-1.313,0c-0.043,0-0.084,0.028-0.1,0.068
		c-0.168,0.434-0.512,0.783-0.941,0.962c-0.43,0.178-0.92,0.173-1.346-0.014c-0.04-0.017-0.088-0.01-0.12,0.021l-0.927,0.928
		c-0.031,0.031-0.039,0.078-0.021,0.118c0.187,0.426,0.192,0.917,0.014,1.346c-0.178,0.43-0.528,0.776-0.963,0.944
		c-0.039,0.015-0.066,0.056-0.066,0.098v1.314c0,0.073,0.038,0.087,0.068,0.098c0.221,0.087,0.42,0.216,0.59,0.386
		c0.16,0.16,0.285,0.347,0.371,0.556c0.178,0.431,0.174,0.922-0.014,1.348c-0.018,0.039-0.008,0.087,0.023,0.118l0.927,0.927
		c0.03,0.031,0.077,0.04,0.116,0.022c0.427-0.187,0.917-0.192,1.348-0.014c0.43,0.179,0.773,0.531,0.943,0.963
		c0.012,0.029,0.027,0.067,0.098,0.068l1.313-0.001c0.043,0,0.082-0.027,0.098-0.067c0.17-0.434,0.514-0.785,0.943-0.963
		c0.43-0.179,0.92-0.173,1.348,0.015c0.039,0.016,0.086,0.009,0.117-0.022l0.928-0.927c0.029-0.031,0.039-0.079,0.021-0.118
		C72.66,51.499,72.655,51.008,72.833,50.578z M66.932,50.685c-0.995-0.996-0.994-2.612,0.001-3.607
		c0.994-0.994,2.611-0.997,3.607-0.001c0.994,0.995,0.994,2.614-0.001,3.608C69.544,51.68,67.927,51.679,66.932,50.685z"/>
</g>
</svg>
