<?xml version="1.0" encoding="utf-8"?>
<!-- Generator: Adobe Illustrator 16.0.0, SVG Export Plug-In . SVG Version: 6.00 Build 0)  -->
<!DOCTYPE svg PUBLIC "-//W3C//DTD SVG 1.1//EN" "http://www.w3.org/Graphics/SVG/1.1/DTD/svg11.dtd">
<svg version="1.1" id="Layer_1" xmlns="http://www.w3.org/2000/svg" xmlns:xlink="http://www.w3.org/1999/xlink" x="0px" y="0px"
	 width="126px" height="126px" viewBox="0 0 126 126" enable-background="new 0 0 126 126" xml:space="preserve">
<g>
	<g>
		<path d="M99.873,36.23c-0.006-0.468-0.154-0.93-0.475-1.295L79.73,12.471c-0.004-0.006-0.01-0.008-0.016-0.014
			c-0.117-0.131-0.252-0.239-0.396-0.334c-0.043-0.028-0.086-0.053-0.131-0.078c-0.127-0.068-0.258-0.124-0.395-0.165
			c-0.037-0.011-0.07-0.026-0.107-0.036c-0.15-0.035-0.303-0.057-0.459-0.057H29.893c-2.205,0-4,1.795-4,4v94c0,2.206,1.795,4,4,4
			h66c2.207,0,4-1.794,4-4V36.454C99.893,36.379,99.881,36.305,99.873,36.23z M51.252,109.251H35.418V84.435h15.318v4.603h-9.684
			v5.154h9.131v4.566h-9.131v5.891h10.199V109.251z M70.617,97.874c-1.914,1.804-4.75,2.614-8.064,2.614
			c-0.736,0-1.398-0.037-1.914-0.11v8.873h-5.561V84.766c1.73-0.294,4.162-0.515,7.586-0.515c3.461,0,5.928,0.662,7.584,1.988
			c1.584,1.251,2.652,3.313,2.652,5.743C72.9,94.413,72.09,96.475,70.617,97.874z M82.545,109.619c-2.836,0-5.633-0.736-7.033-1.51
			l1.143-4.639c1.51,0.772,3.828,1.546,6.223,1.546c2.576,0,3.939-1.067,3.939-2.688c0-1.547-1.18-2.431-4.16-3.498
			c-4.125-1.436-6.813-3.719-6.813-7.327c0-4.234,3.535-7.475,9.389-7.475c2.799,0,4.861,0.59,6.334,1.252l-1.252,4.529
			c-0.994-0.479-2.762-1.179-5.191-1.179c-2.432,0-3.609,1.104-3.609,2.394c0,1.583,1.398,2.283,4.604,3.498
			c4.381,1.62,6.443,3.902,6.443,7.4C92.561,106.085,89.355,109.619,82.545,109.619z M29.893,79.704V15.787h46.334v20.466
			c0,1.104,0.895,2,2,2h17.666l0.002,41.451H29.893z"/>
		<path d="M62.959,88.484c-1.143,0-1.916,0.111-2.32,0.222v7.327c0.479,0.11,1.068,0.146,1.877,0.146
			c2.982,0,4.824-1.509,4.824-4.05C67.34,89.847,65.756,88.484,62.959,88.484z"/>
	</g>
	<path d="M79.717,61.221L69.98,49.602v-1.836h-1.539L58.072,35.392v-2.598h-3.133v3.134h2.279l7.752,9.251
		c-2.527-1.653-5.465-2.577-8.559-2.627c-3.598-0.069-7.061,1.077-9.918,3.214h-2.389v2.875h2.875v-1.993
		c2.691-2.046,5.957-3.118,9.416-3.097c4.051,0.066,7.832,1.706,10.65,4.616c0.021,0.022,0.037,0.046,0.059,0.068v2.405h1.879
		c3.451,5.483,3.037,12.686-1.168,17.75h-2.148v2.875h2.875V69.08c3.957-4.729,4.791-11.221,2.461-16.701l7.543,9.001v2.975h3.133
		v-3.134H79.717z M55.939,33.794h1.133v1.134h-1.133V33.794z M80.68,63.354h-1.133v-1.134h1.133V63.354z"/>
</g>
</svg>
