<?xml version="1.0" encoding="utf-8"?>
<!-- Generator: Adobe Illustrator 16.0.0, SVG Export Plug-In . SVG Version: 6.00 Build 0)  -->
<!DOCTYPE svg PUBLIC "-//W3C//DTD SVG 1.1//EN" "http://www.w3.org/Graphics/SVG/1.1/DTD/svg11.dtd">
<svg version="1.1" id="Layer_1" xmlns="http://www.w3.org/2000/svg" xmlns:xlink="http://www.w3.org/1999/xlink" x="0px" y="0px"
	 width="126px" height="126px" viewBox="0 0 126 126" enable-background="new 0 0 126 126" xml:space="preserve">
<g>
	<path d="M62.926,88.549c-1.115,0-1.871,0.107-2.268,0.216v7.163c0.469,0.107,1.045,0.145,1.836,0.145
		c2.916,0,4.717-1.477,4.717-3.96C67.211,89.881,65.662,88.549,62.926,88.549z"/>
	<path d="M99.98,36.443c-0.006-0.468-0.156-0.93-0.477-1.295L79.838,12.684c-0.006-0.006-0.012-0.008-0.016-0.014
		c-0.117-0.131-0.254-0.239-0.398-0.334c-0.043-0.028-0.086-0.053-0.131-0.078c-0.125-0.068-0.256-0.124-0.395-0.165
		c-0.037-0.011-0.07-0.026-0.107-0.036C78.643,12.021,78.488,12,78.332,12H30c-2.205,0-4,1.795-4,4v94c0,2.206,1.795,4,4,4h66
		c2.205,0,4-1.794,4-4V36.667C100,36.592,99.988,36.518,99.98,36.443z M51.479,108.85H36V84.59h14.975v4.498h-9.467v5.04h8.926
		v4.464h-8.926v5.759h9.971V108.85z M70.414,97.728c-1.873,1.764-4.645,2.556-7.883,2.556c-0.721,0-1.369-0.036-1.873-0.107v8.674
		h-5.436V84.913c1.693-0.288,4.068-0.504,7.416-0.504c3.383,0,5.795,0.647,7.416,1.944c1.547,1.223,2.59,3.238,2.59,5.615
		C72.645,94.344,71.854,96.359,70.414,97.728z M82.078,109.21c-2.771,0-5.506-0.72-6.875-1.476l1.117-4.535
		c1.475,0.756,3.742,1.512,6.082,1.512c2.52,0,3.852-1.045,3.852-2.628c0-1.512-1.152-2.376-4.066-3.419
		c-4.031-1.404-6.66-3.637-6.66-7.164c0-4.139,3.455-7.307,9.18-7.307c2.734,0,4.75,0.576,6.191,1.224l-1.225,4.427
		c-0.973-0.467-2.699-1.15-5.076-1.15c-2.375,0-3.527,1.079-3.527,2.339c0,1.548,1.369,2.231,4.5,3.419
		c4.283,1.584,6.299,3.816,6.299,7.236C91.869,105.754,88.738,109.21,82.078,109.21z M30,79.917V16h46.332v20.466
		c0,1.104,0.896,2,2,2H96v41.451H30z"/>
	<path d="M65.834,65.409c-6.195-0.979-6.916-7.718-6.99-9.763h1.994V45.63h-2.285V35.087c0.76-0.228,1.318-0.925,1.318-1.759
		c-0.002-1.019-0.826-1.845-1.846-1.845c-1.018,0-1.846,0.827-1.846,1.845c0,0.834,0.559,1.531,1.32,1.759v6.803
		c-1.75-5.024-5.719-5.926-7.734-6.045v-4.079h-5.623v10.015h5.623v-4.569c5.434,0.648,6.863,5.584,7.23,8.418l-1.781,0v10.015H57.5
		v10.929c-0.762,0.227-1.32,0.924-1.32,1.76c0,1.02,0.828,1.846,1.846,1.846c1.02,0,1.844-0.827,1.846-1.846
		c0-0.835-0.557-1.532-1.318-1.759v-5.536c1.691,4.518,5.225,5.553,7.281,5.752V70.9l5.625,0V60.882h-5.625V65.409z"/>
</g>
</svg>
