<?xml version="1.0" encoding="utf-8"?>
<!-- Generator: Adobe Illustrator 16.0.0, SVG Export Plug-In . SVG Version: 6.00 Build 0)  -->
<!DOCTYPE svg PUBLIC "-//W3C//DTD SVG 1.1//EN" "http://www.w3.org/Graphics/SVG/1.1/DTD/svg11.dtd">
<svg version="1.1" id="Layer_1" xmlns="http://www.w3.org/2000/svg" xmlns:xlink="http://www.w3.org/1999/xlink" x="0px" y="0px"
	 width="126px" height="126px" viewBox="0 0 126 126" enable-background="new 0 0 126 126" xml:space="preserve">
<g>
	<path d="M60.967,91.24h-0.045c-0.227,0.984-0.453,2.24-0.703,3.199l-0.908,3.521h3.381l-0.951-3.521
		C61.467,93.455,61.195,92.225,60.967,91.24z"/>
	<path d="M99.98,36.442c-0.006-0.468-0.156-0.929-0.477-1.295L79.838,12.682c-0.006-0.005-0.012-0.008-0.016-0.013
		c-0.117-0.132-0.254-0.239-0.398-0.334c-0.043-0.028-0.086-0.054-0.131-0.078c-0.125-0.069-0.256-0.124-0.395-0.165
		c-0.037-0.011-0.07-0.027-0.107-0.035C78.643,12.021,78.488,12,78.332,12H30c-2.205,0-4,1.794-4,4v94c0,2.205,1.795,4,4,4h66
		c2.205,0,4-1.795,4-4V36.666C100,36.591,99.988,36.517,99.98,36.442z M40.91,91.51h-5.875v3.792h5.49v3.053h-5.49v6.671h-3.471
		V88.434h9.346V91.51z M53.072,105.025h-9.551V88.434h3.471v13.44h6.08V105.025z M64.371,105.025l-1.18-4.259h-4.379l-1.088,4.259
		h-3.584l4.672-16.592h4.537l4.742,16.592H64.371z M73.877,105.272c-1.746,0-3.471-0.493-4.332-1.01l0.703-3.102
		c0.93,0.517,2.359,1.034,3.834,1.034c1.588,0,2.428-0.715,2.428-1.799c0-1.033-0.727-1.624-2.564-2.338
		c-2.541-0.96-4.195-2.486-4.195-4.899c0-2.831,2.176-4.997,5.783-4.997c1.725,0,2.994,0.395,3.902,0.838l-0.771,3.026
		c-0.611-0.319-1.701-0.786-3.199-0.786c-1.496,0-2.223,0.738-2.223,1.6c0,1.059,0.861,1.525,2.836,2.338
		c2.699,1.084,3.971,2.61,3.971,4.949C80.049,102.908,78.074,105.272,73.877,105.272z M95,105.025h-3.449v-6.942h-5.693v6.942
		h-3.473V88.434h3.473v6.375h5.693v-6.375H95V105.025z M30,79.916V16h46.332v20.465c0,1.104,0.896,2,2,2H96v41.451H30z"/>
	<path d="M64.131,40.782c-4.414,3.309-7.209,12.286-9.563,17.214c-2.355,4.928-6.693,4.342-6.693,4.342v5.807
		c0,0,2.721,0.076,4.998-0.875c2.285-0.957,4.932-3.095,6.48-5.738c0.602-1.035,1.523-3.162,2.525-5.52h6.965v-5.961h-4.418
		c0.68-1.514,1.295-2.796,1.762-3.527c1.695-2.646,5.889-2.578,5.889-2.578V38.28C72.076,38.28,68.545,37.471,64.131,40.782z"/>
</g>
</svg>
