<?xml version="1.0" encoding="utf-8"?>
<!-- Generator: Adobe Illustrator 16.0.0, SVG Export Plug-In . SVG Version: 6.00 Build 0)  -->
<!DOCTYPE svg PUBLIC "-//W3C//DTD SVG 1.1//EN" "http://www.w3.org/Graphics/SVG/1.1/DTD/svg11.dtd">
<svg version="1.1" id="Layer_1" xmlns="http://www.w3.org/2000/svg" xmlns:xlink="http://www.w3.org/1999/xlink" x="0px" y="0px"
	 width="126px" height="126px" viewBox="0 0 126 126" enable-background="new 0 0 126 126" xml:space="preserve">
<g>
	<path d="M99.874,36.402c-0.006-0.468-0.154-0.93-0.475-1.295L79.731,12.643c-0.004-0.006-0.01-0.008-0.016-0.014
		c-0.117-0.131-0.252-0.239-0.396-0.334c-0.043-0.028-0.086-0.053-0.131-0.078c-0.127-0.068-0.258-0.124-0.395-0.165
		c-0.037-0.011-0.07-0.026-0.107-0.036c-0.15-0.035-0.303-0.057-0.459-0.057H29.893c-2.205,0-4,1.795-4,4v94c0,2.206,1.795,4,4,4h66
		c2.207,0,4-1.794,4-4V36.626C99.893,36.551,99.881,36.477,99.874,36.402z M48.324,89.959h-8.773v5.216h8.198v4.201h-8.198v9.18
		h-5.183V85.725h13.956V89.959z M71.125,108.556h-5.42l-4.878-8.808c-1.355-2.438-2.846-5.386-3.963-8.062l-0.102,0.033
		c0.135,3.016,0.203,6.233,0.203,9.959v6.877h-4.742V85.725h6.03l4.742,8.366c1.355,2.405,2.71,5.251,3.726,7.825h0.102
		c-0.338-3.015-0.44-6.097-0.44-9.519v-6.673h4.742V108.556z M91.418,90.061h-6.233v18.495h-5.183V90.061h-6.131v-4.336h17.547
		V90.061z M29.893,79.876V15.959h46.334v20.466c0,1.104,0.895,2,2,2h17.666l0.002,41.451H29.893z"/>
	<g>
		<path d="M66.254,51.1l-5.184,16.959h3.976l1.208-4.353h4.856l1.309,4.353h4.126L71.287,51.1H66.254z M66.808,60.837l1.006-3.598
			c0.277-0.981,0.529-2.265,0.78-3.271h0.051c0.251,1.007,0.554,2.265,0.855,3.271l1.057,3.598H66.808z"/>
		<path d="M88.945,65.064v-4.277c0-2.894-1.308-5.31-5.409-5.31c-2.239,0-3.926,0.604-4.781,1.082l0.705,2.466
			c0.805-0.503,2.139-0.931,3.396-0.931c1.887,0,2.239,0.931,2.239,1.585v0.176c-4.353-0.024-7.222,1.51-7.222,4.706
			c0,1.962,1.485,3.773,3.976,3.773c1.46,0,2.718-0.528,3.523-1.51h0.075l0.227,1.233h3.447
			C88.996,67.379,88.945,66.247,88.945,65.064z M85.221,63.58c0,0.227-0.025,0.453-0.075,0.654
			c-0.252,0.779-1.032,1.408-1.988,1.408c-0.855,0-1.51-0.478-1.51-1.459c0-1.484,1.561-1.963,3.573-1.938V63.58z"/>
		<polygon points="40.518,60.636 54.602,62.378 54.602,51.72 40.518,51.72 		"/>
		<polygon points="40.518,48.802 54.602,48.802 54.602,38.426 40.518,40.386 		"/>
		<polygon points="71.602,35.886 57.519,37.846 57.519,48.802 71.602,48.802 		"/>
		<polygon points="57.519,51.72 57.519,62.894 60.443,63.256 63.969,51.72 		"/>
	</g>
</g>
</svg>
