<?xml version="1.0" encoding="utf-8"?>
<!-- Generator: Adobe Illustrator 16.0.0, SVG Export Plug-In . SVG Version: 6.00 Build 0)  -->
<!DOCTYPE svg PUBLIC "-//W3C//DTD SVG 1.1//EN" "http://www.w3.org/Graphics/SVG/1.1/DTD/svg11.dtd">
<svg version="1.1" id="Layer_1" xmlns="http://www.w3.org/2000/svg" xmlns:xlink="http://www.w3.org/1999/xlink" x="0px" y="0px"
	 width="126px" height="126px" viewBox="0 0 126 126" enable-background="new 0 0 126 126" xml:space="preserve">
<g>
	<g>
		<path d="M63.844,89.294c-1.034,0-1.735,0.1-2.102,0.201v6.638c0.434,0.102,0.967,0.135,1.701,0.135
			c2.702,0,4.371-1.369,4.371-3.67C67.814,90.53,66.379,89.294,63.844,89.294z"/>
		<path d="M99.874,36.924c-0.006-0.468-0.154-0.93-0.475-1.295L79.731,13.165c-0.004-0.006-0.01-0.008-0.016-0.014
			c-0.117-0.131-0.252-0.239-0.396-0.334c-0.043-0.028-0.086-0.053-0.131-0.078c-0.127-0.068-0.258-0.124-0.395-0.165
			c-0.037-0.011-0.07-0.026-0.107-0.036c-0.15-0.035-0.303-0.057-0.459-0.057H29.893c-2.205,0-4,1.795-4,4v94c0,2.206,1.795,4,4,4
			h66c2.207,0,4-1.794,4-4V37.148C99.893,37.073,99.881,36.999,99.874,36.924z M52.738,107.077
			c-1.568,0.534-4.537,1.268-7.506,1.268c-4.104,0-7.072-1.033-9.141-3.036c-2.069-1.935-3.203-4.87-3.17-8.172
			c0.034-7.475,5.472-11.744,12.845-11.744c2.902,0,5.138,0.565,6.238,1.099l-1.067,4.072c-1.235-0.535-2.769-0.969-5.238-0.969
			c-4.237,0-7.439,2.402-7.439,7.274c0,4.637,2.902,7.372,7.073,7.372c1.168,0,2.101-0.133,2.502-0.333v-4.704h-3.471v-3.971h8.375
			V107.077z M70.783,97.801c-1.734,1.637-4.303,2.369-7.306,2.369c-0.667,0-1.268-0.033-1.734-0.1v8.041h-5.038V85.925
			c1.568-0.267,3.77-0.467,6.873-0.467c3.136,0,5.371,0.601,6.872,1.802c1.435,1.134,2.402,3.002,2.402,5.204
			S72.118,96.535,70.783,97.801z M86.995,108.112l-2.035-4.07c-0.834-1.568-1.368-2.736-2.001-4.037h-0.067
			c-0.467,1.301-1.034,2.469-1.735,4.037l-1.867,4.07h-5.806l6.505-11.378l-6.271-11.108h5.838l1.968,4.104
			c0.667,1.368,1.168,2.469,1.702,3.736h0.066c0.534-1.435,0.968-2.437,1.535-3.736l1.901-4.104h5.805l-6.339,10.977l6.672,11.51
			H86.995z M29.893,80.398V16.481h46.334v20.466c0,1.104,0.895,2,2,2h17.666l0.002,41.451H29.893z"/>
	</g>
	<g>
		<g>
			<path d="M82.858,57.952l-0.96-3.632c-2.533,0.608-5.735,1.701-9.261,3.632H82.858z"/>
		</g>
		<g>
			<path d="M83.298,59.617h-13.43c-4.074,2.655-8.44,6.451-12.637,11.931H86.45L83.298,59.617z"/>
		</g>
		<g>
			<path d="M61.832,44.243c-0.485-1.312-1.017-2.748-1.542-4.181H43.621l-1.988,7.529H57.86
				C58.465,46.137,59.92,44.933,61.832,44.243z"/>
		</g>
		<g>
			<path d="M65.523,59.617H38.457l-3.151,11.931h18.746C56.323,68.208,60.096,63.57,65.523,59.617z"/>
		</g>
		<g>
			<path d="M81.432,52.553l-3.298-12.491h-7.129c-0.581,1.387-1.182,2.806-1.771,4.19c2.546,0.914,4.296,2.724,4.296,4.831
				c0,3.021-3.584,5.475-8.004,5.475c-3.827,0-7.019-1.844-7.808-4.296H40.928l-2.033,7.689H68
				C71.78,55.581,76.235,53.603,81.432,52.553z"/>
		</g>
		<g>
			<path d="M64.383,46.001c-1.909,0.332-3.322,1.458-3.322,2.805c0,1.608,1.999,2.908,4.463,2.908c2.465,0,4.462-1.3,4.462-2.908
				c0-1.354-1.425-2.483-3.347-2.808c1.77-4.121,4.93-11.524,5.563-13.402c0.277-0.74,0.436-1.539,0.436-2.375
				c0-3.744-3.036-6.781-6.781-6.781c-3.747,0-6.781,3.037-6.781,6.781c0,0.73,0.119,1.434,0.333,2.094
				C59.757,33.543,62.754,41.63,64.383,46.001z M68.238,48.806c0,0.977-1.215,1.77-2.714,1.77s-2.714-0.793-2.714-1.77
				c0-0.813,0.842-1.49,1.984-1.697c0.386,1.029,0.634,1.697,0.634,1.697s0.292-0.674,0.742-1.717
				C67.355,47.281,68.238,47.973,68.238,48.806z M65.856,25.92c2.389,0,4.326,1.937,4.326,4.328c0,2.388-1.937,4.322-4.326,4.322
				c-2.391,0-4.326-1.935-4.326-4.322C61.531,27.857,63.466,25.92,65.856,25.92z"/>
		</g>
	</g>
</g>
</svg>
