<?xml version="1.0" encoding="utf-8"?>
<!-- Generator: Adobe Illustrator 16.0.0, SVG Export Plug-In . SVG Version: 6.00 Build 0)  -->
<!DOCTYPE svg PUBLIC "-//W3C//DTD SVG 1.1//EN" "http://www.w3.org/Graphics/SVG/1.1/DTD/svg11.dtd">
<svg version="1.1" id="Layer_1" xmlns="http://www.w3.org/2000/svg" xmlns:xlink="http://www.w3.org/1999/xlink" x="0px" y="0px"
	 width="126px" height="126px" viewBox="0 0 126 126" enable-background="new 0 0 126 126" xml:space="preserve">
<g>
	<path d="M99.98,36.442c-0.006-0.468-0.156-0.929-0.477-1.295L79.838,12.682c-0.006-0.005-0.012-0.008-0.016-0.013
		c-0.117-0.132-0.254-0.239-0.398-0.334c-0.043-0.028-0.086-0.054-0.131-0.078c-0.125-0.069-0.256-0.124-0.395-0.165
		c-0.037-0.011-0.07-0.027-0.107-0.035C78.643,12.021,78.488,12,78.332,12H30c-2.205,0-4,1.794-4,4v94c0,2.205,1.795,4,4,4h66
		c2.205,0,4-1.795,4-4V36.666C100,36.591,99.988,36.517,99.98,36.442z M49.627,105.289c-1.436,0.489-4.156,1.16-6.877,1.16
		c-3.76,0-6.48-0.946-8.375-2.781c-1.895-1.771-2.934-4.461-2.904-7.487c0.031-6.847,5.014-10.759,11.768-10.759
		c2.66,0,4.709,0.52,5.717,1.008l-0.979,3.729c-1.131-0.488-2.537-0.885-4.799-0.885c-3.881,0-6.816,2.201-6.816,6.662
		c0,4.248,2.66,6.756,6.48,6.756c1.07,0,1.926-0.123,2.293-0.307v-4.309h-3.18v-3.638h7.672V105.289z M67.969,106.236H51.953v-2.506
		l9.811-14.121v-0.123h-8.895v-3.85h14.947v2.688l-9.598,13.938v0.121h9.75V106.236z M75.582,106.236h-4.676v-20.6h4.676V106.236z
		 M92.516,96.792c-1.59,1.497-3.941,2.17-6.693,2.17c-0.611,0-1.162-0.03-1.59-0.091v7.365h-4.615V85.91
		c1.438-0.244,3.455-0.428,6.297-0.428c2.873,0,4.92,0.551,6.297,1.651c1.313,1.038,2.201,2.749,2.201,4.769
		C94.412,93.918,93.738,95.63,92.516,96.792z M30,79.916V16h46.332v20.465c0,1.104,0.896,2,2,2H96v41.451H30z"/>
	<path d="M86.158,88.998c-0.947,0-1.59,0.091-1.926,0.184v6.082c0.396,0.092,0.887,0.123,1.561,0.123
		c2.475,0,4.002-1.254,4.002-3.363C89.795,90.129,88.48,88.998,86.158,88.998z"/>
	<polygon points="56.754,56.599 46.113,53.59 46.113,64.199 61.92,69.062 61.92,45.047 59.684,50.135 	"/>
	<polygon points="64.752,50.233 62.834,45.352 62.834,69.062 78.641,64.199 78.641,52.116 67.09,55.383 	"/>
	<polygon points="77.484,42.198 77.459,42.196 77.436,42.151 77.119,42.169 62.533,41.046 45.016,42.171 44.67,42.151 
		44.645,42.195 44.613,42.197 44.615,42.248 40.262,50.207 55.307,54.462 60.477,43.063 52.566,42.607 62.527,41.965 70.279,42.564 
		63.293,42.967 67.916,53.167 81.381,49.358 77.482,42.235 	"/>
</g>
</svg>
