<?xml version="1.0" encoding="utf-8"?>
<!-- Generator: Adobe Illustrator 16.0.0, SVG Export Plug-In . SVG Version: 6.00 Build 0)  -->
<!DOCTYPE svg PUBLIC "-//W3C//DTD SVG 1.1//EN" "http://www.w3.org/Graphics/SVG/1.1/DTD/svg11.dtd">
<svg version="1.1" id="Layer_1" xmlns="http://www.w3.org/2000/svg" xmlns:xlink="http://www.w3.org/1999/xlink" x="0px" y="0px"
	 width="126px" height="126px" viewBox="0 0 126 126" enable-background="new 0 0 126 126" xml:space="preserve">
<g>
	<path d="M41.384,98.206h-0.946v3.459c0.273,0.037,0.601,0.037,1.074,0.037c1.256,0,2.366-0.474,2.366-1.767
		C43.878,98.697,42.768,98.206,41.384,98.206z"/>
	<path d="M67.076,93.363c-1.875,0-2.967,1.784-2.967,4.17c0,2.402,1.128,4.096,2.986,4.096c1.875,0,2.949-1.784,2.949-4.17
		C70.044,95.257,68.988,93.363,67.076,93.363z"/>
	<path d="M43.587,94.711c0-0.928-0.71-1.42-1.966-1.42c-0.601,0-0.946,0.036-1.183,0.072v2.858h0.91
		C42.805,96.222,43.587,95.621,43.587,94.711z"/>
	<path d="M54.021,93.363c-1.875,0-2.967,1.784-2.967,4.17c0,2.402,1.129,4.096,2.985,4.096c1.875,0,2.949-1.784,2.949-4.17
		C56.988,95.257,55.932,93.363,54.021,93.363z"/>
	<path d="M99.98,36.45c-0.006-0.468-0.154-0.93-0.475-1.295L79.838,12.69c-0.004-0.006-0.01-0.008-0.016-0.014
		c-0.117-0.131-0.252-0.239-0.396-0.334c-0.043-0.028-0.086-0.053-0.131-0.078c-0.127-0.068-0.258-0.124-0.395-0.165
		c-0.037-0.011-0.07-0.026-0.107-0.036c-0.15-0.035-0.303-0.057-0.459-0.057H30c-2.205,0-4,1.795-4,4v94c0,2.206,1.795,4,4,4h66
		c2.207,0,4-1.794,4-4V36.674C100,36.599,99.988,36.524,99.98,36.45z M35.285,103.631H32.5v-12.27h2.785V103.631z M45.517,102.647
		c-0.892,0.711-2.385,1.11-4.825,1.11c-1.365,0-2.384-0.09-3.003-0.181V91.525c0.729-0.146,2.203-0.256,3.586-0.256
		c1.693,0,2.731,0.164,3.623,0.693c0.855,0.454,1.474,1.291,1.474,2.402c0,1.092-0.637,2.111-2.021,2.621v0.036
		c1.402,0.383,2.439,1.438,2.439,3.022C46.792,101.154,46.282,102.028,45.517,102.647z M53.894,103.831
		c-3.641,0-5.771-2.748-5.771-6.243c0-3.679,2.349-6.427,5.971-6.427c3.769,0,5.826,2.822,5.826,6.207
		C59.919,101.392,57.479,103.831,53.894,103.831z M66.949,103.831c-3.641,0-5.771-2.748-5.771-6.243
		c0-3.679,2.349-6.427,5.971-6.427c3.769,0,5.826,2.822,5.826,6.207C72.975,101.392,70.535,103.831,66.949,103.831z M81.606,103.631
		l-3.004-5.298l-1.056,1.292v4.006h-2.75v-12.27h2.75v5.425h0.054c0.273-0.474,0.564-0.91,0.837-1.348l2.786-4.077h3.404
		l-4.06,5.225l4.278,7.045H81.606z M88.981,103.813c-1.402,0-2.785-0.364-3.477-0.747l0.564-2.294
		c0.746,0.382,1.893,0.765,3.076,0.765c1.275,0,1.948-0.527,1.948-1.328c0-0.766-0.583-1.202-2.057-1.73
		c-2.039-0.709-3.368-1.838-3.368-3.622c0-2.094,1.748-3.695,4.643-3.695c1.384,0,2.403,0.291,3.131,0.619l-0.619,2.239
		c-0.492-0.236-1.365-0.583-2.567-0.583c-1.201,0-1.784,0.547-1.784,1.184c0,0.782,0.692,1.128,2.275,1.729
		c2.167,0.801,3.186,1.93,3.186,3.658C93.933,102.065,92.35,103.813,88.981,103.813z M30,79.924V16.007h46.334v20.466
		c0,1.104,0.895,2,2,2H96l0.002,41.451H30z"/>
</g>
<path d="M87.977,35.532c-0.018-0.002-1.8-0.179-4.396-0.179c-5.784,0-16.024,0.881-20.498,6.674
	c-4.474-5.793-14.714-6.674-20.498-6.674c-2.596,0-4.378,0.177-4.396,0.179L36.7,35.555v4.042l-0.051,25.706
	c11.212-1.258,23.448,4.786,25.797,6.016v0.049h0.092c0.204,0.106,0.316,0.169,0.316,0.169l0.001-0.169h0.291v0.169
	c0,0,0.111-0.063,0.313-0.169h0.005v-0.003c2.101-1.117,14.403-7.336,25.759-6.062l0.127-29.748L87.977,35.532z M62.446,42.889
	v24.467c-2.306-1.258-11.432-5.878-21.1-5.878c-1.057,0-2.101,0.056-3.104,0.165l-0.283,0.031V40.49v-3.633
	c0.556-0.045,2.591-0.15,4.625-0.15c5.647,0,15.6,0.821,19.992,6.182H62.446z M88.206,61.65l-0.283-0.031
	c-1.003-0.11-2.048-0.166-3.104-0.166c-10.08,0-19.564,5.042-21.354,6.047V42.928c4.326-5.523,14.417-6.363,20.117-6.363
	c2.034,0,4.069,0.106,4.625,0.152v3.659V61.65z"/>
</svg>
