<?xml version="1.0" encoding="utf-8"?>
<!-- Generator: Adobe Illustrator 16.0.0, SVG Export Plug-In . SVG Version: 6.00 Build 0)  -->
<!DOCTYPE svg PUBLIC "-//W3C//DTD SVG 1.1//EN" "http://www.w3.org/Graphics/SVG/1.1/DTD/svg11.dtd">
<svg version="1.1" id="Layer_1" xmlns="http://www.w3.org/2000/svg" xmlns:xlink="http://www.w3.org/1999/xlink" x="0px" y="0px"
	 width="126px" height="126px" viewBox="0 0 126 126" enable-background="new 0 0 126 126" xml:space="preserve">
<path d="M99.98,36.345c-0.006-0.468-0.154-0.93-0.475-1.295L79.838,12.585c-0.004-0.006-0.01-0.008-0.016-0.014
	c-0.117-0.131-0.252-0.239-0.396-0.334c-0.043-0.028-0.086-0.053-0.131-0.078c-0.127-0.068-0.258-0.124-0.395-0.165
	c-0.037-0.011-0.07-0.026-0.107-0.036c-0.15-0.035-0.303-0.057-0.459-0.057H30c-2.205,0-4,1.795-4,4v94c0,2.206,1.795,4,4,4h66
	c2.207,0,4-1.794,4-4V36.568C100,36.493,99.988,36.419,99.98,36.345z M48.348,109.753h-5.993v-26.4h5.993V109.753z M69.654,88.249
	H59.509v6.032h9.479v4.856h-9.479v10.615h-5.993v-26.4h16.138V88.249z M90.294,88.249H80.149v6.032h9.479v4.856h-9.479v10.615
	h-5.993v-26.4h16.138V88.249z M30,79.818V15.901h46.334v20.466c0,1.104,0.895,2,2,2H96l0.002,41.451H30z"/>
<g>
	<path d="M66.801,50.552c-5.377-3.76-5.363-4.643-5.363-4.643c-1.025,0.121-1.13,0.897-1.13,0.897v17.708
		c-0.77-0.268-1.689-0.314-2.631-0.083c-2.087,0.521-3.452,2.244-3.053,3.847c0.234,1.479,2.418,2.473,4.505,1.947
		c1.834-0.454,3.113-1.84,3.122-3.257h0.006l0.047-16.816c0,0,3.66-0.195,7.246,5.423C69.55,55.575,69.558,52.675,66.801,50.552z"/>
	<path d="M80.653,47.875c-0.674-9.684-8.748-17.362-18.601-17.362s-17.927,7.679-18.601,17.362c-1.609,0.055-2.899,1.367-2.899,2.99
		v15c0,1.657,1.343,3,3,3h2.667c1.657,0,3-1.343,3-3v-15c0-1.578-1.222-2.856-2.768-2.977c0.66-8.036,7.398-14.376,15.601-14.376
		s14.941,6.34,15.601,14.376c-1.546,0.12-2.768,1.398-2.768,2.977v15c0,1.657,1.343,3,3,3h2.667c1.657,0,3-1.343,3-3v-15
		C83.553,49.242,82.262,47.93,80.653,47.875z"/>
</g>
</svg>
