<?xml version="1.0" encoding="utf-8"?>
<!-- Generator: Adobe Illustrator 16.0.0, SVG Export Plug-In . SVG Version: 6.00 Build 0)  -->
<!DOCTYPE svg PUBLIC "-//W3C//DTD SVG 1.1//EN" "http://www.w3.org/Graphics/SVG/1.1/DTD/svg11.dtd">
<svg version="1.1" id="Layer_1" xmlns="http://www.w3.org/2000/svg" xmlns:xlink="http://www.w3.org/1999/xlink" x="0px" y="0px"
	 width="126px" height="126px" viewBox="0 0 126 126" enable-background="new 0 0 126 126" xml:space="preserve">
<g>
	<g>
		<path d="M66.02,89.951c-0.916,0-1.508,0.081-1.857,0.162v11.876c0.35,0.081,0.916,0.081,1.426,0.081
			c3.717,0.027,6.141-2.02,6.141-6.355C71.756,91.944,69.547,89.951,66.02,89.951z"/>
		<path d="M84.762,89.951c-0.914,0-1.508,0.081-1.857,0.162v11.876c0.35,0.081,0.916,0.081,1.428,0.081
			c3.715,0.027,6.141-2.02,6.141-6.355C90.5,91.944,88.291,89.951,84.762,89.951z"/>
		<path d="M99.873,36.063c-0.006-0.468-0.154-0.93-0.475-1.295L79.73,12.303c-0.004-0.006-0.01-0.008-0.016-0.014
			c-0.117-0.131-0.252-0.239-0.396-0.334c-0.043-0.028-0.086-0.053-0.131-0.078c-0.127-0.068-0.258-0.124-0.395-0.165
			c-0.037-0.011-0.07-0.026-0.107-0.036c-0.15-0.035-0.303-0.057-0.459-0.057H29.893c-2.205,0-4,1.795-4,4v94c0,2.206,1.795,4,4,4
			h66c2.207,0,4-1.794,4-4V36.286C99.893,36.211,99.881,36.137,99.873,36.063z M37.906,105.087h-4.123V86.936h4.123V105.087z
			 M56.486,105.087h-4.309l-3.879-7.002c-1.076-1.938-2.262-4.282-3.15-6.41l-0.08,0.027c0.107,2.396,0.162,4.955,0.162,7.917v5.468
			h-3.771V86.936h4.793l3.771,6.651c1.076,1.913,2.154,4.175,2.963,6.222h0.08c-0.27-2.396-0.352-4.848-0.352-7.567v-5.306h3.771
			V105.087z M73.076,102.933c-1.914,1.589-4.822,2.343-8.377,2.343c-2.127,0-3.635-0.135-4.66-0.27V87.178
			c1.51-0.242,3.475-0.377,5.549-0.377c3.447,0,5.684,0.619,7.434,1.938c1.887,1.401,3.07,3.636,3.07,6.841
			C76.092,99.055,74.826,101.451,73.076,102.933z M91.818,102.933c-1.912,1.589-4.82,2.343-8.375,2.343
			c-2.129,0-3.637-0.135-4.66-0.27V87.178c1.508-0.242,3.475-0.377,5.549-0.377c3.447,0,5.684,0.619,7.434,1.938
			c1.885,1.401,3.068,3.636,3.068,6.841C94.834,99.055,93.568,101.451,91.818,102.933z M29.893,79.536V15.619h46.334v20.466
			c0,1.104,0.895,2,2,2h17.666l0.002,41.451H29.893z"/>
	</g>
	<g>
		<path d="M53.281,40.684v26.605h-6.039V40.684H53.281z"/>
		<path d="M76.887,39.262v22.264c0,2.172,0.078,4.461,0.156,5.764h-5.328l-0.277-2.842h-0.078c-1.223,2.171-3.553,3.276-6.039,3.276
			c-4.58,0-8.25-3.908-8.25-9.908c-0.039-6.514,4.025-10.264,8.645-10.264c2.369,0,4.223,0.829,5.092,2.171h0.08V39.262H76.887z
			 M70.887,56.157c0-0.315-0.041-0.75-0.08-1.065c-0.355-1.619-1.658-2.961-3.514-2.961c-2.723,0-4.145,2.447-4.145,5.487
			c0,3.276,1.619,5.329,4.105,5.329c1.736,0,3.119-1.185,3.475-2.882c0.117-0.435,0.158-0.868,0.158-1.382V56.157z"/>
	</g>
</g>
</svg>
