<?xml version="1.0" encoding="utf-8"?>
<!-- Generator: Adobe Illustrator 16.0.0, SVG Export Plug-In . SVG Version: 6.00 Build 0)  -->
<!DOCTYPE svg PUBLIC "-//W3C//DTD SVG 1.1//EN" "http://www.w3.org/Graphics/SVG/1.1/DTD/svg11.dtd">
<svg version="1.1" id="Layer_1" xmlns="http://www.w3.org/2000/svg" xmlns:xlink="http://www.w3.org/1999/xlink" x="0px" y="0px"
	 width="126px" height="126px" viewBox="0 0 126 126" enable-background="new 0 0 126 126" xml:space="preserve">
<g>
	<g>
		<path d="M79.074,88.15c-3.709,0-5.867,3.527-5.867,8.243c0,4.751,2.23,8.099,5.902,8.099c3.707,0,5.832-3.527,5.832-8.242
			C84.941,91.895,82.854,88.15,79.074,88.15z"/>
	</g>
	<g>
		<path d="M99.98,36.443c-0.006-0.468-0.156-0.93-0.477-1.295L79.838,12.684c-0.006-0.006-0.012-0.008-0.016-0.014
			c-0.117-0.131-0.254-0.239-0.398-0.334c-0.043-0.028-0.086-0.053-0.131-0.078c-0.125-0.068-0.256-0.124-0.395-0.165
			c-0.037-0.011-0.07-0.026-0.107-0.036C78.643,12.021,78.488,12,78.332,12H30c-2.205,0-4,1.795-4,4v94c0,2.206,1.795,4,4,4h66
			c2.205,0,4-1.794,4-4V36.667C100,36.592,99.988,36.518,99.98,36.443z M44.334,108.452h-5.506V84.191h5.506V108.452z
			 M55.027,108.813c-2.771,0-5.508-0.721-6.875-1.477l1.115-4.535c1.475,0.756,3.744,1.512,6.082,1.512
			c2.521,0,3.852-1.043,3.852-2.627c0-1.512-1.15-2.377-4.066-3.42c-4.031-1.404-6.66-3.636-6.66-7.163
			c0-4.14,3.457-7.308,9.18-7.308c2.736,0,4.752,0.576,6.191,1.225l-1.225,4.428c-0.971-0.469-2.699-1.152-5.074-1.152
			c-2.377,0-3.527,1.08-3.527,2.34c0,1.547,1.367,2.231,4.498,3.42c4.283,1.583,6.301,3.814,6.301,7.234
			C64.818,105.356,61.686,108.813,55.027,108.813z M78.822,108.848c-7.199,0-11.412-5.436-11.412-12.346
			c0-7.271,4.645-12.707,11.807-12.707c7.451,0,11.52,5.58,11.52,12.275C90.736,104.025,85.912,108.848,78.822,108.848z M30,79.917
			V16h46.332v20.466c0,1.104,0.896,2,2,2H96v41.451H30z"/>
	</g>
	<g>
		<g>
			<polygon points="69.27,30.83 43.803,36.534 69.27,36.534 			"/>
		</g>
		<g>
			<g>
				<path d="M61.162,63c0-6.46,4.648-11.847,10.775-13.01V37.896H42.59v35.658h23.845C63.239,71.133,61.162,67.309,61.162,63z"/>
			</g>
		</g>
		<g>
			<g>
				<path d="M75.049,51.25c-6.489,0-11.75,5.261-11.75,11.75s5.261,11.75,11.75,11.75s11.75-5.261,11.75-11.75
					S81.538,51.25,75.049,51.25z M75.049,69.373c-3.52,0-6.373-2.853-6.373-6.373c0-3.52,2.854-6.373,6.373-6.373
					S81.422,59.48,81.422,63C81.422,66.52,78.568,69.373,75.049,69.373z"/>
			</g>
			<g>
				<path d="M75.049,66.943c-2.174,0-3.943-1.769-3.943-3.943s1.77-3.943,3.943-3.943s3.943,1.769,3.943,3.943
					S77.223,66.943,75.049,66.943z M75.049,60.057c-1.623,0-2.943,1.32-2.943,2.943s1.32,2.943,2.943,2.943s2.943-1.32,2.943-2.943
					S76.672,60.057,75.049,60.057z"/>
			</g>
		</g>
	</g>
</g>
</svg>
