<?xml version="1.0" encoding="utf-8"?>
<!-- Generator: Adobe Illustrator 16.0.0, SVG Export Plug-In . SVG Version: 6.00 Build 0)  -->
<!DOCTYPE svg PUBLIC "-//W3C//DTD SVG 1.1//EN" "http://www.w3.org/Graphics/SVG/1.1/DTD/svg11.dtd">
<svg version="1.1" id="Layer_1" xmlns="http://www.w3.org/2000/svg" xmlns:xlink="http://www.w3.org/1999/xlink" x="0px" y="0px"
	 width="126px" height="126px" viewBox="0 0 126 126" enable-background="new 0 0 126 126" xml:space="preserve">
<path d="M99.98,36.45c-0.006-0.468-0.154-0.93-0.475-1.295L79.838,12.69c-0.004-0.006-0.01-0.008-0.016-0.014
	c-0.117-0.131-0.252-0.239-0.396-0.334c-0.043-0.028-0.086-0.053-0.131-0.078c-0.127-0.068-0.258-0.124-0.395-0.165
	c-0.037-0.011-0.07-0.026-0.107-0.036c-0.15-0.035-0.303-0.057-0.459-0.057H30c-2.205,0-4,1.795-4,4v94c0,2.206,1.795,4,4,4h66
	c2.207,0,4-1.794,4-4V36.674C100,36.599,99.988,36.524,99.98,36.45z M48.907,106.846l-5.391-9.507l-1.895,2.319v7.188h-4.933V84.827
	h4.933v9.735h0.098c0.49-0.85,1.013-1.634,1.503-2.418l4.999-7.317h6.109l-7.285,9.376l7.677,12.643H48.907z M70.799,106.846H56.752
	V84.827h13.59v4.083H61.75v4.574h8.102v4.051H61.75v5.227h9.049V106.846z M84.263,97.666v9.18h-4.966v-9.017l-6.958-13.002h5.685
	l2.254,5.292c0.686,1.601,1.144,2.777,1.699,4.214h0.065c0.49-1.372,1.013-2.646,1.667-4.214l2.221-5.292h5.586L84.263,97.666z
	 M30,79.924V16.007h46.334v20.466c0,1.104,0.895,2,2,2H96l0.002,41.451H30z"/>
<path d="M79.404,53.007c-3.156-3.155-7.833-4.271-12.06-2.919L49.656,32.399c-0.206-0.205-0.464-0.353-0.747-0.421l-6.805-1.693
	c-0.553-0.137-1.142,0.032-1.538,0.439c-0.396,0.408-0.548,1.003-0.394,1.55l1.795,6.424c0.075,0.264,0.216,0.508,0.411,0.701
	l1.428,1.427c0.156,0.158,0.366,0.248,0.587,0.255l2.452,0.084v2.184c0,0.241,0.096,0.461,0.254,0.617
	c0.151,0.15,0.358,0.246,0.587,0.255l2.291,0.076l0,1.937c0,0.241,0.098,0.46,0.255,0.616c0.152,0.153,0.357,0.247,0.587,0.255
	l2.034,0.069v1.982c0.017,0.473-0.044,0.674,0.197,0.915l0.059,0.06c0.159,0.124,0.479,0.211,0.875,0.207l2.105,0.071l0,2.34
	c0,0.231,0.092,0.453,0.255,0.616l3.594,3.594c-1.78,4.399-0.762,9.51,2.621,12.893c4.644,4.643,12.2,4.643,16.844,0
	C84.047,65.207,84.047,57.65,79.404,53.007z M62.996,51.801L46.048,34.854l0.578-0.579l16.946,16.948L62.996,51.801z M64.382,50.414
	L47.435,33.467l0.27-0.27l16.948,16.947L64.382,50.414z M76.32,66.768c-2.137,2.136-5.017,2.867-6.289,1.593
	c-1.272-1.271-0.543-4.15,1.593-6.287c2.137-2.139,5.017-2.867,6.29-1.595C79.186,61.751,78.457,64.631,76.32,66.768z"/>
</svg>
