<?xml version="1.0" encoding="utf-8"?>
<!-- Generator: Adobe Illustrator 16.0.0, SVG Export Plug-In . SVG Version: 6.00 Build 0)  -->
<!DOCTYPE svg PUBLIC "-//W3C//DTD SVG 1.1//EN" "http://www.w3.org/Graphics/SVG/1.1/DTD/svg11.dtd">
<svg version="1.1" id="Layer_1" xmlns="http://www.w3.org/2000/svg" xmlns:xlink="http://www.w3.org/1999/xlink" x="0px" y="0px"
	 width="126px" height="126px" viewBox="0 0 126 126" enable-background="new 0 0 126 126" xml:space="preserve">
<g>
	<path d="M99.874,36.931c-0.006-0.468-0.154-0.93-0.475-1.295L79.731,13.171c-0.004-0.006-0.01-0.008-0.016-0.014
		c-0.117-0.131-0.252-0.239-0.396-0.334c-0.043-0.028-0.086-0.053-0.131-0.078c-0.127-0.068-0.258-0.124-0.395-0.165
		c-0.037-0.011-0.07-0.026-0.107-0.036c-0.15-0.035-0.303-0.057-0.459-0.057H29.893c-2.205,0-4,1.795-4,4v94c0,2.206,1.795,4,4,4h66
		c2.207,0,4-1.794,4-4V37.155C99.893,37.08,99.881,37.005,99.874,36.931z M45.254,107.435l-5.071-8.942l-1.782,2.183v6.76h-4.64
		V86.724h4.64v9.156h0.093c0.461-0.799,0.952-1.535,1.414-2.273l4.701-6.883h5.747l-6.853,8.819l7.221,11.892H45.254z
		 M70.45,107.435l-0.307-7.928c-0.092-2.489-0.185-5.501-0.185-8.512h-0.092c-0.646,2.643-1.505,5.593-2.304,8.02l-2.52,8.082
		h-3.657l-2.212-8.021c-0.676-2.427-1.382-5.378-1.875-8.081h-0.062c-0.123,2.796-0.215,5.991-0.368,8.573l-0.369,7.866h-4.333
		l1.322-20.711h6.238l2.028,6.914c0.645,2.396,1.29,4.979,1.751,7.405h0.092c0.584-2.396,1.291-5.133,1.967-7.437l2.212-6.883h6.115
		l1.137,20.711H70.45z M91.558,107.435H78.62V86.724h4.702v16.778h8.236V107.435z M29.893,80.405V16.488h46.334v20.466
		c0,1.104,0.895,2,2,2h17.666l0.002,41.451H29.893z"/>
	<g>
		<path fill-rule="evenodd" clip-rule="evenodd" d="M62.268,24.432c13.417-0.051,24.609,10.932,24.583,24.615
			c-0.026,13.352-11.026,24.638-24.788,24.534c-13.489-0.104-24.382-11.409-24.338-24.688C37.77,35.475,48.833,24.394,62.268,24.432
			z M40.497,42.338c0.08,0.057,0.16,0.112,0.24,0.169c0.243-0.147,0.506-0.271,0.724-0.448c0.485-0.396,0.939-0.833,1.421-1.233
			c2.892-2.401,6.04-3.103,9.513-1.355c1.175,0.591,2.351,1.207,3.445,1.933c4.835,3.209,9.569,6.578,14.483,9.66
			c3.888,2.441,8.124,4.187,12.677,5.071c0.703,0.137,1.019-0.047,1.153-0.675c0.183-0.855,0.29-1.729,0.522-2.57
			c0.153-0.553-0.051-0.758-0.521-0.868c-2.421-0.571-4.643-1.644-6.573-3.15c-3.532-2.756-6.964-5.644-10.386-8.538
			c-2.369-2.005-4.619-4.15-6.979-6.167c-3.205-2.735-6.961-3.24-10.958-2.44c-0.987,0.197-2.146,0.417-2.838,1.049
			c-2.38,2.176-4.267,4.762-5.395,7.83C40.817,41.171,40.671,41.761,40.497,42.338z M81.062,61.857
			c-0.091-0.098-0.181-0.194-0.273-0.292c-0.29,0.073-0.582,0.14-0.87,0.219c-3.088,0.846-6.222,1.586-9.427,1.426
			c-2.766-0.139-5.54-0.516-8.263-1.033c-4.708-0.895-9.07-2.855-13.48-4.666c-1.396-0.573-2.908-1.067-4.396-1.168
			c-1.99-0.136-3.083,1.877-2.137,3.596c2.224,4.041,5.379,7.145,9.458,9.302c0.327,0.172,0.701,0.254,1.239,0.444
			c-0.108-0.536-0.155-0.837-0.229-1.129c-0.54-2.146,0.336-3.044,2.535-2.59c0.306,0.063,0.613,0.125,0.917,0.204
			c5.291,1.365,10.635,2.005,16.087,1.182c2.882-0.436,5.701-0.995,7.505-3.652C80.154,63.071,80.617,62.469,81.062,61.857z
			 M55.769,27.255c0.016,0.131,0.032,0.26,0.048,0.391c0.229,0.038,0.456,0.101,0.685,0.112c1.188,0.066,2.376,0.108,3.563,0.18
			c4.343,0.263,8.175,1.824,11.121,5.02c2.288,2.479,4.212,5.293,6.367,7.899c0.952,1.153,2.003,2.248,3.14,3.218
			c0.855,0.729,1.883,0.625,2.606,0.036c0.79-0.644,0.917-1.257,0.513-2.452c-1.425-4.223-3.917-7.722-7.433-10.417
			c-5.098-3.911-10.875-5.564-17.292-4.712C57.97,26.678,56.875,27.009,55.769,27.255z"/>
	</g>
</g>
</svg>
