<?xml version="1.0" encoding="utf-8"?>
<!-- Generator: Adobe Illustrator 16.0.0, SVG Export Plug-In . SVG Version: 6.00 Build 0)  -->
<!DOCTYPE svg PUBLIC "-//W3C//DTD SVG 1.1//EN" "http://www.w3.org/Graphics/SVG/1.1/DTD/svg11.dtd">
<svg version="1.1" id="Layer_1" xmlns="http://www.w3.org/2000/svg" xmlns:xlink="http://www.w3.org/1999/xlink" x="0px" y="0px"
	 width="126px" height="126px" viewBox="0 0 126 126" enable-background="new 0 0 126 126" xml:space="preserve">
<g>
	<path d="M49.918,93.845h-0.036c-0.181,0.723-0.361,1.643-0.56,2.347L48.6,98.775h2.691l-0.759-2.583
		C50.315,95.469,50.099,94.568,49.918,93.845z"/>
	<path d="M99.979,36.443c-0.004-0.467-0.154-0.93-0.475-1.295L79.838,12.683c-0.006-0.006-0.012-0.008-0.016-0.014
		c-0.117-0.131-0.254-0.238-0.398-0.334c-0.043-0.027-0.086-0.053-0.131-0.078c-0.125-0.068-0.258-0.123-0.395-0.164
		c-0.037-0.012-0.07-0.027-0.107-0.037C78.643,12.021,78.488,12,78.332,12H30c-2.207,0-4,1.795-4,4v94c0,2.205,1.793,4,4,4h66
		c2.205,0,4-1.795,4-4V36.667C100,36.591,99.988,36.517,99.979,36.443z M30,16h46.332v20.467c0,1.104,0.896,2,2,2H96v41.451H30V16z
		 M40.615,103.957l-0.181-4.658c-0.054-1.461-0.108-3.232-0.108-5.002h-0.055c-0.379,1.553-0.885,3.287-1.354,4.714l-1.481,4.749
		h-2.148l-1.3-4.714c-0.397-1.427-0.813-3.161-1.102-4.749h-0.036c-0.072,1.645-0.127,3.521-0.218,5.037l-0.216,4.623h-2.546
		l0.776-12.17h3.665l1.192,4.063c0.379,1.408,0.758,2.926,1.029,4.354h0.054c0.344-1.41,0.758-3.016,1.156-4.372l1.3-4.044h3.593
		l0.668,12.17H40.615z M52.627,103.957l-0.939-3.123h-3.484l-0.867,3.123h-2.854l3.721-12.17h3.611l3.773,12.17H52.627z
		 M62.994,101.863c0.83,0,1.752-0.18,2.293-0.398l0.415,2.149c-0.505,0.253-1.644,0.523-3.124,0.523
		c-4.207,0-6.374-2.618-6.374-6.085c0-4.152,2.962-6.464,6.646-6.464c1.427,0,2.51,0.288,2.998,0.542l-0.561,2.185
		c-0.56-0.235-1.336-0.452-2.312-0.452c-2.185,0-3.882,1.318-3.882,4.027C59.094,100.327,60.538,101.863,62.994,101.863z
		 M77.551,103.957h-2.745v-5.092h-4.532v5.092h-2.763v-12.17h2.763v4.678h4.532v-4.678h2.745V103.957z M84.035,100.129h-4.73v-1.823
		h4.73V100.129z M91.151,104.156c-3.611,0-5.724-2.727-5.724-6.194c0-3.646,2.329-6.373,5.922-6.373
		c3.738,0,5.779,2.798,5.779,6.157C97.129,101.737,94.709,104.156,91.151,104.156z"/>
	<path d="M91.277,93.773c-1.859,0-2.943,1.77-2.943,4.135c0,2.384,1.12,4.063,2.962,4.063c1.86,0,2.925-1.769,2.925-4.134
		C94.221,95.65,93.174,93.773,91.277,93.773z"/>
	<path d="M39.854,39.269c0.401,0,0.732-0.092,0.997-0.275c0.265-0.182,0.458-0.449,0.581-0.799l-0.953-0.162
		c-0.054,0.182-0.132,0.314-0.233,0.396s-0.229,0.123-0.382,0.123c-0.219,0-0.402-0.078-0.551-0.238
		c-0.147-0.158-0.225-0.379-0.23-0.662h2.412c0-0.734-0.154-1.28-0.463-1.638c-0.308-0.358-0.732-0.536-1.272-0.536
		c-0.479,0-0.876,0.17-1.189,0.512s-0.47,0.814-0.47,1.414c0,0.502,0.119,0.92,0.357,1.25
		C38.759,39.064,39.225,39.269,39.854,39.269z M39.301,36.441c0.137-0.152,0.309-0.229,0.516-0.229c0.197,0,0.363,0.072,0.5,0.217
		s0.209,0.357,0.215,0.637h-1.436C39.096,36.802,39.164,36.593,39.301,36.441z"/>
	<polygon points="42.93,39.187 43.674,38.062 44.412,39.187 45.59,39.187 44.25,37.281 45.477,35.564 44.351,35.564 43.674,36.56 
		43.035,35.564 41.861,35.564 43.115,37.318 41.809,39.187 	"/>
	<path d="M47.637,39.269c0.4,0,0.732-0.092,0.996-0.275c0.264-0.182,0.457-0.449,0.582-0.799l-0.954-0.162
		c-0.054,0.182-0.132,0.314-0.233,0.396s-0.229,0.123-0.382,0.123c-0.22,0-0.403-0.078-0.55-0.238
		c-0.148-0.158-0.227-0.379-0.232-0.662h2.413c0-0.734-0.153-1.28-0.462-1.638c-0.309-0.358-0.732-0.536-1.273-0.536
		c-0.48,0-0.877,0.17-1.189,0.512c-0.313,0.342-0.471,0.814-0.471,1.414c0,0.502,0.119,0.92,0.358,1.25
		C46.541,39.064,47.007,39.269,47.637,39.269z M47.083,36.441c0.137-0.152,0.309-0.229,0.515-0.229c0.197,0,0.364,0.072,0.501,0.217
		s0.208,0.357,0.215,0.637h-1.436C46.878,36.802,46.946,36.593,47.083,36.441z"/>
	<path d="M52.073,38.332c-0.116,0.104-0.267,0.154-0.45,0.154c-0.242,0-0.436-0.088-0.58-0.264s-0.217-0.48-0.217-0.914
		c0-0.387,0.07-0.662,0.213-0.826c0.141-0.164,0.33-0.246,0.569-0.246c0.181,0,0.328,0.048,0.44,0.143
		c0.113,0.096,0.186,0.238,0.217,0.426l0.945-0.172c-0.115-0.389-0.302-0.678-0.561-0.869c-0.26-0.189-0.609-0.285-1.052-0.285
		c-0.54,0-0.969,0.166-1.285,0.5s-0.475,0.801-0.475,1.402c0,0.592,0.157,1.053,0.472,1.387c0.315,0.334,0.738,0.502,1.27,0.502
		c0.467,0,0.84-0.111,1.117-0.332c0.279-0.221,0.465-0.547,0.561-0.98L52.318,37.8C52.271,38.05,52.189,38.228,52.073,38.332z"/>
	<path d="M77.438,39.099h-5.664v-3.785c0-1.97-1.604-3.572-3.572-3.572H38.035c-1.971,0-3.572,1.603-3.572,3.572v27.189
		c0,1.971,1.602,3.572,3.572,3.572h5.904c-0.081,0.01-0.159,0.035-0.24,0.042v3.743c0,1.97,1.603,3.572,3.572,3.572h30.166
		c1.971,0,3.572-1.603,3.572-3.572V42.671C81.01,40.701,79.408,39.099,77.438,39.099z M38.035,64.884
		c-1.314,0-2.383-1.068-2.383-2.381V35.314c0-1.313,1.068-2.381,2.383-2.381h30.166c1.313,0,2.381,1.068,2.381,2.381v27.189
		c0,1.313-1.068,2.381-2.381,2.381H38.035z M79.82,69.861c0,1.313-1.068,2.381-2.383,2.381H47.271c-1.313,0-2.381-1.068-2.381-2.381
		v-3.785h23.311c1.969,0,3.572-1.602,3.572-3.572V40.29h5.664c1.314,0,2.383,1.068,2.383,2.382V69.861z"/>
	<path d="M50.747,50.955c-0.488-2.457,1.845-3.899,1.845-3.899s-0.91-1.314-2.438-1.653c-1.525-0.338-2.291,0.086-3.053,0.403
		c-0.764,0.317-1.145,0.317-1.145,0.317c-1.103,0-1.908-1.166-4.006-0.635c-1.447,0.364-2.97,2.033-3.245,4.026
		c-0.274,1.994,0.319,4.537,1.464,6.509c1.145,1.973,2.311,2.714,3.137,2.735c0.828,0.021,1.654-0.593,2.65-0.742
		c0.996-0.147,1.609,0.361,2.586,0.637c0.976,0.274,1.316,0.019,2.438-0.935c1.124-0.955,2.143-3.689,2.143-3.689
		S51.236,53.416,50.747,50.955z"/>
	<path d="M45.914,45.062c0,0,1.589-0.148,2.67-1.25c1.084-1.104,0.715-2.811,0.715-2.811s-1.52,0.267-2.537,1.326
		C45.745,43.388,45.914,45.062,45.914,45.062z"/>
</g>
</svg>
