<?xml version="1.0" encoding="utf-8"?>
<!-- Generator: Adobe Illustrator 16.0.0, SVG Export Plug-In . SVG Version: 6.00 Build 0)  -->
<!DOCTYPE svg PUBLIC "-//W3C//DTD SVG 1.1//EN" "http://www.w3.org/Graphics/SVG/1.1/DTD/svg11.dtd">
<svg version="1.1" id="Layer_1" xmlns="http://www.w3.org/2000/svg" xmlns:xlink="http://www.w3.org/1999/xlink" x="0px" y="0px"
	 width="126px" height="126px" viewBox="0 0 126 126" enable-background="new 0 0 126 126" xml:space="preserve">
<g>
	<g>
		<path d="M66.135,91.225c-1.082,0-1.781,0.096-2.195,0.191v14.034c0.414,0.096,1.082,0.096,1.688,0.096
			c4.391,0.032,7.256-2.388,7.256-7.511C72.912,93.58,70.305,91.225,66.135,91.225z"/>
		<path d="M99.98,38.946c-0.006-0.468-0.154-0.93-0.475-1.295L79.838,15.187c-0.004-0.006-0.01-0.008-0.016-0.014
			c-0.117-0.131-0.252-0.239-0.396-0.334c-0.043-0.028-0.086-0.053-0.131-0.078c-0.127-0.068-0.258-0.124-0.395-0.165
			c-0.037-0.011-0.07-0.026-0.107-0.036c-0.15-0.035-0.303-0.057-0.459-0.057H30c-2.205,0-4,1.795-4,4v94c0,2.206,1.795,4,4,4h66
			c2.207,0,4-1.794,4-4V39.17C100,39.095,99.988,39.021,99.98,38.946z M50.602,109.11l-0.318-8.211
			c-0.096-2.578-0.191-5.696-0.191-8.815h-0.096c-0.668,2.736-1.559,5.792-2.385,8.307L45,108.76h-3.787l-2.291-8.307
			c-0.701-2.514-1.432-5.568-1.941-8.369h-0.064c-0.127,2.896-0.223,6.205-0.381,8.879l-0.383,8.147h-4.486l1.367-21.45h6.461
			l2.102,7.16c0.668,2.483,1.336,5.156,1.814,7.67h0.094c0.605-2.482,1.338-5.314,2.037-7.701l2.291-7.129h6.332l1.18,21.45H50.602z
			 M74.473,106.564c-2.258,1.877-5.697,2.769-9.896,2.769c-2.514,0-4.297-0.16-5.506-0.318V87.947
			c1.781-0.287,4.105-0.446,6.557-0.446c4.072,0,6.713,0.733,8.783,2.292c2.227,1.654,3.627,4.296,3.627,8.083
			C78.037,101.981,76.541,104.813,74.473,106.564z M94.334,91.639h-8.242v4.9h7.701v3.947h-7.701v8.624h-4.867V87.66h13.109V91.639z
			 M30,82.42V18.503h46.334v20.466c0,1.104,0.895,2,2,2H96l0.002,41.451H30z"/>
	</g>
	<g>
		<path d="M60.332,28.481c-12.744,0-23.078,10.331-23.078,23.073c0,12.746,10.334,23.081,23.078,23.081
			c12.748,0,23.078-10.335,23.078-23.081C83.41,38.813,73.08,28.481,60.332,28.481z M67.281,31.299l-5.014,10.232
			c-0.973-0.377-1.936-0.176-1.936-0.176l-2.9-10.744C57.432,30.611,61.277,28.884,67.281,31.299z M60.33,60.637
			c-5.014,0-9.08-4.064-9.08-9.082c0-5.015,4.066-9.077,9.08-9.077c5.018,0,9.08,4.063,9.08,9.077
			C69.41,56.572,65.348,60.637,60.33,60.637z"/>
		<path d="M60.332,43.522c-4.43,0-8.031,3.605-8.031,8.036c0,4.429,3.602,8.033,8.031,8.033s8.033-3.604,8.033-8.033
			C68.365,47.128,64.762,43.522,60.332,43.522z M60.332,58.664c-3.918,0-7.105-3.188-7.105-7.105c0-3.922,3.188-7.11,7.105-7.11
			c3.92,0,7.107,3.188,7.107,7.11C67.439,55.477,64.252,58.664,60.332,58.664z"/>
		<path d="M60.332,47.716c-2.117,0-3.84,1.723-3.84,3.839c0,2.117,1.723,3.841,3.84,3.841c2.119,0,3.842-1.724,3.842-3.841
			C64.174,49.438,62.451,47.716,60.332,47.716z M60.332,54.47c-1.607,0-2.914-1.307-2.914-2.915c0-1.606,1.307-2.912,2.914-2.912
			s2.916,1.306,2.916,2.912C63.248,53.163,61.939,54.47,60.332,54.47z"/>
	</g>
</g>
</svg>
