<?xml version="1.0" encoding="utf-8"?>
<!-- Generator: Adobe Illustrator 16.0.0, SVG Export Plug-In . SVG Version: 6.00 Build 0)  -->
<!DOCTYPE svg PUBLIC "-//W3C//DTD SVG 1.1//EN" "http://www.w3.org/Graphics/SVG/1.1/DTD/svg11.dtd">
<svg version="1.1" id="Layer_1" xmlns="http://www.w3.org/2000/svg" xmlns:xlink="http://www.w3.org/1999/xlink" x="0px" y="0px"
	 width="126px" height="126px" viewBox="0 0 126 126" enable-background="new 0 0 126 126" xml:space="preserve">
<g>
	<path d="M99.98,36.507c-0.006-0.468-0.154-0.93-0.475-1.295L79.838,12.747c-0.004-0.006-0.01-0.008-0.016-0.014
		c-0.117-0.131-0.252-0.239-0.396-0.334c-0.043-0.028-0.086-0.053-0.131-0.078c-0.127-0.068-0.258-0.124-0.395-0.165
		c-0.037-0.011-0.07-0.026-0.107-0.036c-0.15-0.035-0.303-0.057-0.459-0.057H30c-2.205,0-4,1.795-4,4v94c0,2.206,1.795,4,4,4h66
		c2.207,0,4-1.794,4-4V36.73C100,36.655,99.988,36.581,99.98,36.507z M51.176,106.663l-0.34-8.739
		c-0.102-2.744-0.203-6.063-0.203-9.384h-0.102c-0.711,2.913-1.66,6.165-2.541,8.842l-2.777,8.908h-4.031l-2.438-8.841
		c-0.746-2.676-1.525-5.928-2.066-8.909h-0.068c-0.135,3.083-0.238,6.605-0.406,9.451l-0.406,8.672H31.02l1.457-22.831h6.877
		l2.234,7.621c0.713,2.643,1.424,5.488,1.932,8.164h0.102c0.645-2.643,1.422-5.657,2.168-8.197l2.439-7.588h6.74l1.254,22.831
		H51.176z M65.373,106.663h-5.184V83.832h5.184V106.663z M89.492,106.663l-0.338-8.739c-0.102-2.744-0.203-6.063-0.203-9.384H88.85
		c-0.713,2.913-1.66,6.165-2.541,8.842l-2.777,8.908H79.5l-2.439-8.841c-0.746-2.676-1.523-5.928-2.066-8.909h-0.068
		c-0.135,3.083-0.236,6.605-0.406,9.451l-0.406,8.672h-4.775l1.455-22.831h6.877l2.236,7.621c0.711,2.643,1.422,5.488,1.932,8.164
		h0.102c0.643-2.643,1.422-5.657,2.168-8.197l2.438-7.588h6.742l1.252,22.831H89.492z M30,79.98V16.063h46.334v20.466
		c0,1.104,0.895,2,2,2H96l0.002,41.451H30z"/>
	<g>
		<path d="M77.203,41.111c-0.002-0.204-0.066-0.407-0.207-0.566l-8.604-9.825c0-0.002-0.004-0.003-0.006-0.006
			c-0.051-0.057-0.109-0.104-0.174-0.146c-0.018-0.013-0.037-0.023-0.057-0.034c-0.055-0.03-0.113-0.055-0.172-0.073
			c-0.018-0.005-0.031-0.011-0.047-0.015c-0.066-0.016-0.133-0.025-0.201-0.025H46.598c-0.965,0-1.75,0.785-1.75,1.749v41.111
			c0,0.964,0.785,1.749,1.75,1.749h28.863c0.967,0,1.75-0.785,1.75-1.749V41.209C77.211,41.176,77.207,41.144,77.203,41.111z
			 M46.598,73.135V32.17h20.264v8.951c0,0.482,0.391,0.874,0.875,0.874h7.725l0.002,31.14H46.598z"/>
		<path d="M72.945,46.571c-0.002-0.021-0.008-0.04-0.014-0.061c-0.006-0.023-0.012-0.048-0.021-0.071
			c-0.008-0.021-0.016-0.042-0.027-0.062c-0.006-0.016-0.012-0.03-0.02-0.046c-0.004-0.006-0.008-0.01-0.012-0.015
			c-0.014-0.025-0.031-0.047-0.049-0.068c-0.008-0.013-0.016-0.023-0.025-0.033c-0.123-0.141-0.297-0.23-0.49-0.23H49.771
			c-0.193,0-0.367,0.09-0.49,0.23c-0.01,0.01-0.016,0.021-0.025,0.033c-0.018,0.021-0.035,0.043-0.049,0.068
			c-0.004,0.005-0.008,0.009-0.012,0.015c-0.008,0.016-0.012,0.03-0.02,0.046c-0.01,0.02-0.02,0.04-0.027,0.062
			c-0.01,0.023-0.016,0.048-0.021,0.071c-0.006,0.021-0.01,0.04-0.014,0.061c-0.004,0.027-0.008,0.055-0.008,0.082
			c-0.002,0.016-0.004,0.029-0.004,0.043v14.853c0,0.392,0.301,0.71,0.67,0.71h22.516c0.371,0,0.672-0.318,0.672-0.71V46.696
			c0-0.014-0.004-0.027-0.004-0.043C72.951,46.626,72.951,46.599,72.945,46.571z M69.857,47.408l-8.828,5.59l-8.826-5.59H69.857z
			 M71.615,60.837H50.443V47.95l10.242,6.485c0.104,0.067,0.223,0.103,0.344,0.103s0.24-0.035,0.344-0.103l10.242-6.485V60.837z"/>
	</g>
</g>
</svg>
