<?xml version="1.0" encoding="utf-8"?>
<!-- Generator: Adobe Illustrator 16.0.0, SVG Export Plug-In . SVG Version: 6.00 Build 0)  -->
<!DOCTYPE svg PUBLIC "-//W3C//DTD SVG 1.1//EN" "http://www.w3.org/Graphics/SVG/1.1/DTD/svg11.dtd">
<svg version="1.1" id="Layer_1" xmlns="http://www.w3.org/2000/svg" xmlns:xlink="http://www.w3.org/1999/xlink" x="0px" y="0px"
	 width="126px" height="126px" viewBox="0 0 126 126" enable-background="new 0 0 126 126" xml:space="preserve">
<g>
	<path d="M65.293,88.657c-0.98,0-1.645,0.095-1.992,0.19v6.295c0.41,0.095,0.916,0.127,1.613,0.127c2.563,0,4.145-1.298,4.145-3.48
		C69.059,89.828,67.697,88.657,65.293,88.657z"/>
	<path d="M99.979,36.443c-0.004-0.468-0.154-0.93-0.475-1.295L79.838,12.684c-0.006-0.006-0.012-0.008-0.016-0.014
		c-0.117-0.131-0.254-0.239-0.398-0.334c-0.043-0.028-0.086-0.053-0.131-0.078c-0.125-0.068-0.258-0.124-0.395-0.165
		c-0.037-0.011-0.07-0.026-0.107-0.036C78.643,12.021,78.488,12,78.332,12H30c-2.207,0-4,1.795-4,4v94c0,2.206,1.793,4,4,4h66
		c2.205,0,4-1.794,4-4V36.667C100,36.592,99.988,36.518,99.979,36.443z M50.105,106.5l-0.316-8.162
		c-0.096-2.563-0.189-5.663-0.189-8.764h-0.094c-0.666,2.721-1.551,5.758-2.373,8.257l-2.596,8.32h-3.764l-2.277-8.257
		c-0.695-2.499-1.424-5.536-1.93-8.32h-0.064c-0.127,2.879-0.221,6.17-0.379,8.826l-0.379,8.1h-4.461l1.361-21.322h6.42l2.088,7.117
		c0.664,2.468,1.328,5.125,1.805,7.624h0.094c0.602-2.468,1.328-5.283,2.025-7.655l2.277-7.086h6.295L54.82,106.5H50.105z
		 M71.873,96.725c-1.645,1.549-4.08,2.246-6.928,2.246c-0.633,0-1.201-0.032-1.645-0.096v7.625h-4.777V85.462
		c1.486-0.253,3.574-0.442,6.516-0.442c2.975,0,5.094,0.568,6.518,1.708c1.359,1.075,2.279,2.847,2.279,4.935
		S73.139,95.521,71.873,96.725z M94.717,105.519c-1.488,0.506-4.303,1.202-7.119,1.202c-3.891,0-6.705-0.98-8.668-2.879
		c-1.961-1.834-3.037-4.619-3.004-7.75c0.031-7.086,5.188-11.136,12.178-11.136c2.752,0,4.873,0.538,5.916,1.044l-1.012,3.859
		c-1.17-0.506-2.625-0.918-4.967-0.918c-4.018,0-7.055,2.278-7.055,6.896c0,4.398,2.754,6.992,6.707,6.992
		c1.107,0,1.992-0.127,2.373-0.316v-4.461h-3.291v-3.764h7.941V105.519z M30,79.917V16h46.332v20.466c0,1.104,0.896,2,2,2H96v41.451
		H30z"/>
	<path d="M54.314,41.736c-0.172-0.134-0.402-0.159-0.598-0.063c-0.191,0.091-0.316,0.292-0.316,0.503v23.849
		c0,0.212,0.125,0.413,0.316,0.502l0.248,0.058c0.125,0,0.246-0.043,0.35-0.122l18.672-11.923c0.133-0.109,0.213-0.274,0.213-0.443
		c0-0.168-0.08-0.331-0.213-0.442L54.314,41.736z"/>
</g>
</svg>
