<?xml version="1.0" encoding="utf-8"?>
<!-- Generator: Adobe Illustrator 16.0.0, SVG Export Plug-In . SVG Version: 6.00 Build 0)  -->
<!DOCTYPE svg PUBLIC "-//W3C//DTD SVG 1.1//EN" "http://www.w3.org/Graphics/SVG/1.1/DTD/svg11.dtd">
<svg version="1.1" id="Layer_1" xmlns="http://www.w3.org/2000/svg" xmlns:xlink="http://www.w3.org/1999/xlink" x="0px" y="0px"
	 width="126px" height="126px" viewBox="0 0 126 126" enable-background="new 0 0 126 126" xml:space="preserve">
<path d="M99.98,36.443c-0.006-0.468-0.154-0.93-0.475-1.295L79.838,12.684c-0.004-0.006-0.01-0.008-0.016-0.014
	c-0.117-0.131-0.252-0.239-0.396-0.334c-0.043-0.028-0.086-0.053-0.131-0.078c-0.127-0.068-0.258-0.124-0.395-0.165
	c-0.037-0.011-0.07-0.026-0.107-0.036C78.643,12.021,78.49,12,78.334,12H30c-2.205,0-4,1.795-4,4v94c0,2.206,1.795,4,4,4h66
	c2.207,0,4-1.794,4-4V36.667C100,36.592,99.988,36.518,99.98,36.443z M52.268,106.136l-0.302-7.801
	c-0.09-2.45-0.181-5.413-0.181-8.376h-0.091c-0.635,2.601-1.481,5.503-2.268,7.892l-2.479,7.952h-3.598l-2.177-7.892
	c-0.665-2.389-1.361-5.292-1.844-7.952h-0.061c-0.121,2.752-0.212,5.896-0.363,8.437l-0.363,7.74h-4.264l1.3-20.379h6.138
	l1.996,6.803c0.635,2.358,1.27,4.898,1.724,7.287h0.09c0.575-2.359,1.27-5.05,1.935-7.317l2.177-6.772h6.017l1.119,20.379H52.268z
	 M65.305,106.438c-2.328,0-4.626-0.605-5.775-1.24l0.937-3.81c1.24,0.635,3.145,1.27,5.11,1.27c2.117,0,3.235-0.876,3.235-2.207
	c0-1.27-0.968-1.995-3.417-2.872c-3.386-1.18-5.594-3.055-5.594-6.018c0-3.478,2.903-6.138,7.711-6.138
	c2.297,0,3.991,0.483,5.2,1.027l-1.028,3.72c-0.816-0.394-2.268-0.968-4.263-0.968c-1.996,0-2.963,0.907-2.963,1.966
	c0,1.3,1.149,1.874,3.779,2.872c3.598,1.331,5.292,3.205,5.292,6.078C73.53,103.535,70.899,106.438,65.305,106.438z M93.67,105.198
	c-1.421,0.483-4.112,1.149-6.803,1.149c-3.719,0-6.41-0.938-8.285-2.752c-1.875-1.753-2.903-4.414-2.873-7.408
	c0.03-6.773,4.958-10.644,11.642-10.644c2.63,0,4.656,0.515,5.654,0.998l-0.968,3.689c-1.118-0.484-2.509-0.877-4.747-0.877
	c-3.84,0-6.743,2.177-6.743,6.591c0,4.203,2.631,6.683,6.41,6.683c1.059,0,1.905-0.12,2.268-0.302v-4.264h-3.145v-3.599h7.589
	V105.198z M30,79.917V16h46.334v20.466c0,1.104,0.895,2,2,2H96l0.002,41.451H30z"/>
<path d="M84.225,41.019c-0.003-0.053-0.006-0.105-0.015-0.156c-0.006-0.04-0.017-0.077-0.027-0.115
	c-0.012-0.046-0.023-0.093-0.04-0.138c-0.015-0.04-0.033-0.079-0.052-0.117c-0.014-0.029-0.023-0.059-0.039-0.087
	c-0.006-0.011-0.015-0.019-0.021-0.029c-0.029-0.047-0.061-0.089-0.094-0.131c-0.016-0.021-0.03-0.044-0.049-0.063
	c-0.233-0.269-0.565-0.438-0.935-0.438h-42.94c-0.371,0-0.702,0.17-0.936,0.438c-0.018,0.019-0.032,0.042-0.048,0.063
	c-0.033,0.042-0.065,0.084-0.094,0.131c-0.006,0.011-0.015,0.019-0.021,0.029c-0.016,0.028-0.025,0.058-0.039,0.087
	c-0.019,0.038-0.037,0.077-0.052,0.117c-0.017,0.045-0.028,0.092-0.04,0.138c-0.011,0.038-0.021,0.075-0.028,0.115
	c-0.008,0.051-0.012,0.104-0.015,0.156c-0.001,0.029-0.007,0.054-0.007,0.082v28.325c0,0.747,0.574,1.355,1.28,1.355h42.94
	c0.706,0,1.28-0.608,1.28-1.355V41.101C84.232,41.072,84.226,41.048,84.225,41.019z M41.291,43.49l19.534,12.371
	c0.198,0.126,0.425,0.192,0.657,0.192c0.231,0,0.458-0.066,0.656-0.192l19.534-12.37v24.578H41.291V43.49z M44.648,42.457h33.669
	L61.482,53.118L44.648,42.457z"/>
</svg>
