<?xml version="1.0" encoding="utf-8"?>
<!-- Generator: Adobe Illustrator 16.0.0, SVG Export Plug-In . SVG Version: 6.00 Build 0)  -->
<!DOCTYPE svg PUBLIC "-//W3C//DTD SVG 1.1//EN" "http://www.w3.org/Graphics/SVG/1.1/DTD/svg11.dtd">
<svg version="1.1" id="Layer_1" xmlns="http://www.w3.org/2000/svg" xmlns:xlink="http://www.w3.org/1999/xlink" x="0px" y="0px"
	 width="126px" height="126px" viewBox="0 0 126 126" enable-background="new 0 0 126 126" xml:space="preserve">
<g>
	<path d="M100.123,35.613c-0.006-0.468-0.154-0.93-0.475-1.295L79.98,11.854c-0.004-0.006-0.01-0.008-0.016-0.014
		c-0.117-0.131-0.252-0.239-0.396-0.334c-0.043-0.028-0.086-0.053-0.131-0.078c-0.127-0.068-0.258-0.124-0.395-0.165
		c-0.037-0.011-0.07-0.026-0.107-0.036c-0.15-0.035-0.303-0.057-0.459-0.057H30.143c-2.205,0-4,1.795-4,4v94c0,2.206,1.795,4,4,4h66
		c2.207,0,4-1.794,4-4V35.837C100.143,35.762,100.131,35.688,100.123,35.613z M55.023,106.543h-4.918l-4.424-7.989
		c-1.23-2.213-2.582-4.886-3.596-7.313l-0.092,0.029c0.123,2.735,0.184,5.653,0.184,9.035v6.237h-4.303V85.831h5.471l4.303,7.59
		c1.229,2.184,2.457,4.764,3.379,7.1h0.092c-0.307-2.735-0.398-5.531-0.398-8.635v-6.055h4.303V106.543z M72.289,106.543H59.076
		V85.831h12.783v3.841h-8.082v4.303h7.621v3.811h-7.621v4.916h8.512V106.543z M80.553,106.851c-2.365,0-4.701-0.614-5.869-1.26
		l0.953-3.873c1.26,0.646,3.195,1.291,5.193,1.291c2.15,0,3.287-0.891,3.287-2.243c0-1.29-0.982-2.027-3.473-2.918
		c-3.441-1.199-5.684-3.104-5.684-6.115c0-3.535,2.949-6.239,7.836-6.239c2.334,0,4.055,0.492,5.285,1.046l-1.045,3.778
		c-0.83-0.398-2.305-0.982-4.332-0.982c-2.029,0-3.012,0.922-3.012,1.997c0,1.321,1.166,1.905,3.84,2.919
		c3.658,1.354,5.379,3.259,5.379,6.178C88.912,103.9,86.238,106.851,80.553,106.851z M30.143,79.087V15.17h46.334v20.466
		c0,1.104,0.895,2,2,2h17.666l0.002,41.451H30.143z"/>
	<g>
		<path d="M69.477,44.588h-15.25v2.084h-3.125v0.666h-1.646v0.584h1.646v0.75h3.125v3.666h-3.125v0.75h-1.646v0.584h1.646v0.666
			h3.125v3.917h-3.125v0.708h-1.646v0.584h1.646v0.708h3.125v2.833h15.25v-2.833h2.832v-0.708h1.646v-0.584h-1.646v-0.708h-2.832
			v-3.917h2.832v-0.666h1.646v-0.584h-1.646v-0.75h-2.832v-3.666h2.832v-0.75h1.646v-0.584h-1.646v-0.666h-2.832V44.588z
			 M66.561,49.588c-0.645,0-1.168-0.522-1.168-1.167s0.523-1.167,1.168-1.167s1.166,0.522,1.166,1.167S67.205,49.588,66.561,49.588z
			"/>
		<path d="M71.279,30.355H45.473v43.833h32.465V38.092L71.279,30.355z M71.967,33.878l3.145,3.654h-3.145V33.878z M76.162,72.411
			H47.248V32.133h22.941v7.177h5.973V72.411z"/>
	</g>
</g>
</svg>
