<?xml version="1.0" encoding="utf-8"?>
<!-- Generator: Adobe Illustrator 16.0.0, SVG Export Plug-In . SVG Version: 6.00 Build 0)  -->
<!DOCTYPE svg PUBLIC "-//W3C//DTD SVG 1.1//EN" "http://www.w3.org/Graphics/SVG/1.1/DTD/svg11.dtd">
<svg version="1.1" id="Layer_1" xmlns="http://www.w3.org/2000/svg" xmlns:xlink="http://www.w3.org/1999/xlink" x="0px" y="0px"
	 width="126px" height="126px" viewBox="0 0 126 126" enable-background="new 0 0 126 126" xml:space="preserve">
<g>
	<path d="M99.979,36.445c-0.004-0.469-0.154-0.93-0.475-1.295L79.838,12.686c-0.006-0.006-0.012-0.008-0.016-0.014
		c-0.117-0.131-0.254-0.24-0.398-0.334c-0.043-0.029-0.086-0.053-0.131-0.078c-0.125-0.068-0.258-0.125-0.395-0.166
		c-0.037-0.01-0.07-0.025-0.107-0.035c-0.148-0.035-0.303-0.057-0.459-0.057H30c-2.207,0-4,1.795-4,4v94c0,2.205,1.793,4,4,4h66
		c2.205,0,4-1.795,4-4V36.668C100,36.594,99.988,36.52,99.979,36.445z M42.378,106.992c-6.296,0-9.979-4.752-9.979-10.797
		c0-6.359,4.062-11.113,10.326-11.113c6.516,0,10.073,4.881,10.073,10.736C52.798,102.775,48.58,106.992,42.378,106.992z
		 M71.186,104.129c-2.236,1.857-5.635,2.738-9.791,2.738c-2.486,0-4.25-0.156-5.446-0.314v-20.84
		c1.763-0.283,4.062-0.441,6.485-0.441c4.029,0,6.643,0.725,8.688,2.268c2.204,1.637,3.589,4.25,3.589,7.994
		C74.711,99.596,73.231,102.398,71.186,104.129z M91.398,104.947c-1.543,1.229-4.125,1.92-8.344,1.92
		c-2.36,0-4.123-0.156-5.193-0.314v-20.84c1.26-0.25,3.809-0.441,6.201-0.441c2.928,0,4.723,0.285,6.266,1.197
		c1.479,0.787,2.549,2.234,2.549,4.156c0,1.887-1.102,3.65-3.494,4.531v0.064c2.424,0.66,4.219,2.486,4.219,5.225
		C93.602,102.365,92.721,103.877,91.398,104.947z M96,79.918H30V16.002h46.332v20.465c0,1.105,0.896,2,2,2H96V79.918z"/>
	<path d="M88.061,91.223c0-1.607-1.229-2.455-3.399-2.455c-1.039,0-1.638,0.063-2.046,0.125v4.943h1.573
		C86.707,93.836,88.061,92.797,88.061,91.223z"/>
	<path d="M62.938,88.955c-1.07,0-1.764,0.096-2.173,0.189v13.881c0.409,0.098,1.071,0.098,1.669,0.098
		c4.345,0.029,7.178-2.363,7.178-7.432C69.643,91.285,67.061,88.955,62.938,88.955z"/>
	<path d="M42.598,88.893c-3.242,0-5.131,3.086-5.131,7.209c0,4.156,1.951,7.082,5.163,7.082c3.243,0,5.1-3.086,5.1-7.207
		C47.729,92.166,45.904,88.893,42.598,88.893z"/>
	<path d="M84.252,97.266h-1.637v5.98c0.473,0.063,1.038,0.063,1.857,0.063c2.172,0,4.092-0.816,4.092-3.051
		C88.564,98.115,86.645,97.266,84.252,97.266z"/>
	<path d="M61.52,62.965c7.762,0,13.836-2.773,13.836-6.313v-3.984c0-0.566-0.164-1.141-0.494-1.705l-0.014-0.021
		c0.322-0.543,0.508-1.113,0.508-1.707V45.25c0-0.566-0.164-1.141-0.494-1.707l-0.043-0.072c0.342-0.557,0.537-1.146,0.537-1.76
		v-3.984c0-0.539-0.15-1.088-0.447-1.631l-0.035-0.063c0.088-0.242,0.15-0.49,0.15-0.754c0-3.219-6.957-4.957-13.504-4.957
		c-6.541,0-13.496,1.738-13.496,4.957c0,0.264,0.061,0.512,0.15,0.754l-0.035,0.063c-0.299,0.543-0.447,1.092-0.447,1.631v3.984
		c0,0.613,0.193,1.201,0.535,1.758l-0.045,0.076c-0.326,0.566-0.49,1.139-0.49,1.705v3.984c0,0.594,0.182,1.162,0.506,1.705
		l-0.016,0.025c-0.326,0.564-0.49,1.139-0.49,1.703v3.984C47.691,60.191,53.766,62.965,61.52,62.965z M49.172,38.395
		c2.219,1.881,7.365,2.855,12.348,2.855c4.99,0,10.133-0.975,12.354-2.855v3.316c0,2.285-5.07,4.83-12.354,4.83
		c-7.277,0-12.348-2.545-12.348-4.83V38.395z M49.172,45.486c2.271,2.08,6.943,3.408,12.348,3.408c5.412,0,10.084-1.328,12.354-3.41
		v3.75c0,2.285-5.07,4.832-12.354,4.832c-7.277,0-12.348-2.547-12.348-4.832V45.486z M49.172,52.904
		c2.271,2.08,6.943,3.408,12.348,3.408c5.412,0,10.084-1.328,12.354-3.408v3.748c0,2.285-5.07,4.832-12.354,4.832
		c-7.277,0-12.348-2.547-12.348-4.832V52.904z"/>
	<polygon points="65.667,68.836 62.688,68.836 62.688,65.504 60.688,65.504 60.688,68.836 58.5,68.836 58.5,69.768 37.451,69.768 
		37.451,71.768 58.5,71.768 58.5,72.336 65.667,72.336 65.667,71.768 88.549,71.768 88.549,69.768 65.667,69.768 	"/>
</g>
</svg>
