<?xml version="1.0" encoding="utf-8"?>
<!-- Generator: Adobe Illustrator 16.0.0, SVG Export Plug-In . SVG Version: 6.00 Build 0)  -->
<!DOCTYPE svg PUBLIC "-//W3C//DTD SVG 1.1//EN" "http://www.w3.org/Graphics/SVG/1.1/DTD/svg11.dtd">
<svg version="1.1" id="Layer_1" xmlns="http://www.w3.org/2000/svg" xmlns:xlink="http://www.w3.org/1999/xlink" x="0px" y="0px"
	 width="126px" height="126px" viewBox="0 0 126 126" enable-background="new 0 0 126 126" xml:space="preserve">
<g>
	<path d="M62.096,88.117c-1.094,0-1.802,0.098-2.22,0.195v14.182c0.418,0.098,1.094,0.098,1.705,0.098
		c4.438,0.031,7.332-2.414,7.332-7.592C68.946,90.498,66.31,88.117,62.096,88.117z"/>
	<path d="M41.315,88.053c-3.313,0-5.242,3.154-5.242,7.367c0,4.246,1.994,7.234,5.275,7.234c3.313,0,5.209-3.15,5.209-7.363
		C46.558,91.398,44.693,88.053,41.315,88.053z"/>
	<path d="M99.98,36.445c-0.004-0.469-0.154-0.93-0.475-1.295L79.84,12.686c-0.008-0.006-0.012-0.008-0.016-0.014
		c-0.117-0.131-0.254-0.24-0.398-0.334c-0.043-0.029-0.086-0.053-0.131-0.078c-0.127-0.068-0.26-0.125-0.396-0.166
		c-0.035-0.01-0.068-0.025-0.105-0.035c-0.148-0.035-0.303-0.057-0.461-0.057h-48.33c-2.207,0-4,1.795-4,4v94c0,2.205,1.793,4,4,4
		H96c2.207,0,4-1.795,4-4V36.668C100,36.594,99.99,36.52,99.98,36.445z M41.09,106.547c-6.433,0-10.194-4.855-10.194-11.031
		c0-6.498,4.148-11.354,10.549-11.354c6.658,0,10.292,4.986,10.292,10.967C51.736,102.238,47.427,106.547,41.09,106.547z
		 M70.521,103.619c-2.283,1.898-5.757,2.801-10.002,2.801c-2.541,0-4.342-0.162-5.564-0.324V84.805
		c1.801-0.289,4.149-0.449,6.626-0.449c4.116,0,6.785,0.74,8.876,2.316c2.251,1.672,3.667,4.342,3.667,8.168
		C74.124,98.99,72.612,101.852,70.521,103.619z M88.438,102.463c1.479,0,3.12-0.32,4.085-0.709l0.739,3.83
		c-0.9,0.449-2.927,0.932-5.563,0.932c-7.493,0-11.354-4.664-11.354-10.84c0-7.396,5.276-11.514,11.837-11.514
		c2.54,0,4.47,0.514,5.339,0.965l-0.997,3.891c-0.997-0.416-2.38-0.803-4.116-0.803c-3.893,0-6.916,2.348-6.916,7.172
		C81.491,99.729,84.064,102.463,88.438,102.463z M96,79.918H30.002V16.002h46.33v20.465c0,1.105,0.898,2,2,2H96V79.918z"/>
	<rect x="38.761" y="49.719" width="12.027" height="3"/>
	<rect x="38.761" y="40.811" width="24.777" height="3"/>
	<rect x="38.761" y="31.67" width="33.652" height="3"/>
	<rect x="38.761" y="58.875" width="12.027" height="3"/>
	<rect x="38.761" y="67.719" width="12.027" height="3"/>
	<rect x="59.876" y="67.719" width="27.458" height="3"/>
	<rect x="60.45" y="49.719" width="3.395" height="14.867"/>
	<rect x="68.363" y="43.086" width="3.395" height="21.5"/>
	<rect x="76.238" y="46.336" width="3.395" height="18.25"/>
	<rect x="83.39" y="53.836" width="3.395" height="10.75"/>
</g>
</svg>
