<?xml version="1.0" encoding="utf-8"?>
<!-- Generator: Adobe Illustrator 16.0.0, SVG Export Plug-In . SVG Version: 6.00 Build 0)  -->
<!DOCTYPE svg PUBLIC "-//W3C//DTD SVG 1.1//EN" "http://www.w3.org/Graphics/SVG/1.1/DTD/svg11.dtd">
<svg version="1.1" id="Layer_1" xmlns="http://www.w3.org/2000/svg" xmlns:xlink="http://www.w3.org/1999/xlink" x="0px" y="0px"
	 width="126px" height="126px" viewBox="0 0 126 126" enable-background="new 0 0 126 126" xml:space="preserve">
<g>
	<path d="M64.438,88.525c-1.163,0-1.917,0.102-2.361,0.205v15.1c0.444,0.102,1.164,0.102,1.813,0.102
		c4.726,0.035,7.807-2.566,7.807-8.078C71.73,91.061,68.924,88.525,64.438,88.525z"/>
	<path d="M99.98,36.445c-0.006-0.469-0.154-0.93-0.477-1.295L79.836,12.686c-0.002-0.006-0.008-0.008-0.014-0.014
		c-0.119-0.131-0.252-0.24-0.396-0.334c-0.043-0.029-0.086-0.053-0.131-0.078c-0.127-0.068-0.258-0.125-0.395-0.166
		c-0.037-0.01-0.07-0.025-0.107-0.035c-0.15-0.035-0.303-0.057-0.459-0.057H30c-2.205,0-4,1.795-4,4v94c0,2.205,1.795,4,4,4h66
		c2.207,0,4-1.795,4-4V36.668C100,36.594,99.986,36.52,99.98,36.445z M42.076,108.145c-6.848,0-10.854-5.17-10.854-11.744
		c0-6.916,4.418-12.086,11.23-12.086c7.088,0,10.957,5.307,10.957,11.674C53.41,103.555,48.822,108.145,42.076,108.145z
		 M73.408,105.029c-2.431,2.02-6.129,2.977-10.647,2.977c-2.705,0-4.622-0.17-5.924-0.342V85c1.917-0.309,4.417-0.482,7.053-0.482
		c4.383,0,7.225,0.789,9.45,2.467c2.396,1.781,3.903,4.621,3.903,8.697C77.243,100.098,75.634,103.145,73.408,105.029z
		 M94.777,88.969h-8.869v5.275h8.285v4.244h-8.285v9.279H80.67V84.691h14.107V88.969z M30,79.918V16.002h46.334v20.465
		c0,1.105,0.895,2,2,2H96l0.002,41.451H30z"/>
	<path d="M42.316,88.457c-3.526,0-5.581,3.355-5.581,7.84c0,4.52,2.123,7.705,5.616,7.705c3.526,0,5.545-3.355,5.545-7.84
		C47.896,92.018,45.912,88.457,42.316,88.457z"/>
	<path d="M75.095,40.301c0-0.803-0.65-1.453-1.454-1.453H49.217c-0.588,0-1.118,0.354-1.343,0.896s-0.102,1.17,0.314,1.586
		l12.007,12.006l-11.79,10.727c-0.443,0.404-0.594,1.039-0.376,1.6c0.217,0.561,0.755,0.93,1.355,0.93h24.256
		c0.804,0,1.454-0.65,1.454-1.453c0-0.805-0.65-1.455-1.454-1.455H53.143l10.137-9.225c0.294-0.268,0.466-0.643,0.475-1.039
		c0.01-0.398-0.144-0.781-0.426-1.063L52.727,41.754h20.914C74.444,41.754,75.095,41.104,75.095,40.301z"/>
</g>
</svg>
