<?xml version="1.0" encoding="utf-8"?>
<!-- Generator: Adobe Illustrator 16.0.0, SVG Export Plug-In . SVG Version: 6.00 Build 0)  -->
<!DOCTYPE svg PUBLIC "-//W3C//DTD SVG 1.1//EN" "http://www.w3.org/Graphics/SVG/1.1/DTD/svg11.dtd">
<svg version="1.1" id="Layer_1" xmlns="http://www.w3.org/2000/svg" xmlns:xlink="http://www.w3.org/1999/xlink" x="0px" y="0px"
	 width="126px" height="126px" viewBox="0 0 126 126" enable-background="new 0 0 126 126" xml:space="preserve">
<g>
	<path d="M99.98,36.445c-0.006-0.469-0.154-0.93-0.477-1.295L79.836,12.686c-0.002-0.006-0.01-0.008-0.014-0.014
		c-0.119-0.131-0.252-0.24-0.396-0.334c-0.043-0.029-0.09-0.053-0.133-0.078c-0.125-0.068-0.258-0.125-0.395-0.166
		c-0.035-0.01-0.07-0.025-0.107-0.035c-0.148-0.035-0.301-0.057-0.457-0.057H30c-2.205,0-4,1.795-4,4v94c0,2.205,1.795,4,4,4h66
		c2.203,0,4-1.795,4-4V36.668C100,36.594,99.986,36.52,99.98,36.445z M45.165,108.871c-7.199,0-11.41-5.434-11.41-12.346
		c0-7.271,4.644-12.707,11.807-12.707c7.451,0,11.519,5.58,11.519,12.275C57.08,104.049,52.257,108.871,45.165,108.871z
		 M78.104,105.596c-2.556,2.125-6.443,3.133-11.194,3.133c-2.844,0-4.859-0.18-6.228-0.361V84.539
		c2.016-0.324,4.644-0.504,7.415-0.504c4.607,0,7.595,0.828,9.935,2.592c2.52,1.871,4.104,4.859,4.104,9.143
		C82.136,100.414,80.444,103.617,78.104,105.596z M91.245,108.477h-5.507V84.215h5.507V108.477z M30,79.918V16.002h46.334v20.465
		c0,1.105,0.895,2,2,2H96l0.002,41.451H30z"/>
	<path d="M68.674,88.246c-1.224,0-2.016,0.109-2.483,0.217v15.873c0.468,0.109,1.224,0.109,1.907,0.109
		c4.968,0.035,8.207-2.701,8.207-8.496C76.341,90.91,73.39,88.246,68.674,88.246z"/>
	<path d="M45.417,88.174c-3.707,0-5.867,3.529-5.867,8.244c0,4.752,2.232,8.098,5.904,8.098c3.707,0,5.83-3.527,5.83-8.242
		C51.284,91.918,49.197,88.174,45.417,88.174z"/>
</g>
<g>
	<path d="M74.433,60.949V34.844c0-0.348-0.284-0.633-0.637-0.633H43.63c-0.354,0-0.639,0.285-0.639,0.633v26.105
		c0,0.352,0.285,0.637,0.639,0.637h30.166C74.148,61.586,74.433,61.301,74.433,60.949z M72.052,54.217h-1.909
		c-1.114-2.854-2.484-6.852-4.564-6.318c-2.438,0.623-3.658,6.318-3.658,6.318s-1.247-6.428-4.688-9.871
		c-3.441-3.441-6.775,9.871-6.775,9.871h-4.555V37.098h26.15V54.217z"/>
	<circle cx="50.122" cy="40.771" r="2.134"/>
	<path d="M64.438,42.277c0.479,0,0.928-0.051,1.329-0.131c0.465,0.199,1.029,0.32,1.644,0.32c1.571,0,2.846-0.77,2.846-1.717
		c0-0.949-1.274-1.717-2.846-1.717c-0.591,0-1.138,0.107-1.592,0.293c-0.187-0.18-0.438-0.293-0.716-0.293h-0.414
		c-0.526,0-0.942,0.4-1.005,0.91c-1.275,0.133-2.219,0.594-2.219,1.145C61.465,41.744,62.796,42.277,64.438,42.277z"/>
	<path d="M82.661,46.652l-6.563-1.471v2.959l4.229,0.947l-3.742,16.705l-1.863-0.418c-0.087-0.568-0.174-1.176-0.271-1.789H47.3
		l-0.543,2.424c-0.077,0.342,0.139,0.684,0.483,0.76l29.437,6.596c0.345,0.076,0.684-0.141,0.761-0.482l5.707-25.475
		C83.221,47.068,83.006,46.729,82.661,46.652z"/>
	<path d="M77.777,52.258c0.173-0.77-0.55-1.605-1.679-2.064v3.193C76.975,53.275,77.641,52.869,77.777,52.258z"/>
</g>
</svg>
