<?xml version="1.0" encoding="utf-8"?>
<!-- Generator: Adobe Illustrator 16.0.0, SVG Export Plug-In . SVG Version: 6.00 Build 0)  -->
<!DOCTYPE svg PUBLIC "-//W3C//DTD SVG 1.1//EN" "http://www.w3.org/Graphics/SVG/1.1/DTD/svg11.dtd">
<svg version="1.1" id="Layer_1" xmlns="http://www.w3.org/2000/svg" xmlns:xlink="http://www.w3.org/1999/xlink" x="0px" y="0px"
	 width="126px" height="126px" viewBox="0 0 126 126" enable-background="new 0 0 126 126" xml:space="preserve">
<g>
	<rect x="39.473" y="48.385" width="12.027" height="3"/>
	<rect x="39.473" y="39.477" width="24.777" height="3"/>
	<rect x="39.473" y="30.336" width="33.652" height="3"/>
	<rect x="39.473" y="57.541" width="12.027" height="3"/>
	<rect x="39.473" y="66.385" width="12.027" height="3"/>
	<path d="M69.705,44.547c-7.584,0-13.73,6.148-13.73,13.73s6.146,13.729,13.73,13.729c7.582,0,13.729-6.146,13.729-13.729H69.705
		V44.547z"/>
	<path d="M71.567,56.111v0.004h13.731c0-3.863-1.603-7.346-4.169-9.842L71.567,56.111z"/>
	<path d="M71.423,53.699l9.707-9.709c-2.729-2.73-6.138-4.063-9.717-4.012l0.007,13.717L71.423,53.699z"/>
</g>
<g>
	<path d="M42.331,89.219c-3.46,0-5.477,3.293-5.477,7.695c0,4.436,2.084,7.559,5.511,7.559c3.461,0,5.442-3.293,5.442-7.693
		C47.808,92.713,45.859,89.219,42.331,89.219z"/>
	<path d="M64.039,89.285c-1.142,0-1.881,0.104-2.317,0.203v14.816c0.437,0.102,1.142,0.102,1.78,0.102
		c4.637,0.033,7.66-2.521,7.66-7.93C71.196,91.771,68.441,89.285,64.039,89.285z"/>
	<path d="M87.158,89.219c-1.042,0-1.748,0.102-2.117,0.201v6.686c0.437,0.104,0.975,0.135,1.714,0.135
		c2.721,0,4.402-1.375,4.402-3.695C91.157,90.461,89.711,89.219,87.158,89.219z"/>
	<path d="M99.979,36.445c-0.004-0.469-0.154-0.93-0.475-1.295L79.838,12.686c-0.006-0.006-0.012-0.008-0.016-0.014
		c-0.117-0.131-0.254-0.24-0.398-0.334c-0.043-0.029-0.086-0.053-0.131-0.078c-0.125-0.068-0.258-0.125-0.395-0.166
		c-0.037-0.01-0.07-0.025-0.107-0.035c-0.148-0.035-0.303-0.057-0.459-0.057H30c-2.207,0-4,1.795-4,4v94c0,2.205,1.793,4,4,4h66
		c2.205,0,4-1.795,4-4V36.668C100,36.594,99.988,36.52,99.979,36.445z M30,16.002h46.332v20.465c0,1.105,0.896,2,2,2H96v41.451H30
		V16.002z M42.096,108.537c-6.72,0-10.65-5.072-10.65-11.523c0-6.787,4.334-11.861,11.021-11.861
		c6.955,0,10.752,5.209,10.752,11.459C53.218,104.037,48.715,108.537,42.096,108.537z M72.842,105.48
		c-2.385,1.982-6.014,2.924-10.449,2.924c-2.654,0-4.535-0.168-5.813-0.338v-22.24c1.882-0.303,4.334-0.471,6.922-0.471
		c4.3,0,7.089,0.773,9.272,2.42c2.353,1.746,3.831,4.535,3.831,8.533C76.605,100.645,75.026,103.633,72.842,105.48z M94.146,97.787
		c-1.747,1.646-4.334,2.385-7.357,2.385c-0.673,0-1.277-0.033-1.748-0.102v8.1h-5.073V85.826c1.579-0.27,3.797-0.471,6.921-0.471
		c3.159,0,5.409,0.605,6.923,1.814c1.443,1.143,2.418,3.023,2.418,5.24C96.229,94.629,95.49,96.51,94.146,97.787z"/>
</g>
</svg>
