<?xml version="1.0" encoding="utf-8"?>
<!-- Generator: Adobe Illustrator 16.0.0, SVG Export Plug-In . SVG Version: 6.00 Build 0)  -->
<!DOCTYPE svg PUBLIC "-//W3C//DTD SVG 1.1//EN" "http://www.w3.org/Graphics/SVG/1.1/DTD/svg11.dtd">
<svg version="1.1" id="Layer_1" xmlns="http://www.w3.org/2000/svg" xmlns:xlink="http://www.w3.org/1999/xlink" x="0px" y="0px"
	 width="126px" height="126px" viewBox="0 0 126 126" enable-background="new 0 0 126 126" xml:space="preserve">
<g>
	<path d="M63.959,88.82c-1.144,0-1.884,0.102-2.321,0.201v14.832c0.438,0.102,1.144,0.102,1.782,0.102
		c4.642,0.033,7.668-2.523,7.668-7.938C71.122,91.309,68.364,88.82,63.959,88.82z"/>
	<path d="M42.229,88.752c-3.464,0-5.482,3.299-5.482,7.703c0,4.439,2.085,7.566,5.516,7.566c3.464,0,5.448-3.297,5.448-7.701
		C47.711,92.25,45.761,88.752,42.229,88.752z"/>
	<path d="M99.98,36.445c-0.006-0.469-0.154-0.93-0.475-1.295L79.838,12.686c-0.004-0.006-0.012-0.008-0.016-0.014
		c-0.117-0.131-0.252-0.24-0.396-0.334c-0.043-0.029-0.088-0.053-0.133-0.078c-0.125-0.068-0.256-0.125-0.395-0.166
		c-0.035-0.01-0.07-0.025-0.107-0.035c-0.148-0.035-0.301-0.057-0.457-0.057H30c-2.205,0-4,1.795-4,4v94c0,2.205,1.795,4,4,4h66
		c2.205,0,4-1.795,4-4V36.668C100,36.594,99.988,36.52,99.98,36.445z M41.994,108.09c-6.727,0-10.662-5.076-10.662-11.535
		c0-6.795,4.339-11.873,11.031-11.873c6.963,0,10.763,5.215,10.763,11.471C53.126,103.584,48.619,108.09,41.994,108.09z
		 M72.77,105.029c-2.387,1.986-6.02,2.928-10.459,2.928c-2.656,0-4.54-0.168-5.818-0.338V85.355
		c1.883-0.303,4.339-0.471,6.928-0.471c4.305,0,7.097,0.773,9.283,2.422c2.354,1.748,3.834,4.539,3.834,8.543
		C76.537,100.188,74.956,103.182,72.77,105.029z M94.667,89.357h-6.188v18.365h-5.145V89.357h-6.088v-4.305h17.421V89.357z
		 M95.952,79.918H30V16.002h46.334v20.465c0,1.105,0.895,2,2,2H96L95.952,79.918z"/>
	<path d="M38.1,30.17h28.264c1.104,0,2-0.896,2-2c0-1.105-0.896-2-2-2H38.1c-1.105,0-2,0.895-2,2
		C36.1,29.273,36.994,30.17,38.1,30.17z"/>
	<path d="M38.1,43.336h28.264c1.104,0,2-0.896,2-2c0-1.105-0.896-2-2-2H38.1c-1.105,0-2,0.895-2,2
		C36.1,42.439,36.994,43.336,38.1,43.336z"/>
	<path d="M36.1,54.492c0,1.104,0.895,2,2,2h46.234c1.104,0,2-0.896,2-2c0-1.105-0.896-2-2-2H38.1
		C36.994,52.492,36.1,53.387,36.1,54.492z"/>
	<path d="M84.334,65.67H38.1c-1.105,0-2,0.895-2,2c0,1.104,0.895,2,2,2h46.234c1.104,0,2-0.896,2-2
		C86.334,66.564,85.438,65.67,84.334,65.67z"/>
</g>
</svg>
