<?xml version="1.0" encoding="utf-8"?>
<!-- Generator: Adobe Illustrator 16.0.0, SVG Export Plug-In . SVG Version: 6.00 Build 0)  -->
<!DOCTYPE svg PUBLIC "-//W3C//DTD SVG 1.1//EN" "http://www.w3.org/Graphics/SVG/1.1/DTD/svg11.dtd">
<svg version="1.1" id="Layer_1" xmlns="http://www.w3.org/2000/svg" xmlns:xlink="http://www.w3.org/1999/xlink" x="0px" y="0px"
	 width="126px" height="126px" viewBox="0 0 126 126" enable-background="new 0 0 126 126" xml:space="preserve">
<g>
	<path d="M63.883,89.031c-1.158,0-1.91,0.104-2.354,0.205v15.044c0.443,0.104,1.16,0.104,1.809,0.104
		c4.709,0.033,7.777-2.561,7.777-8.053C71.15,91.556,68.354,89.031,63.883,89.031z"/>
	<path d="M41.842,88.963c-3.512,0-5.561,3.344-5.561,7.813c0,4.504,2.115,7.676,5.596,7.676c3.514,0,5.525-3.344,5.525-7.813
		C47.402,92.512,45.424,88.963,41.842,88.963z"/>
	<path d="M99.98,36.442c-0.006-0.468-0.156-0.929-0.475-1.295L79.838,12.682c-0.004-0.005-0.01-0.008-0.016-0.013
		c-0.117-0.132-0.252-0.239-0.396-0.334c-0.043-0.028-0.086-0.054-0.131-0.078c-0.127-0.069-0.258-0.124-0.395-0.165
		c-0.037-0.011-0.07-0.027-0.109-0.035C78.643,12.021,78.488,12,78.334,12H30c-2.205,0-4,1.794-4,4v94c0,2.205,1.795,4,4,4h66
		c2.205,0,4-1.795,4-4V36.666C100,36.591,99.988,36.517,99.98,36.442z M41.604,108.578c-6.822,0-10.814-5.149-10.814-11.7
		c0-6.892,4.4-12.044,11.191-12.044c7.061,0,10.916,5.289,10.916,11.635C52.896,104.008,48.324,108.578,41.604,108.578z
		 M72.822,105.475c-2.422,2.014-6.105,2.969-10.609,2.969c-2.695,0-4.605-0.17-5.902-0.342V85.518c1.91-0.307,4.4-0.478,7.027-0.478
		c4.367,0,7.199,0.784,9.416,2.456c2.389,1.773,3.889,4.605,3.889,8.666C76.643,100.562,75.041,103.6,72.822,105.475z
		 M95.033,89.577h-6.275v18.628h-5.221V89.577h-6.174v-4.366h17.67V89.577z M30,79.916V16h46.334v20.465c0,1.104,0.895,2,2,2H96
		l0.002,41.451H30z"/>
	<path d="M55.502,49.607c0.23-0.332,0.49-0.641,0.744-0.956c0.246-0.322,0.529-0.607,0.791-0.917
		c0.256-0.314,0.559-0.58,0.836-0.872c0.277-0.297,0.584-0.555,0.883-0.825c0.291-0.281,0.607-0.527,0.928-0.77
		c0.318-0.243,0.621-0.518,0.967-0.718c0.338-0.213,0.672-0.445,1.02-0.648c0.359-0.176,0.719-0.36,1.074-0.558
		c0.354-0.207,0.744-0.31,1.119-0.474l0.572-0.227c0.193-0.065,0.395-0.101,0.592-0.162c0.395-0.106,0.793-0.233,1.201-0.327
		c0.41-0.057,0.824-0.11,1.242-0.183c0.424-0.092,0.846-0.1,1.275-0.106l1.307-0.068c-0.414-0.135-0.836-0.25-1.264-0.375
		c-0.428-0.123-0.861-0.235-1.307-0.267c-0.443-0.059-0.893-0.098-1.346-0.141c-0.449-0.004-0.902,0.026-1.359,0.041
		c-0.463-0.001-0.912,0.081-1.361,0.176c-0.445,0.1-0.916,0.146-1.35,0.297c-0.439,0.135-0.879,0.283-1.316,0.44
		c-0.426,0.176-0.838,0.385-1.262,0.58c-0.43,0.184-0.811,0.44-1.213,0.671c-0.408,0.224-0.789,0.488-1.154,0.769
		c-0.369,0.276-0.754,0.539-1.09,0.852c-0.342,0.309-0.707,0.596-1.023,0.929c-0.322,0.327-0.664,0.639-0.957,0.993
		c-0.303,0.346-0.611,0.688-0.891,1.053c-0.1,0.12-0.186,0.252-0.279,0.377l-0.424-0.483c-0.338-0.362-0.65-0.754-1.02-1.079
		l-1.123-0.958c-0.375-0.32-0.807-0.552-1.207-0.829l-0.613-0.397l-0.646-0.328c-0.434-0.207-0.854-0.451-1.299-0.622L45.205,43
		c-0.449-0.146-0.908-0.263-1.361-0.394c-0.449-0.138-0.912-0.224-1.373-0.308c-0.459-0.094-0.92-0.162-1.383-0.21
		c-0.461-0.058-0.92-0.118-1.383-0.139c-0.926-0.046-1.848-0.066-2.766-0.006c-0.916,0.052-1.828,0.152-2.721,0.355
		c0.902,0.136,1.787,0.293,2.66,0.484c0.873,0.184,1.738,0.382,2.582,0.635c0.426,0.103,0.844,0.236,1.26,0.369
		c0.418,0.124,0.83,0.264,1.232,0.427c0.4,0.166,0.816,0.276,1.203,0.463c0.395,0.173,0.791,0.332,1.174,0.514l1.123,0.592
		c0.377,0.184,0.715,0.434,1.074,0.645c0.361,0.208,0.697,0.446,1.02,0.703c0.318,0.258,0.676,0.471,0.963,0.76l0.893,0.829
		c0.295,0.276,0.521,0.614,0.791,0.911l0.396,0.455c0.121,0.159,0.219,0.336,0.33,0.502l0.662,1.005l1.416,2.158l1.207-2.183
		c0.158-0.285,0.387-0.651,0.602-0.975C55.031,50.26,55.26,49.931,55.502,49.607z"/>
	<path d="M87.984,53.892c-0.443-0.059-0.893-0.098-1.346-0.141c-0.451-0.004-0.902,0.026-1.359,0.041
		c-0.463-0.001-0.912,0.081-1.361,0.176c-0.445,0.1-0.916,0.146-1.35,0.297c-0.439,0.135-0.881,0.283-1.316,0.44
		c-0.428,0.176-0.838,0.385-1.26,0.58c-0.432,0.184-0.813,0.44-1.215,0.671c-0.408,0.224-0.789,0.488-1.154,0.769
		c-0.369,0.276-0.754,0.539-1.09,0.852c-0.342,0.309-0.709,0.596-1.025,0.929c-0.32,0.327-0.662,0.639-0.955,0.993
		c-0.303,0.346-0.611,0.688-0.891,1.053c-0.1,0.12-0.186,0.252-0.279,0.377l-0.426-0.483c-0.336-0.362-0.646-0.754-1.018-1.079
		l-1.123-0.958c-0.375-0.32-0.809-0.552-1.209-0.829l-0.611-0.397l-0.646-0.328c-0.434-0.207-0.854-0.451-1.299-0.622l-1.342-0.497
		c-0.451-0.146-0.91-0.263-1.363-0.394c-0.449-0.138-0.912-0.224-1.373-0.308c-0.459-0.094-0.92-0.162-1.383-0.21
		c-0.461-0.058-0.92-0.118-1.385-0.139c-0.924-0.046-1.846-0.066-2.764-0.006c-0.914,0.052-1.828,0.152-2.721,0.355
		c0.902,0.136,1.787,0.293,2.66,0.484c0.873,0.184,1.738,0.382,2.582,0.635c0.426,0.103,0.844,0.236,1.26,0.369
		c0.418,0.124,0.83,0.264,1.232,0.427c0.4,0.166,0.816,0.276,1.203,0.463c0.395,0.173,0.791,0.332,1.174,0.514l1.123,0.592
		c0.377,0.184,0.715,0.434,1.074,0.645c0.361,0.208,0.699,0.446,1.02,0.703c0.318,0.258,0.676,0.471,0.963,0.76l0.893,0.829
		c0.295,0.276,0.521,0.614,0.791,0.911l0.396,0.455c0.121,0.159,0.219,0.336,0.33,0.502l0.662,1.005l1.416,2.158l1.207-2.183
		c0.158-0.285,0.387-0.651,0.6-0.975c0.227-0.332,0.455-0.661,0.697-0.985c0.23-0.332,0.49-0.641,0.744-0.956
		c0.246-0.322,0.529-0.607,0.789-0.917c0.258-0.314,0.561-0.58,0.84-0.872c0.275-0.297,0.58-0.555,0.881-0.825
		c0.291-0.281,0.607-0.527,0.928-0.77c0.318-0.243,0.621-0.518,0.967-0.718c0.34-0.213,0.672-0.445,1.02-0.648
		c0.359-0.176,0.719-0.36,1.074-0.558c0.354-0.207,0.744-0.31,1.119-0.474l0.572-0.227c0.193-0.065,0.395-0.101,0.592-0.162
		c0.395-0.106,0.795-0.233,1.201-0.327c0.408-0.057,0.824-0.11,1.244-0.183c0.422-0.092,0.844-0.1,1.273-0.106l1.307-0.068
		c-0.412-0.135-0.836-0.25-1.264-0.375C88.863,54.036,88.43,53.924,87.984,53.892z"/>
</g>
</svg>
