<?xml version="1.0" encoding="utf-8"?>
<!-- Generator: Adobe Illustrator 16.0.0, SVG Export Plug-In . SVG Version: 6.00 Build 0)  -->
<!DOCTYPE svg PUBLIC "-//W3C//DTD SVG 1.1//EN" "http://www.w3.org/Graphics/SVG/1.1/DTD/svg11.dtd">
<svg version="1.1" id="Layer_1" xmlns="http://www.w3.org/2000/svg" xmlns:xlink="http://www.w3.org/1999/xlink" x="0px" y="0px"
	 width="126px" height="126px" viewBox="0 0 126 126" enable-background="new 0 0 126 126" xml:space="preserve">
<g>
	<g>
		<path d="M99.873,36.402c-0.006-0.468-0.154-0.93-0.475-1.295L79.73,12.643c-0.004-0.006-0.01-0.008-0.016-0.014
			c-0.117-0.131-0.252-0.239-0.396-0.334c-0.043-0.028-0.086-0.053-0.131-0.078c-0.127-0.068-0.258-0.124-0.395-0.165
			c-0.037-0.011-0.07-0.026-0.107-0.036c-0.15-0.035-0.303-0.057-0.459-0.057H29.893c-2.205,0-4,1.795-4,4v94c0,2.206,1.795,4,4,4
			h66c2.207,0,4-1.794,4-4V36.626C99.893,36.551,99.881,36.477,99.873,36.402z M45.174,108.362c-6.775,0-10.738-5.115-10.738-11.619
			c0-6.843,4.369-11.958,11.111-11.958c7.012,0,10.84,5.251,10.84,11.551C56.387,103.822,51.848,108.362,45.174,108.362z
			 M74.648,89.494h-6.234v18.495h-5.182V89.494h-6.131v-4.336h17.547V89.494z M91.35,89.393h-8.773v5.216h8.199v4.201h-8.199v9.18
			h-5.182V85.158H91.35V89.393z M29.893,79.876V15.959h46.334v20.466c0,1.104,0.895,2,2,2h17.666l0.002,41.451H29.893z"/>
		<path d="M45.41,88.884c-3.488,0-5.521,3.32-5.521,7.758c0,4.471,2.102,7.621,5.557,7.621c3.488,0,5.486-3.319,5.486-7.757
			C50.932,92.407,48.967,88.884,45.41,88.884z"/>
	</g>
	<g>
		<path d="M78.078,48.019c0,11.633-8.34,21.564-19.973,21.564c-8.613,0-14.596-6.311-14.596-15.583
			c0-11.469,8.561-21.729,19.975-21.729C72.207,32.271,78.078,38.801,78.078,48.019z M48.777,54.493
			c0,7.353,3.074,13.169,9.768,13.169c9.164,0,14.322-11.193,14.322-20.192c0-7.298-2.689-13.278-9.822-13.278
			C54.43,34.191,48.777,44.891,48.777,54.493z"/>
	</g>
</g>
</svg>
