<?xml version="1.0" encoding="utf-8"?>
<!-- Generator: Adobe Illustrator 16.0.0, SVG Export Plug-In . SVG Version: 6.00 Build 0)  -->
<!DOCTYPE svg PUBLIC "-//W3C//DTD SVG 1.1//EN" "http://www.w3.org/Graphics/SVG/1.1/DTD/svg11.dtd">
<svg version="1.1" id="Layer_1" xmlns="http://www.w3.org/2000/svg" xmlns:xlink="http://www.w3.org/1999/xlink" x="0px" y="0px"
	 width="126px" height="126px" viewBox="0 0 126 126" enable-background="new 0 0 126 126" xml:space="preserve">
<g>
	<path d="M35.935,91.14c-0.706,0-1.186,0.069-1.436,0.137v4.531c0.296,0.068,0.66,0.091,1.161,0.091
		c1.845,0,2.982-0.933,2.982-2.504C38.643,91.982,37.664,91.14,35.935,91.14z"/>
	<path d="M48.664,91.231h-0.046c-0.229,0.91-0.456,2.071-0.705,2.96l-0.911,3.256h3.392l-0.956-3.256
		C49.164,93.28,48.892,92.142,48.664,91.231z"/>
	<path d="M99.98,36.443c-0.006-0.468-0.154-0.93-0.475-1.295L79.838,12.684c-0.004-0.006-0.01-0.008-0.016-0.014
		c-0.117-0.131-0.252-0.239-0.396-0.334c-0.043-0.028-0.086-0.053-0.131-0.078c-0.127-0.068-0.258-0.124-0.395-0.165
		c-0.037-0.011-0.07-0.026-0.107-0.036C78.643,12.021,78.49,12,78.334,12H30c-2.205,0-4,1.795-4,4v94c0,2.206,1.795,4,4,4h66
		c2.207,0,4-1.794,4-4V36.667C100,36.592,99.988,36.518,99.98,36.443z M35.684,98.563c-0.455,0-0.866-0.021-1.185-0.068v5.488
		h-3.438V88.841c1.069-0.183,2.572-0.319,4.689-0.319c2.141,0,3.666,0.41,4.691,1.23c0.979,0.773,1.638,2.049,1.638,3.551
		c0,1.503-0.5,2.779-1.41,3.645C39.485,98.062,37.731,98.563,35.684,98.563z M52.079,103.982l-1.185-3.939h-4.394l-1.094,3.939
		H41.81l4.691-15.346h4.554l4.759,15.346H52.079z M70.114,103.276c-1.07,0.363-3.097,0.865-5.122,0.865
		c-2.802,0-4.828-0.706-6.239-2.072c-1.412-1.32-2.187-3.324-2.163-5.579c0.023-5.1,3.733-8.014,8.766-8.014
		c1.98,0,3.506,0.387,4.257,0.751l-0.728,2.778c-0.843-0.365-1.89-0.661-3.575-0.661c-2.891,0-5.076,1.64-5.076,4.964
		c0,3.164,1.98,5.031,4.826,5.031c0.797,0,1.435-0.091,1.707-0.227v-3.211h-2.367v-2.71h5.715V103.276z M82.617,103.982h-9.79
		V88.637h9.471v2.846H76.31v3.188h5.646v2.822H76.31v3.644h6.308V103.982z M88.744,104.21c-1.753,0-3.483-0.456-4.349-0.934
		l0.705-2.869c0.935,0.478,2.368,0.956,3.849,0.956c1.594,0,2.436-0.659,2.436-1.661c0-0.957-0.728-1.504-2.571-2.163
		c-2.551-0.889-4.213-2.3-4.213-4.531c0-2.619,2.186-4.622,5.806-4.622c1.731,0,3.006,0.364,3.916,0.774l-0.773,2.8
		c-0.615-0.296-1.708-0.729-3.211-0.729s-2.231,0.684-2.231,1.48c0,0.979,0.866,1.411,2.847,2.163
		c2.71,1.001,3.984,2.413,3.984,4.576C94.938,102.023,92.957,104.21,88.744,104.21z M30,79.917V16h46.334v20.466
		c0,1.104,0.895,2,2,2H96l0.002,41.451H30z"/>
</g>
<path d="M75.313,33.446h-2.324v-3.361l-5.752-5.754H43.378v40.596h8.076v9.115h29.61V39.2L75.313,33.446z M75.742,35.953
	l3.305,3.306h-3.305V35.953z M67.667,26.838l3.304,3.306h-3.304V26.838z M44.847,25.799h21.352v5.813h5.322v31.848H44.847V25.799z
	 M79.596,72.574H52.922v-7.647h20.066V34.914h1.285v5.813h5.322V72.574z"/>
</svg>
