<?xml version="1.0" encoding="utf-8"?>
<!-- Generator: Adobe Illustrator 16.0.0, SVG Export Plug-In . SVG Version: 6.00 Build 0)  -->
<!DOCTYPE svg PUBLIC "-//W3C//DTD SVG 1.1//EN" "http://www.w3.org/Graphics/SVG/1.1/DTD/svg11.dtd">
<svg version="1.1" id="Layer_1" xmlns="http://www.w3.org/2000/svg" xmlns:xlink="http://www.w3.org/1999/xlink" x="0px" y="0px"
	 width="126px" height="126px" viewBox="0 0 126 126" enable-background="new 0 0 126 126" xml:space="preserve">
<g>
	<g>
		<path d="M41.605,88.226c-1.076,0-1.803,0.104-2.184,0.208v6.896c0.449,0.104,1.004,0.138,1.766,0.138
			c2.807,0,4.539-1.42,4.539-3.811C45.727,89.508,44.236,88.226,41.605,88.226z"/>
		<path d="M99.873,36.23c-0.006-0.468-0.154-0.93-0.475-1.295L79.73,12.471c-0.004-0.006-0.01-0.008-0.016-0.014
			c-0.117-0.131-0.252-0.239-0.396-0.334c-0.043-0.028-0.086-0.053-0.131-0.078c-0.127-0.068-0.258-0.124-0.395-0.165
			c-0.037-0.011-0.07-0.026-0.107-0.036c-0.15-0.035-0.303-0.057-0.459-0.057H29.893c-2.205,0-4,1.795-4,4v94c0,2.206,1.795,4,4,4
			h66c2.207,0,4-1.794,4-4V36.454C99.893,36.379,99.881,36.305,99.873,36.23z M48.811,97.062c-1.801,1.697-4.469,2.46-7.588,2.46
			c-0.693,0-1.316-0.035-1.801-0.104v8.35h-5.232v-23.04c1.627-0.277,3.916-0.484,7.139-0.484c3.256,0,5.576,0.623,7.135,1.871
			c1.492,1.177,2.496,3.117,2.496,5.404S50.197,95.744,48.811,97.062z M66.271,103.747c1.594,0,3.361-0.347,4.4-0.762l0.797,4.124
			c-0.971,0.483-3.154,1.004-5.994,1.004c-8.072,0-12.23-5.023-12.23-11.676c0-7.97,5.684-12.404,12.75-12.404
			c2.738,0,4.816,0.555,5.752,1.039l-1.074,4.193c-1.074-0.451-2.564-0.866-4.436-0.866c-4.191,0-7.449,2.528-7.449,7.727
			C58.787,100.803,61.559,103.747,66.271,103.747z M91.598,88.85h-6.377v18.917h-5.299V88.85H73.65v-4.436h17.947V88.85z
			 M29.893,79.704V15.787h46.334v20.466c0,1.104,0.895,2,2,2h17.666l0.002,41.451H29.893z"/>
	</g>
	<path fill="#231F20" d="M74.295,46.358c-0.035,0-0.068,0-0.104,0.001l-1.758-14.561l-12.225,9.174H40.371v21.278h21.277v-1.593
		c0.771,6.293,6.148,11.184,12.646,11.184c7.025,0,12.742-5.716,12.742-12.741C87.037,52.074,81.32,46.358,74.295,46.358z
		 M41.371,61.251V41.973h17.494l-8.854,6.556l10.637,4.62v8.103H41.371z M61.648,53.583l0.992,0.431
		c-0.5,1.137-0.84,2.338-0.992,3.561V53.583z M74.295,70.842c-6.475,0-11.74-5.267-11.74-11.741c0-1.602,0.361-3.2,1.014-4.684
		l11.971,5.2l-1.4-12.252c0.053-0.002,0.104-0.007,0.156-0.007c6.475,0,11.742,5.268,11.742,11.742S80.77,70.842,74.295,70.842z"/>
</g>
</svg>
