<?xml version="1.0" encoding="utf-8"?>
<!-- Generator: Adobe Illustrator 16.0.0, SVG Export Plug-In . SVG Version: 6.00 Build 0)  -->
<!DOCTYPE svg PUBLIC "-//W3C//DTD SVG 1.1//EN" "http://www.w3.org/Graphics/SVG/1.1/DTD/svg11.dtd">
<svg version="1.1" id="Layer_1" xmlns="http://www.w3.org/2000/svg" xmlns:xlink="http://www.w3.org/1999/xlink" x="0px" y="0px"
	 width="126px" height="126px" viewBox="0 0 126 126" enable-background="new 0 0 126 126" xml:space="preserve">
<g>
	<g>
		<path d="M47.498,87.422c-1.143,0-1.916,0.111-2.32,0.222v7.327c0.479,0.11,1.068,0.146,1.877,0.146
			c2.982,0,4.824-1.509,4.824-4.05C51.878,88.784,50.294,87.422,47.498,87.422z"/>
		<path d="M100.124,36.524c-0.006-0.468-0.154-0.93-0.475-1.295L79.981,12.765c-0.004-0.006-0.01-0.008-0.016-0.014
			c-0.117-0.131-0.252-0.239-0.396-0.334c-0.043-0.028-0.086-0.053-0.131-0.078c-0.127-0.068-0.258-0.124-0.395-0.165
			c-0.037-0.011-0.07-0.026-0.107-0.036c-0.15-0.035-0.303-0.057-0.459-0.057H30.143c-2.205,0-4,1.795-4,4v94c0,2.206,1.795,4,4,4
			h66c2.207,0,4-1.794,4-4V36.748C100.143,36.673,100.131,36.599,100.124,36.524z M55.156,96.812
			c-1.914,1.804-4.75,2.614-8.064,2.614c-0.736,0-1.398-0.037-1.914-0.11v8.873h-5.561V83.703c1.73-0.294,4.162-0.515,7.586-0.515
			c3.461,0,5.928,0.662,7.584,1.988c1.584,1.251,2.652,3.313,2.652,5.743C57.439,93.351,56.628,95.412,55.156,96.812z
			 M66.642,108.188h-5.635V83.372h5.635V108.188z M86.669,87.975h-9.535v5.67h8.91v4.565h-8.91v9.979H71.5V83.372h15.17V87.975z
			 M30.143,79.998V16.081h46.334v20.466c0,1.104,0.895,2,2,2h17.666l0.002,41.451H30.143z"/>
	</g>
	<g>
		<path d="M61.911,28.534c-12.007,0-21.775,9.769-21.775,21.775s9.768,21.775,21.775,21.775s21.775-9.769,21.775-21.775
			S73.918,28.534,61.911,28.534z M61.911,68.264c-9.899,0-17.954-8.054-17.954-17.954s8.054-17.954,17.954-17.954
			s17.954,8.054,17.954,17.954S71.811,68.264,61.911,68.264z"/>
		<rect x="58.985" y="44.89" width="5.853" height="19.373"/>
		<path d="M62.069,36.356c-1.961,0-3.557,1.595-3.557,3.556c0,1.962,1.596,3.558,3.557,3.558s3.556-1.596,3.556-3.558
			C65.625,37.951,64.03,36.356,62.069,36.356z"/>
	</g>
</g>
</svg>
