<?xml version="1.0" encoding="utf-8"?>
<!-- Generator: Adobe Illustrator 16.0.0, SVG Export Plug-In . SVG Version: 6.00 Build 0)  -->
<!DOCTYPE svg PUBLIC "-//W3C//DTD SVG 1.1//EN" "http://www.w3.org/Graphics/SVG/1.1/DTD/svg11.dtd">
<svg version="1.1" id="Layer_1" xmlns="http://www.w3.org/2000/svg" xmlns:xlink="http://www.w3.org/1999/xlink" x="0px" y="0px"
	 width="126px" height="126px" viewBox="0 0 126 126" enable-background="new 0 0 126 126" xml:space="preserve">
<g>
	<g>
		<path d="M99.98,36.439c-0.006-0.468-0.154-0.93-0.475-1.295L79.838,12.68c-0.004-0.006-0.01-0.008-0.016-0.014
			c-0.117-0.131-0.252-0.239-0.396-0.334c-0.043-0.028-0.086-0.053-0.131-0.078c-0.127-0.068-0.258-0.124-0.395-0.165
			c-0.037-0.011-0.07-0.026-0.107-0.036c-0.15-0.035-0.303-0.057-0.459-0.057H30c-2.205,0-4,1.795-4,4v94c0,2.206,1.795,4,4,4h66
			c2.207,0,4-1.794,4-4V36.663C100,36.588,99.988,36.514,99.98,36.439z M48.644,97.091c-1.761,1.659-4.37,2.404-7.418,2.404
			c-0.678,0-1.287-0.033-1.762-0.102v8.164h-5.115V85.031c1.592-0.271,3.828-0.475,6.978-0.475c3.184,0,5.454,0.61,6.978,1.829
			c1.457,1.152,2.439,3.049,2.439,5.285C50.744,93.906,49.999,95.803,48.644,97.091z M66.702,107.558L61.113,97.7l-1.965,2.405
			v7.452h-5.115V84.727h5.115V94.82h0.102c0.508-0.88,1.05-1.693,1.558-2.506l5.183-7.588h6.334l-7.554,9.722l7.96,13.109H66.702z
			 M92.789,106.508c-1.592,0.542-4.607,1.287-7.622,1.287c-4.167,0-7.182-1.051-9.282-3.083c-2.1-1.965-3.252-4.945-3.218-8.299
			c0.034-7.588,5.556-11.924,13.042-11.924c2.947,0,5.216,0.575,6.334,1.118l-1.084,4.132c-1.253-0.542-2.812-0.982-5.318-0.982
			c-4.302,0-7.554,2.439-7.554,7.385c0,4.709,2.947,7.486,7.182,7.486c1.186,0,2.134-0.136,2.541-0.339v-4.776h-3.523v-4.03h8.502
			V106.508z M30,79.913V15.996h46.334v20.466c0,1.104,0.895,2,2,2H96l0.002,41.451H30z"/>
		<path d="M41.598,88.452c-1.05,0-1.761,0.102-2.134,0.203v6.741c0.44,0.102,0.982,0.136,1.728,0.136
			c2.744,0,4.438-1.389,4.438-3.727C45.629,89.706,44.173,88.452,41.598,88.452z"/>
	</g>
	<g>
		<polygon points="58.032,58.247 47.392,55.238 47.392,65.848 63.198,70.711 63.198,46.695 60.962,51.783 		"/>
		<polygon points="66.03,51.881 64.112,47 64.112,70.711 79.919,65.848 79.919,53.765 68.368,57.031 		"/>
		<path d="M64.571,44.615l4.623,10.199l13.465-3.808l-3.898-7.123l0.002-0.038l-0.025-0.002L78.714,43.8l-0.316,0.019l-3.897-0.3
			v-7.925h-23v7.892l-5.206,0.334l-0.346-0.02l-0.025,0.044l-0.031,0.002l0.002,0.051l-4.354,7.959l15.045,4.256l5.17-11.399
			l-7.91-0.456l9.961-0.643l7.752,0.6L64.571,44.615z M63.812,42.695L52.5,43.421v-6.827h21v6.848L63.812,42.695z"/>
	</g>
</g>
</svg>
