<?xml version="1.0" encoding="utf-8"?>
<!-- Generator: Adobe Illustrator 16.0.0, SVG Export Plug-In . SVG Version: 6.00 Build 0)  -->
<!DOCTYPE svg PUBLIC "-//W3C//DTD SVG 1.1//EN" "http://www.w3.org/Graphics/SVG/1.1/DTD/svg11.dtd">
<svg version="1.1" id="Layer_1" xmlns="http://www.w3.org/2000/svg" xmlns:xlink="http://www.w3.org/1999/xlink" x="0px" y="0px"
	 width="126px" height="126px" viewBox="0 0 126 126" enable-background="new 0 0 126 126" xml:space="preserve">
<g>
	<g>
		<path d="M99.98,36.443c-0.006-0.468-0.154-0.93-0.475-1.295L79.838,12.684c-0.004-0.006-0.01-0.008-0.016-0.014
			c-0.117-0.131-0.252-0.239-0.396-0.334c-0.043-0.028-0.086-0.053-0.131-0.078c-0.127-0.068-0.258-0.124-0.395-0.165
			c-0.037-0.011-0.07-0.026-0.107-0.036C78.643,12.021,78.49,12,78.334,12H30c-2.205,0-4,1.795-4,4v94c0,2.206,1.795,4,4,4h66
			c2.207,0,4-1.794,4-4V36.667C100,36.592,99.988,36.518,99.98,36.443z M60.322,97.695c-1.761,1.659-4.37,2.404-7.418,2.404
			c-0.678,0-1.287-0.033-1.762-0.102v8.164h-5.115V85.636c1.592-0.271,3.828-0.475,6.978-0.475c3.184,0,5.454,0.61,6.978,1.829
			c1.457,1.152,2.439,3.049,2.439,5.285C62.422,94.511,61.677,96.407,60.322,97.695z M79.973,108.162H65.711V85.331h5.183v18.495
			h9.079V108.162z M30,79.917V16h46.334v20.466c0,1.104,0.895,2,2,2H96l0.002,41.451H30z"/>
		<path d="M53.276,89.057c-1.05,0-1.761,0.102-2.134,0.203v6.741c0.44,0.102,0.982,0.136,1.728,0.136
			c2.744,0,4.438-1.389,4.438-3.727C57.308,90.311,55.851,89.057,53.276,89.057z"/>
	</g>
	<g>
		<path d="M76.366,55.724l2.109-7.045c0.072-0.243,0.086-0.488,0.054-0.725l0.544-1.674c0.084-0.276-0.029-0.525-0.232-0.732
			c0.028-0.053,0.065-0.096,0.085-0.155c0.132-0.423-0.106-0.873-0.529-1.006l-0.713-0.224c-0.423-0.129-0.876,0.105-1.007,0.528
			c-0.013,0.042-0.008,0.085-0.014,0.127c-0.262,0.04-0.475,0.152-0.556,0.413l-0.495,1.739c-0.196,0.195-0.354,0.435-0.438,0.72
			l-2.11,7.045c-0.11,0.365-0.087,0.736,0.032,1.07l-2.871,10.077c-0.189,0.622-0.553,3.385,0.07,3.576
			c0.623,0.188,1.994-2.265,2.184-2.887l3.231-9.946C76.013,56.413,76.251,56.106,76.366,55.724z"/>
		<path d="M39.236,35.64l25.396-9.462l8.324,22.342c0.114-0.289,0.252-0.567,0.436-0.821l0.379-1.327
			c0.074-0.24,0.183-0.457,0.31-0.657l-8.253-22.15L36.622,34.445l14.166,38.02l17.396-6.482l0.691-2.427l-16.894,6.295
			L39.236,35.64z"/>
		<path d="M78.255,56.919l-0.324,1.084c-0.165,0.552-0.45,1.047-0.836,1.462l-0.028,0.086l0.313,0.837l-0.665,0.248l-0.802,2.468
			l4.081-1.521L78.255,56.919z"/>
		<path d="M62.239,46.624c0.173-0.193,0.402-0.308,0.649-0.325l0.173-0.011l0.199,0.063c0.157,0.057,0.285,0.043,0.396-0.014
			c0.12-0.059,0.213-0.168,0.252-0.291c0.114-0.356,0.417-0.6,0.78-0.648l-0.046-0.68c-0.006-0.071-0.057-0.135-0.124-0.158
			c-0.74-0.233-1.359-0.764-1.702-1.457c-0.344-0.695-0.391-1.513-0.128-2.241c0.024-0.066,0.005-0.145-0.048-0.191l-1.645-1.438
			c-0.091-0.08-0.15-0.048-0.199-0.023c-0.68,0.356-1.5,0.422-2.234,0.171c-0.733-0.246-1.342-0.792-1.673-1.494
			c-0.03-0.063-0.099-0.104-0.172-0.099l-2.177,0.146c-0.072,0.003-0.135,0.054-0.157,0.12c-0.232,0.74-0.765,1.361-1.458,1.703
			c-0.691,0.345-1.513,0.391-2.241,0.125c-0.045-0.014-0.111-0.038-0.192,0.052l-1.438,1.644c-0.047,0.055-0.057,0.135-0.022,0.198
			c0.357,0.687,0.421,1.501,0.173,2.235c-0.248,0.733-0.792,1.342-1.495,1.672c-0.065,0.03-0.105,0.098-0.102,0.172l0.146,2.18
			c0.004,0.071,0.053,0.132,0.122,0.155c0.74,0.233,1.359,0.765,1.704,1.458c0.342,0.693,0.388,1.513,0.123,2.241
			c-0.022,0.067-0.004,0.145,0.051,0.191l1.645,1.44c0.091,0.078,0.151,0.046,0.197,0.021c0.35-0.183,0.732-0.29,1.13-0.317
			c0.378-0.024,0.75,0.022,1.106,0.146c0.734,0.248,1.343,0.791,1.673,1.493c0.03,0.064,0.1,0.104,0.172,0.1l2.177-0.145
			c0.074-0.005,0.136-0.054,0.157-0.121c0.234-0.74,0.764-1.36,1.459-1.703c0.677-0.334,1.467-0.385,2.177-0.147
			c0.004-0.091,0.021-0.185,0.053-0.274c0.048-0.129,0.04-0.271-0.019-0.389c-0.058-0.114-0.165-0.207-0.291-0.246
			c-0.378-0.124-0.636-0.454-0.661-0.845l-0.068-1.032c-0.027-0.39,0.185-0.751,0.537-0.921c0.125-0.06,0.221-0.165,0.262-0.288
			s0.03-0.265-0.029-0.379c-0.18-0.349-0.127-0.775,0.127-1.068L62.239,46.624z M56.479,50.611
			c-2.336,0.155-4.362-1.619-4.518-3.955c-0.157-2.335,1.616-4.365,3.953-4.521c2.338-0.156,4.365,1.62,4.521,3.956
			S58.817,50.455,56.479,50.611z"/>
		<path d="M69.266,49.226c-0.35-0.111-0.644-0.363-0.806-0.691c-0.163-0.33-0.185-0.716-0.061-1.062
			c0.013-0.031,0.002-0.068-0.022-0.091L67.599,46.7c-0.044-0.038-0.073-0.021-0.095-0.012c-0.321,0.169-0.713,0.201-1.06,0.083
			c-0.348-0.118-0.637-0.376-0.793-0.709c-0.014-0.03-0.046-0.05-0.08-0.048l-1.032,0.07c-0.034,0.003-0.064,0.025-0.073,0.057
			c-0.11,0.35-0.363,0.646-0.69,0.808c-0.328,0.163-0.718,0.185-1.062,0.059c-0.022-0.007-0.055-0.019-0.092,0.024l-0.683,0.777
			c-0.021,0.026-0.027,0.066-0.012,0.096c0.171,0.325,0.199,0.711,0.083,1.059c-0.118,0.348-0.375,0.636-0.707,0.792
			c-0.031,0.014-0.052,0.047-0.05,0.082l0.069,1.032c0.002,0.034,0.025,0.063,0.059,0.073c0.35,0.111,0.645,0.363,0.806,0.691
			c0.163,0.328,0.187,0.716,0.062,1.062c-0.012,0.032-0.002,0.067,0.022,0.091l0.78,0.683c0.043,0.037,0.07,0.021,0.093,0.01
			c0.165-0.086,0.347-0.138,0.536-0.15c0.178-0.012,0.354,0.013,0.522,0.069c0.348,0.116,0.638,0.376,0.793,0.708
			c0.014,0.031,0.048,0.049,0.081,0.047l1.031-0.069c0.034-0.002,0.064-0.024,0.075-0.056c0.11-0.352,0.361-0.646,0.69-0.808
			c0.328-0.163,0.717-0.184,1.063-0.06c0.022,0.008,0.054,0.018,0.091-0.022l0.681-0.78c0.022-0.025,0.026-0.063,0.012-0.094
			c-0.17-0.325-0.201-0.712-0.082-1.06c0.117-0.349,0.374-0.636,0.708-0.792c0.03-0.016,0.05-0.047,0.049-0.081L69.325,49.3
			C69.322,49.266,69.299,49.235,69.266,49.226z M65.457,52.092c-1.105,0.075-2.066-0.767-2.141-1.874
			c-0.073-1.105,0.766-2.068,1.874-2.143c1.106-0.071,2.066,0.769,2.141,1.876S66.565,52.019,65.457,52.092z"/>
	</g>
</g>
</svg>
