<?xml version="1.0" encoding="utf-8"?>
<!-- Generator: Adobe Illustrator 16.0.0, SVG Export Plug-In . SVG Version: 6.00 Build 0)  -->
<!DOCTYPE svg PUBLIC "-//W3C//DTD SVG 1.1//EN" "http://www.w3.org/Graphics/SVG/1.1/DTD/svg11.dtd">
<svg version="1.1" id="Layer_1" xmlns="http://www.w3.org/2000/svg" xmlns:xlink="http://www.w3.org/1999/xlink" x="0px" y="0px"
	 width="126px" height="126px" viewBox="0 0 126 126" enable-background="new 0 0 126 126" xml:space="preserve">
<g>
	<path d="M87.096,91.244c0-1.742-1.332-2.664-3.686-2.664c-1.127,0-1.779,0.068-2.221,0.137v5.361h1.707
		C85.629,94.078,87.096,92.951,87.096,91.244z"/>
	<path d="M40.201,88.716c-1.059,0-1.775,0.102-2.152,0.203v6.797c0.443,0.104,0.99,0.137,1.742,0.137
		c2.768,0,4.473-1.398,4.473-3.756C44.264,89.98,42.795,88.716,40.201,88.716z"/>
	<path d="M82.963,97.8h-1.773v6.488c0.512,0.068,1.127,0.068,2.014,0.068c2.357,0,4.441-0.887,4.441-3.313
		C87.645,98.722,85.561,97.8,82.963,97.8z"/>
	<path d="M99.98,36.443c-0.006-0.467-0.154-0.93-0.475-1.295L79.838,12.683c-0.004-0.006-0.01-0.008-0.016-0.014
		c-0.117-0.131-0.252-0.238-0.396-0.334c-0.045-0.027-0.086-0.053-0.131-0.078c-0.127-0.068-0.258-0.123-0.395-0.164
		c-0.037-0.012-0.07-0.027-0.107-0.037C78.643,12.021,78.49,12,78.334,12H30c-2.205,0-4,1.795-4,4v94c0,2.205,1.795,4,4,4h66
		c2.207,0,4-1.795,4-4V36.667C100,36.591,99.988,36.517,99.98,36.443z M47.305,97.423c-1.775,1.676-4.404,2.426-7.479,2.426
		c-0.684,0-1.297-0.033-1.777-0.102v8.23h-5.156V85.267c1.605-0.273,3.859-0.479,7.035-0.479c3.211,0,5.498,0.615,7.035,1.844
		c1.469,1.162,2.459,3.074,2.459,5.328S48.672,96.126,47.305,97.423z M71.521,97.869c0,7.104-3.586,10.484-9.598,10.484
		c-5.805,0-9.221-3.209-9.221-10.553V84.96h5.225v13.248c0,3.963,1.504,5.979,4.168,5.979c2.732,0,4.234-1.914,4.234-5.979V84.96
		h5.191V97.869z M90.719,106.134c-1.676,1.33-4.475,2.082-9.051,2.082c-2.563,0-4.475-0.17-5.637-0.342V85.267
		c1.365-0.273,4.133-0.479,6.729-0.479c3.176,0,5.121,0.307,6.797,1.297c1.605,0.855,2.766,2.426,2.766,4.51
		c0,2.049-1.195,3.961-3.789,4.916v0.07c2.629,0.717,4.574,2.697,4.574,5.668C93.107,103.333,92.152,104.972,90.719,106.134z
		 M30,79.917V16h46.334v20.467c0,1.104,0.895,2,2,2H96l0.002,41.451H30z"/>
	<path d="M77.143,44.585c-1.451-1.246-3.707-2.541-6.678-2.541s-5.205,1.299-6.635,2.551c-0.438,0.387-0.807,0.768-1.113,1.117
		c-0.313-0.352-0.697-0.736-1.15-1.127c-1.457-1.246-3.711-2.541-6.686-2.541c-2.969,0-5.201,1.299-6.629,2.551
		c-1.434,1.256-2.133,2.479-2.174,2.549l-0.154,0.564v18.379l2.299,0.563l0.006,0.004c0.029-0.064,0.652-1.084,1.783-2.035
		c1.145-0.961,2.734-1.846,4.869-1.85c2.199,0,3.875,0.949,5.053,1.951c0.578,0.498,1.033,0.998,1.324,1.371
		c0.148,0.189,0.254,0.342,0.326,0.439c0.031,0.053,0.057,0.092,0.072,0.119c0.006,0.01,0.012,0.018,0.012,0.021h0.006l2.135-0.02
		l0.002-0.004v-0.004c0.049-0.084,0.668-1.086,1.781-2.027c1.148-0.961,2.742-1.846,4.873-1.85c2.199,0,3.869,0.949,5.053,1.951
		c0.584,0.498,1.025,0.998,1.318,1.371c0.15,0.189,0.258,0.342,0.328,0.439c0.037,0.053,0.059,0.092,0.074,0.119
		c0.008,0.01,0.014,0.018,0.014,0.021h0.002l2.293-0.584V47.708l-0.164-0.584C79.338,47.056,78.607,45.835,77.143,44.585z
		 M61.504,62.919c-1.449-1.23-3.686-2.496-6.623-2.496h-0.002c-2.885,0-5.07,1.227-6.5,2.439V48.039
		c0.252-0.369,0.805-1.098,1.633-1.801c1.145-0.959,2.734-1.844,4.869-1.844c2.199,0,3.875,0.949,5.053,1.947
		c0.578,0.498,1.033,1.004,1.324,1.377c0.104,0.127,0.188,0.244,0.246,0.332V62.919z M77.09,62.919
		c-1.459-1.234-3.693-2.496-6.625-2.496c-2.883-0.006-5.072,1.227-6.506,2.439V48.039c0.254-0.365,0.805-1.098,1.633-1.801
		c1.148-0.959,2.742-1.844,4.873-1.844c2.199,0,3.869,0.949,5.053,1.947c0.584,0.498,1.025,1.004,1.318,1.377
		c0.105,0.127,0.189,0.244,0.254,0.332V62.919z"/>
</g>
</svg>
