<?xml version="1.0" encoding="utf-8"?>
<!-- Generator: Adobe Illustrator 16.0.0, SVG Export Plug-In . SVG Version: 6.00 Build 0)  -->
<!DOCTYPE svg PUBLIC "-//W3C//DTD SVG 1.1//EN" "http://www.w3.org/Graphics/SVG/1.1/DTD/svg11.dtd">
<svg version="1.1" id="Layer_1" xmlns="http://www.w3.org/2000/svg" xmlns:xlink="http://www.w3.org/1999/xlink" x="0px" y="0px"
	 width="126px" height="126px" viewBox="0 0 126 126" enable-background="new 0 0 126 126" xml:space="preserve">
<g>
	<g>
		<path d="M51.769,88.532c-1.05,0-1.761,0.102-2.134,0.203v6.741c0.44,0.102,0.982,0.136,1.728,0.136
			c2.744,0,4.438-1.389,4.438-3.727C55.8,89.786,54.343,88.532,51.769,88.532z"/>
		<path d="M99.98,36.396c-0.006-0.468-0.154-0.93-0.475-1.295L79.838,12.636c-0.004-0.006-0.01-0.008-0.016-0.014
			c-0.117-0.131-0.252-0.239-0.396-0.334c-0.043-0.028-0.086-0.053-0.131-0.078c-0.127-0.068-0.258-0.124-0.395-0.165
			c-0.037-0.011-0.07-0.026-0.107-0.036c-0.15-0.035-0.303-0.057-0.459-0.057H30c-2.205,0-4,1.795-4,4v94c0,2.206,1.795,4,4,4h66
			c2.207,0,4-1.794,4-4V36.619C100,36.544,99.988,36.47,99.98,36.396z M58.814,97.171c-1.761,1.659-4.37,2.404-7.418,2.404
			c-0.678,0-1.287-0.033-1.762-0.102v8.164H44.52V85.111c1.592-0.271,3.828-0.475,6.978-0.475c3.184,0,5.454,0.61,6.978,1.829
			c1.457,1.152,2.439,3.049,2.439,5.285C60.915,93.986,60.169,95.883,58.814,97.171z M73.959,98.119v9.519h-5.149v-9.35
			l-7.215-13.481h5.895l2.337,5.487c0.711,1.66,1.186,2.879,1.762,4.37h0.068c0.508-1.423,1.05-2.744,1.728-4.37l2.303-5.487h5.793
			L73.959,98.119z M30,79.869V15.952h46.334v20.466c0,1.104,0.895,2,2,2H96l0.002,41.451H30z"/>
	</g>
	<g>
		<path fill-rule="evenodd" clip-rule="evenodd" d="M66.104,50.418c2.381-0.063,4.22-2.049,4.259-4.434
			c0.025-1.537,0.004-3.076,0.005-4.613c0.001-1.539,0.01-3.076-0.005-4.613c-0.003-0.357-0.039-0.73-0.144-1.069
			c-0.654-2.136-2.243-3.329-4.325-3.583c-2.483-0.303-5.01-0.37-7.513-0.326c-1.369,0.025-2.761,0.39-4.087,0.786
			c-1.841,0.551-2.562,1.612-2.633,3.523c-0.04,1.09,0.002,2.183-0.062,3.271c-0.046,0.79,0.263,0.991,1.02,0.979
			c2.572-0.041,5.145,0.004,7.717-0.021c0.604-0.006,0.753,0.219,0.753,0.785c0,0.777-0.529,0.656-0.983,0.658
			c-4.026,0.012-8.054,0.078-12.079,0c-3.073-0.059-5.32,2.042-5.936,4.67c-0.449,1.915-0.789,3.838-0.617,5.8
			c0.18,2.06,0.465,4.116,1.495,5.964c0.798,1.434,2.005,2.32,3.681,2.417c0.947,0.056,1.901-0.009,2.851,0.025
			c0.566,0.02,0.722-0.222,0.71-0.75c-0.027-1.173,0.01-2.349-0.013-3.522c-0.023-1.135,0.328-2.148,0.943-3.072
			c1.341-2.013,3.288-2.844,5.651-2.843C59.898,50.449,63.003,50.5,66.104,50.418z M55.633,38.107
			c-1.022-0.001-1.875-0.83-1.891-1.839c-0.017-1.031,0.875-1.954,1.891-1.954c0.961-0.001,1.876,0.901,1.9,1.873
			C57.56,37.23,56.688,38.108,55.633,38.107z"/>
		<path fill-rule="evenodd" clip-rule="evenodd" d="M81.024,50.575c-0.18-2.058-0.465-4.115-1.495-5.964
			c-0.799-1.433-2.005-2.319-3.681-2.416c-0.948-0.055-1.902,0.01-2.851-0.025c-0.567-0.02-0.723,0.223-0.71,0.75
			c0.026,1.174-0.011,2.35,0.012,3.522c0.023,1.134-0.328,2.149-0.943,3.073c-1.341,2.013-3.288,2.843-5.651,2.842
			c-3.104,0-6.208-0.051-9.31,0.031c-2.38,0.063-4.22,2.049-4.259,4.433c-0.025,1.537-0.005,3.076-0.006,4.613
			c-0.001,1.538-0.01,3.075,0.005,4.614c0.003,0.357,0.04,0.729,0.144,1.068c0.654,2.137,2.243,3.329,4.326,3.583
			c2.483,0.303,5.009,0.371,7.513,0.325c1.369-0.025,2.761-0.388,4.087-0.785c1.841-0.551,2.562-1.612,2.632-3.523
			c0.041-1.09-0.002-2.183,0.062-3.27c0.047-0.791-0.263-0.992-1.02-0.979c-2.572,0.04-5.145-0.003-7.717,0.022
			c-0.604,0.005-0.753-0.221-0.753-0.785c0.001-0.778,0.529-0.657,0.984-0.658c4.026-0.012,8.054-0.078,12.079-0.002
			c3.073,0.06,5.32-2.041,5.936-4.668C80.856,54.461,81.196,52.537,81.024,50.575z M66.866,64.699c1.023,0,1.875,0.829,1.891,1.838
			c0.016,1.032-0.875,1.953-1.891,1.955c-0.962,0-1.877-0.901-1.9-1.874C64.94,65.576,65.811,64.697,66.866,64.699z"/>
	</g>
</g>
</svg>
