<?xml version="1.0" encoding="utf-8"?>
<!-- Generator: Adobe Illustrator 16.0.0, SVG Export Plug-In . SVG Version: 6.00 Build 0)  -->
<!DOCTYPE svg PUBLIC "-//W3C//DTD SVG 1.1//EN" "http://www.w3.org/Graphics/SVG/1.1/DTD/svg11.dtd">
<svg version="1.1" id="Layer_1" xmlns="http://www.w3.org/2000/svg" xmlns:xlink="http://www.w3.org/1999/xlink" x="0px" y="0px"
	 width="126px" height="126px" viewBox="0 0 126 126" enable-background="new 0 0 126 126" xml:space="preserve">
<g>
	<path d="M72.249,86.665h-0.068c-0.343,1.37-0.686,3.117-1.063,4.453l-1.37,4.899h5.104l-1.438-4.899
		C73.002,89.748,72.592,88.035,72.249,86.665z"/>
	<path d="M99.98,35.184c-0.006-0.468-0.154-0.93-0.475-1.295L79.838,11.424c-0.004-0.006-0.01-0.008-0.016-0.014
		c-0.117-0.131-0.252-0.239-0.396-0.334c-0.043-0.028-0.086-0.053-0.131-0.078c-0.127-0.068-0.258-0.124-0.395-0.165
		c-0.037-0.011-0.07-0.026-0.107-0.036c-0.15-0.035-0.303-0.057-0.459-0.057H30c-2.205,0-4,1.795-4,4v94c0,2.206,1.795,4,4,4h66
		c2.207,0,4-1.794,4-4V35.407C100,35.332,99.988,35.258,99.98,35.184z M55.089,105.85c-0.378-0.65-0.926-2.535-1.61-5.379
		c-0.617-2.877-1.61-3.666-3.734-3.7h-1.576v9.079h-5.174V83.067c1.68-0.274,4.181-0.479,6.955-0.479
		c3.427,0,5.825,0.514,7.469,1.815c1.37,1.097,2.125,2.706,2.125,4.831c0,2.945-2.091,4.967-4.078,5.687v0.103
		c1.611,0.651,2.501,2.192,3.083,4.316c0.72,2.604,1.439,5.619,1.885,6.51H55.089z M77.387,105.85l-1.78-5.927h-6.612l-1.645,5.927
		h-5.412l7.057-23.091h6.853l7.159,23.091H77.387z M30,78.657V14.74h46.334v20.466c0,1.104,0.895,2,2,2H96l0.002,41.451H30z"/>
	<path d="M50.532,86.459c-1.269,0-1.987,0.103-2.364,0.172v6.371h2.056c2.604,0,4.146-1.301,4.146-3.323
		C54.369,87.556,52.93,86.493,50.532,86.459z"/>
</g>
<g>
	<g>
		<path d="M65.947,37.962l-9.646,7.201c0,0-0.903,0.092-1.938,0.346V55.96c1.034,0.223,1.938,0.326,1.938,0.326l9.438,7.003
			c0,0,1.731,1.45,1.731-0.047c0-1.503,0-23.884,0-25.251C67.471,36.815,65.947,37.962,65.947,37.962z"/>
	</g>
	<g>
		<path d="M51.301,47.617c0,1.951,0,5.365,0,6.731c0,0.523,0.737,0.93,1.645,1.232v-9.623
			C52.038,46.335,51.301,46.869,51.301,47.617z"/>
	</g>
</g>
<path d="M61.508,29.627c-11.571,0-20.984,9.413-20.984,20.984s9.413,20.984,20.984,20.984s20.984-9.413,20.984-20.984
	S73.079,29.627,61.508,29.627z M61.508,68.596c-9.917,0-17.984-8.067-17.984-17.984s8.067-17.984,17.984-17.984
	s17.984,8.067,17.984,17.984S71.425,68.596,61.508,68.596z"/>
</svg>
