<?xml version="1.0" encoding="utf-8"?>
<!-- Generator: Adobe Illustrator 16.0.0, SVG Export Plug-In . SVG Version: 6.00 Build 0)  -->
<!DOCTYPE svg PUBLIC "-//W3C//DTD SVG 1.1//EN" "http://www.w3.org/Graphics/SVG/1.1/DTD/svg11.dtd">
<svg version="1.1" id="Layer_1" xmlns="http://www.w3.org/2000/svg" xmlns:xlink="http://www.w3.org/1999/xlink" x="0px" y="0px"
	 width="126px" height="126px" viewBox="0 0 126 126" enable-background="new 0 0 126 126" xml:space="preserve">
<g>
	<path d="M58.457,88.879h-0.064c-0.32,1.278-0.639,2.908-0.992,4.154l-1.277,4.57h4.762l-1.342-4.57
		C59.158,91.756,58.777,90.157,58.457,88.879z"/>
	<path d="M99.979,36.443c-0.004-0.468-0.154-0.93-0.475-1.295L79.838,12.684c-0.006-0.006-0.012-0.008-0.016-0.014
		c-0.117-0.131-0.254-0.239-0.398-0.334c-0.043-0.028-0.086-0.053-0.131-0.078c-0.125-0.068-0.258-0.124-0.395-0.165
		c-0.037-0.011-0.07-0.026-0.107-0.036C78.643,12.021,78.488,12,78.332,12H30c-2.207,0-4,1.795-4,4v94c0,2.206,1.793,4,4,4h66
		c2.205,0,4-1.794,4-4V36.667C100,36.592,99.988,36.518,99.979,36.443z M42.445,106.774c-0.352-0.607-0.863-2.365-1.502-5.019
		c-0.576-2.684-1.502-3.418-3.482-3.449H35.99v8.468h-4.824v-21.25c1.566-0.256,3.896-0.448,6.486-0.448
		c3.195,0,5.432,0.48,6.965,1.694c1.279,1.022,1.982,2.524,1.982,4.505c0,2.748-1.949,4.635-3.803,5.306v0.095
		c1.5,0.607,2.332,2.046,2.877,4.026c0.67,2.429,1.342,5.241,1.756,6.072H42.445z M63.25,106.774l-1.662-5.528H55.42l-1.533,5.528
		h-5.049l6.582-21.538h6.391l6.68,21.538H63.25z M89.775,106.774h-5.273l-1.822-9.268c-0.414-2.173-0.768-4.186-1.021-6.646h-0.064
		c-0.383,2.428-0.734,4.473-1.246,6.646l-2.045,9.268h-5.336l-5.113-21.538h5.207l1.631,8.883c0.479,2.557,0.926,5.337,1.277,7.51
		h0.064c0.352-2.332,0.863-4.921,1.406-7.572l1.822-8.82h5.176l1.727,9.074c0.479,2.525,0.83,4.826,1.15,7.223h0.064
		c0.318-2.396,0.799-4.921,1.244-7.477l1.758-8.82h4.953L89.775,106.774z M30,79.917V16h46.332v20.466c0,1.104,0.896,2,2,2H96
		v41.451H30z"/>
	<path d="M38.195,88.688c-1.184,0-1.854,0.096-2.205,0.16v5.943h1.918c2.428,0,3.865-1.215,3.865-3.1
		C41.773,89.709,40.432,88.72,38.195,88.688z"/>
	<path d="M67.433,55.457l13.261-3.402c0,0-0.168-6.6-5.428-12.912L67.433,55.457z"/>
	<path d="M46.146,60.12c0,0,3.044,5.858,10.54,9.227L56.575,51.25L46.146,60.12z"/>
	<path d="M73.663,37.728c0,0-5.304-3.931-13.518-3.673l8.034,16.217L73.663,37.728z"/>
	<path d="M58.748,69.916c0,0,6.49,1.208,13.759-2.626L58.18,56.238L58.748,69.916z"/>
	<path d="M58.043,34.447c0,0-6.364,1.759-11.216,8.392l17.723,3.652L58.043,34.447z"/>
	<path d="M74.226,66.017c0,0,4.948-4.371,6.401-12.459l-17.53,4.487L74.226,66.017z"/>
	<path d="M45.841,44.736c0,0-2.531,6.098-0.294,14.005l13.79-11.718L45.841,44.736z"/>
</g>
</svg>
