<?xml version="1.0" encoding="utf-8"?>
<!-- Generator: Adobe Illustrator 16.0.0, SVG Export Plug-In . SVG Version: 6.00 Build 0)  -->
<!DOCTYPE svg PUBLIC "-//W3C//DTD SVG 1.1//EN" "http://www.w3.org/Graphics/SVG/1.1/DTD/svg11.dtd">
<svg version="1.1" id="Layer_1" xmlns="http://www.w3.org/2000/svg" xmlns:xlink="http://www.w3.org/1999/xlink" x="0px" y="0px"
	 width="126px" height="126px" viewBox="0 0 126 126" enable-background="new 0 0 126 126" xml:space="preserve">
<g>
	<g>
		<path d="M38.891,89.016c-1.137,0-1.783,0.092-2.121,0.152v5.716h1.844c2.336,0,3.719-1.168,3.719-2.98
			C42.332,89.998,41.041,89.046,38.891,89.016z"/>
		<path d="M59.23,89.076c-3.166,0-5.01,3.012-5.01,7.038c0,4.056,1.906,6.914,5.041,6.914c3.164,0,4.977-3.013,4.977-7.038
			C64.238,92.272,62.457,89.076,59.23,89.076z"/>
		<path d="M100.123,36.531c-0.006-0.468-0.154-0.93-0.475-1.295L79.98,12.771c-0.004-0.006-0.01-0.008-0.016-0.014
			c-0.117-0.131-0.252-0.239-0.396-0.334c-0.043-0.028-0.086-0.053-0.131-0.078c-0.127-0.068-0.258-0.124-0.395-0.165
			c-0.037-0.011-0.07-0.026-0.107-0.036c-0.15-0.035-0.303-0.057-0.459-0.057H30.143c-2.205,0-4,1.795-4,4v94c0,2.206,1.795,4,4,4
			h66c2.207,0,4-1.794,4-4V36.755C100.143,36.68,100.131,36.605,100.123,36.531z M42.977,106.407
			c-0.338-0.583-0.83-2.273-1.443-4.823c-0.555-2.582-1.445-3.288-3.35-3.319H36.77v8.143h-4.641V85.973
			c1.506-0.246,3.75-0.43,6.238-0.43c3.072,0,5.225,0.46,6.699,1.629c1.23,0.983,1.906,2.427,1.906,4.332
			c0,2.644-1.875,4.456-3.658,5.101v0.094c1.445,0.583,2.244,1.966,2.766,3.871c0.646,2.335,1.291,5.039,1.691,5.838H42.977z
			 M59.016,106.745c-6.146,0-9.742-4.64-9.742-10.539c0-6.208,3.965-10.848,10.08-10.848c6.361,0,9.832,4.763,9.832,10.479
			C69.186,102.628,65.068,106.745,59.016,106.745z M90.08,106.407l-0.309-7.927c-0.092-2.49-0.184-5.502-0.184-8.513h-0.092
			c-0.646,2.644-1.506,5.593-2.305,8.02l-2.521,8.083h-3.656l-2.213-8.021c-0.676-2.428-1.383-5.379-1.873-8.082h-0.063
			c-0.123,2.796-0.215,5.992-0.369,8.573l-0.367,7.866h-4.334l1.322-20.71h6.238l2.027,6.914c0.646,2.396,1.291,4.978,1.752,7.404
			h0.092c0.584-2.396,1.291-5.132,1.967-7.437l2.213-6.882h6.113l1.139,20.71H90.08z M30.143,80.005V16.088h46.334v20.466
			c0,1.104,0.895,2,2,2h17.666l0.002,41.451H30.143z"/>
	</g>
	<path d="M77.182,36.533H48.652v3.898h-5.846v1.246h-3.08v1.093h3.08v1.403h5.846v6.857h-5.846v1.403h-3.08v1.093h3.08v1.246h5.846
		v7.327h-5.846v1.325h-3.08v1.092h3.08v1.324h5.846v5.301h28.529v-5.301h5.299v-1.324h3.08v-1.092h-3.08v-1.325h-5.299v-7.327h5.299
		v-1.246h3.08v-1.093h-3.08v-1.403h-5.299v-6.857h5.299v-1.403h3.08v-1.093h-3.08v-1.246h-5.299V36.533z M71.727,45.887
		c-1.207,0-2.184-0.977-2.184-2.183s0.977-2.183,2.184-2.183c1.205,0,2.182,0.977,2.182,2.183S72.932,45.887,71.727,45.887z"/>
</g>
</svg>
