<?xml version="1.0" encoding="utf-8"?>
<!-- Generator: Adobe Illustrator 16.0.0, SVG Export Plug-In . SVG Version: 6.00 Build 0)  -->
<!DOCTYPE svg PUBLIC "-//W3C//DTD SVG 1.1//EN" "http://www.w3.org/Graphics/SVG/1.1/DTD/svg11.dtd">
<svg version="1.1" id="Layer_1" xmlns="http://www.w3.org/2000/svg" xmlns:xlink="http://www.w3.org/1999/xlink" x="0px" y="0px"
	 width="126px" height="126px" viewBox="0 0 126 126" enable-background="new 0 0 126 126" xml:space="preserve">
<g>
	<g>
		<path d="M58.342,88.091c-1.05,0-1.762,0.102-2.134,0.203v6.741c0.44,0.102,0.982,0.136,1.728,0.136
			c2.744,0,4.438-1.389,4.438-3.727C62.374,89.345,60.917,88.091,58.342,88.091z"/>
		<path d="M38.455,88.023c-1.253,0-1.964,0.102-2.337,0.169v6.301h2.033c2.574,0,4.099-1.287,4.099-3.286
			C42.249,89.107,40.827,88.058,38.455,88.023z"/>
		<path d="M99.98,36.446c-0.006-0.468-0.154-0.93-0.475-1.295L79.838,12.687c-0.004-0.006-0.01-0.008-0.016-0.014
			c-0.117-0.131-0.252-0.239-0.396-0.334c-0.043-0.028-0.086-0.053-0.131-0.078c-0.127-0.068-0.258-0.124-0.395-0.165
			c-0.037-0.011-0.07-0.026-0.107-0.036c-0.15-0.035-0.303-0.057-0.459-0.057H30c-2.205,0-4,1.795-4,4v94c0,2.206,1.795,4,4,4h66
			c2.207,0,4-1.794,4-4V36.67C100,36.595,99.988,36.521,99.98,36.446z M42.96,107.196c-0.373-0.644-0.915-2.507-1.592-5.318
			c-0.61-2.846-1.592-3.624-3.692-3.658h-1.559v8.977h-5.115V84.67c1.66-0.271,4.132-0.475,6.876-0.475
			c3.387,0,5.759,0.508,7.385,1.796c1.355,1.084,2.1,2.676,2.1,4.776c0,2.913-2.066,4.911-4.031,5.623v0.102
			c1.592,0.644,2.473,2.168,3.049,4.268c0.711,2.575,1.423,5.556,1.863,6.437H42.96z M65.388,96.729
			c-1.762,1.659-4.37,2.404-7.418,2.404c-0.678,0-1.287-0.033-1.762-0.102v8.164h-5.115V84.67c1.592-0.271,3.828-0.475,6.978-0.475
			c3.184,0,5.454,0.61,6.978,1.829c1.457,1.152,2.439,3.049,2.439,5.285C67.488,93.545,66.743,95.441,65.388,96.729z M89.95,107.196
			l-0.339-8.739c-0.102-2.744-0.203-6.063-0.203-9.384h-0.102c-0.711,2.913-1.66,6.165-2.541,8.842l-2.778,8.908h-4.031
			l-2.439-8.841c-0.746-2.676-1.524-5.928-2.066-8.909h-0.068c-0.135,3.083-0.237,6.605-0.407,9.451l-0.406,8.672h-4.776
			l1.457-22.831h6.876l2.236,7.621c0.711,2.643,1.423,5.488,1.931,8.164h0.102c0.644-2.643,1.422-5.657,2.168-8.197l2.439-7.588
			h6.741l1.253,22.831H89.95z M30,79.92V16.003h46.334v20.466c0,1.104,0.895,2,2,2H96l0.002,41.451H30z"/>
	</g>
	<g>
		<path fill-rule="evenodd" clip-rule="evenodd" d="M83.515,53.032c-0.036,13.048-9.889,22.505-21.518,23.023
			c-6.12,0.273-11.55-1.491-16.153-5.538c-5.152-4.529-7.731-10.339-7.781-17.15c-0.043-5.862,1.933-11.097,5.94-15.428
			c4.71-5.088,10.578-7.555,17.538-7.378C73.424,30.864,83.343,40.588,83.515,53.032z M72.273,49.937
			c0-0.294-0.01-0.483,0.003-0.671c0.007-0.1,0.055-0.197,0.08-0.297c0.432-1.795,0.553-3.571-0.208-5.329
			c-0.703-1.622-1.32-3.282-2.049-4.892c-0.361-0.8-0.751-1.669-1.369-2.252c-1.542-1.455-3.521-1.463-5.461-1.148
			c-1.086,0.176-2.145,0.504-3.261,0.385c-1.462-0.155-2.919-0.383-4.385-0.477c-1.247-0.079-2.57,0.901-2.933,2.094
			c-0.448,1.473-0.874,2.955-1.251,4.447c-0.368,1.459-0.078,2.295,1.273,3.009c1.423,0.754,2.99,1.245,4.514,1.795
			c1.121,0.405,2.29,0.677,3.405,1.093c0.732,0.273,1.317,0.73,1.297,1.683c-0.013,0.616,0.221,1.191,0.669,1.672
			c0.187,0.2,0.255,0.511,0.378,0.771c-0.042,0.073-0.084,0.146-0.126,0.218c-0.667-0.047-1.364,0.017-1.996-0.159
			c-3.518-0.977-6.828-2.443-9.886-4.44c-0.323-0.21-0.586-0.685-0.654-1.074c-0.104-0.595-0.105-1.242,0.025-1.827
			c0.121-0.542-0.086-0.6-0.485-0.574c-1.226,0.077-2.454,0.133-3.675,0.257c-1.343,0.136-2.429,0.756-3.18,1.904
			c-0.343,0.524-0.467,1.089-0.094,1.63c0.492,0.713,0.961,1.467,1.58,2.059c1.262,1.206,2.542,2.418,3.953,3.436
			c1.634,1.181,3.372,2.239,5.15,3.189c1.391,0.742,2.902,1.269,4.38,1.839c1.928,0.743,3.926,1.236,5.981,1.474
			c0.929,0.107,1.86,0.239,2.792,0.26c1.371,0.031,2.75,0.047,4.114-0.067c1.698-0.142,3.173-0.983,4.662-1.74
			c1.942-0.986,3.291-2.425,3.779-4.629c0.313-1.41,0.265-2.726-0.979-3.581c-1.366-0.94-2.813-1.798-4.454-2.239
			C73.594,48.641,73.319,49.503,72.273,49.937z M39.941,61.65c3.787,8.383,10.134,13.361,19.25,14.064
			c7.844,0.605,14.379-2.449,19.439-8.769c-0.602,0-1.06,0.009-1.517-0.002c-1.318-0.034-2.637-0.085-3.956-0.099
			c-0.105-0.001-0.326,0.262-0.302,0.352c0.147,0.546-0.128,0.813-0.567,1.018c-1.453,0.679-2.784,1.525-3.92,2.68
			c-0.347,0.352-0.836,0.595-1.302,0.785c-0.22,0.09-0.539-0.062-0.813-0.104c0.055-0.245,0.042-0.541,0.177-0.728
			c0.983-1.354,2-2.685,3-4.025c0.159-0.213,0.364-0.428,0.423-0.672c0.318-1.319,0.602-2.646,0.886-3.974
			c0.068-0.316-0.031-0.545-0.416-0.531c-0.209,0.009-0.419,0.021-0.628,0.022c-0.512,0.004-1.025,0.027-1.536,0
			c-1.006-0.055-2.009-0.357-3.011,0.087c-0.215,0.096-0.517,0.021-0.774-0.008c-0.551-0.064-1.101-0.214-1.65-0.214
			c-1.276,0-2.556,0.146-3.826,0.077c-0.638-0.033-1.369-0.265-1.86-0.656c-0.924-0.734-1.717-1.637-2.539-2.495
			c-0.315-0.329-0.604-0.443-1.043-0.241c-0.604,0.279-1.024,0.014-1.418-0.491c-0.531-0.68-1.126-1.314-1.739-1.925
			c-0.372-0.369-0.849-0.459-1.369-0.235c-0.642,0.275-1.224,0.613-1.214,1.405c0.008,0.724,0.192,1.392,0.682,1.988
			c0.56,0.682,1.007,1.445,1.792,1.935c0.167,0.104,0.254,0.558,0.173,0.771c-0.081,0.213-0.404,0.424-0.65,0.468
			c-0.615,0.107-1.189-0.032-1.664-0.5c-0.521-0.514-1.055-1.018-1.617-1.484c-0.239-0.199-0.557-0.406-0.847-0.42
			c-0.942-0.039-1.888,0.013-2.832,0.021c-0.767,0.007-1.533,0.001-2.431,0.001C39.196,59.689,39.385,60.163,39.941,61.65z"/>
		<path fill-rule="evenodd" clip-rule="evenodd" d="M54.216,38.98c0.399,0.25,0.73,0.39,0.974,0.622
			c0.687,0.651,1.535,0.677,2.342,0.514c1.013-0.204,1.925,0.068,2.858,0.32c0.104,0.028,0.249,0.217,0.234,0.308
			c-0.026,0.156-0.133,0.378-0.259,0.422c-0.46,0.164-0.937,0.299-1.418,0.382c-0.671,0.118-1.353,0.168-2.026,0.272
			c-0.218,0.034-0.471,0.097-0.626,0.236c-0.869,0.782-1.497-0.013-2.112-0.373c-0.695-0.406-0.718-1.201-0.576-1.912
			C53.665,39.486,53.994,39.256,54.216,38.98z"/>
		<path fill-rule="evenodd" clip-rule="evenodd" d="M63.445,36.616c0.75-0.345,1.533-0.435,2.337-0.324
			c0.343,0.047,0.697,0.095,1.014,0.225c0.475,0.193,0.8,0.515,0.811,1.105c0.009,0.573-0.421,0.737-0.785,0.825
			c-0.597,0.143-1.228,0.148-1.846,0.188c-0.093,0.006-0.195-0.114-0.367-0.223c0.358-0.308,0.664-0.572,1.014-0.873
			C65.057,36.781,64.169,36.937,63.445,36.616z"/>
		<path fill-rule="evenodd" clip-rule="evenodd" d="M64.272,66.154c-0.613-0.215-1.227-0.428-1.839-0.643
			c-0.039-0.014-0.073-0.055-0.111-0.057c-0.361-0.019-0.773,0.016-0.646-0.555c0.107-0.482,0.641-0.818,1.086-0.676
			c0.292,0.092,0.59,0.197,0.849,0.355c0.468,0.286,0.855,0.337,1.27-0.12c0.119-0.132,0.621-0.152,0.648-0.09
			c0.131,0.294,0.292,0.681,0.197,0.947C65.503,65.942,64.928,66.101,64.272,66.154z"/>
	</g>
</g>
</svg>
