<?xml version="1.0" encoding="utf-8"?>
<!-- Generator: Adobe Illustrator 16.0.0, SVG Export Plug-In . SVG Version: 6.00 Build 0)  -->
<!DOCTYPE svg PUBLIC "-//W3C//DTD SVG 1.1//EN" "http://www.w3.org/Graphics/SVG/1.1/DTD/svg11.dtd">
<svg version="1.1" id="Layer_1" xmlns="http://www.w3.org/2000/svg" xmlns:xlink="http://www.w3.org/1999/xlink" x="0px" y="0px"
	 width="126px" height="126px" viewBox="0 0 126 126" enable-background="new 0 0 126 126" xml:space="preserve">
<g>
	<path d="M99.98,36.525c-0.006-0.468-0.154-0.93-0.475-1.295L79.838,12.766c-0.004-0.006-0.01-0.008-0.016-0.014
		c-0.117-0.131-0.252-0.239-0.396-0.334c-0.043-0.028-0.086-0.053-0.131-0.078c-0.127-0.068-0.258-0.124-0.395-0.165
		c-0.037-0.011-0.07-0.026-0.107-0.036c-0.15-0.035-0.303-0.057-0.459-0.057H30c-2.205,0-4,1.795-4,4v94c0,2.206,1.795,4,4,4h66
		c2.207,0,4-1.794,4-4V36.749C100,36.674,99.988,36.6,99.98,36.525z M50.645,107.678c-0.359-0.621-0.883-2.418-1.535-5.129
		c-0.588-2.744-1.535-3.496-3.562-3.528h-1.503v8.657h-4.933V85.953c1.601-0.262,3.985-0.458,6.632-0.458
		c3.267,0,5.554,0.49,7.121,1.731c1.308,1.046,2.026,2.581,2.026,4.606c0,2.81-1.993,4.737-3.888,5.423v0.099
		c1.535,0.62,2.385,2.091,2.939,4.116c0.687,2.482,1.373,5.357,1.797,6.207H50.645z M73.745,89.841h-6.011v17.837h-4.998V89.841
		h-5.914v-4.182h16.923V89.841z M89.854,89.742h-8.461v5.031h7.906v4.051h-7.906v8.854h-4.998V85.659h13.459V89.742z M30,79.999
		V16.082h46.334v20.466c0,1.104,0.895,2,2,2H96l0.002,41.451H30z"/>
	<path d="M46.299,89.188c-1.208,0-1.895,0.098-2.254,0.163v6.076h1.961c2.482,0,3.953-1.241,3.953-3.169
		C49.959,90.232,48.586,89.22,46.299,89.188z"/>
</g>
<g>
	<path d="M72.167,34.946h-2.324v-3.361l-5.752-5.754H40.232v40.596h8.076v9.115h29.61V40.7L72.167,34.946z M72.597,37.453
		l3.305,3.306h-3.305V37.453z M69.843,62.575c0.011,0.172,0.011,0.345,0,0.517V62.575z M64.521,28.338l3.304,3.306h-3.304V28.338z
		 M41.701,64.959v-37.66h21.352v5.813h5.322v31.848H41.701z M76.45,74.074H49.776v-7.647h20.066v-2.345h4.666v-2h-4.666v-4.499
		h4.666v-2h-4.666v-4.896h4.666v-2h-4.666V36.414h1.285v5.813h5.322V74.074z"/>
	<path d="M46.337,37.752h4.09L50.9,41.49h1.493l-1.633-11.831H49.04L42.913,41.49h1.546L46.337,37.752z M48.637,33.152
		c0.351-0.72,0.649-1.457,0.965-2.159h0.035c0.053,0.702,0.141,1.563,0.211,2.177l0.456,3.423h-3.44L48.637,33.152z"/>
	<rect x="54.417" y="35.75" width="12.917" height="2"/>
	<rect x="54.417" y="40.833" width="12.917" height="2"/>
	<rect x="44.045" y="45.75" width="23.289" height="2"/>
	<rect x="44.045" y="50.583" width="10.039" height="2"/>
	<rect x="44.045" y="55.583" width="10.039" height="2"/>
	<rect x="44.045" y="60.688" width="23.018" height="2"/>
	<rect x="51.491" y="68.563" width="23.018" height="2"/>
	<path d="M62.229,57.163l-0.405-1.292c-3.375-9.094-5.637,1.042-5.637,1.042l-0.148,0.625h9.982h0.542
		C63.729,51.997,62.229,57.163,62.229,57.163z"/>
</g>
</svg>
