<?xml version="1.0" encoding="utf-8"?>
<!-- Generator: Adobe Illustrator 16.0.0, SVG Export Plug-In . SVG Version: 6.00 Build 0)  -->
<!DOCTYPE svg PUBLIC "-//W3C//DTD SVG 1.1//EN" "http://www.w3.org/Graphics/SVG/1.1/DTD/svg11.dtd">
<svg version="1.1" id="Layer_1" xmlns="http://www.w3.org/2000/svg" xmlns:xlink="http://www.w3.org/1999/xlink" x="0px" y="0px"
	 width="126px" height="126px" viewBox="0 0 126 126" enable-background="new 0 0 126 126" xml:space="preserve">
<g>
	<g>
		<path d="M61.746,90.126h-0.063c-0.307,1.229-0.613,2.797-0.953,3.995l-1.229,4.393h4.58l-1.291-4.393
			C62.422,92.891,62.053,91.354,61.746,90.126z"/>
		<path d="M100.123,36.531c-0.006-0.468-0.154-0.93-0.475-1.295L79.98,12.771c-0.004-0.006-0.01-0.008-0.016-0.014
			c-0.117-0.131-0.252-0.239-0.396-0.334c-0.043-0.028-0.086-0.053-0.131-0.078c-0.127-0.068-0.258-0.124-0.395-0.165
			c-0.037-0.011-0.07-0.026-0.107-0.036c-0.15-0.035-0.303-0.057-0.459-0.057H30.143c-2.205,0-4,1.795-4,4v94c0,2.206,1.795,4,4,4
			h66c2.207,0,4-1.794,4-4V36.755C100.143,36.68,100.131,36.605,100.123,36.531z M42.48,107.642c-2.365,0-4.701-0.614-5.869-1.26
			l0.953-3.872c1.26,0.645,3.195,1.29,5.193,1.29c2.15,0,3.287-0.892,3.287-2.242c0-1.291-0.982-2.028-3.473-2.92
			c-3.441-1.198-5.686-3.104-5.686-6.114c0-3.534,2.951-6.239,7.838-6.239c2.334,0,4.055,0.492,5.285,1.045l-1.045,3.779
			c-0.83-0.398-2.305-0.982-4.334-0.982c-2.027,0-3.012,0.921-3.012,1.997c0,1.321,1.168,1.905,3.842,2.919
			c3.658,1.353,5.379,3.259,5.379,6.178C50.84,104.691,48.166,107.642,42.48,107.642z M66.355,107.335l-1.598-5.317h-5.932
			l-1.475,5.317h-4.855l6.33-20.712h6.146l6.422,20.712H66.355z M82.699,107.335H77.23l-6.637-20.712h5.131l2.52,8.758
			c0.707,2.458,1.352,4.824,1.844,7.405h0.092c0.523-2.489,1.168-4.947,1.875-7.313l2.643-8.85h4.979L82.699,107.335z
			 M30.143,80.005V16.088h46.334v20.466c0,1.104,0.895,2,2,2h17.666l0.002,41.451H30.143z"/>
	</g>
	<g>
		<path d="M52.855,62.579c-2.715-1.206-4.611-3.921-4.611-7.084c0-4.281,3.473-7.752,7.754-7.752c3.227,0,5.99,1.972,7.158,4.776
			c0.152-0.007,0.303-0.023,0.459-0.023h4.449c0.131-1.219,0.559-2.351,1.256-3.261c0.611-0.802,1.379-1.304,2.055-1.747
			c0.303-0.198,0.414-0.349,0.43-0.385c0.063-0.317-0.518-1.292-0.736-1.659l-0.146-0.247c-1.307-2.216-2.137-4.193-2.619-6.235
			c-0.227-0.964-0.025-1.899,0.564-2.64c0.607-0.77,1.574-1.232,2.582-1.232c0.615,0,1.172,0.177,1.639,0.481v-6.681H38.906v37
			h14.242c-0.207-0.834-0.328-1.702-0.328-2.6C52.82,63.051,52.84,62.815,52.855,62.579z M42.607,32.591h25.371v13.038H42.607
			V32.591z"/>
		<rect x="56.174" y="34.353" width="8.986" height="8.985"/>
		<path d="M55.998,53.381c0.715,0,1.348,0.336,1.768,0.851c0.947-0.613,1.996-1.077,3.113-1.371
			c-0.973-1.688-2.793-2.827-4.881-2.827c-3.113,0-5.639,2.524-5.639,5.639c0,2.088,1.139,3.906,2.826,4.881
			c0.293-1.118,0.758-2.167,1.371-3.114c-0.514-0.42-0.85-1.051-0.85-1.767C53.707,54.406,54.732,53.381,55.998,53.381z"/>
		<path d="M82.063,54.495h-8.938l-1.713-0.02c-0.129-0.321-0.182-0.626-0.189-0.884c-0.066-1.818,1.68-3.392,2.434-3.983
			c0.998-0.785,1.52-1.587,1.797-2.767c0.184-0.779-0.252-1.657-0.752-2.49l-0.457-0.759c-1.162-1.92-2.262-3.734-2.822-6.108
			c-0.047-0.195-0.139-0.396-0.473-0.396c-0.238,0-0.49,0.115-0.625,0.287c-0.109,0.138-0.139,0.3-0.09,0.509
			c0.424,1.79,1.166,3.548,2.334,5.53l0.146,0.247c0.818,1.375,2.188,3.674-0.471,5.417c-0.557,0.365-1.084,0.711-1.439,1.177
			c-0.662,0.863-0.92,2.102-0.709,3.396c0.047,0.289,0.119,0.57,0.207,0.843h-7.188c-4.582,0-8.295,3.714-8.295,8.295
			c0,4.582,3.713,8.296,8.295,8.296c4.455,0,8.088-3.512,8.285-7.919h2.375c0.197,4.407,3.832,7.919,8.287,7.919
			c4.58,0,8.295-3.714,8.295-8.296C90.357,58.209,86.643,54.495,82.063,54.495z M63.652,58.553c0.848-0.311,1.785,0.125,2.096,0.972
			c0.311,0.848-0.123,1.786-0.971,2.097s-1.787-0.124-2.098-0.972C62.371,59.802,62.805,58.864,63.652,58.553z M58.668,62.121
			c-0.311-0.848,0.125-1.787,0.973-2.098c0.846-0.311,1.785,0.125,2.096,0.972c0.311,0.848-0.125,1.786-0.971,2.098
			C59.918,63.402,58.979,62.968,58.668,62.121z M62.209,67.028c-0.848,0.311-1.787-0.125-2.098-0.972
			c-0.311-0.848,0.125-1.786,0.971-2.097c0.848-0.311,1.787,0.124,2.098,0.972C63.49,65.778,63.055,66.717,62.209,67.028z
			 M66.221,65.557c-0.848,0.311-1.787-0.124-2.098-0.971c-0.311-0.848,0.125-1.786,0.973-2.098c0.848-0.311,1.785,0.125,2.096,0.972
			C67.502,64.308,67.066,65.246,66.221,65.557z M86.332,63.886h-2.863v2.864h-2.189v-2.864h-2.865v-2.19h2.865v-2.864h2.189v2.864
			h2.863V63.886z"/>
	</g>
</g>
</svg>
