<?xml version="1.0" encoding="utf-8"?>
<!-- Generator: Adobe Illustrator 16.0.0, SVG Export Plug-In . SVG Version: 6.00 Build 0)  -->
<!DOCTYPE svg PUBLIC "-//W3C//DTD SVG 1.1//EN" "http://www.w3.org/Graphics/SVG/1.1/DTD/svg11.dtd">
<svg version="1.1" id="Layer_1" xmlns="http://www.w3.org/2000/svg" xmlns:xlink="http://www.w3.org/1999/xlink" x="0px" y="0px"
	 width="126px" height="126px" viewBox="0 0 126 126" enable-background="new 0 0 126 126" xml:space="preserve">
<g>
	<path d="M61.738,88.271c-1.171,0-1.929,0.104-2.377,0.207v15.185c0.448,0.103,1.17,0.103,1.825,0.103
		c4.753,0.035,7.852-2.582,7.852-8.125C69.072,90.819,66.249,88.271,61.738,88.271z"/>
	<path d="M99.98,36.45c-0.006-0.468-0.154-0.93-0.475-1.295L79.838,12.69c-0.004-0.006-0.01-0.008-0.016-0.014
		c-0.117-0.131-0.252-0.239-0.396-0.334c-0.043-0.028-0.086-0.053-0.131-0.078c-0.127-0.068-0.258-0.124-0.395-0.165
		c-0.037-0.011-0.07-0.026-0.107-0.036c-0.15-0.035-0.303-0.057-0.459-0.057H30c-2.205,0-4,1.795-4,4v94c0,2.206,1.795,4,4,4h66
		c2.207,0,4-1.794,4-4V36.674C100,36.599,99.988,36.524,99.98,36.45z M41.179,107.967c-2.651,0-5.269-0.688-6.577-1.412l1.067-4.338
		c1.412,0.723,3.582,1.446,5.819,1.446c2.41,0,3.684-0.998,3.684-2.514c0-1.446-1.102-2.272-3.891-3.271
		c-3.856-1.343-6.37-3.478-6.37-6.853c0-3.96,3.307-6.988,8.78-6.988c2.618,0,4.545,0.551,5.922,1.17l-1.169,4.236
		c-0.931-0.448-2.583-1.104-4.856-1.104c-2.272,0-3.374,1.033-3.374,2.239c0,1.48,1.309,2.134,4.306,3.271
		c4.095,1.515,6.024,3.649,6.024,6.921C50.544,104.66,47.548,107.967,41.179,107.967z M70.759,104.869
		c-2.444,2.029-6.163,2.994-10.708,2.994c-2.72,0-4.648-0.172-5.956-0.344V84.726c1.927-0.311,4.441-0.483,7.092-0.483
		c4.407,0,7.267,0.793,9.505,2.479c2.41,1.791,3.924,4.648,3.924,8.746C74.615,99.909,72.997,102.975,70.759,104.869z M92.25,88.72
		h-8.919v5.302h8.334v4.27h-8.334v9.331h-5.267V84.415H92.25V88.72z M30,79.924V16.007h46.334v20.466c0,1.104,0.895,2,2,2H96
		l0.002,41.451H30z"/>
</g>
<g>
	<polygon points="57.431,34.544 58.181,20.919 56.449,20.919 57.199,34.544 	"/>
	<polygon points="46.996,51.957 36.831,61.062 38.056,62.286 47.159,52.121 	"/>
	<polygon points="65.426,62.286 64.676,75.912 66.408,75.912 65.657,62.287 	"/>
	<path d="M87.882,63.334l-5.385-3.56v-9.391l-8.228-4.749v-9.299l-8.728-5.038l-8.228,4.749l-8.228-4.749l-8.21,4.739L35.525,32.5
		l-0.551,0.834l5.385,3.56v9.521l8.228,4.75v9.298l0.051,0.029l-4.115,4.502l0.738,0.674l4.263-4.664l7.791,4.497l8.228-4.75
		l8.228,4.75l8.315-4.8l5.246,3.468L87.882,63.334z M73.27,36.914v8.721l-7.728,4.461l-7.728-4.461v-8.721l7.728-4.462L73.27,36.914
		z M41.359,36.914l7.728-4.462l7.728,4.462v8.721l-7.903,4.562l-7.552-4.36V36.914z M49.587,59.884v-8.72l7.728-4.461l7.728,4.461
		v8.72l-7.728,4.462L49.587,59.884z M81.497,59.884l-7.728,4.462l-7.728-4.462v-8.72l7.903-4.563l7.552,4.36V59.884z"/>
</g>
</svg>
