<?xml version="1.0" encoding="utf-8"?>
<!-- Generator: Adobe Illustrator 16.0.0, SVG Export Plug-In . SVG Version: 6.00 Build 0)  -->
<!DOCTYPE svg PUBLIC "-//W3C//DTD SVG 1.1//EN" "http://www.w3.org/Graphics/SVG/1.1/DTD/svg11.dtd">
<svg version="1.1" id="Layer_1" xmlns="http://www.w3.org/2000/svg" xmlns:xlink="http://www.w3.org/1999/xlink" x="0px" y="0px"
	 width="126px" height="126px" viewBox="0 0 126 126" enable-background="new 0 0 126 126" xml:space="preserve">
<g>
	<path d="M63.777,87.937c-3.83,0-6.039,3.756-6.039,8.396c-0.037,4.713,2.246,8.321,6.002,8.321c3.793,0,6.002-3.572,6.002-8.432
		C69.742,91.692,67.605,87.937,63.777,87.937z"/>
	<path d="M99.873,36.544c-0.006-0.468-0.154-0.93-0.475-1.295L79.73,12.784c-0.004-0.006-0.01-0.008-0.016-0.014
		c-0.117-0.131-0.252-0.239-0.396-0.334c-0.043-0.028-0.086-0.053-0.131-0.078c-0.127-0.068-0.258-0.124-0.395-0.165
		c-0.037-0.011-0.07-0.026-0.107-0.036c-0.15-0.035-0.303-0.057-0.459-0.057H29.893c-2.205,0-4,1.795-4,4v94c0,2.206,1.795,4,4,4h66
		c2.207,0,4-1.794,4-4V36.768C99.893,36.692,99.881,36.618,99.873,36.544z M39.146,109.071c-2.836,0-5.633-0.736-7.033-1.51
		l1.143-4.639c1.51,0.772,3.828,1.546,6.223,1.546c2.576,0,3.939-1.067,3.939-2.688c0-1.547-1.18-2.431-4.16-3.498
		c-4.125-1.436-6.813-3.719-6.813-7.327c0-4.234,3.535-7.475,9.389-7.475c2.799,0,4.861,0.59,6.334,1.252l-1.252,4.529
		c-0.994-0.479-2.762-1.179-5.191-1.179c-2.432,0-3.609,1.104-3.609,2.394c0,1.583,1.398,2.283,4.604,3.498
		c4.381,1.62,6.443,3.902,6.443,7.4C49.162,105.537,45.957,109.071,39.146,109.071z M74.16,112.975
		c-3.535-1.031-6.48-2.1-9.795-3.498c-0.551-0.221-1.141-0.332-1.73-0.368c-5.596-0.368-10.824-4.492-10.824-12.593
		c0-7.438,4.713-13.034,12.113-13.034c7.586,0,11.746,5.744,11.746,12.519c0,5.634-2.615,9.61-5.891,11.083v0.147
		c1.914,0.552,4.049,0.994,6,1.399L74.16,112.975z M94.852,108.703H79.35V83.887h5.635v20.104h9.867V108.703z M29.893,80.018V16.101
		h46.334v20.466c0,1.104,0.895,2,2,2h17.666l0.002,41.451H29.893z"/>
	<rect x="36.367" y="31.08" width="10.945" height="2.189"/>
	<rect x="49.363" y="31.08" width="10.945" height="2.189"/>
	<rect x="36.367" y="37.845" width="7.098" height="2.188"/>
	<rect x="44.797" y="37.845" width="7.098" height="2.188"/>
	<rect x="53.092" y="37.845" width="7.098" height="2.188"/>
	<rect x="61.521" y="37.845" width="7.098" height="2.188"/>
	<rect x="36.367" y="44.814" width="8.129" height="2.189"/>
	<rect x="46.021" y="44.814" width="8.129" height="2.189"/>
	<rect x="55.521" y="44.814" width="8.129" height="2.189"/>
	<rect x="65.176" y="44.814" width="8.129" height="2.189"/>
	<rect x="36.445" y="51.921" width="3.447" height="2.189"/>
	<rect x="40.539" y="51.921" width="3.449" height="2.189"/>
	<rect x="44.57" y="51.921" width="3.447" height="2.189"/>
	<rect x="48.664" y="51.921" width="3.449" height="2.189"/>
	<rect x="52.754" y="51.921" width="3.449" height="2.189"/>
	<rect x="56.85" y="51.921" width="3.449" height="2.189"/>
	<rect x="60.879" y="51.921" width="3.449" height="2.189"/>
	<rect x="64.975" y="51.921" width="3.447" height="2.189"/>
	<rect x="69.24" y="51.921" width="3.449" height="2.189"/>
	<rect x="73.336" y="51.921" width="3.449" height="2.189"/>
	<rect x="77.365" y="51.921" width="3.449" height="2.189"/>
	<rect x="81.461" y="51.921" width="3.447" height="2.189"/>
	<rect x="36.445" y="58.672" width="4.904" height="2.189"/>
	<rect x="42.27" y="58.672" width="4.906" height="2.189"/>
	<rect x="48.002" y="58.672" width="4.906" height="2.189"/>
	<rect x="53.828" y="58.672" width="4.904" height="2.189"/>
	<rect x="59.646" y="58.672" width="4.904" height="2.189"/>
	<rect x="65.471" y="58.672" width="4.906" height="2.189"/>
	<rect x="71.203" y="58.672" width="4.906" height="2.189"/>
	<rect x="77.029" y="58.672" width="4.904" height="2.189"/>
	<rect x="36.445" y="66.321" width="3.908" height="2.189"/>
	<rect x="41.086" y="66.321" width="3.91" height="2.189"/>
	<rect x="45.654" y="66.321" width="3.908" height="2.189"/>
	<rect x="50.295" y="66.321" width="3.908" height="2.189"/>
	<rect x="54.93" y="66.321" width="3.91" height="2.189"/>
	<rect x="59.572" y="66.321" width="3.908" height="2.189"/>
	<rect x="64.139" y="66.321" width="3.908" height="2.189"/>
	<rect x="68.781" y="66.321" width="3.908" height="2.189"/>
</g>
</svg>
