<?xml version="1.0" encoding="utf-8"?>
<!-- Generator: Adobe Illustrator 16.0.0, SVG Export Plug-In . SVG Version: 6.00 Build 0)  -->
<!DOCTYPE svg PUBLIC "-//W3C//DTD SVG 1.1//EN" "http://www.w3.org/Graphics/SVG/1.1/DTD/svg11.dtd">
<svg version="1.1" id="Layer_1" xmlns="http://www.w3.org/2000/svg" xmlns:xlink="http://www.w3.org/1999/xlink" x="0px" y="0px"
	 width="126px" height="126px" viewBox="0 0 126 126" enable-background="new 0 0 126 126" xml:space="preserve">
<path d="M99.98,36.443c-0.006-0.468-0.154-0.93-0.475-1.295L79.838,12.684c-0.004-0.006-0.01-0.008-0.016-0.014
	c-0.117-0.131-0.252-0.239-0.396-0.334c-0.043-0.028-0.086-0.053-0.131-0.078c-0.127-0.068-0.258-0.124-0.395-0.165
	c-0.037-0.011-0.07-0.026-0.107-0.036C78.643,12.021,78.49,12,78.334,12H30c-2.205,0-4,1.795-4,4v94c0,2.206,1.795,4,4,4h66
	c2.207,0,4-1.794,4-4V36.667C100,36.592,99.988,36.518,99.98,36.443z M54.133,89.869h-6.012v17.837h-4.998V89.869h-5.912v-4.182
	h16.922V89.869z M70.83,107.706H56.782V85.688h13.591v4.083H61.78v4.574h8.103v4.051H61.78v5.227h9.05V107.706z M85.828,107.706
	l-1.992-3.985c-0.816-1.536-1.34-2.679-1.961-3.953h-0.064c-0.458,1.274-1.014,2.417-1.699,3.953l-1.83,3.985h-5.684l6.37-11.141
	l-6.142-10.878h5.717l1.928,4.018c0.653,1.34,1.144,2.418,1.666,3.659h0.065c0.522-1.404,0.947-2.385,1.503-3.659l1.861-4.018h5.686
	l-6.207,10.748l6.533,11.271H85.828z M30,79.917V16h46.334v20.466c0,1.104,0.895,2,2,2H96l0.002,41.451H30z"/>
<g>
	<path d="M52.474,45.604v-4.655H36.115v4.655h0.544c0.044-0.696,0.163-1.265,0.358-1.708c0.196-0.441,0.461-0.79,0.795-1.044
		c0.333-0.254,0.729-0.428,1.186-0.522c0.457-0.094,0.982-0.142,1.577-0.142h2.371v15.118c0,0.653-0.047,1.168-0.143,1.545
		c-0.094,0.377-0.227,0.663-0.401,0.858c-0.174,0.197-0.392,0.324-0.652,0.382s-0.566,0.087-0.915,0.087H40.14v0.543h8.375v-0.543
		h-0.674c-0.349,0-0.652-0.025-0.913-0.077c-0.263-0.05-0.479-0.169-0.654-0.358c-0.173-0.188-0.308-0.475-0.401-0.858
		c-0.096-0.386-0.142-0.91-0.142-1.578V42.188h2.784c1.117,0,1.961,0.258,2.535,0.773c0.572,0.515,0.938,1.396,1.098,2.643H52.474z"
		/>
	<path d="M65.591,63.446c-0.247,0.232-0.478,0.425-0.696,0.576c-0.217,0.152-0.468,0.272-0.75,0.359
		c-0.283,0.086-0.62,0.146-1.012,0.174c-0.392,0.029-0.87,0.043-1.436,0.043h-3.351c-0.42,0-0.739-0.021-0.956-0.065
		c-0.219-0.044-0.378-0.141-0.479-0.292c-0.102-0.153-0.159-0.374-0.173-0.664c-0.016-0.291-0.022-0.683-0.022-1.176v-6.525h4.329
		c0.638,0,1.146,0.048,1.522,0.142c0.377,0.095,0.671,0.254,0.881,0.479s0.362,0.525,0.456,0.903
		c0.096,0.377,0.179,0.849,0.251,1.413h0.544v-6.874h-0.544c-0.029,0.493-0.088,0.921-0.174,1.283
		c-0.087,0.363-0.244,0.66-0.469,0.893s-0.532,0.405-0.924,0.522c-0.391,0.115-0.906,0.174-1.544,0.174h-4.329v-7.81h5.417
		c0.666,0,1.213,0.032,1.642,0.098c0.428,0.066,0.78,0.215,1.055,0.446c0.276,0.232,0.497,0.563,0.664,0.989
		c0.167,0.428,0.322,0.998,0.467,1.708h0.349v-4.328H51.081v0.543h0.696c0.827,0,1.414,0.196,1.763,0.588
		c0.246,0.29,0.369,1.065,0.369,2.327v12.835c0,0.956-0.058,1.595-0.174,1.913c-0.058,0.175-0.159,0.326-0.304,0.457
		c-0.146,0.131-0.309,0.236-0.489,0.315c-0.183,0.08-0.374,0.142-0.577,0.186c-0.204,0.044-0.399,0.065-0.588,0.065h-0.696v0.543
		h15.228l1.718-4.959h-0.587C66.787,61.975,66.171,62.881,65.591,63.446z"/>
	<path d="M86.116,58.999c-0.326-0.094-0.66-0.279-1.001-0.555s-0.711-0.677-1.109-1.207c-0.399-0.529-0.902-1.243-1.511-2.143
		l-4.243-6.33l3.915-5.025c0.827-1.043,1.443-1.739,1.85-2.088c0.377-0.334,0.772-0.602,1.187-0.805
		c0.412-0.203,0.952-0.326,1.62-0.37v-0.543h-7.005v0.543c0.783,0.03,1.331,0.117,1.643,0.261c0.313,0.146,0.468,0.429,0.468,0.849
		c0,0.117-0.008,0.219-0.022,0.305c-0.014,0.087-0.051,0.185-0.108,0.294c-0.059,0.109-0.146,0.247-0.261,0.414
		c-0.116,0.166-0.283,0.388-0.5,0.662l-3.503,4.46l-3.045-4.546c-0.465-0.682-0.695-1.205-0.695-1.566
		c0-0.275,0.144-0.525,0.434-0.75s0.819-0.352,1.589-0.382v-0.543H66.68v0.543c0.493,0.03,0.942,0.098,1.35,0.207
		c0.405,0.109,0.808,0.298,1.207,0.566c0.398,0.269,0.812,0.645,1.239,1.13c0.428,0.486,0.91,1.121,1.447,1.904l3.894,5.699
		l-4.655,5.896c-0.406,0.507-0.797,0.96-1.175,1.358c-0.378,0.399-0.758,0.733-1.142,1.002c-0.386,0.268-0.787,0.48-1.207,0.641
		c-0.421,0.16-0.871,0.254-1.35,0.283v0.543h7.005v-0.543c-0.74-0.029-1.24-0.145-1.501-0.35c-0.261-0.202-0.392-0.455-0.392-0.76
		c0-0.102,0.004-0.196,0.011-0.283s0.04-0.188,0.098-0.305c0.059-0.115,0.149-0.261,0.272-0.436
		c0.123-0.173,0.301-0.405,0.533-0.696l4.154-5.307l3.35,5.068c0.203,0.319,0.37,0.572,0.501,0.762
		c0.13,0.188,0.228,0.344,0.293,0.467c0.065,0.124,0.105,0.217,0.119,0.282c0.016,0.066,0.022,0.136,0.022,0.207
		c0,0.422-0.128,0.748-0.381,0.98c-0.254,0.23-0.779,0.354-1.576,0.369v0.543h8.482v-0.543
		C86.83,59.147,86.442,59.094,86.116,58.999z"/>
</g>
</svg>
