<?xml version="1.0" encoding="utf-8"?>
<!-- Generator: Adobe Illustrator 16.0.0, SVG Export Plug-In . SVG Version: 6.00 Build 0)  -->
<!DOCTYPE svg PUBLIC "-//W3C//DTD SVG 1.1//EN" "http://www.w3.org/Graphics/SVG/1.1/DTD/svg11.dtd">
<svg version="1.1" id="Layer_1" xmlns="http://www.w3.org/2000/svg" xmlns:xlink="http://www.w3.org/1999/xlink" x="0px" y="0px"
	 width="126px" height="126px" viewBox="0 0 126 126" enable-background="new 0 0 126 126" xml:space="preserve">
<g>
	<path d="M99.874,36.23c-0.006-0.468-0.154-0.93-0.475-1.295L79.731,12.471c-0.004-0.006-0.01-0.008-0.016-0.014
		c-0.117-0.131-0.252-0.239-0.396-0.334c-0.043-0.028-0.086-0.053-0.131-0.078c-0.127-0.068-0.258-0.124-0.395-0.165
		c-0.037-0.011-0.07-0.026-0.107-0.036c-0.15-0.035-0.303-0.057-0.459-0.057H29.893c-2.205,0-4,1.795-4,4v94c0,2.206,1.795,4,4,4h66
		c2.207,0,4-1.794,4-4V36.454C99.893,36.379,99.881,36.305,99.874,36.23z M47.381,89.342h-5.82v17.269h-4.838V89.342h-5.724v-4.048
		h16.382V89.342z M67.526,106.61h-4.807v-8.919h-7.938v8.919h-4.839V85.294h4.839v8.191h7.938v-8.191h4.807V106.61z M90.075,106.61
		l-0.316-8.159c-0.095-2.562-0.189-5.661-0.189-8.761h-0.095c-0.665,2.72-1.55,5.756-2.373,8.254l-2.593,8.317h-3.763l-2.277-8.254
		c-0.695-2.498-1.423-5.534-1.929-8.317h-0.063c-0.127,2.878-0.222,6.167-0.38,8.823l-0.379,8.097h-4.459l1.359-21.316h6.42
		l2.087,7.116c0.665,2.467,1.329,5.123,1.803,7.622h0.095c0.602-2.467,1.329-5.282,2.024-7.653l2.277-7.085h6.294l1.17,21.316
		H90.075z M29.893,79.704V15.787h46.334v20.466c0,1.104,0.895,2,2,2h17.666l0.002,41.451H29.893z"/>
	<g>
		<path d="M68.271,46.144c0.466,0,0.935-0.037,1.395-0.113c0.592,0.215,1.257,0.327,1.932,0.327c2.29,0,4.083-1.239,4.083-2.819
			c0-1.582-1.793-2.82-4.083-2.82c-0.567,0-1.132,0.078-1.645,0.229c-0.289-0.151-0.609-0.229-0.937-0.229h-0.463
			c-0.761,0-1.454,0.436-1.8,1.105c-1.701,0.3-2.708,1.072-2.708,2.095C64.045,45.447,66.235,46.144,68.271,46.144z M71.597,42.513
			c1.419,0,2.288,0.665,2.288,1.025c0,0.361-0.869,1.024-2.288,1.024c-0.539,0-1.053-0.1-1.486-0.285l-0.255-0.107l-0.271,0.053
			c-0.431,0.084-0.874,0.127-1.315,0.127c-1.159,0-1.905-0.243-2.255-0.429c0.253-0.136,0.734-0.313,1.507-0.394l0.713-0.076
			l0.084-0.711c0.016-0.137,0.11-0.228,0.233-0.228h0.463c0.063,0,0.124,0.027,0.174,0.075l0.42,0.407l0.542-0.22
			C70.576,42.604,71.076,42.513,71.597,42.513z"/>
		<path d="M52.133,44.436c1.961,0,3.558-1.597,3.558-3.559c0-1.963-1.596-3.559-3.558-3.559c-1.965,0-3.563,1.596-3.563,3.559
			C48.57,42.839,50.168,44.436,52.133,44.436z M52.133,42.641c-0.976,0-1.769-0.791-1.769-1.764s0.793-1.764,1.769-1.764
			c0.972,0,1.763,0.791,1.763,1.764S53.105,42.641,52.133,42.641z"/>
		<path d="M44.659,29.516l-0.021,42.969h36.49l0.021-42.969H44.659z M46.454,64.217V31.311h32.899v32.906H46.454z"/>
		<path d="M69.745,50.537c-0.229,0-0.46,0.029-0.691,0.089c-2.013,0.515-3.396,3.006-4.286,5.423
			c-0.889-2.831-2.539-6.888-5.266-9.621c-0.646-0.645-1.351-0.971-2.098-0.971c-3.864,0-6.749,9.458-7.823,13.594l-0.157,1.621
			h26.796l-1.049-3.262C73.812,53.933,72.271,50.537,69.745,50.537z M57.405,47.252c0.257,0,0.528,0.146,0.828,0.445
			c3.363,3.368,4.995,9.27,5.453,11.18H51.473C53.307,52.111,55.777,47.252,57.405,47.252z M73.76,58.877h-8
			c0.764-2.963,2.201-6.118,3.739-6.513c1.608-0.429,3.288,3.877,3.983,5.647L73.76,58.877z"/>
	</g>
</g>
</svg>
