<?xml version="1.0" encoding="utf-8"?>
<!-- Generator: Adobe Illustrator 16.0.4, SVG Export Plug-In . SVG Version: 6.00 Build 0)  -->
<!DOCTYPE svg PUBLIC "-//W3C//DTD SVG 1.1//EN" "http://www.w3.org/Graphics/SVG/1.1/DTD/svg11.dtd">
<svg version="1.1" id="Layer_1" xmlns="http://www.w3.org/2000/svg" xmlns:xlink="http://www.w3.org/1999/xlink" x="0px" y="0px"
	 width="126px" height="126px" viewBox="0 0 126 126" enable-background="new 0 0 126 126" xml:space="preserve">
<g>
	<path d="M64.227,92.371c-0.668,0-1.097,0.061-1.303,0.123v4.346h1.252c1.426,0,2.319-0.898,2.319-2.264
		C66.495,93.064,65.602,92.371,64.227,92.371z"/>
	<path d="M54.452,92.371c-0.669,0-1.098,0.061-1.303,0.123v4.346h1.254c1.424,0,2.317-0.898,2.317-2.264
		C56.721,93.064,55.827,92.371,54.452,92.371z"/>
	<path d="M43.802,92.371c-2.095,0-3.212,2.307-3.212,5.143c0,2.797,1.186,5.021,3.212,5.021c2.043,0,3.193-2.246,3.193-5.123
		C46.995,94.82,45.913,92.371,43.802,92.371z"/>
	<path d="M100.51,36.197c-0.005-0.469-0.152-0.93-0.474-1.295L80.368,12.438c-0.005-0.006-0.011-0.008-0.017-0.014
		c-0.117-0.131-0.252-0.24-0.396-0.334c-0.043-0.029-0.086-0.053-0.131-0.078c-0.127-0.068-0.258-0.125-0.395-0.166
		c-0.039-0.01-0.07-0.025-0.107-0.035c-0.15-0.035-0.303-0.057-0.459-0.057H30.53c-2.205,0-4,1.795-4,4v94c0,2.205,1.795,4,4,4h66
		c2.207,0,4-1.795,4-4V36.42C100.529,36.346,100.518,36.271,100.51,36.197z M30.53,15.754h46.333v20.465c0,1.105,0.896,2,2,2h17.666
		l0.003,35.733c-9.294-0.042-18.563,0.835-27.651-1.392c-3.086-0.756-6.214-2.465-8.642-4.535
		c-4.697-4.008-4.659-10.864-0.458-15.175c4.129-4.234,11.409-4.363,15.657-0.258c0.676,0.652,1.27,1.391,2.099,2.309
		c1.44-0.746,2.916-1.51,4.378-2.266c-2.251-5.689-9.467-9.52-16.152-8.543c-6.771,0.988-11.57,4.691-13.705,11.221
		c-2.104,6.438-0.426,12.137,4.446,16.837c5.541,5.345,12.567,6.785,19.858,7.052c5.957,0.214,11.927,0.114,18.015,0.468H69.693
		c-0.252-0.018-0.505-0.027-0.758-0.045c-4.664-0.332-8.958-2.305-12.616-5.383c-7.147-6.012-9.028-15.514-4.559-22.986
		c4.495-7.512,14.137-10.666,22.61-7.398c0.699,0.27,1.393,0.553,2.357,0.939c0.89-1.434,1.76-2.836,2.619-4.217
		c-8.231-6.674-23.654-3.748-30.816,5.674c-8.065,10.609-5.746,22.881,5.774,33.416h-2.358c-7.448-5.548-11.306-15.344-9.42-24.43
		c2.094-10.094,10.874-17.977,21.35-19.287c1.29-0.16,3.196,0.598,3.472-1.857c0.389-3.449-0.15-4.115-3.646-3.613
		C51.887,32.17,43.08,38.211,38.857,49.467c-4.156,11.078-2.027,21.271,5.362,30.203H30.53V15.754z M38.079,92.676h-3.331v11.656
		h-2.111V92.676h-3.296v-2.102h8.738V92.676z M43.682,104.555c-3.263,0-5.322-2.959-5.322-6.998c0-4.229,2.23-7.207,5.493-7.207
		c3.383,0,5.375,3.039,5.375,6.959C49.228,101.922,46.874,104.555,43.682,104.555z M57.063,104.333L57.063,104.333
		c-0.172-0.409-0.446-1.532-0.773-3.247c-0.325-1.797-0.875-2.367-2.077-2.41H53.15v5.656h-2.095V90.758
		c0.789-0.162,1.975-0.283,3.194-0.283c1.664,0,2.797,0.326,3.57,1.103c0.634,0.631,0.995,1.592,0.995,2.754
		c0,1.774-1.014,2.979-2.094,3.449v0.062c0.823,0.365,1.321,1.326,1.613,2.65c0.36,1.717,0.669,3.309,0.91,3.84H57.063z
		 M66.838,104.333L66.838,104.333c-0.172-0.409-0.445-1.532-0.773-3.247c-0.324-1.797-0.875-2.367-2.076-2.41h-1.063v5.656h-2.096
		V90.758c0.79-0.162,1.974-0.283,3.194-0.283c1.664,0,2.797,0.326,3.57,1.103c0.635,0.631,0.994,1.592,0.994,2.754
		c0,1.774-1.013,2.979-2.093,3.449v0.062c0.823,0.365,1.321,1.326,1.612,2.65c0.359,1.717,0.67,3.309,0.91,3.84H66.838z
		 M77.59,104.332h-6.988V90.574h6.731v2.062h-4.619v3.551h4.361v2.041h-4.361v4.041h4.876V104.332z M88.618,104.332L88.618,104.332
		h-2.181l-3.021-6.041c-0.739-1.512-1.512-3.205-2.077-4.758l-0.053,0.021c0.086,1.776,0.103,3.59,0.103,5.854v4.922h-1.939V90.574
		h2.404l2.987,5.9c0.772,1.528,1.441,3.12,1.974,4.61h0.035c-0.138-1.838-0.188-3.612-0.188-5.713v-4.799h1.957V104.332z
		 M95.391,92.676v11.656h-2.113V92.676H89.98v-2.102h8.737v2.102H95.391z"/>
</g>
</svg>
