<?xml version="1.0" encoding="utf-8"?>
<!-- Generator: Adobe Illustrator 16.0.0, SVG Export Plug-In . SVG Version: 6.00 Build 0)  -->
<!DOCTYPE svg PUBLIC "-//W3C//DTD SVG 1.1//EN" "http://www.w3.org/Graphics/SVG/1.1/DTD/svg11.dtd">
<svg version="1.1" id="Layer_1" xmlns="http://www.w3.org/2000/svg" xmlns:xlink="http://www.w3.org/1999/xlink" x="0px" y="0px"
	 width="126px" height="126px" viewBox="0 0 126 126" enable-background="new 0 0 126 126" xml:space="preserve">
<g>
	<g>
		<path d="M73.838,97.73h-1.914v6.996c0.551,0.073,1.215,0.073,2.172,0.073c2.541,0,4.785-0.957,4.785-3.571
			C78.881,98.725,76.637,97.73,73.838,97.73z"/>
		<path d="M78.293,90.661c0-1.877-1.436-2.871-3.977-2.871c-1.215,0-1.914,0.073-2.393,0.146v5.781h1.84
			C76.709,93.718,78.293,92.503,78.293,90.661z"/>
		<path d="M100.124,36.531c-0.006-0.468-0.154-0.93-0.475-1.295L79.981,12.771c-0.004-0.006-0.01-0.008-0.016-0.014
			c-0.117-0.131-0.252-0.239-0.396-0.334c-0.043-0.028-0.086-0.053-0.131-0.078c-0.127-0.068-0.258-0.124-0.395-0.165
			c-0.037-0.011-0.07-0.026-0.107-0.036c-0.15-0.035-0.303-0.057-0.459-0.057H30.143c-2.205,0-4,1.795-4,4v94c0,2.206,1.795,4,4,4
			h66c2.207,0,4-1.794,4-4V36.755C100.143,36.68,100.131,36.605,100.124,36.531z M55.356,108.703h-6.553L40.85,83.887h6.148
			l3.02,10.493c0.848,2.946,1.619,5.781,2.209,8.874h0.111c0.625-2.982,1.398-5.928,2.246-8.763l3.166-10.604h5.965L55.356,108.703z
			 M82.196,106.715c-1.805,1.436-4.822,2.246-9.758,2.246c-2.76,0-4.822-0.185-6.074-0.368V84.218
			c1.473-0.294,4.455-0.515,7.254-0.515c3.424,0,5.521,0.331,7.326,1.398c1.73,0.921,2.982,2.614,2.982,4.86
			c0,2.209-1.289,4.271-4.086,5.302v0.074c2.834,0.773,4.934,2.908,4.934,6.111C84.774,103.695,83.743,105.463,82.196,106.715z
			 M30.143,80.005V16.088h46.334v20.466c0,1.104,0.895,2,2,2h17.666l0.002,41.451H30.143z"/>
	</g>
	<path d="M75.657,28.211C75.657,28.211,75.657,28.211,75.657,28.211H44.911c-1.428,0-2.589,1.329-2.589,2.964v33.551h0.008
		c0,0.007,0.004,0.011,0.005,0.019c-1.437,0.455-2.495,1.961-2.495,3.747c0,2.147,1.525,3.894,3.401,3.894h23.533
		c-0.001,0.008-0.001,0.016-0.003,0.024h4.605c1.428,0,2.589-1.329,2.589-2.964V31.541c0.012-1.392,1.491-1.354,1.658-1.354h0.007
		c0.731,0,1.327,0.68,1.327,1.518c0,0.837-0.595,1.519-1.327,1.519c-0.476,0-0.863,0.441-0.863,0.987s0.387,0.988,0.863,0.988
		c1.684,0,3.053-1.567,3.053-3.494S77.314,28.211,75.657,28.211z M65.144,70.409H43.241c-0.923,0-1.675-0.86-1.675-1.918
		c0-1.057,0.751-1.916,1.675-1.916h21.926c-0.328,0.528-0.557,1.172-0.557,1.939C64.61,69.265,64.829,69.893,65.144,70.409z
		 M68.227,50.311H47.56v-1.667h20.667V50.311z M68.227,54.701H47.56v-1.667h20.667V54.701z M68.227,46.144H47.56v-1.667h20.667
		V46.144z M68.227,41.41H47.56v-1.667h20.667V41.41z M68.227,37.243H47.56v-1.667h20.667V37.243z"/>
</g>
</svg>
