<?xml version="1.0" encoding="utf-8"?>
<!-- Generator: Adobe Illustrator 16.0.0, SVG Export Plug-In . SVG Version: 6.00 Build 0)  -->
<!DOCTYPE svg PUBLIC "-//W3C//DTD SVG 1.1//EN" "http://www.w3.org/Graphics/SVG/1.1/DTD/svg11.dtd">
<svg version="1.1" id="Layer_1" xmlns="http://www.w3.org/2000/svg" xmlns:xlink="http://www.w3.org/1999/xlink" x="0px" y="0px"
	 width="126px" height="126px" viewBox="0 0 126 126" enable-background="new 0 0 126 126" xml:space="preserve">
<g>
	<g>
		<path d="M82.234,90.813c-1.15,0-1.896,0.102-2.336,0.203v14.938c0.439,0.102,1.15,0.102,1.795,0.102
			c4.674,0.034,7.723-2.541,7.723-7.994C89.451,93.318,86.672,90.813,82.234,90.813z"/>
		<path d="M99.98,38.946c-0.006-0.468-0.154-0.93-0.475-1.295L79.838,15.187c-0.004-0.006-0.01-0.008-0.016-0.014
			c-0.117-0.131-0.252-0.239-0.396-0.334c-0.043-0.028-0.086-0.053-0.131-0.078c-0.127-0.068-0.258-0.124-0.395-0.165
			c-0.037-0.011-0.07-0.026-0.107-0.036c-0.15-0.035-0.303-0.057-0.459-0.057H30c-2.205,0-4,1.795-4,4v94c0,2.206,1.795,4,4,4h66
			c2.207,0,4-1.794,4-4V39.17C100,39.095,99.988,39.021,99.98,38.946z M44.697,109.85h-6.031L31.35,87.019h5.658l2.777,9.654
			c0.779,2.71,1.49,5.317,2.031,8.163h0.102c0.576-2.743,1.289-5.453,2.066-8.062l2.914-9.756h5.488L44.697,109.85z M66.244,105.92
			c1.559,0,3.285-0.339,4.303-0.745l0.777,4.031c-0.947,0.475-3.082,0.982-5.859,0.982c-7.893,0-11.957-4.912-11.957-11.416
			c0-7.791,5.555-12.127,12.465-12.127c2.676,0,4.709,0.542,5.623,1.017l-1.049,4.099c-1.051-0.44-2.508-0.847-4.336-0.847
			c-4.1,0-7.283,2.473-7.283,7.554C58.928,103.041,61.637,105.92,66.244,105.92z M91.109,107.14
			c-2.404,1.999-6.063,2.947-10.533,2.947c-2.678,0-4.574-0.17-5.861-0.339V87.323c1.896-0.305,4.369-0.475,6.979-0.475
			c4.336,0,7.146,0.779,9.35,2.439c2.371,1.761,3.861,4.573,3.861,8.604C94.904,102.262,93.313,105.276,91.109,107.14z M30,82.42
			V18.503h46.334v20.466c0,1.104,0.895,2,2,2H96l0.002,41.451H30z"/>
	</g>
	<g>
		<path d="M73.389,44.043c-7.686,0-13.918,6.23-13.918,13.915c0,7.687,6.232,13.919,13.918,13.919
			c7.688,0,13.918-6.232,13.918-13.919C87.307,50.273,81.076,44.043,73.389,44.043z M77.58,45.742l-3.023,6.171
			c-0.586-0.228-1.168-0.106-1.168-0.106l-1.748-6.479C71.641,45.327,73.959,44.286,77.58,45.742z M73.389,63.435
			c-3.023,0-5.477-2.451-5.477-5.477c0-3.024,2.453-5.475,5.477-5.475c3.025,0,5.477,2.45,5.477,5.475
			C78.865,60.983,76.414,63.435,73.389,63.435z"/>
		<path d="M73.389,53.114c-2.67,0-4.844,2.174-4.844,4.846c0,2.671,2.174,4.845,4.844,4.845c2.672,0,4.846-2.174,4.846-4.845
			C78.234,55.288,76.061,53.114,73.389,53.114z M73.389,62.245c-2.361,0-4.285-1.922-4.285-4.285c0-2.365,1.924-4.288,4.285-4.288
			c2.365,0,4.287,1.923,4.287,4.288C77.676,60.323,75.754,62.245,73.389,62.245z"/>
		<path d="M73.389,55.643c-1.277,0-2.314,1.039-2.314,2.315s1.037,2.316,2.314,2.316c1.279,0,2.318-1.04,2.318-2.316
			S74.668,55.643,73.389,55.643z M73.389,59.716c-0.969,0-1.756-0.788-1.756-1.758c0-0.969,0.787-1.757,1.756-1.757
			c0.971,0,1.76,0.788,1.76,1.757C75.148,58.928,74.359,59.716,73.389,59.716z"/>
		<path d="M59.238,50.427c-1.268,0.29-2.666,0.454-4.143,0.454c-5.654,0-10.236-2.363-10.236-5.281
			c0-2.917,4.582-5.282,10.236-5.282c4.689,0,8.633,1.629,9.846,3.849c2.068-1.334,4.447-2.219,7.01-2.51l-0.697-4.451
			c-0.018-0.115-0.117-0.201-0.234-0.201H38.145c-0.117,0-0.217,0.086-0.234,0.201l-2.504,15.974
			c-0.02,0.034-0.031,0.075-0.031,0.116v10.123c0,0.131,0.105,0.237,0.238,0.237h22.818c-0.211-0.567-0.391-1.147-0.537-1.741
			H37.117v-7.115h20.588C58.008,53.252,58.533,51.786,59.238,50.427z"/>
		<path d="M40.139,56.221c-0.133,0-0.238,0.106-0.238,0.237v3.006c0,0.132,0.105,0.237,0.238,0.237h3.006
			c0.131,0,0.236-0.105,0.236-0.237v-3.006c0-0.131-0.105-0.237-0.236-0.237H40.139z"/>
		<path d="M45.098,56.221c-0.131,0-0.238,0.106-0.238,0.237v3.006c0,0.132,0.107,0.237,0.238,0.237H48.1
			c0.131,0,0.236-0.105,0.236-0.237v-3.006c0-0.131-0.105-0.237-0.236-0.237H45.098z"/>
		<path d="M50.367,56.221c-0.131,0-0.236,0.106-0.236,0.237v3.006c0,0.132,0.105,0.237,0.236,0.237h3.006
			c0.131,0,0.238-0.105,0.238-0.237v-3.006c0-0.131-0.107-0.237-0.238-0.237H50.367z"/>
		<path d="M46.723,45.475c0,2.364,3.732,4.282,8.336,4.282c1.922,0,3.689-0.338,5.1-0.899c0.895-1.339,1.979-2.541,3.219-3.563
			c-0.186-2.281-3.832-4.103-8.318-4.103C50.455,41.191,46.723,43.108,46.723,45.475z"/>
	</g>
</g>
</svg>
