<?xml version="1.0" encoding="utf-8"?>
<!-- Generator: Adobe Illustrator 16.0.0, SVG Export Plug-In . SVG Version: 6.00 Build 0)  -->
<!DOCTYPE svg PUBLIC "-//W3C//DTD SVG 1.1//EN" "http://www.w3.org/Graphics/SVG/1.1/DTD/svg11.dtd">
<svg version="1.1" id="Layer_1" xmlns="http://www.w3.org/2000/svg" xmlns:xlink="http://www.w3.org/1999/xlink" x="0px" y="0px"
	 width="126px" height="126px" viewBox="0 0 126 126" enable-background="new 0 0 126 126" xml:space="preserve">
<path d="M99.98,36.45c-0.006-0.468-0.154-0.93-0.475-1.295L79.838,12.69c-0.004-0.006-0.01-0.008-0.016-0.014
	c-0.117-0.131-0.252-0.239-0.396-0.334c-0.043-0.028-0.086-0.053-0.131-0.078c-0.127-0.068-0.258-0.124-0.395-0.165
	c-0.037-0.011-0.07-0.026-0.107-0.036c-0.15-0.035-0.303-0.057-0.459-0.057H30c-2.205,0-4,1.795-4,4v94c0,2.206,1.795,4,4,4h66
	c2.207,0,4-1.794,4-4V36.674C100,36.599,99.988,36.524,99.98,36.45z M46.57,107.041h-5.814l-7.057-22.019h5.456l2.679,9.311
	c0.752,2.613,1.438,5.129,1.96,7.873h0.099c0.555-2.646,1.24-5.26,1.992-7.775l2.81-9.408h5.292L46.57,107.041z M67.352,103.251
	c1.504,0,3.17-0.326,4.15-0.719l0.75,3.888c-0.914,0.458-2.973,0.948-5.65,0.948c-7.613,0-11.533-4.737-11.533-11.01
	c0-7.514,5.357-11.695,12.022-11.695c2.581,0,4.541,0.522,5.423,0.979l-1.012,3.953c-1.014-0.425-2.418-0.816-4.182-0.816
	c-3.953,0-7.024,2.385-7.024,7.285C60.296,100.475,62.909,103.251,67.352,103.251z M88.982,89.105h-8.461v5.031h7.906v4.051h-7.906
	v8.854h-4.998V85.022h13.459V89.105z M30,79.924V16.007h46.334v20.466c0,1.104,0.895,2,2,2H96l0.002,41.451H30z"/>
<g>
	<path d="M55.726,54.69c-1.4-0.493-1.412-0.985-1.412-0.985c-0.143-0.137-0.284-0.251-0.425-0.359
		c0.65-0.693,1.127-1.633,1.248-2.506c0.089-0.063,0.232-0.214,0.285-0.558c0,0,0.335-1.197-0.108-1.067
		c0.152-0.46,0.667-2.255-0.324-3.371c0,0-0.465-0.635-1.593-0.971c0,0-1.693-0.532-3.054-0.188c-1.362,0.345-1.395,0.626-1.77,1.92
		c0,0-0.281,0.67,0.091,2.632c-0.527-0.247-0.168,1.045-0.168,1.045c0.054,0.345,0.199,0.495,0.285,0.558
		c0.108,0.888,0.55,1.788,1.135,2.46c-0.279,0.229-0.439,0.42-0.439,0.42l-3.022,1.589c-0.826,0.32-1.175,0.797-1.175,0.797
		c-1.224,1.813-1.368,5.852-1.368,5.852c0.016,0.922,0.415,1.017,0.415,1.017c2.813,1.256,7.224,1.479,7.224,1.479
		c4.533,0.095,7.832-1.287,7.832-1.287c0.477-0.303,0.492-0.542,0.492-0.542c0.332-2.894-1.097-6.152-1.097-6.152
		C58.347,55.517,55.726,54.69,55.726,54.69z"/>
	<path d="M85.121,39.714H41.996c-0.774,0-1.402,0.628-1.402,1.403V67.91c0,0.775,0.628,1.403,1.402,1.403h43.125
		c0.774,0,1.403-0.628,1.403-1.403V41.117C86.524,40.342,85.896,39.714,85.121,39.714z M85.248,67.91
		c0,0.07-0.056,0.128-0.127,0.128H41.996c-0.07,0-0.127-0.058-0.127-0.128V41.117c0-0.07,0.057-0.128,0.127-0.128h43.125
		c0.071,0,0.127,0.058,0.127,0.128V67.91z"/>
	<rect x="63.559" y="50.813" width="17.607" height="1.532"/>
	<rect x="63.559" y="45.711" width="17.607" height="1.53"/>
	<rect x="63.559" y="55.89" width="17.607" height="1.53"/>
	<rect x="63.559" y="61.148" width="13.27" height="1.53"/>
</g>
</svg>
