<?xml version="1.0" encoding="utf-8"?>
<!-- Generator: Adobe Illustrator 16.0.0, SVG Export Plug-In . SVG Version: 6.00 Build 0)  -->
<!DOCTYPE svg PUBLIC "-//W3C//DTD SVG 1.1//EN" "http://www.w3.org/Graphics/SVG/1.1/DTD/svg11.dtd">
<svg version="1.1" id="Layer_1" xmlns="http://www.w3.org/2000/svg" xmlns:xlink="http://www.w3.org/1999/xlink" x="0px" y="0px"
	 width="126px" height="126px" viewBox="0 0 126 126" enable-background="new 0 0 126 126" xml:space="preserve">
<g>
	<path d="M99.98,36.402c-0.006-0.468-0.154-0.93-0.475-1.295L79.838,12.643c-0.004-0.006-0.01-0.008-0.016-0.014
		c-0.117-0.131-0.252-0.239-0.396-0.334c-0.043-0.028-0.086-0.053-0.131-0.078c-0.127-0.068-0.258-0.124-0.395-0.165
		c-0.037-0.011-0.07-0.026-0.107-0.036c-0.15-0.035-0.303-0.057-0.459-0.057H30c-2.205,0-4,1.795-4,4v94c0,2.206,1.795,4,4,4h66
		c2.207,0,4-1.794,4-4V36.626C100,36.551,99.988,36.477,99.98,36.402z M44.419,107.878h-5.86l-7.11-22.189h5.497l2.7,9.383
		c0.757,2.634,1.448,5.169,1.976,7.935h0.098c0.56-2.667,1.251-5.301,2.008-7.836l2.831-9.481h5.333L44.419,107.878z
		 M63.412,108.239c-6.584,0-10.435-4.971-10.435-11.291c0-6.649,4.247-11.621,10.797-11.621c6.815,0,10.534,5.103,10.534,11.225
		C74.308,103.828,69.897,108.239,63.412,108.239z M91.752,106.1c-1.613,1.283-4.313,2.008-8.724,2.008
		c-2.469,0-4.313-0.164-5.432-0.328V85.985c1.317-0.263,3.983-0.461,6.486-0.461c3.061,0,4.938,0.297,6.551,1.252
		C92.18,87.6,93.3,89.113,93.3,91.121c0,1.976-1.152,3.818-3.654,4.74v0.065c2.534,0.692,4.411,2.601,4.411,5.465
		C94.057,103.399,93.135,104.98,91.752,106.1z M30,79.876V15.959h46.334v20.466c0,1.104,0.895,2,2,2H96l0.002,41.451H30z"/>
	<path d="M63.642,89.311c-3.391,0-5.366,3.226-5.366,7.538c0,4.347,2.041,7.407,5.399,7.407c3.391,0,5.333-3.226,5.333-7.538
		C69.008,92.735,67.099,89.311,63.642,89.311z"/>
	<path d="M88.263,91.746c0-1.678-1.284-2.567-3.555-2.567c-1.087,0-1.712,0.066-2.141,0.132v5.168h1.646
		C86.848,94.479,88.263,93.393,88.263,91.746z"/>
	<path d="M84.28,98.067h-1.713v6.254c0.495,0.066,1.087,0.066,1.943,0.066c2.271,0,4.28-0.855,4.28-3.192
		C88.79,98.955,86.781,98.067,84.28,98.067z"/>
</g>
<g>
	<path d="M59.288,69.703l0.131,0.031c0.066,0,0.131-0.023,0.185-0.065l9.886-6.313c0.07-0.058,0.113-0.145,0.113-0.234
		c0-0.089-0.042-0.175-0.113-0.234l-9.886-6.311c-0.09-0.071-0.212-0.084-0.315-0.033c-0.103,0.048-0.167,0.154-0.167,0.267v12.627
		C59.121,69.55,59.186,69.655,59.288,69.703z"/>
	<path d="M79.415,46.398c0,0-25.611,0-32.666,0l1.092-0.776c8.106-4.682,26.05-15.938,26.05-15.938c0.746-0.432,1-1.386,0.572-2.132
		l-1.561-3.843c-0.433-0.748-1.385-1-2.134-0.57L41.252,41.076c-0.745,0.433-0.996,1.389-0.568,2.135l2.826,3.063l0.022,25.776
		c0,0.864,0.697,1.56,1.559,1.56h34.324c0.861,0,1.56-0.695,1.56-1.56v-24.09C80.975,47.098,80.276,46.398,79.415,46.398z
		 M68.098,47.514l-4.816,4.68h-6.24l4.683-4.68H68.098z M66.066,27.405l5.537-3.555l-0.808,5.215l-5.667,3.638L66.066,27.405z
		 M56.194,33.479l5.634-3.511l-1.01,5.286l-5.627,3.51L56.194,33.479z M44.966,45.163l0.944-5.301l5.59-3.572l-0.946,5.292
		L44.966,45.163z M50.802,47.514h6.239l-4.68,4.68h-6.239L50.802,47.514z M78.287,71.71H46.188V54.631h32.099V71.71z M74.304,52.193
		h-6.342l4.683-4.68h6.194L74.304,52.193z"/>
</g>
</svg>
