<?xml version="1.0" encoding="utf-8"?>
<!-- Generator: Adobe Illustrator 16.0.0, SVG Export Plug-In . SVG Version: 6.00 Build 0)  -->
<!DOCTYPE svg PUBLIC "-//W3C//DTD SVG 1.1//EN" "http://www.w3.org/Graphics/SVG/1.1/DTD/svg11.dtd">
<svg version="1.1" id="Layer_1" xmlns="http://www.w3.org/2000/svg" xmlns:xlink="http://www.w3.org/1999/xlink" x="0px" y="0px"
	 width="126px" height="126px" viewBox="0 0 126 126" enable-background="new 0 0 126 126" xml:space="preserve">
<g>
	<path d="M68.701,89.208c-1.013,0-1.699,0.099-2.059,0.196v6.501c0.425,0.099,0.947,0.131,1.666,0.131
		c2.646,0,4.28-1.339,4.28-3.594C72.589,90.417,71.184,89.208,68.701,89.208z"/>
	<path d="M99.98,36.443c-0.006-0.468-0.154-0.93-0.475-1.295L79.838,12.684c-0.004-0.006-0.01-0.008-0.016-0.014
		c-0.117-0.131-0.252-0.239-0.396-0.334c-0.043-0.028-0.086-0.053-0.131-0.078c-0.127-0.068-0.258-0.124-0.395-0.165
		c-0.037-0.011-0.07-0.026-0.107-0.036C78.643,12.021,78.49,12,78.334,12H30c-2.205,0-4,1.795-4,4v94c0,2.206,1.795,4,4,4h66
		c2.207,0,4-1.794,4-4V36.667C100,36.592,99.988,36.518,99.98,36.443z M53.439,107.634h-5.391l-1.862-9.474
		c-0.425-2.222-0.784-4.28-1.046-6.796h-0.064c-0.393,2.483-0.752,4.574-1.274,6.796l-2.091,9.474h-5.455l-5.228-22.019h5.325
		l1.666,9.082c0.49,2.613,0.947,5.455,1.307,7.677h0.065c0.359-2.385,0.882-5.031,1.437-7.742l1.863-9.017h5.292l1.765,9.277
		c0.489,2.581,0.849,4.934,1.176,7.384h0.064c0.327-2.45,0.817-5.031,1.275-7.645l1.796-9.017h5.063L53.439,107.634z M75.496,97.539
		c-1.699,1.601-4.215,2.319-7.154,2.319c-0.653,0-1.242-0.032-1.699-0.098v7.873H61.71V85.909c1.535-0.262,3.691-0.458,6.729-0.458
		c3.071,0,5.26,0.588,6.73,1.765c1.404,1.11,2.352,2.94,2.352,5.096C77.521,94.468,76.803,96.298,75.496,97.539z M86.084,107.961
		c-2.515,0-4.998-0.654-6.239-1.34l1.013-4.116c1.34,0.686,3.398,1.372,5.521,1.372c2.287,0,3.495-0.947,3.495-2.385
		c0-1.372-1.046-2.156-3.691-3.104c-3.659-1.274-6.044-3.3-6.044-6.501c0-3.758,3.137-6.632,8.331-6.632
		c2.482,0,4.312,0.522,5.618,1.11l-1.109,4.019c-0.883-0.425-2.451-1.046-4.607-1.046s-3.201,0.98-3.201,2.124
		c0,1.404,1.241,2.025,4.084,3.104c3.887,1.438,5.717,3.463,5.717,6.566C94.971,104.824,92.129,107.961,86.084,107.961z M30,79.917
		V16h46.334v20.466c0,1.104,0.895,2,2,2H96l0.002,41.451H30z"/>
</g>
<g>
	<path d="M67.266,49.324c0.601-0.37,1.215-0.705,1.784-1.093c0.565-0.391,1.124-0.776,1.673-1.155
		c0.525-0.368,1.135-0.776,1.56-1.089c0.336-0.255,0.83-0.522,1.284-0.725c0.939-0.402,1.911-0.688,2.845-0.825
		c0.936-0.168,1.825-0.16,2.631-0.155c0.8,0.045,1.519,0.111,2.104,0.221c0.602,0.065,1.052,0.211,1.38,0.263
		c0.325,0.066,0.498,0.102,0.498,0.102s-0.142-0.104-0.407-0.3c-0.27-0.19-0.656-0.502-1.208-0.796
		c-0.542-0.319-1.232-0.657-2.073-0.963c-0.844-0.297-1.841-0.551-2.975-0.662c-1.13-0.082-2.398-0.066-3.718,0.251
		c-0.67,0.167-1.31,0.355-2.057,0.713c-0.561,0.275-1.134,0.557-1.717,0.843c-0.564,0.276-1.138,0.557-1.718,0.84
		c-0.58,0.28-1.194,0.501-1.796,0.757c-0.604,0.246-1.212,0.494-1.823,0.743l-1.864,0.636c-1.229,0.471-2.511,0.715-3.73,1.07
		c-1.242,0.236-2.449,0.553-3.63,0.657c-1.176,0.185-2.309,0.21-3.372,0.266c-1.062-0.021-2.054-0.04-2.951-0.131
		c-0.455-0.019-0.873-0.102-1.274-0.156c-0.405-0.049-0.777-0.123-1.12-0.205c-0.697-0.136-1.27-0.321-1.722-0.466
		c-0.451-0.142-3.795-1.035-3.959-1.105c-0.162-0.079-0.249-0.121-0.249-0.121l-0.068,7.039c0,0,0.229,0.097,0.657,0.278
		c0.437,0.164,0.985,0.354,1.694,0.54c0.707,0.179,1.556,0.363,2.519,0.479c0.482,0.073,0.994,0.132,1.528,0.157
		c0.536,0.032,1.101,0.088,1.681,0.072c0.58-0.013,1.19,0.022,1.809-0.034c0.616-0.055,1.253-0.111,1.908-0.17
		c1.289-0.201,2.648-0.396,4-0.759c1.377-0.286,2.722-0.788,4.104-1.223c1.329-0.566,2.716-1.053,3.993-1.739
		c0.647-0.323,1.294-0.646,1.938-0.968C66.053,50.063,66.657,49.682,67.266,49.324z"/>
	<path d="M84.369,46.247c-0.689-0.475-3.329,2.001-3.805,2.69L64.56,71.271c-0.21,0.305-0.168,0.654,0,0.989
		c-0.056,0.052-0.119,0.092-0.165,0.156c-0.327,0.468-0.21,1.113,0.257,1.441l0.788,0.552c0.468,0.325,1.115,0.212,1.442-0.256
		c0.032-0.046,0.041-0.101,0.065-0.15c0.337,0.056,0.643-0.002,0.843-0.29l15.271-23.052C83.535,49.974,85.059,46.723,84.369,46.247
		z"/>
</g>
</svg>
