<?xml version="1.0" encoding="utf-8"?>
<!-- Generator: Adobe Illustrator 16.0.0, SVG Export Plug-In . SVG Version: 6.00 Build 0)  -->
<!DOCTYPE svg PUBLIC "-//W3C//DTD SVG 1.1//EN" "http://www.w3.org/Graphics/SVG/1.1/DTD/svg11.dtd">
<svg version="1.1" id="Layer_1" xmlns="http://www.w3.org/2000/svg" xmlns:xlink="http://www.w3.org/1999/xlink" x="0px" y="0px"
	 width="126px" height="126px" viewBox="0 0 126 126" enable-background="new 0 0 126 126" xml:space="preserve">
<g>
	<path d="M99.874,36.396c-0.006-0.468-0.154-0.93-0.475-1.295L79.731,12.636c-0.004-0.006-0.01-0.008-0.016-0.014
		c-0.117-0.131-0.252-0.239-0.396-0.334c-0.043-0.028-0.086-0.053-0.131-0.078c-0.127-0.068-0.258-0.124-0.395-0.165
		c-0.037-0.011-0.07-0.026-0.107-0.036c-0.15-0.035-0.303-0.057-0.459-0.057H29.893c-2.205,0-4,1.795-4,4v94c0,2.206,1.795,4,4,4h66
		c2.207,0,4-1.794,4-4V36.619C99.893,36.544,99.881,36.47,99.874,36.396z M39.792,103.74l-1.227-2.454
		c-0.503-0.945-0.825-1.649-1.208-2.435h-0.04c-0.282,0.785-0.624,1.489-1.046,2.435l-1.127,2.454h-3.5l3.922-6.859l-3.782-6.698
		h3.52l1.187,2.475c0.402,0.825,0.704,1.489,1.025,2.253h0.041c0.321-0.865,0.583-1.469,0.924-2.253l1.147-2.475h3.5L39.309,96.8
		l4.022,6.94H39.792z M56.164,103.74h-3.058v-5.673h-5.049v5.673h-3.077V90.183h3.077v5.21h5.049v-5.21h3.058V103.74z M68.23,92.758
		h-3.701v10.982h-3.078V92.758H57.81v-2.575h10.42V92.758z M81.443,103.74l-0.201-5.189c-0.06-1.629-0.12-3.601-0.12-5.572h-0.06
		c-0.423,1.73-0.986,3.661-1.509,5.25l-1.65,5.291H75.51l-1.449-5.25c-0.442-1.59-0.905-3.521-1.227-5.291h-0.04
		c-0.081,1.831-0.141,3.922-0.242,5.613l-0.241,5.148h-2.836l0.865-13.558h4.083l1.328,4.526c0.423,1.568,0.845,3.258,1.146,4.848
		h0.06c0.382-1.57,0.844-3.359,1.288-4.868l1.448-4.506h4.003l0.744,13.558H81.443z M95.26,103.74h-8.468V90.183h3.077v10.983h5.391
		V103.74z M29.893,79.869V15.952h46.334v20.466c0,1.104,0.895,2,2,2h17.666l0.002,41.451H29.893z"/>
	<polygon points="33.163,55.315 44.707,60.679 44.707,58.129 35.976,54.305 35.976,54.257 44.707,50.433 44.707,47.883 
		33.163,53.246 	"/>
	<polygon points="81.08,50.433 90.003,54.257 90.003,54.305 81.08,58.129 81.08,60.679 92.624,55.387 92.624,53.175 81.08,47.883 	
		"/>
	<path d="M62.664,40.507c-7.607,0-13.774,6.167-13.774,13.774c0,7.606,6.167,13.773,13.774,13.773s13.773-6.167,13.773-13.773
		C76.437,46.674,70.271,40.507,62.664,40.507z M67.84,45.973l0.985-0.658c0,0-0.414-1.061-0.344-1.581
		c0.239-0.116,1.209,0.393,2.029,1.256c-0.552,2.054-1.847,1.809-1.847,1.809S67.716,46.775,67.84,45.973z M59.538,58.102
		c-0.061,0.308-0.432,1.049-0.678,1.541s-0.369,0.678-0.679,0.924c-0.309,0.25-0.492,0.68-0.492,0.68l-0.062,1.047
		c0,0,0.121,0.865,0.306,1.174c0.185,0.307-0.66,2.144-0.66,2.144c-0.536-0.106-0.834-0.728-1.02-1.218
		c-0.186-0.496-0.431-0.758-0.369-1.312c0.062-0.555-0.479-0.848-0.662-1.155c-0.184-0.313-0.432-0.742-0.432-1.05
		c0-0.31-0.677-0.741-0.677-0.741s-1.234-0.555-1.419-0.8c-0.185-0.247-0.372-1.298-0.432-1.728
		c-0.063-0.43,0.184-1.539,0.184-1.539s0.498-0.375,0.185-0.68c-0.309-0.308-0.368-1.111-0.368-1.111l-0.556-0.615
		c0,0-0.433-0.617-0.494-0.926c-0.062-0.308,0-0.493,0.062-0.803c0.061-0.31-0.123-0.862-0.123-1.17
		c2.304-5.648,6.167-6.967,6.167-6.967l0.309,1.292c0,0-0.678,0.187-1.046,0.063c-0.372-0.123-0.559-0.123-0.559-0.123l-0.491,0.677
		c0,0-0.188,0.433-0.249,0.68C55.222,46.633,55.406,47,55.406,47s0.862,0.063,0.862-0.184s-0.121-0.369-0.121-0.369l-0.124-0.433
		c0,0,0.559-0.309,2.034-0.187c1.48,0.125,0.927,1.172,1.545,1.421c0.617,0.247-0.496,1.109-0.742,1.601
		c-0.246,0.494-0.616-0.617-0.616-0.617s0.37-0.426-0.246-0.554c-0.617-0.12-1.025,1.11-0.713,1.05
		c0.307-0.061,0.651,0.332,0.588,0.64c-0.062,0.309-0.062,0.284-0.37,0.962c-0.308,0.678-0.978,1.18-0.978,1.18
		s-0.315-0.191-0.133,0.18c0.189,0.369-0.061,1.231-0.061,1.479c0,0.245-0.74-0.432-0.861-1.051
		c-0.126-0.612-0.848-0.078-1.094-0.016c-0.247,0.063-0.697-0.106-0.816-0.412c-0.126-0.311-1.237,0.615-1.546,0.799
		c-0.307,0.186-0.182,0.68,0.309,0.433c0.493-0.247,0.924-0.062,0.802,0.435c-0.122,0.49-0.614,0.184-0.554,0.49
		c0.061,0.308,0.554,0.617,0.676,1.05c0.124,0.43,1.298,0.062,1.667-0.124c0.369-0.187,1.418-0.37,1.54,0.124
		c0.128,0.493,1.297,0.676,1.728,0.798c0.433,0.125,1.296,0.186,1.791,0.68C60.463,56.867,59.602,57.793,59.538,58.102z
		 M62.312,43.671c-0.063,0.618-1.047,1.418-0.924,1.667c0.124,0.248,0,1.303-0.863,0.377c-0.864-0.926-1.729-1.24-1.665-1.858
		c0.015-0.123,0.893-0.316,0.907-0.532c1.308-1.216,3.396-0.966,3.556-0.678C62.95,43.259,62.375,43.055,62.312,43.671z
		 M73.028,47.813c0.833,1.431,2.052,5.246,1.602,5.929c-0.271-0.122-0.498-0.224-0.498-0.224h-1.645l0.985,1.152
		c0,0,0.477,0.699,1.153,0.655c-0.445,5.157-4.749,8.469-4.749,8.469c-0.657-0.658-0.328-1.231-0.328-1.231l0.185-0.988l0.104-1.664
		c0,0,0-1.725-1.646-0.905c-1.767,0.451-1.03,0.451-2.815,0.575c-1.788,0.123-1.492-3.646-1.492-3.646
		c0-5.643,4.327-1.384,4.327-1.384c2.469,1.642,2.798-1.362,2.798-1.362l1.808-0.654l0.164-0.824l-0.263-1.148l-2.627-1.084
		c0,0-0.253,0.854,0.421,1.902c0,0-0.225,1.192-0.778,0.885l-1.522-0.766c0,0-0.512-0.221-1.334,0.273
		c-0.824,0.492-2.217-0.023-2.217-0.023s0.112-0.827,0.978-1.256l0.707-0.468c0,0-0.185-0.845-0.023-1.501
		c0.162-0.657,0.452-0.082,1.109-0.576c0.657-0.491,1.11,0.966,2.096,0.802c0.985-0.165,0.494-0.329,1.153-0.657
		c0.659-0.329,1.151,0.657,1.151,0.657l1.313,0.164C73.144,48.913,72.939,47.428,73.028,47.813z"/>
</g>
</svg>
