<?xml version="1.0" encoding="iso-8859-1"?>
<!-- Generator: Adobe Illustrator 16.0.0, SVG Export Plug-In . SVG Version: 6.00 Build 0)  -->
<!DOCTYPE svg PUBLIC "-//W3C//DTD SVG 1.1//EN" "http://www.w3.org/Graphics/SVG/1.1/DTD/svg11.dtd">
<svg version="1.1" id="Capa_1" xmlns="http://www.w3.org/2000/svg" xmlns:xlink="http://www.w3.org/1999/xlink" x="0px" y="0px"
	 width="548.291px" height="548.291px" viewBox="0 0 548.291 548.291" style="enable-background:new 0 0 548.291 548.291;"
	 xml:space="preserve">
<g>
	<path d="M486.201,196.116h-13.166V132.59c0-0.399-0.062-0.795-0.115-1.2c-0.021-2.522-0.825-5-2.552-6.96L364.657,3.677
		c-0.033-0.034-0.064-0.044-0.085-0.075c-0.63-0.704-1.364-1.292-2.143-1.796c-0.229-0.157-0.461-0.286-0.702-0.419
		c-0.672-0.365-1.387-0.672-2.121-0.893c-0.2-0.052-0.379-0.134-0.577-0.188C358.23,0.118,357.401,0,356.562,0H96.757
		C84.894,0,75.256,9.649,75.256,21.502v174.613H62.092c-16.971,0-30.732,13.756-30.732,30.73v159.81
		c0,16.966,13.761,30.736,30.732,30.736h13.164V526.79c0,11.854,9.638,21.501,21.501,21.501h354.776
		c11.853,0,21.501-9.647,21.501-21.501V417.392h13.166c16.966,0,30.729-13.764,30.729-30.731V226.854
		C516.93,209.872,503.167,196.116,486.201,196.116z M96.757,21.502h249.054v110.006c0,5.94,4.817,10.751,10.751,10.751h94.972
		v53.861H96.757V21.502z M288.77,353.054c7.749,0,13.922-0.881,16.567-2.215V319.7h-22.967v-26.3h55.45v78.438
		c-10.373,3.527-30.037,8.398-49.711,8.398c-27.183,0-46.844-6.851-60.537-20.11c-13.701-12.813-21.205-32.252-20.985-54.122
		c0.221-49.5,36.243-77.774,85.07-77.774c19.212,0,34.017,3.745,41.307,7.284l-7.064,26.952c-8.175-3.527-18.326-6.404-34.684-6.404
		c-28.068,0-49.273,15.906-49.273,48.167C241.938,334.935,261.147,353.054,288.77,353.054z M84.642,370.944l6.832-25.175
		c5.974,3.086,19.675,8.83,33.376,8.83c17.449,0,26.291-8.4,26.291-19.225c0-14.131-14.142-20.545-28.958-20.545h-13.69v-24.081
		h13.031c11.276-0.219,25.628-4.414,25.628-16.566c0-8.623-7.063-15.024-21.205-15.024c-11.708,0-24.076,5.068-30.048,8.611
		l-6.843-24.297c8.623-5.533,25.848-10.827,44.42-10.827c30.709,0,47.717,16.116,47.717,35.791c0,15.24-8.622,27.173-26.302,33.361
		v0.432c17.238,3.098,31.163,16.137,31.163,34.908c0,25.418-22.308,43.98-58.775,43.98
		C108.712,381.119,93.028,376.257,84.642,370.944z M451.534,520.962H96.757v-103.57h354.776V520.962z M460.657,378.683H358.798
		v-20.326l18.561-16.789c31.37-28.062,46.614-44.199,47.056-60.986c0-11.709-7.066-20.987-23.632-20.987
		c-12.369,0-23.198,6.181-30.729,11.927l-9.481-24.082c10.813-8.17,27.623-14.792,47.056-14.792
		c32.483,0,50.373,18.993,50.373,45.063c0,24.089-17.449,43.309-38.227,61.882l-13.26,11.039v0.439h54.143V378.683z"/>
</g>
<g>
</g>
<g>
</g>
<g>
</g>
<g>
</g>
<g>
</g>
<g>
</g>
<g>
</g>
<g>
</g>
<g>
</g>
<g>
</g>
<g>
</g>
<g>
</g>
<g>
</g>
<g>
</g>
<g>
</g>
</svg>
