<?xml version="1.0" encoding="utf-8"?>
<!-- Generator: Adobe Illustrator 16.0.0, SVG Export Plug-In . SVG Version: 6.00 Build 0)  -->
<!DOCTYPE svg PUBLIC "-//W3C//DTD SVG 1.1//EN" "http://www.w3.org/Graphics/SVG/1.1/DTD/svg11.dtd">
<svg version="1.1" id="Layer_1" xmlns="http://www.w3.org/2000/svg" xmlns:xlink="http://www.w3.org/1999/xlink" x="0px" y="0px"
	 width="126px" height="126px" viewBox="0 0 126 126" enable-background="new 0 0 126 126" xml:space="preserve">
<path d="M99.98,36.352c-0.006-0.468-0.154-0.93-0.475-1.295L79.838,12.592c-0.004-0.006-0.01-0.008-0.016-0.014
	c-0.117-0.131-0.252-0.239-0.396-0.334c-0.043-0.028-0.086-0.053-0.131-0.078c-0.127-0.068-0.258-0.124-0.395-0.165
	c-0.037-0.011-0.07-0.026-0.107-0.036c-0.15-0.035-0.303-0.057-0.459-0.057H30c-2.205,0-4,1.795-4,4v94c0,2.206,1.795,4,4,4h66
	c2.207,0,4-1.794,4-4V36.575C100,36.5,99.988,36.426,99.98,36.352z M41.032,107.977c-2.804,0-5.175-0.734-6.443-1.536l1.034-3.806
	c0.902,0.467,2.973,1.335,5.043,1.335c2.637,0,3.972-1.269,3.972-2.904c0-2.137-2.136-3.105-4.374-3.105h-2.068v-3.64h1.969
	c1.703-0.033,3.873-0.668,3.873-2.504c0-1.302-1.068-2.271-3.205-2.271c-1.77,0-3.64,0.768-4.541,1.302l-1.035-3.672
	c1.303-0.835,3.906-1.636,6.712-1.636c4.641,0,7.212,2.437,7.212,5.408c0,2.304-1.303,4.107-3.975,5.042v0.066
	c2.605,0.468,4.709,2.438,4.709,5.275C49.914,105.172,46.542,107.977,41.032,107.977z M72.85,106.574
	c-1.569,0.534-4.54,1.27-7.512,1.27c-4.107,0-7.08-1.036-9.148-3.039c-2.07-1.937-3.206-4.875-3.172-8.18
	c0.033-7.479,5.476-11.753,12.854-11.753c2.904,0,5.141,0.567,6.243,1.102l-1.068,4.073c-1.236-0.534-2.771-0.969-5.242-0.969
	c-4.24,0-7.445,2.404-7.445,7.279c0,4.641,2.904,7.379,7.078,7.379c1.169,0,2.104-0.134,2.504-0.334v-4.707h-3.473v-3.974h8.381
	V106.574z M91.411,107.609H76.019v-3.071L78.823,102c4.741-4.24,7.046-6.678,7.112-9.216c0-1.769-1.069-3.171-3.573-3.171
	c-1.869,0-3.506,0.935-4.642,1.803l-1.435-3.64c1.636-1.235,4.174-2.236,7.112-2.236c4.908,0,7.611,2.871,7.611,6.811
	c0,3.64-2.637,6.544-5.775,9.35l-2.004,1.669v0.066h8.181V107.609z M30,79.825V15.908h46.334v20.466c0,1.104,0.895,2,2,2H96
	l0.002,41.451H30z"/>
<g>
	<path d="M80.118,48.273c0,0-25.611,0-32.666,0l1.092-0.776c8.106-4.682,26.05-15.938,26.05-15.938c0.746-0.432,1-1.386,0.572-2.132
		l-1.561-3.843c-0.433-0.748-1.385-1-2.134-0.57L41.955,42.951c-0.745,0.433-0.996,1.389-0.568,2.135l2.826,3.063l0.022,23.526
		c0,0.864,0.697,1.56,1.559,1.56h34.324c0.861,0,1.56-0.695,1.56-1.56v-21.84C81.678,48.973,80.979,48.273,80.118,48.273z
		 M68.801,49.389l-4.816,4.68h-6.24l4.683-4.68H68.801z M66.77,29.28l5.537-3.555l-0.808,5.215l-5.667,3.638L66.77,29.28z
		 M56.897,35.354l5.634-3.511l-1.01,5.286l-5.627,3.51L56.897,35.354z M45.669,47.038l0.944-5.301l5.59-3.572l-0.946,5.292
		L45.669,47.038z M51.505,49.389h6.239l-4.68,4.68h-6.239L51.505,49.389z M78.99,71.335H46.892V56.506H78.99V71.335z M75.007,54.068
		h-6.342l4.683-4.68h6.194L75.007,54.068z"/>
</g>
</svg>
