<?xml version="1.0" encoding="utf-8"?>
<!-- Generator: Adobe Illustrator 16.0.0, SVG Export Plug-In . SVG Version: 6.00 Build 0)  -->
<!DOCTYPE svg PUBLIC "-//W3C//DTD SVG 1.1//EN" "http://www.w3.org/Graphics/SVG/1.1/DTD/svg11.dtd">
<svg version="1.1" id="Layer_1" xmlns="http://www.w3.org/2000/svg" xmlns:xlink="http://www.w3.org/1999/xlink" x="0px" y="0px"
	 width="126px" height="126px" viewBox="0 0 126 126" enable-background="new 0 0 126 126" xml:space="preserve">
<g>
	<g>
		<path d="M58.18,87.714h-0.074c-0.367,1.473-0.736,3.351-1.141,4.787l-1.473,5.265h5.486l-1.547-5.265
			C58.991,91.028,58.549,89.187,58.18,87.714z"/>
		<path d="M99.874,36.23c-0.006-0.468-0.154-0.93-0.475-1.295L79.731,12.471c-0.004-0.006-0.01-0.008-0.016-0.014
			c-0.117-0.131-0.252-0.239-0.396-0.334c-0.043-0.028-0.086-0.053-0.131-0.078c-0.127-0.068-0.258-0.124-0.395-0.165
			c-0.037-0.011-0.07-0.026-0.107-0.036c-0.15-0.035-0.303-0.057-0.459-0.057H29.893c-2.205,0-4,1.795-4,4v94c0,2.206,1.795,4,4,4
			h66c2.207,0,4-1.794,4-4V36.454C99.893,36.379,99.881,36.305,99.874,36.23z M63.704,108.333l-1.916-6.37h-7.105l-1.768,6.37
			h-5.816l7.584-24.816h7.363l7.695,24.816H63.704z M78.688,108.333h-5.635V83.517h5.635V108.333z M29.893,79.704V15.787h46.334
			v20.466c0,1.104,0.895,2,2,2h17.666l0.002,41.451H29.893z"/>
	</g>
	<g>
		<path d="M52.208,60.716l-2.063,7.437h-6.791l8.854-28.972h8.597l8.984,28.972H62.74l-2.235-7.437H52.208z M59.559,55.816
			l-1.805-6.147c-0.516-1.719-1.032-3.868-1.461-5.588h-0.086c-0.43,1.72-0.86,3.912-1.333,5.588l-1.719,6.147H59.559z"/>
		<path d="M79.937,41.287c0,1.806-1.375,3.267-3.525,3.267c-2.063,0-3.438-1.461-3.396-3.267c-0.043-1.891,1.333-3.31,3.438-3.31
			C78.561,37.978,79.894,39.396,79.937,41.287z M73.188,68.152v-21.02h6.534v21.02H73.188z"/>
	</g>
</g>
</svg>
