<?xml version="1.0" encoding="utf-8"?>
<!-- Generator: Adobe Illustrator 16.0.0, SVG Export Plug-In . SVG Version: 6.00 Build 0)  -->
<!DOCTYPE svg PUBLIC "-//W3C//DTD SVG 1.1//EN" "http://www.w3.org/Graphics/SVG/1.1/DTD/svg11.dtd">
<svg version="1.1" id="Layer_1" xmlns="http://www.w3.org/2000/svg" xmlns:xlink="http://www.w3.org/1999/xlink" x="0px" y="0px"
	 width="126px" height="126px" viewBox="0 0 126 126" enable-background="new 0 0 126 126" xml:space="preserve">
<g>
	<path d="M45.737,88.427h-0.065c-0.329,1.314-0.657,2.99-1.02,4.271l-1.313,4.698h4.896l-1.38-4.698
		C46.46,91.384,46.066,89.741,45.737,88.427z"/>
	<path d="M99.98,36.352c-0.006-0.468-0.154-0.93-0.475-1.295L79.838,12.592c-0.004-0.006-0.01-0.008-0.016-0.014
		c-0.117-0.131-0.252-0.239-0.396-0.334c-0.043-0.028-0.086-0.053-0.131-0.078c-0.127-0.068-0.258-0.124-0.395-0.165
		c-0.037-0.011-0.07-0.026-0.107-0.036c-0.15-0.035-0.303-0.057-0.459-0.057H30c-2.205,0-4,1.795-4,4v94c0,2.206,1.795,4,4,4h66
		c2.207,0,4-1.794,4-4V36.575C100,36.5,99.988,36.426,99.98,36.352z M50.666,106.827l-1.709-5.685h-6.341l-1.578,5.685h-5.19
		l6.769-22.146h6.571l6.867,22.146H50.666z M64.432,107.155c-2.531,0-5.028-0.657-6.277-1.347l1.02-4.141
		c1.347,0.69,3.417,1.38,5.553,1.38c2.3,0,3.516-0.953,3.516-2.398c0-1.38-1.052-2.169-3.713-3.121
		c-3.68-1.281-6.078-3.318-6.078-6.539c0-3.778,3.154-6.67,8.379-6.67c2.497,0,4.337,0.526,5.65,1.117l-1.117,4.041
		c-0.887-0.427-2.464-1.051-4.633-1.051c-2.168,0-3.22,0.985-3.22,2.136c0,1.413,1.248,2.037,4.107,3.121
		c3.91,1.446,5.75,3.483,5.75,6.604C73.368,104.001,70.51,107.155,64.432,107.155z M90.287,88.788h-8.51v5.061h7.951v4.073h-7.951
		v8.905H76.75V84.681h13.537V88.788z M30,79.825V15.908h46.334v20.466c0,1.104,0.895,2,2,2H96l0.002,41.451H30z"/>
</g>
<g>
	<path d="M62.032,38.155V33.03c-10.499,0-19.041,8.542-19.041,19.041h5.125C48.116,44.397,54.358,38.155,62.032,38.155z"/>
	<path d="M63.005,33.03h-0.256v5.292h0.256c6.928,0,13.236,6.492,13.236,13.621v0.256h5.293v-0.256
		C81.534,41.868,72.876,33.03,63.005,33.03z M76.751,51.688c-0.146-7.208-6.479-13.719-13.49-13.874v-4.269
		c9.407,0.149,17.615,8.534,17.759,18.143H76.751z"/>
	<path d="M62.391,66.677v5.124c10.499,0,19.041-8.542,19.041-19.041h-5.124C76.308,60.434,70.064,66.677,62.391,66.677z"/>
	<path d="M48.182,52.888v-0.256H42.89v0.256c0,10.075,8.658,18.913,18.528,18.913h0.256v-5.292h-0.256
		C54.49,66.509,48.182,60.017,48.182,52.888z M61.162,71.286c-9.407-0.15-17.614-8.534-17.759-18.143h4.268
		c0.147,7.208,6.479,13.719,13.491,13.875V71.286z"/>
	<path d="M57.798,45.176c-0.116,0.054-0.19,0.175-0.19,0.302v14.309c0,0.127,0.074,0.247,0.19,0.302l0.148,0.034
		c0.075,0,0.147-0.026,0.209-0.073l11.202-7.153c0.08-0.065,0.128-0.164,0.128-0.266s-0.048-0.198-0.128-0.266l-11.202-7.151
		C58.053,45.132,57.915,45.118,57.798,45.176z"/>
</g>
</svg>
