<?xml version="1.0" encoding="utf-8"?>
<!-- Generator: Adobe Illustrator 16.0.4, SVG Export Plug-In . SVG Version: 6.00 Build 0)  -->
<!DOCTYPE svg PUBLIC "-//W3C//DTD SVG 1.1//EN" "http://www.w3.org/Graphics/SVG/1.1/DTD/svg11.dtd">
<svg version="1.1" id="Layer_1" xmlns="http://www.w3.org/2000/svg" xmlns:xlink="http://www.w3.org/1999/xlink" x="0px" y="0px"
	 width="126px" height="126px" viewBox="0 0 126 126" enable-background="new 0 0 126 126" xml:space="preserve">
<g>
	<path d="M60.68,87.732c-1.168,0-1.924,0.104-2.371,0.207v15.151c0.447,0.104,1.17,0.104,1.822,0.104
		c4.74,0.033,7.832-2.578,7.832-8.109C67.998,90.275,65.182,87.732,60.68,87.732z"/>
	<path d="M84.527,87.598c-1.271,0-1.992,0.104-2.371,0.172v6.392h2.062c2.611,0,4.156-1.308,4.156-3.334
		C88.375,88.695,86.932,87.631,84.527,87.598z"/>
	<path d="M99.98,36.442c-0.006-0.468-0.156-0.929-0.478-1.295L79.838,12.682c-0.006-0.005-0.012-0.008-0.016-0.013
		c-0.117-0.132-0.254-0.239-0.398-0.334c-0.043-0.028-0.086-0.054-0.131-0.078c-0.125-0.069-0.256-0.124-0.395-0.165
		c-0.037-0.011-0.07-0.027-0.107-0.035C78.643,12.021,78.488,12,78.332,12H30c-2.205,0-4,1.794-4,4v94c0,2.205,1.795,4,4,4h66
		c2.205,0,4-1.795,4-4V36.666C100,36.591,99.988,36.517,99.98,36.442z M44.461,103.059c1.58,0,3.334-0.344,4.363-0.758l0.791,4.09
		c-0.963,0.48-3.127,0.996-5.943,0.996c-8.006,0-12.129-4.982-12.129-11.578c0-7.904,5.635-12.301,12.645-12.301
		c2.713,0,4.775,0.549,5.703,1.03l-1.066,4.157c-1.064-0.445-2.541-0.857-4.396-0.857c-4.158,0-7.387,2.508-7.387,7.66
		C37.041,100.137,39.789,103.059,44.461,103.059z M69.682,104.293c-2.438,2.029-6.149,2.99-10.686,2.99
		c-2.713,0-4.637-0.172-5.943-0.344V84.195c1.924-0.311,4.432-0.48,7.078-0.48c4.396,0,7.248,0.79,9.482,2.473
		c2.404,1.787,3.916,4.64,3.916,8.728C73.529,99.348,71.914,102.404,69.682,104.293z M89.096,107.043
		c-0.377-0.652-0.926-2.543-1.613-5.395c-0.619-2.888-1.614-3.678-3.746-3.711h-1.579v9.104h-5.188V84.195
		c1.684-0.273,4.191-0.48,6.975-0.48c3.437,0,5.841,0.514,7.49,1.82c1.373,1.1,2.129,2.715,2.129,4.844
		c0,2.955-2.096,4.982-4.088,5.705v0.102c1.615,0.652,2.508,2.198,3.092,4.33c0.724,2.611,1.443,5.635,1.892,6.527H89.096z
		 M30,79.916V16h46.332v20.465c0,1.104,0.896,2,2,2H96v41.451H30z"/>
	<path d="M58.008,63.566l-7.764-7.766l17.727-17.727l-1.248-1.247L47.75,55.801l0.012,0.012c-0.197,0.186-0.344,0.424-0.404,0.685
		l-2.494,10.811c-0.105,0.461,0.029,0.938,0.365,1.273c0.336,0.335,0.813,0.473,1.273,0.365l10.811-2.495
		c0.25-0.058,0.479-0.183,0.66-0.365c0.01-0.011,0.02-0.022,0.029-0.034l0.006,0.008l18.975-18.975l-1.248-1.247L58.008,63.566z
		 M57.012,65.15l-6.818,1.574l-3.107-3.107l1.574-6.818c0-0.005,0.004-0.011,0.008-0.015l0.014-0.008
		c0.01-0.002,0.021,0.001,0.029,0.008l8.316,8.315c0.008,0.008,0.012,0.02,0.008,0.03l0.061,0.019l0.025,0.026L57.012,65.15z
		 M71.854,41.959L55.938,57.874l-2.562-2.562l15.915-15.916L71.854,41.959z"/>
</g>
</svg>
