<?xml version="1.0" encoding="utf-8"?>
<!-- Generator: Adobe Illustrator 16.0.0, SVG Export Plug-In . SVG Version: 6.00 Build 0)  -->
<!DOCTYPE svg PUBLIC "-//W3C//DTD SVG 1.1//EN" "http://www.w3.org/Graphics/SVG/1.1/DTD/svg11.dtd">
<svg version="1.1" id="Layer_1" xmlns="http://www.w3.org/2000/svg" xmlns:xlink="http://www.w3.org/1999/xlink" x="0px" y="0px"
	 width="126px" height="126px" viewBox="0 0 126 126" enable-background="new 0 0 126 126" xml:space="preserve">
<g>
	<g>
		<path d="M64.807,87.795c-1.051,0-1.762,0.102-2.135,0.203v6.741c0.441,0.102,0.982,0.136,1.729,0.136
			c2.744,0,4.438-1.389,4.438-3.727C68.838,89.049,67.381,87.795,64.807,87.795z"/>
		<path d="M99.873,36.402c-0.006-0.468-0.154-0.93-0.475-1.295L79.73,12.643c-0.004-0.006-0.01-0.008-0.016-0.014
			c-0.117-0.131-0.252-0.239-0.396-0.334c-0.043-0.028-0.086-0.053-0.131-0.078c-0.127-0.068-0.258-0.124-0.395-0.165
			c-0.037-0.011-0.07-0.026-0.107-0.036c-0.15-0.035-0.303-0.057-0.459-0.057H29.893c-2.205,0-4,1.795-4,4v94c0,2.206,1.795,4,4,4
			h66c2.207,0,4-1.794,4-4V36.626C99.893,36.551,99.881,36.477,99.873,36.402z M49.086,102.971c1.559,0,3.287-0.339,4.303-0.745
			l0.779,4.031c-0.949,0.475-3.082,0.982-5.859,0.982c-7.895,0-11.959-4.912-11.959-11.416c0-7.791,5.557-12.127,12.467-12.127
			c2.676,0,4.707,0.542,5.623,1.017l-1.051,4.099c-1.051-0.44-2.506-0.847-4.336-0.847c-4.1,0-7.283,2.473-7.283,7.554
			C41.77,100.092,44.48,102.971,49.086,102.971z M71.854,96.434c-1.762,1.659-4.371,2.404-7.42,2.404
			c-0.678,0-1.287-0.033-1.762-0.102v8.164h-5.113V84.374c1.592-0.271,3.826-0.475,6.977-0.475c3.186,0,5.455,0.61,6.979,1.829
			c1.457,1.152,2.439,3.049,2.439,5.285C73.953,93.249,73.207,95.146,71.854,96.434z M91.504,106.9H77.242V84.069h5.182v18.495h9.08
			V106.9z M29.893,79.876V15.959h46.334v20.466c0,1.104,0.895,2,2,2h17.666l0.002,41.451H29.893z"/>
	</g>
	<g>
		<path d="M77.393,30.7l-31.217,0.044l0.006,40.573l31.217-0.019L77.393,30.7z M48.236,69.281l-0.023-36.508l27.074-0.013
			l0.006,36.508L48.236,69.281z"/>
		<path d="M63.58,56.327c0.131-0.447,0.52-0.762,0.982-0.807c0.164-0.016,0.316-0.093,0.412-0.214
			c0.098-0.12,0.143-0.281,0.123-0.435c-0.055-0.463,0.18-0.918,0.586-1.141l1.084-0.588c0.271-0.145,0.576-0.176,0.859-0.094
			l0.197,0.059l0.195,0.153c0.152,0.13,0.303,0.167,0.449,0.149c0.158-0.017,0.309-0.101,0.402-0.222
			c0.275-0.351,0.715-0.496,1.141-0.399l0.23-0.778c0.023-0.083-0.008-0.176-0.072-0.229c-0.73-0.566-1.203-1.416-1.299-2.332
			c-0.096-0.918,0.191-1.851,0.785-2.556c0.055-0.064,0.066-0.159,0.027-0.233l-1.24-2.287c-0.068-0.127-0.148-0.117-0.213-0.109
			c-0.906,0.116-1.85-0.151-2.566-0.735c-0.717-0.577-1.17-1.44-1.25-2.362c-0.006-0.082-0.066-0.156-0.15-0.181l-2.49-0.739
			c-0.084-0.027-0.174,0.004-0.225,0.069c-0.568,0.73-1.418,1.204-2.336,1.298c-0.914,0.1-1.852-0.19-2.555-0.789
			c-0.043-0.034-0.109-0.089-0.234-0.022l-2.287,1.239c-0.078,0.043-0.121,0.127-0.109,0.212c0.115,0.916-0.152,1.851-0.734,2.569
			c-0.578,0.716-1.439,1.168-2.361,1.248c-0.086,0.004-0.158,0.064-0.184,0.149l-0.738,2.494c-0.027,0.081,0.002,0.169,0.07,0.224
			c0.73,0.568,1.201,1.418,1.299,2.334c0.094,0.916-0.193,1.852-0.791,2.555c-0.053,0.065-0.064,0.16-0.023,0.234l1.24,2.29
			c0.068,0.126,0.15,0.114,0.211,0.104c0.467-0.059,0.939-0.02,1.393,0.115c0.434,0.129,0.83,0.336,1.178,0.622
			c0.715,0.581,1.17,1.44,1.248,2.359c0.008,0.086,0.068,0.159,0.15,0.184l2.49,0.74c0.086,0.025,0.174-0.004,0.227-0.07
			c0.568-0.729,1.418-1.202,2.336-1.297c0.893-0.093,1.797,0.178,2.49,0.736c0.043-0.1,0.102-0.196,0.172-0.284
			c0.107-0.124,0.158-0.285,0.143-0.441c-0.018-0.151-0.1-0.299-0.225-0.396c-0.369-0.296-0.521-0.771-0.389-1.217L63.58,56.327z
			 M58.684,55.21c-2.674-0.794-4.201-3.616-3.408-6.289c0.793-2.674,3.615-4.205,6.289-3.41c2.676,0.795,4.203,3.619,3.41,6.291
			C64.18,54.476,61.357,56.005,58.684,55.21z"/>
		<path d="M72.922,57.854c-0.045-0.435,0.092-0.874,0.373-1.209c0.025-0.03,0.029-0.077,0.012-0.111l-0.586-1.085
			c-0.033-0.061-0.072-0.055-0.1-0.052c-0.43,0.056-0.883-0.071-1.221-0.346c-0.338-0.275-0.553-0.684-0.59-1.121
			c-0.004-0.038-0.031-0.074-0.07-0.085l-1.182-0.35c-0.039-0.011-0.082,0.002-0.105,0.032c-0.266,0.345-0.672,0.572-1.105,0.616
			c-0.434,0.047-0.877-0.091-1.211-0.375c-0.021-0.016-0.051-0.043-0.109-0.012l-1.086,0.587c-0.035,0.02-0.059,0.063-0.053,0.101
			c0.055,0.435-0.072,0.879-0.346,1.219c-0.275,0.338-0.682,0.554-1.119,0.591c-0.039,0.002-0.076,0.031-0.088,0.071l-0.352,1.18
			c-0.012,0.04,0.002,0.082,0.035,0.107c0.346,0.269,0.57,0.672,0.615,1.106c0.043,0.434-0.09,0.877-0.373,1.211
			c-0.027,0.03-0.029,0.074-0.012,0.109l0.588,1.086c0.033,0.061,0.07,0.054,0.1,0.049c0.221-0.027,0.445-0.01,0.66,0.055
			c0.205,0.062,0.391,0.161,0.557,0.294c0.34,0.274,0.557,0.685,0.592,1.119c0.002,0.041,0.033,0.074,0.07,0.086l1.18,0.35
			c0.039,0.013,0.082,0,0.107-0.03c0.27-0.347,0.672-0.571,1.105-0.615c0.434-0.048,0.877,0.091,1.213,0.373
			c0.021,0.018,0.051,0.042,0.109,0.013l1.084-0.59c0.037-0.02,0.057-0.059,0.053-0.099c-0.055-0.435,0.068-0.88,0.348-1.218
			c0.273-0.342,0.68-0.556,1.117-0.592c0.041-0.004,0.076-0.031,0.09-0.071l0.35-1.181c0.01-0.039-0.004-0.082-0.035-0.107
			C73.191,58.692,72.969,58.287,72.922,57.854z M71.074,58.969c-0.375,1.268-1.711,1.991-2.979,1.613
			c-1.266-0.373-1.99-1.711-1.615-2.979c0.377-1.264,1.713-1.993,2.98-1.615C70.727,56.366,71.451,57.702,71.074,58.969z"/>
	</g>
</g>
</svg>
