<?xml version="1.0" encoding="utf-8"?>
<!-- Generator: Adobe Illustrator 16.0.0, SVG Export Plug-In . SVG Version: 6.00 Build 0)  -->
<!DOCTYPE svg PUBLIC "-//W3C//DTD SVG 1.1//EN" "http://www.w3.org/Graphics/SVG/1.1/DTD/svg11.dtd">
<svg version="1.1" id="Layer_1" xmlns="http://www.w3.org/2000/svg" xmlns:xlink="http://www.w3.org/1999/xlink" x="0px" y="0px"
	 width="126px" height="126px" viewBox="0 0 126 126" enable-background="new 0 0 126 126" xml:space="preserve">
<g>
	<g>
		<path d="M60.303,88.725c-1.253,0-1.965,0.102-2.337,0.169v6.301h2.033c2.574,0,4.099-1.287,4.099-3.286
			C64.097,89.809,62.674,88.759,60.303,88.725z"/>
		<path d="M99.874,36.402c-0.006-0.468-0.154-0.93-0.475-1.295L79.731,12.643c-0.004-0.006-0.01-0.008-0.016-0.014
			c-0.117-0.131-0.252-0.239-0.396-0.334c-0.043-0.028-0.086-0.053-0.131-0.078c-0.127-0.068-0.258-0.124-0.395-0.165
			c-0.037-0.011-0.07-0.026-0.107-0.036c-0.15-0.035-0.303-0.057-0.459-0.057H29.893c-2.205,0-4,1.795-4,4v94c0,2.206,1.795,4,4,4
			h66c2.207,0,4-1.794,4-4V36.626C99.893,36.551,99.881,36.477,99.874,36.402z M44.38,103.968c1.558,0,3.286-0.339,4.302-0.745
			l0.779,4.031c-0.948,0.475-3.083,0.982-5.86,0.982c-7.893,0-11.958-4.912-11.958-11.416c0-7.791,5.556-12.127,12.466-12.127
			c2.676,0,4.708,0.542,5.623,1.017l-1.05,4.099c-1.05-0.44-2.507-0.847-4.336-0.847c-4.099,0-7.283,2.473-7.283,7.554
			C37.063,101.089,39.773,103.968,44.38,103.968z M64.809,107.897c-0.373-0.644-0.915-2.507-1.592-5.318
			c-0.609-2.846-1.592-3.624-3.692-3.658h-1.559v8.977h-5.115V85.371c1.66-0.271,4.133-0.475,6.876-0.475
			c3.387,0,5.759,0.508,7.385,1.796c1.355,1.084,2.1,2.676,2.1,4.776c0,2.913-2.066,4.911-4.031,5.623v0.102
			c1.592,0.644,2.473,2.168,3.049,4.268c0.711,2.575,1.423,5.556,1.863,6.437H64.809z M85.238,107.897l-2.066-4.133
			c-0.847-1.592-1.389-2.777-2.032-4.099h-0.068c-0.474,1.321-1.05,2.507-1.762,4.099l-1.897,4.133h-5.894l6.605-11.551
			l-6.368-11.28h5.928l1.999,4.166c0.678,1.389,1.186,2.507,1.728,3.794h0.068c0.542-1.456,0.982-2.473,1.558-3.794l1.931-4.166
			h5.894l-6.436,11.145l6.775,11.687H85.238z M29.893,79.876V15.959h46.334v20.466c0,1.104,0.895,2,2,2h17.666l0.002,41.451H29.893z
			"/>
	</g>
	<g>
		<path d="M51.583,44.401c2.15-5.104,6.761-7.767,12.285-7.597c6.261,0.191,12.534,0.041,18.801,0.02
			C78.592,30.17,71.253,25.72,62.894,25.72c-7.407,0-14.008,3.497-18.253,8.921c1.995,3.682,4.122,7.296,6.341,11.156
			C51.281,45.101,51.435,44.752,51.583,44.401z"/>
		<path d="M64.821,60.867c-5.86,0.615-10.093-1.633-12.98-6.788c-2.943-5.255-5.954-10.47-8.946-15.696
			c-0.099-0.173-0.219-0.335-0.372-0.529c-1.787,3.284-2.803,7.046-2.803,11.039c0,11.694,8.707,21.387,19.978,22.949
			c2.198-3.565,4.243-7.227,6.441-11.047C65.475,60.83,65.146,60.832,64.821,60.867z"/>
		<path d="M83.154,40.027c-2.77,0.182-5.559,0.048-8.34,0.048c-1,0-2,0-3.282,0c4.43,5.591,4.457,10.884,0.99,16.521
			c-3.106,5.05-5.91,10.286-8.828,15.451c12.408-0.424,22.374-10.644,22.374-23.154c0-3.104-0.618-6.066-1.73-8.775
			C84.009,40.028,83.621,39.996,83.154,40.027z"/>
		<path d="M62.826,40.146c-4.747,0.04-8.718,4.073-8.679,8.815c0.039,4.746,4.072,8.717,8.815,8.678
			c4.75-0.039,8.717-4.068,8.678-8.814C71.601,44.076,67.57,40.106,62.826,40.146z"/>
	</g>
</g>
</svg>
