<?xml version="1.0" encoding="utf-8"?>
<!-- Generator: Adobe Illustrator 16.0.0, SVG Export Plug-In . SVG Version: 6.00 Build 0)  -->
<!DOCTYPE svg PUBLIC "-//W3C//DTD SVG 1.1//EN" "http://www.w3.org/Graphics/SVG/1.1/DTD/svg11.dtd">
<svg version="1.1" id="Layer_1" xmlns="http://www.w3.org/2000/svg" xmlns:xlink="http://www.w3.org/1999/xlink" x="0px" y="0px"
	 width="126px" height="126px" viewBox="0 0 126 126" enable-background="new 0 0 126 126" xml:space="preserve">
<g>
	<path d="M99.98,37.196c-0.006-0.468-0.154-0.93-0.475-1.295L79.838,13.437c-0.004-0.006-0.01-0.008-0.016-0.014
		c-0.117-0.131-0.252-0.239-0.396-0.334c-0.043-0.028-0.086-0.053-0.131-0.078c-0.127-0.068-0.258-0.124-0.395-0.165
		c-0.037-0.011-0.07-0.026-0.107-0.036c-0.15-0.035-0.303-0.057-0.459-0.057H30c-2.205,0-4,1.795-4,4v94c0,2.206,1.795,4,4,4h66
		c2.207,0,4-1.794,4-4V37.42C100,37.345,99.988,37.271,99.98,37.196z M46.271,105.424c1.559,0,3.287-0.339,4.303-0.745l0.779,4.031
		c-0.949,0.475-3.082,0.982-5.859,0.982c-7.895,0-11.959-4.912-11.959-11.416c0-7.791,5.557-12.127,12.467-12.127
		c2.676,0,4.707,0.542,5.623,1.017l-1.051,4.099c-1.051-0.44-2.506-0.847-4.336-0.847c-4.1,0-7.283,2.473-7.283,7.554
		C38.955,102.545,41.666,105.424,46.271,105.424z M73.375,99.327c0,7.045-3.557,10.399-9.52,10.399
		c-5.758,0-9.146-3.185-9.146-10.468V86.522h5.184v13.143c0,3.93,1.49,5.929,4.133,5.929c2.709,0,4.199-1.897,4.199-5.929V86.522
		h5.15V99.327z M92.416,109.354H77.85V86.522h14.092v4.234h-8.91v4.742h8.402v4.2h-8.402v5.42h9.385V109.354z M30,80.67V16.753
		h46.334v20.466c0,1.104,0.895,2,2,2H96l0.002,41.451H30z"/>
	<g>
		<path d="M75.061,45.318c-1.381-9.251-9.338-16.354-18.977-16.354c-10.609,0-19.213,8.601-19.213,19.209
			c0,10.613,8.604,19.217,19.213,19.217c2.201,0,4.307-0.389,6.275-1.069c-0.785-1.826-1.223-3.836-1.223-5.945
			C61.137,52.441,67.283,45.93,75.061,45.318z M61.871,31.311l-4.176,8.518c-0.813-0.313-1.611-0.146-1.611-0.146l-2.414-8.945
			C53.67,30.737,56.871,29.301,61.871,31.311z M56.084,55.734c-4.176,0-7.561-3.384-7.561-7.562c0-4.173,3.385-7.558,7.561-7.558
			s7.559,3.385,7.559,7.558C63.643,52.351,60.26,55.734,56.084,55.734z"/>
		<path d="M56.084,41.671c-3.586,0-6.502,2.919-6.502,6.506c0,3.585,2.916,6.502,6.502,6.502c3.588,0,6.506-2.917,6.506-6.502
			C62.59,44.59,59.672,41.671,56.084,41.671z M56.084,54.276c-3.363,0-6.1-2.737-6.1-6.1c0-3.366,2.736-6.104,6.1-6.104
			c3.365,0,6.102,2.737,6.102,6.104C62.186,51.539,59.449,54.276,56.084,54.276z"/>
		<path d="M56.084,45.16c-1.66,0-3.012,1.352-3.012,3.013c0,1.662,1.352,3.014,3.012,3.014c1.662,0,3.014-1.352,3.014-3.014
			C59.098,46.512,57.746,45.16,56.084,45.16z M56.084,50.784c-1.439,0-2.609-1.171-2.609-2.611c0-1.439,1.17-2.61,2.609-2.61
			s2.611,1.171,2.611,2.61C58.695,49.613,57.523,50.784,56.084,50.784z"/>
		<path d="M75.516,47.448c-7.139,0-12.926,5.787-12.926,12.927s5.787,12.927,12.926,12.927s12.928-5.787,12.928-12.927
			S82.654,47.448,75.516,47.448z M77.779,70.639h-4.555V55.997h4.555V70.639z M75.471,54.2c-1.438,0-2.395-1.019-2.363-2.274
			c-0.031-1.319,0.926-2.305,2.395-2.305c1.467,0,2.396,0.985,2.424,2.305C77.926,53.182,76.969,54.2,75.471,54.2z"/>
	</g>
</g>
</svg>
