<?xml version="1.0" encoding="utf-8"?>
<!-- Generator: Adobe Illustrator 16.0.0, SVG Export Plug-In . SVG Version: 6.00 Build 0)  -->
<!DOCTYPE svg PUBLIC "-//W3C//DTD SVG 1.1//EN" "http://www.w3.org/Graphics/SVG/1.1/DTD/svg11.dtd">
<svg version="1.1" id="Layer_1" xmlns="http://www.w3.org/2000/svg" xmlns:xlink="http://www.w3.org/1999/xlink" x="0px" y="0px"
	 width="126px" height="126px" viewBox="0 0 126 126" enable-background="new 0 0 126 126" xml:space="preserve">
<g>
	<g>
		<path d="M40.531,88.767c-1.105,0-1.822,0.098-2.245,0.195v14.35c0.423,0.098,1.106,0.098,1.725,0.098
			c4.49,0.032,7.419-2.44,7.419-7.68C47.462,91.175,44.794,88.767,40.531,88.767z"/>
		<path d="M63.177,88.767c-1.105,0-1.822,0.098-2.245,0.195v14.35c0.423,0.098,1.106,0.098,1.725,0.098
			c4.49,0.032,7.419-2.44,7.419-7.68C70.108,91.175,67.44,88.767,63.177,88.767z"/>
		<path d="M99.874,36.271c-0.006-0.468-0.154-0.93-0.475-1.295L79.731,12.512c-0.004-0.006-0.01-0.008-0.016-0.014
			c-0.117-0.131-0.252-0.239-0.396-0.334c-0.043-0.028-0.086-0.053-0.131-0.078c-0.127-0.068-0.258-0.124-0.395-0.165
			c-0.037-0.011-0.07-0.026-0.107-0.036c-0.15-0.035-0.303-0.057-0.459-0.057H29.893c-2.205,0-4,1.795-4,4v94c0,2.206,1.795,4,4,4
			h66c2.207,0,4-1.794,4-4V36.495C99.893,36.42,99.881,36.346,99.874,36.271z M49.057,104.451c-2.311,1.919-5.825,2.83-10.12,2.83
			c-2.571,0-4.393-0.163-5.629-0.325V85.414c1.823-0.292,4.198-0.454,6.703-0.454c4.165,0,6.866,0.748,8.981,2.342
			c2.278,1.692,3.709,4.394,3.709,8.266C52.701,99.766,51.171,102.66,49.057,104.451z M71.703,104.451
			c-2.311,1.919-5.825,2.83-10.12,2.83c-2.571,0-4.393-0.163-5.63-0.325V85.414c1.823-0.292,4.198-0.454,6.704-0.454
			c4.165,0,6.866,0.748,8.98,2.342c2.279,1.692,3.709,4.394,3.709,8.266C75.347,99.766,73.817,102.66,71.703,104.451z
			 M83.969,107.379c-2.505,0-4.978-0.65-6.215-1.334l1.009-4.1c1.334,0.683,3.384,1.366,5.5,1.366c2.277,0,3.481-0.943,3.481-2.375
			c0-1.367-1.042-2.148-3.677-3.092c-3.645-1.269-6.021-3.286-6.021-6.476c0-3.742,3.124-6.605,8.298-6.605
			c2.473,0,4.295,0.521,5.597,1.106l-1.106,4.003c-0.878-0.423-2.441-1.042-4.588-1.042c-2.148,0-3.189,0.977-3.189,2.115
			c0,1.399,1.236,2.019,4.067,3.092c3.872,1.432,5.694,3.448,5.694,6.54C92.82,104.256,89.988,107.379,83.969,107.379z
			 M29.893,79.745V15.828h46.334v20.466c0,1.104,0.895,2,2,2h17.666l0.002,41.451H29.893z"/>
	</g>
	<g>
		<path fill="#231F20" d="M76.159,38.418c-0.002-0.193-0.063-0.383-0.195-0.533l-8.099-9.251c-0.001-0.002-0.004-0.003-0.006-0.005
			c-0.048-0.055-0.104-0.1-0.163-0.138c-0.018-0.012-0.036-0.022-0.054-0.032c-0.052-0.028-0.106-0.052-0.162-0.068
			c-0.016-0.004-0.029-0.011-0.044-0.015c-0.062-0.015-0.125-0.023-0.189-0.023H47.344c-0.908,0-1.647,0.739-1.647,1.647v38.705
			c0,0.908,0.739,1.647,1.647,1.647h27.177c0.909,0,1.647-0.739,1.647-1.647V38.51C76.167,38.479,76.163,38.448,76.159,38.418z
			 M47.344,68.465V30h19.079v8.427c0,0.455,0.369,0.823,0.824,0.823h7.274l0,29.215H47.344z"/>
		<path fill="#231F20" d="M69.139,46.748l-7.805,3.141c-0.057,0.022-0.094,0.078-0.094,0.14v9.374c0,0.05,0.025,0.097,0.066,0.125
			c0.025,0.017,0.054,0.025,0.084,0.025c0.019,0,0.038-0.004,0.056-0.011l7.805-3.141c0.057-0.023,0.094-0.078,0.094-0.14v-9.374
			c0-0.05-0.025-0.097-0.066-0.125S69.184,46.729,69.139,46.748z M62.063,58.404v-4.753l5.876,2.39L62.063,58.404z M68.521,55.57
			l-6.457-2.624v-2.463l6.457-2.599V55.57z"/>
		<path fill="#231F20" d="M60.53,49.889l-7.805-3.141c-0.045-0.019-0.098-0.014-0.14,0.015s-0.066,0.075-0.066,0.125v9.374
			c0,0.062,0.038,0.116,0.094,0.14l7.805,3.141c0.018,0.007,0.037,0.011,0.056,0.011c0.03,0,0.059-0.009,0.084-0.025
			c0.042-0.028,0.066-0.075,0.066-0.125v-9.374C60.625,49.967,60.587,49.911,60.53,49.889z M59.801,58.404l-5.648-2.272l5.648-2.486
			V58.404z M59.801,52.932l-6.457,2.842v-7.889l6.457,2.599V52.932z"/>
		<path fill="#231F20" d="M69.13,46.088c0-0.063-0.038-0.117-0.096-0.141l-8.015-3.128c-0.035-0.015-0.075-0.014-0.11,0
			l-7.804,3.141c-0.057,0.022-0.094,0.078-0.095,0.14c0,0.061,0.037,0.116,0.094,0.14l7.706,3.129
			c0.019,0.007,0.038,0.011,0.057,0.011c0.018,0,0.037-0.004,0.054-0.01l8.113-3.141C69.092,46.205,69.13,46.15,69.13,46.088z
			 M60.468,48.339l-5.509-2.236l5.509-2.217V48.339z M61.123,48.407v-4.663l5.998,2.341L61.123,48.407z"/>
	</g>
</g>
</svg>
