<?xml version="1.0" encoding="iso-8859-1"?>
<!-- Generator: Adobe Illustrator 16.0.0, SVG Export Plug-In . SVG Version: 6.00 Build 0)  -->
<!DOCTYPE svg PUBLIC "-//W3C//DTD SVG 1.1//EN" "http://www.w3.org/Graphics/SVG/1.1/DTD/svg11.dtd">
<svg version="1.1" id="Capa_1" xmlns="http://www.w3.org/2000/svg" xmlns:xlink="http://www.w3.org/1999/xlink" x="0px" y="0px"
	 width="32px" height="32px" viewBox="0 0 32 32" style="enable-background:new 0 0 32 32;" xml:space="preserve">
<g>
	<g>
		<path d="M29,0H3C1.346,0,0,1.346,0,3v26c0,1.654,1.346,3,3,3h26c1.654,0,3-1.346,3-3V3C32,1.346,30.654,0,29,0z M30,29
			c0,0.551-0.449,1-1,1H3c-0.551,0-1-0.449-1-1V3c0-0.552,0.449-1,1-1h26c0.551,0,1,0.448,1,1V29z"/>
		<path d="M9.401,7H6.676C6.325,7,6.038,7.287,6.038,7.639v2.723c0,0.354,0.287,0.641,0.638,0.641h2.725
			c0.351,0,0.638-0.287,0.638-0.641V7.639C10.039,7.287,9.752,7,9.401,7z"/>
		<rect x="11.539" y="8.062" width="14.422" height="1.875"/>
		<path d="M9.401,14H6.676c-0.351,0-0.638,0.287-0.638,0.639v2.726c0,0.351,0.287,0.638,0.638,0.638h2.725
			c0.351,0,0.638-0.287,0.638-0.638v-2.726C10.039,14.287,9.752,14,9.401,14z"/>
		<rect x="11.539" y="15.062" width="14.422" height="1.875"/>
		<path d="M9.401,21H6.676c-0.351,0-0.638,0.287-0.638,0.639v2.727c0,0.351,0.287,0.638,0.638,0.638h2.725
			c0.351,0,0.638-0.287,0.638-0.638v-2.727C10.039,21.287,9.752,21,9.401,21z M9.539,24.361c0,0.074-0.063,0.139-0.138,0.139H6.676
			c-0.075,0-0.138-0.062-0.138-0.139v-2.727c0-0.072,0.063-0.138,0.138-0.138h2.725c0.075,0,0.138,0.062,0.138,0.138V24.361z"/>
		<rect x="11.539" y="22.062" width="14.422" height="1.875"/>
	</g>
</g>
<g>
</g>
<g>
</g>
<g>
</g>
<g>
</g>
<g>
</g>
<g>
</g>
<g>
</g>
<g>
</g>
<g>
</g>
<g>
</g>
<g>
</g>
<g>
</g>
<g>
</g>
<g>
</g>
<g>
</g>
</svg>
