<?xml version="1.0" encoding="utf-8"?>
<!-- Generator: Adobe Illustrator 16.0.0, SVG Export Plug-In . SVG Version: 6.00 Build 0)  -->
<!DOCTYPE svg PUBLIC "-//W3C//DTD SVG 1.1//EN" "http://www.w3.org/Graphics/SVG/1.1/DTD/svg11.dtd">
<svg version="1.1" id="Layer_1" xmlns="http://www.w3.org/2000/svg" xmlns:xlink="http://www.w3.org/1999/xlink" x="0px" y="0px"
	 width="126px" height="126px" viewBox="0 0 126 126" enable-background="new 0 0 126 126" xml:space="preserve">
<g>
	<g>
		<path d="M40.104,88.203c-1.152,0-1.897,0.102-2.337,0.203v14.938c0.44,0.102,1.152,0.102,1.795,0.102
			c4.675,0.034,7.724-2.541,7.724-7.994C47.319,90.71,44.542,88.203,40.104,88.203z"/>
		<path d="M63.616,88.067c-1.253,0-1.964,0.102-2.337,0.169v6.301h2.033c2.574,0,4.099-1.287,4.099-3.286
			C67.41,89.151,65.988,88.102,63.616,88.067z"/>
		<path d="M99.98,36.5c-0.006-0.468-0.154-0.93-0.475-1.295L79.838,12.74c-0.004-0.006-0.01-0.008-0.016-0.014
			c-0.117-0.131-0.252-0.239-0.396-0.334c-0.043-0.028-0.086-0.053-0.131-0.078c-0.127-0.068-0.258-0.124-0.395-0.165
			c-0.037-0.011-0.07-0.026-0.107-0.036c-0.15-0.035-0.303-0.057-0.459-0.057H30c-2.205,0-4,1.795-4,4v94c0,2.206,1.795,4,4,4h66
			c2.207,0,4-1.794,4-4V36.724C100,36.648,99.988,36.574,99.98,36.5z M48.979,104.53c-2.405,1.999-6.063,2.947-10.535,2.947
			c-2.676,0-4.573-0.17-5.86-0.339V84.714c1.897-0.305,4.37-0.475,6.978-0.475c4.336,0,7.147,0.779,9.35,2.439
			c2.371,1.761,3.861,4.572,3.861,8.604C52.773,99.652,51.181,102.667,48.979,104.53z M68.122,107.24
			c-0.373-0.644-0.915-2.507-1.592-5.318c-0.61-2.846-1.592-3.624-3.692-3.658h-1.559v8.977h-5.115V84.714
			c1.66-0.271,4.132-0.475,6.876-0.475c3.387,0,5.759,0.508,7.385,1.796c1.355,1.084,2.1,2.676,2.1,4.776
			c0,2.913-2.066,4.911-4.031,5.623v0.102c1.592,0.644,2.473,2.168,3.049,4.268c0.711,2.575,1.423,5.556,1.863,6.437H68.122z
			 M87.467,107.24h-6.03L74.12,84.409h5.657l2.778,9.654c0.779,2.71,1.49,5.318,2.032,8.163h0.102
			c0.576-2.743,1.288-5.453,2.066-8.062l2.913-9.756h5.488L87.467,107.24z M30,79.974V16.057h46.334v20.466c0,1.104,0.895,2,2,2H96
			l0.002,41.451H30z"/>
	</g>
	<g>
		<path d="M79.686,55.209H48.244c-1.628,0-2.947,1.319-2.947,2.948v4.691c0,1.628,1.319,2.947,2.947,2.947h31.442
			c1.628,0,2.949-1.319,2.949-2.947v-4.691C82.635,56.528,81.314,55.209,79.686,55.209z M80.473,62.431h-7.664v-3.856h7.664V62.431z
			"/>
		<path d="M83.921,52.851l-3.53-8.925l-19.944,0.006c0.02,0.059,0.031,0.12,0.056,0.176c0.371,0.81,0.206,1.786-0.432,2.459
			l-2.262,2.266c-0.459,0.441-1.011,0.669-1.583,0.669c0,0,0,0,0,0c-0.33,0-0.644-0.072-0.959-0.22
			c-0.425-0.182-1.108-0.211-1.621,0.003c-0.534,0.221-0.959,0.654-1.169,1.19c-0.317,0.846-1.164,1.431-2.098,1.431h-3.146
			c-0.651,0-1.254-0.297-1.675-0.766l-0.779,1.596c-1.095,0.657-1.838,1.907-1.838,3.339v8.856c0,2.113,1.614,3.832,3.598,3.832
			h35.448c1.984,0,3.598-1.719,3.598-3.832v-8.856C85.582,54.72,84.918,53.532,83.921,52.851z M83.813,64.931
			c0,1.137-0.821,2.063-1.829,2.063H46.536c-1.008,0-1.829-0.927-1.829-2.063v-8.856c0-1.138,0.821-2.063,1.829-2.063h35.448
			c1.008,0,1.829,0.926,1.829,2.063V64.931z"/>
		<path d="M44.62,47.559c1.033,0.428,1.861,1.27,2.264,2.311c0.037,0.094,0.134,0.158,0.239,0.158h3.146
			c0.104,0,0.198-0.061,0.235-0.158c0.407-1.041,1.23-1.883,2.265-2.311c1.031-0.428,2.213-0.411,3.234,0.033
			c0.067,0.031,0.158,0.067,0.281-0.051l2.226-2.229c0.071-0.075,0.094-0.188,0.052-0.279c-0.449-1.023-0.459-2.207-0.034-3.238
			c0.428-1.029,1.269-1.852,2.312-2.26c0.094-0.039,0.161-0.132,0.161-0.235V36.15c0-0.104-0.067-0.201-0.161-0.24
			c-1.043-0.405-1.884-1.23-2.312-2.26c-0.425-1.031-0.416-2.212,0.034-3.232c0.042-0.096,0.02-0.21-0.052-0.285l-2.226-2.227
			c-0.123-0.12-0.217-0.081-0.286-0.053c-1.014,0.447-2.202,0.464-3.23,0.033c-1.035-0.426-1.858-1.27-2.265-2.311
			c-0.037-0.095-0.13-0.159-0.235-0.159h-3.146c-0.105,0-0.203,0.064-0.239,0.159c-0.403,1.041-1.23,1.885-2.26,2.311
			c-1.029,0.431-2.215,0.416-3.236-0.033c-0.064-0.025-0.156-0.067-0.281,0.053l-2.229,2.227c-0.071,0.075-0.094,0.189-0.055,0.285
			c0.455,1.023,0.461,2.201,0.035,3.232c-0.427,1.029-1.269,1.854-2.309,2.26c-0.098,0.039-0.164,0.131-0.164,0.24V39.3
			c0,0.104,0.065,0.196,0.164,0.235c1.04,0.408,1.882,1.23,2.309,2.26c0.426,1.031,0.419,2.215-0.035,3.238
			c-0.039,0.092-0.017,0.204,0.055,0.279l2.229,2.229c0.125,0.121,0.214,0.082,0.281,0.051c0.524-0.229,1.08-0.35,1.656-0.35
			C43.589,47.242,44.119,47.349,44.62,47.559z M48.694,31.598c3.377,0,6.123,2.752,6.123,6.125c0,3.379-2.746,6.125-6.123,6.125
			c-3.38,0-6.121-2.746-6.121-6.125C42.574,34.35,45.314,31.598,48.694,31.598z"/>
	</g>
</g>
</svg>
