<?xml version="1.0" encoding="utf-8"?>
<!-- Generator: Adobe Illustrator 16.0.0, SVG Export Plug-In . SVG Version: 6.00 Build 0)  -->
<!DOCTYPE svg PUBLIC "-//W3C//DTD SVG 1.1//EN" "http://www.w3.org/Graphics/SVG/1.1/DTD/svg11.dtd">
<svg version="1.1" id="Layer_1" xmlns="http://www.w3.org/2000/svg" xmlns:xlink="http://www.w3.org/1999/xlink" x="0px" y="0px"
	 width="126px" height="126px" viewBox="0 0 126 126" enable-background="new 0 0 126 126" xml:space="preserve">
<g>
	<g>
		<path d="M40.371,88.843c-1.121,0-1.844,0.1-2.271,0.197v14.518c0.428,0.099,1.119,0.099,1.744,0.099
			c4.543,0.034,7.504-2.469,7.504-7.768C47.381,91.28,44.682,88.843,40.371,88.843z"/>
		<path d="M80.41,88.843c-1.119,0-1.842,0.1-2.27,0.197v14.518c0.428,0.099,1.119,0.099,1.744,0.099
			c4.543,0.034,7.504-2.469,7.504-7.768C87.422,91.28,84.723,88.843,80.41,88.843z"/>
		<path d="M99.873,36.931c-0.006-0.468-0.154-0.93-0.475-1.295L79.73,13.171c-0.004-0.006-0.01-0.008-0.016-0.014
			c-0.117-0.131-0.252-0.239-0.396-0.334c-0.043-0.028-0.086-0.053-0.131-0.078c-0.127-0.068-0.258-0.124-0.395-0.165
			c-0.037-0.011-0.07-0.026-0.107-0.036c-0.15-0.035-0.303-0.057-0.459-0.057H29.893c-2.205,0-4,1.795-4,4v94c0,2.206,1.795,4,4,4
			h66c2.207,0,4-1.794,4-4V37.155C99.893,37.08,99.881,37.005,99.873,36.931z M48.994,104.709
			c-2.336,1.943-5.891,2.865-10.236,2.865c-2.602,0-4.443-0.165-5.695-0.33V85.453c1.844-0.296,4.244-0.461,6.781-0.461
			c4.213,0,6.945,0.758,9.086,2.37c2.303,1.713,3.752,4.444,3.752,8.362C52.682,99.969,51.135,102.899,48.994,104.709z
			 M70.434,89.372h-6.059v17.972h-5.037V89.372h-5.957v-4.215h17.053V89.372z M89.035,104.709
			c-2.336,1.943-5.891,2.865-10.238,2.865c-2.6,0-4.443-0.165-5.693-0.33V85.453c1.844-0.296,4.244-0.461,6.781-0.461
			c4.213,0,6.945,0.758,9.086,2.37c2.301,1.713,3.752,4.444,3.752,8.362C92.723,99.969,91.176,102.899,89.035,104.709z
			 M29.893,80.405V16.488h46.334v20.466c0,1.104,0.895,2,2,2h17.666l0.002,41.451H29.893z"/>
	</g>
	<g>
		<polygon points="55.775,52.74 42.357,46.023 42.357,45.939 55.775,39.223 55.775,34.745 38.033,44.165 38.033,47.797 
			55.775,57.217 		"/>
		<polygon points="64.982,48.775 65.797,33.215 59.92,33.215 60.77,48.775 		"/>
		<path d="M62.877,58.576c1.996,0,3.289-1.647,3.289-3.844c-0.037-2.238-1.33-3.845-3.289-3.845c-1.961,0-3.328,1.606-3.328,3.845
			C59.549,56.928,60.881,58.576,62.877,58.576z"/>
		<polygon points="69.975,34.745 69.975,39.223 83.688,45.939 83.688,46.023 69.975,52.74 69.975,57.217 87.719,47.924 
			87.719,44.038 		"/>
		<rect x="40.643" y="63.269" width="44.5" height="3"/>
		<rect x="40.643" y="71.852" width="44.5" height="3"/>
	</g>
</g>
</svg>
