<?xml version="1.0" encoding="utf-8"?>
<!-- Generator: Adobe Illustrator 16.0.0, SVG Export Plug-In . SVG Version: 6.00 Build 0)  -->
<!DOCTYPE svg PUBLIC "-//W3C//DTD SVG 1.1//EN" "http://www.w3.org/Graphics/SVG/1.1/DTD/svg11.dtd">
<svg version="1.1" id="Layer_1" xmlns="http://www.w3.org/2000/svg" xmlns:xlink="http://www.w3.org/1999/xlink" x="0px" y="0px"
	 width="126px" height="126px" viewBox="0 0 126 126" enable-background="new 0 0 126 126" xml:space="preserve">
<g>
	<path d="M81.176,88.512h-0.072c-0.359,1.439-0.719,3.275-1.115,4.68l-1.439,5.146h5.363L82.4,93.191
		C81.968,91.75,81.536,89.951,81.176,88.512z"/>
	<path d="M99.979,36.445c-0.004-0.469-0.154-0.93-0.475-1.295L79.838,12.686c-0.006-0.006-0.012-0.008-0.016-0.014
		c-0.117-0.131-0.254-0.24-0.398-0.334c-0.043-0.029-0.086-0.053-0.131-0.078c-0.125-0.068-0.258-0.125-0.395-0.166
		c-0.037-0.01-0.07-0.025-0.107-0.035c-0.148-0.035-0.303-0.057-0.459-0.057H30c-2.207,0-4,1.795-4,4v94c0,2.205,1.793,4,4,4h66
		c2.205,0,4-1.795,4-4V36.668C100,36.594,99.988,36.52,99.979,36.445z M49.353,88.906h-9.323v5.545h8.711v4.463h-8.711v9.754h-5.508
		v-24.26h14.831V88.906z M68.648,108.668H53.494v-24.26h5.507v19.652h9.647V108.668z M86.575,108.668l-1.872-6.227h-6.947
		l-1.727,6.227h-5.688l7.414-24.26h7.199l7.523,24.26H86.575z M96,79.918H30V16.002h46.332v20.465c0,1.105,0.896,2,2,2H96V79.918z"
		/>
</g>
<g>
	<path d="M47.717,37.574h16.529v4.51H52.83v8.305h10.668v4.51H52.83V67.67h-5.113V37.574z"/>
	<path d="M68.002,37.764h5.154c0,0,0,20.471,0,22.807s0.537,2.768,3.127,2.768c0,4.178-0.016,4.871-0.016,4.871
		c-4.078,0.111-8.266-0.494-8.266-5.391C68.002,57.92,68.002,37.764,68.002,37.764z"/>
</g>
</svg>
