<?xml version="1.0" encoding="utf-8"?>
<!-- Generator: Adobe Illustrator 16.0.0, SVG Export Plug-In . SVG Version: 6.00 Build 0)  -->
<!DOCTYPE svg PUBLIC "-//W3C//DTD SVG 1.1//EN" "http://www.w3.org/Graphics/SVG/1.1/DTD/svg11.dtd">
<svg version="1.1" id="Layer_1" xmlns="http://www.w3.org/2000/svg" xmlns:xlink="http://www.w3.org/1999/xlink" x="0px" y="0px"
	 width="126px" height="126px" viewBox="0 0 126 126" enable-background="new 0 0 126 126" xml:space="preserve">
<g>
	<g>
		<path d="M99.874,36.402c-0.006-0.468-0.154-0.93-0.475-1.295L79.731,12.643c-0.004-0.006-0.01-0.008-0.016-0.014
			c-0.117-0.131-0.252-0.239-0.396-0.334c-0.043-0.028-0.086-0.053-0.131-0.078c-0.127-0.068-0.258-0.124-0.395-0.165
			c-0.037-0.011-0.07-0.026-0.107-0.036c-0.15-0.035-0.303-0.057-0.459-0.057H29.893c-2.205,0-4,1.795-4,4v94c0,2.206,1.795,4,4,4
			h66c2.207,0,4-1.794,4-4V36.626C99.893,36.551,99.881,36.477,99.874,36.402z M46.325,89.394h-8.773v5.216h8.198v4.201h-8.198v9.18
			h-5.183V85.159h13.956V89.394z M59.912,108.363c-6.775,0-10.738-5.115-10.738-11.619c0-6.843,4.37-11.958,11.111-11.958
			c7.012,0,10.84,5.251,10.84,11.552C71.124,103.823,66.585,108.363,59.912,108.363z M93.417,107.99h-5.42l-4.878-8.808
			c-1.355-2.438-2.845-5.386-3.963-8.062l-0.102,0.033c0.136,3.016,0.203,6.233,0.203,9.959v6.877h-4.742V85.159h6.029l4.743,8.366
			c1.355,2.405,2.71,5.251,3.726,7.825h0.102c-0.338-3.015-0.44-6.097-0.44-9.519v-6.673h4.743V107.99z M29.893,79.876V15.959
			h46.334v20.466c0,1.104,0.895,2,2,2h17.666l0.002,41.451H29.893z"/>
		<path d="M60.149,88.885c-3.489,0-5.521,3.32-5.521,7.758c0,4.471,2.1,7.621,5.555,7.621c3.489,0,5.488-3.319,5.488-7.757
			C65.67,92.408,63.706,88.885,60.149,88.885z"/>
	</g>
	<g>
		<path d="M64.358,64v-1.446c3.254-0.413,3.719-0.826,3.047-2.841c-0.671-2.015-1.704-4.804-2.84-7.954H53.563
			c-0.826,2.324-1.601,4.493-2.272,6.663c-1.136,3.254-0.671,3.771,3.202,4.132V64H43.285v-1.446
			c3.254-0.465,3.977-0.774,5.785-5.32l10.692-27.116l1.601-0.465c3.203,8.884,6.663,18.697,9.969,27.685
			c1.653,4.442,2.324,4.907,5.682,5.217V64H64.358z M59.297,36.367h-0.104c-1.653,4.441-3.306,8.936-4.855,13.171h9.504
			L59.297,36.367z"/>
	</g>
</g>
</svg>
