<?xml version="1.0" encoding="utf-8"?>
<!-- Generator: Adobe Illustrator 16.0.0, SVG Export Plug-In . SVG Version: 6.00 Build 0)  -->
<!DOCTYPE svg PUBLIC "-//W3C//DTD SVG 1.1//EN" "http://www.w3.org/Graphics/SVG/1.1/DTD/svg11.dtd">
<svg version="1.1" id="Layer_1" xmlns="http://www.w3.org/2000/svg" xmlns:xlink="http://www.w3.org/1999/xlink" x="0px" y="0px"
	 width="126px" height="126px" viewBox="0 0 126 126" enable-background="new 0 0 126 126" xml:space="preserve">
<g>
	<g>
		<path d="M59.658,89.701h-0.063c-0.307,1.229-0.613,2.797-0.951,3.995l-1.23,4.395h4.58l-1.291-4.395
			C60.334,92.467,59.967,90.931,59.658,89.701z"/>
		<path d="M100.123,36.531c-0.006-0.468-0.154-0.93-0.475-1.295L79.98,12.771c-0.004-0.006-0.01-0.008-0.016-0.014
			c-0.117-0.131-0.252-0.239-0.396-0.334c-0.043-0.028-0.086-0.053-0.131-0.078c-0.127-0.068-0.258-0.124-0.395-0.165
			c-0.037-0.011-0.07-0.026-0.107-0.036c-0.15-0.035-0.303-0.057-0.459-0.057H30.143c-2.205,0-4,1.795-4,4v94c0,2.206,1.795,4,4,4
			h66c2.207,0,4-1.794,4-4V36.755C100.143,36.68,100.131,36.605,100.123,36.531z M48.26,105.958
			c-1.443,0.491-4.178,1.167-6.914,1.167c-3.779,0-6.514-0.953-8.418-2.797c-1.906-1.781-2.951-4.485-2.92-7.528
			c0.031-6.884,5.039-10.817,11.83-10.817c2.674,0,4.732,0.522,5.746,1.015l-0.982,3.749c-1.137-0.492-2.551-0.891-4.824-0.891
			c-3.902,0-6.854,2.212-6.854,6.698c0,4.272,2.674,6.792,6.516,6.792c1.074,0,1.936-0.124,2.305-0.308v-4.332h-3.197v-3.657h7.713
			V105.958z M64.268,106.91l-1.598-5.316h-5.932l-1.475,5.316h-4.855l6.33-20.712h6.146l6.422,20.712H64.268z M89.893,106.91
			l-0.307-7.929c-0.092-2.489-0.184-5.501-0.184-8.512h-0.094c-0.645,2.643-1.506,5.592-2.305,8.021l-2.52,8.082h-3.656
			l-2.213-8.021c-0.676-2.428-1.383-5.378-1.875-8.082H76.68c-0.123,2.797-0.217,5.992-0.369,8.574l-0.369,7.866h-4.332l1.32-20.712
			h6.238l2.029,6.914c0.645,2.396,1.289,4.979,1.752,7.406h0.092c0.584-2.398,1.289-5.132,1.967-7.438l2.213-6.883h6.113
			l1.137,20.712H89.893z M30.143,80.005V16.088h46.334v20.466c0,1.104,0.895,2,2,2h17.666l0.002,41.451H30.143z"/>
	</g>
	<g>
		<path d="M67.568,48.486h-6.32l-1.211-0.013c-0.09-0.228-0.127-0.442-0.135-0.626c-0.045-1.284,1.189-2.396,1.721-2.815
			c0.707-0.555,1.076-1.122,1.271-1.956c0.131-0.552-0.178-1.173-0.531-1.762l-0.322-0.537c-0.824-1.357-1.6-2.64-1.998-4.318
			c-0.031-0.139-0.096-0.28-0.334-0.28c-0.168,0-0.344,0.081-0.441,0.203c-0.078,0.098-0.098,0.212-0.063,0.36
			c0.301,1.267,0.824,2.508,1.65,3.91l0.104,0.175c0.578,0.973,1.549,2.598-0.332,3.83c-0.395,0.259-0.768,0.504-1.02,0.833
			c-0.467,0.61-0.65,1.486-0.502,2.4c0.033,0.206,0.086,0.404,0.148,0.596H54.17c-3.24,0-5.865,2.628-5.865,5.867
			s2.625,5.866,5.865,5.866c3.15,0,5.721-2.483,5.859-5.599h1.68c0.139,3.115,2.709,5.599,5.859,5.599
			c3.24,0,5.865-2.627,5.865-5.866S70.809,48.486,67.568,48.486z M54.549,51.356c0.6-0.219,1.264,0.09,1.482,0.688
			c0.221,0.6-0.088,1.263-0.686,1.481c-0.6,0.221-1.264-0.086-1.482-0.687C53.643,52.239,53.951,51.576,54.549,51.356z
			 M51.025,53.88c-0.219-0.601,0.088-1.263,0.688-1.483c0.6-0.22,1.264,0.089,1.482,0.688c0.219,0.599-0.09,1.263-0.688,1.481
			C51.908,54.786,51.246,54.479,51.025,53.88z M53.529,57.35c-0.6,0.219-1.264-0.088-1.482-0.686
			c-0.221-0.6,0.088-1.265,0.686-1.483c0.6-0.22,1.266,0.089,1.484,0.687S54.127,57.13,53.529,57.35z M56.365,56.309
			c-0.598,0.221-1.262-0.086-1.482-0.686s0.088-1.263,0.688-1.483c0.6-0.219,1.264,0.089,1.482,0.688
			C57.273,55.426,56.965,56.09,56.365,56.309z M70.588,55.127h-2.025v2.026h-1.547v-2.026h-2.027v-1.548h2.027v-2.025h1.547v2.025
			h2.025V55.127z"/>
		<path d="M70.443,28.355H44.637v43.833h32.465V36.092L70.443,28.355z M71.131,31.878l3.145,3.654h-3.145V31.878z M46.412,70.411
			V30.133h22.941v7.177h5.973v33.102H46.412z"/>
	</g>
</g>
</svg>
