<?xml version="1.0" encoding="utf-8"?>
<!-- Generator: Adobe Illustrator 16.0.0, SVG Export Plug-In . SVG Version: 6.00 Build 0)  -->
<!DOCTYPE svg PUBLIC "-//W3C//DTD SVG 1.1//EN" "http://www.w3.org/Graphics/SVG/1.1/DTD/svg11.dtd">
<svg version="1.1" id="Layer_1" xmlns="http://www.w3.org/2000/svg" xmlns:xlink="http://www.w3.org/1999/xlink" x="0px" y="0px"
	 width="126px" height="126px" viewBox="0 0 126 126" enable-background="new 0 0 126 126" xml:space="preserve">
<g>
	<path d="M63.099,97.602H61.4v6.207c0.49,0.065,1.078,0.065,1.927,0.065c2.254,0,4.247-0.85,4.247-3.169
		C67.574,98.483,65.582,97.602,63.099,97.602z"/>
	<path d="M67.051,91.329c0-1.666-1.274-2.548-3.528-2.548c-1.078,0-1.699,0.065-2.124,0.13v5.13h1.633
		C65.646,94.041,67.051,92.963,67.051,91.329z"/>
	<path d="M83.39,88.847c-1.208,0-1.895,0.098-2.254,0.163v6.076h1.96c2.483,0,3.953-1.241,3.953-3.169
		C87.049,89.892,85.677,88.879,83.39,88.847z"/>
	<path d="M99.98,36.443c-0.006-0.468-0.154-0.93-0.475-1.295L79.838,12.684c-0.004-0.006-0.01-0.008-0.016-0.014
		c-0.117-0.131-0.252-0.239-0.396-0.334c-0.043-0.028-0.086-0.053-0.131-0.078c-0.127-0.068-0.258-0.124-0.395-0.165
		c-0.037-0.011-0.07-0.026-0.107-0.036C78.643,12.021,78.49,12,78.334,12H30c-2.205,0-4,1.795-4,4v94c0,2.206,1.795,4,4,4h66
		c2.207,0,4-1.794,4-4V36.667C100,36.592,99.988,36.518,99.98,36.443z M52.575,106.324c-1.536,0.522-4.443,1.241-7.351,1.241
		c-4.018,0-6.926-1.013-8.951-2.973c-2.025-1.895-3.136-4.77-3.104-8.004c0.033-7.318,5.357-11.5,12.578-11.5
		c2.842,0,5.031,0.556,6.109,1.078l-1.045,3.986c-1.208-0.523-2.711-0.947-5.129-0.947c-4.149,0-7.285,2.352-7.285,7.121
		c0,4.541,2.842,7.22,6.926,7.22c1.144,0,2.058-0.13,2.45-0.326v-4.606h-3.397v-3.888h8.2V106.324z M70.514,105.573
		c-1.601,1.273-4.279,1.992-8.657,1.992c-2.45,0-4.279-0.163-5.39-0.326V85.612c1.307-0.262,3.953-0.458,6.436-0.458
		c3.039,0,4.9,0.294,6.501,1.242c1.535,0.816,2.646,2.319,2.646,4.312c0,1.961-1.144,3.79-3.626,4.705v0.065
		c2.516,0.686,4.378,2.58,4.378,5.423C72.801,102.894,71.887,104.462,70.514,105.573z M87.735,107.337
		c-0.359-0.621-0.882-2.418-1.536-5.129c-0.588-2.744-1.535-3.496-3.561-3.528h-1.502v8.657h-4.933V85.612
		c1.601-0.262,3.985-0.458,6.632-0.458c3.267,0,5.554,0.49,7.122,1.731c1.307,1.046,2.026,2.581,2.026,4.606
		c0,2.81-1.993,4.737-3.888,5.423v0.099c1.535,0.62,2.385,2.091,2.94,4.116c0.686,2.482,1.372,5.357,1.797,6.207H87.735z M30,79.917
		V16h46.334v20.466c0,1.104,0.895,2,2,2H96l0.002,41.451H30z"/>
</g>
<g>
	<path d="M85.833,65.167c-2.038,0-3.701,1.529-3.95,3.5h-21.05V57.025h14.692c0.249,1.971,1.912,3.5,3.95,3.5c2.209,0,4-1.791,4-4
		s-1.791-4-4-4c-2.038,0-3.701,1.529-3.95,3.5H60.833V45.667h17.05c0.249,1.971,1.912,3.5,3.95,3.5c2.209,0,4-1.791,4-4
		s-1.791-4-4-4c-2.038,0-3.701,1.529-3.95,3.5h-18.05v24v1.354V79h1v-8.979v-0.354h21.05c0.249,1.971,1.912,3.5,3.95,3.5
		c2.209,0,4-1.791,4-4S88.042,65.167,85.833,65.167z"/>
	<path d="M37.333,57.167c-2.209,0-4,1.791-4,4s1.791,4,4,4c2.038,0,3.701-1.529,3.95-3.5H52.75v17.208h1V60.667H41.283
		C41.034,58.696,39.371,57.167,37.333,57.167z"/>
	<path d="M41.167,27.949c1.97-0.248,3.5-1.911,3.5-3.949c0-2.209-1.791-4-4-4s-4,1.791-4,4c0,2.038,1.53,3.701,3.5,3.949v10.425
		l15.564,15.563v24.938h1V53.523L41.167,37.96V27.949z"/>
</g>
</svg>
