<?xml version="1.0" encoding="utf-8"?>
<!-- Generator: Adobe Illustrator 16.0.0, SVG Export Plug-In . SVG Version: 6.00 Build 0)  -->
<!DOCTYPE svg PUBLIC "-//W3C//DTD SVG 1.1//EN" "http://www.w3.org/Graphics/SVG/1.1/DTD/svg11.dtd">
<svg version="1.1" id="Layer_1" xmlns="http://www.w3.org/2000/svg" xmlns:xlink="http://www.w3.org/1999/xlink" x="0px" y="0px"
	 width="126px" height="126px" viewBox="0 0 126 126" enable-background="new 0 0 126 126" xml:space="preserve">
<g>
	<path d="M99.98,36.45c-0.006-0.468-0.154-0.93-0.475-1.295L79.838,12.69c-0.004-0.006-0.01-0.008-0.016-0.014
		c-0.117-0.131-0.252-0.239-0.396-0.334c-0.043-0.028-0.086-0.053-0.131-0.078c-0.127-0.068-0.258-0.124-0.395-0.165
		c-0.037-0.011-0.07-0.026-0.107-0.036c-0.15-0.035-0.303-0.057-0.459-0.057H30c-2.205,0-4,1.795-4,4v94c0,2.206,1.795,4,4,4h66
		c2.207,0,4-1.794,4-4V36.674C100,36.599,99.988,36.524,99.98,36.45z M52.511,107.324c-1.536,0.522-4.443,1.241-7.351,1.241
		c-4.018,0-6.926-1.013-8.951-2.973c-2.025-1.895-3.136-4.77-3.104-8.004c0.033-7.318,5.357-11.5,12.578-11.5
		c2.842,0,5.031,0.556,6.109,1.078l-1.045,3.986c-1.208-0.523-2.711-0.947-5.129-0.947c-4.149,0-7.285,2.352-7.285,7.121
		c0,4.541,2.842,7.22,6.926,7.22c1.144,0,2.058-0.13,2.45-0.326v-4.606h-3.397v-3.888h8.2V107.324z M70.451,108.337H56.403V86.318
		h13.59v4.083h-8.592v4.574h8.102v4.051h-8.102v5.227h9.049V108.337z M89.664,105.724c-2.319,1.927-5.848,2.842-10.16,2.842
		c-2.581,0-4.411-0.163-5.652-0.326V86.612c1.83-0.294,4.214-0.458,6.729-0.458c4.182,0,6.894,0.752,9.017,2.353
		c2.287,1.699,3.724,4.41,3.724,8.298C93.323,101.02,91.787,103.927,89.664,105.724z M30,79.924V16.007h46.334v20.466
		c0,1.104,0.895,2,2,2H96l0.002,41.451H30z"/>
	<path d="M81.104,89.977c-1.111,0-1.83,0.099-2.254,0.196v14.407c0.425,0.098,1.111,0.098,1.731,0.098
		c4.509,0.033,7.449-2.45,7.449-7.71C88.063,92.395,85.384,89.977,81.104,89.977z"/>
</g>
<g>
	<rect x="48.439" y="22" width="14.25" height="7"/>
	<rect x="51.5" y="48.083" width="14.25" height="7"/>
	<rect x="51.5" y="65.458" width="14.25" height="7"/>
	<rect x="74.475" y="65.458" width="14.25" height="7"/>
	<rect x="33.157" y="56.708" width="14.25" height="7"/>
	<rect x="74.475" y="48.083" width="14.25" height="7"/>
	<polygon points="39.75,40.333 55.064,40.333 55.064,45.333 55.064,45.833 55.064,47 56.064,47 56.064,45.833 79.6,45.833 79.6,47 
		80.6,47 80.6,44.833 56.064,44.833 56.064,40.333 56.064,39.833 56.064,30.667 55.064,30.667 55.064,39.333 38.75,39.333 
		38.75,55.833 39.75,55.833 	"/>
	<rect x="55.064" y="56.708" width="1" height="7"/>
	<rect x="79.6" y="56.708" width="1" height="7"/>
</g>
</svg>
