<?xml version="1.0" encoding="utf-8"?>
<!-- Generator: Adobe Illustrator 16.0.0, SVG Export Plug-In . SVG Version: 6.00 Build 0)  -->
<!DOCTYPE svg PUBLIC "-//W3C//DTD SVG 1.1//EN" "http://www.w3.org/Graphics/SVG/1.1/DTD/svg11.dtd">
<svg version="1.1" id="Layer_1" xmlns="http://www.w3.org/2000/svg" xmlns:xlink="http://www.w3.org/1999/xlink" x="0px" y="0px"
	 width="126px" height="126px" viewBox="0 0 126 126" enable-background="new 0 0 126 126" xml:space="preserve">
<g>
	<g>
		<path d="M99.98,36.339c-0.006-0.468-0.154-0.93-0.475-1.295L79.838,12.579c-0.004-0.006-0.01-0.008-0.016-0.014
			c-0.117-0.131-0.252-0.239-0.396-0.334c-0.043-0.028-0.086-0.053-0.131-0.078c-0.127-0.068-0.258-0.124-0.395-0.165
			c-0.037-0.011-0.07-0.026-0.107-0.036c-0.15-0.035-0.303-0.057-0.459-0.057H30c-2.205,0-4,1.795-4,4v94c0,2.206,1.795,4,4,4h66
			c2.207,0,4-1.794,4-4V36.563C100,36.487,99.988,36.413,99.98,36.339z M49.871,107.341h-5.148v-9.553h-8.502v9.553h-5.184V84.51
			h5.184v8.773h8.502V84.51h5.148V107.341z M73.893,111.271c-3.252-0.948-5.963-1.931-9.012-3.219
			c-0.508-0.203-1.051-0.305-1.592-0.338c-5.148-0.339-9.959-4.133-9.959-11.586c0-6.842,4.336-11.991,11.145-11.991
			c6.979,0,10.807,5.284,10.807,11.518c0,5.183-2.406,8.841-5.42,10.196v0.136c1.762,0.508,3.725,0.914,5.521,1.287L73.893,111.271z
			 M94.965,107.341h-17.75v-2.777l10.873-15.65v-0.136H78.23V84.51h16.564v2.98l-10.637,15.447v0.135h10.807V107.341z M30,79.813
			V15.896h46.334v20.466c0,1.104,0.895,2,2,2H96l0.002,41.451H30z"/>
		<path d="M64.34,88.235c-3.523,0-5.557,3.455-5.557,7.724c-0.033,4.336,2.066,7.655,5.521,7.655c3.49,0,5.521-3.285,5.521-7.757
			C69.826,91.69,67.861,88.235,64.34,88.235z"/>
	</g>
	<g>
		<rect x="60.236" y="16.847" width="6.066" height="2.502"/>
		<rect x="54.17" y="13.454" width="6.066" height="1.875"/>
		<rect x="54.17" y="20.592" width="6.066" height="2.503"/>
		<rect x="60.236" y="24.69" width="6.066" height="2.504"/>
		<rect x="60.436" y="32.099" width="6.066" height="2.504"/>
		<rect x="54.17" y="28.579" width="6.066" height="2.504"/>
		<rect x="54.369" y="36.955" width="6.066" height="2.502"/>
		<rect x="60.436" y="40.7" width="6.066" height="2.503"/>
		<rect x="54.369" y="44.799" width="6.066" height="2.504"/>
		<path d="M60.238,49.396c-2.98,0-4.398,2.415-4.398,5.396l-0.998,9.039c0,2.98,2.416,5.396,5.396,5.396
			c2.979,0,5.393-2.416,5.393-5.396l-0.994-9.039C64.637,51.812,63.217,49.396,60.238,49.396z M62.025,66.857h-3.572v-7.546h3.572
			V66.857z"/>
	</g>
</g>
</svg>
