<?xml version="1.0" encoding="utf-8"?>
<!-- Generator: Adobe Illustrator 16.0.0, SVG Export Plug-In . SVG Version: 6.00 Build 0)  -->
<!DOCTYPE svg PUBLIC "-//W3C//DTD SVG 1.1//EN" "http://www.w3.org/Graphics/SVG/1.1/DTD/svg11.dtd">
<svg version="1.1" id="Layer_1" xmlns="http://www.w3.org/2000/svg" xmlns:xlink="http://www.w3.org/1999/xlink" x="0px" y="0px"
	 width="126px" height="126px" viewBox="0 0 126 126" enable-background="new 0 0 126 126" xml:space="preserve">
<g>
	<path d="M99.98,36.507c-0.006-0.468-0.154-0.93-0.475-1.295L79.838,12.747c-0.004-0.006-0.01-0.008-0.016-0.014
		c-0.117-0.131-0.252-0.239-0.396-0.334c-0.043-0.028-0.086-0.053-0.131-0.078c-0.127-0.068-0.258-0.124-0.395-0.165
		c-0.037-0.011-0.07-0.026-0.107-0.036c-0.15-0.035-0.303-0.057-0.459-0.057H30c-2.205,0-4,1.795-4,4v94c0,2.206,1.795,4,4,4h66
		c2.207,0,4-1.794,4-4V36.73C100,36.655,99.988,36.581,99.98,36.507z M37.206,106.539h-4.813V85.337h4.813V106.539z M52.212,102.89
		c1.447,0,3.051-0.314,3.995-0.692l0.724,3.744c-0.881,0.44-2.863,0.912-5.442,0.912c-7.33,0-11.105-4.562-11.105-10.602
		c0-7.235,5.159-11.262,11.577-11.262c2.485,0,4.373,0.503,5.222,0.944l-0.975,3.806c-0.975-0.409-2.328-0.786-4.026-0.786
		c-3.807,0-6.764,2.297-6.764,7.015C45.417,100.216,47.934,102.89,52.212,102.89z M77.632,106.539h-5.033l-4.53-8.18
		c-1.258-2.265-2.642-5.001-3.681-7.486l-0.094,0.031c0.126,2.8,0.188,5.788,0.188,9.248v6.387h-4.404V85.337h5.599l4.404,7.77
		c1.258,2.233,2.517,4.876,3.46,7.267h0.094c-0.314-2.8-0.409-5.662-0.409-8.84v-6.196h4.404V106.539z M86.979,106.854
		c-2.422,0-4.813-0.63-6.009-1.29l0.976-3.964c1.29,0.661,3.271,1.321,5.316,1.321c2.202,0,3.366-0.912,3.366-2.296
		c0-1.321-1.007-2.077-3.555-2.989c-3.523-1.226-5.82-3.177-5.82-6.26c0-3.617,3.02-6.386,8.022-6.386
		c2.391,0,4.152,0.503,5.411,1.069l-1.069,3.869c-0.85-0.408-2.359-1.006-4.436-1.006c-2.076,0-3.083,0.943-3.083,2.045
		c0,1.352,1.195,1.949,3.933,2.988c3.744,1.384,5.505,3.334,5.505,6.322C95.535,103.833,92.798,106.854,86.979,106.854z M30,79.98
		V16.063h46.334v20.466c0,1.104,0.895,2,2,2H96l0.002,41.451H30z"/>
	<g>
		<path d="M69.531,31.593H36.408v31.354h33.123V31.593z M66.497,55.362h-1.212c-1.154-2.923-2.567-5.984-4.545-5.479
			c-1.851,0.473-3.084,3.493-3.708,5.479h-0.911c-0.677-2.426-2.201-6.808-4.936-9.545c-3.098-3.097-6.12,5.658-7.271,9.545h-4.472
			V34.627h27.054V55.362z"/>
		<circle cx="43.427" cy="39.864" r="2.442"/>
		<path d="M58.239,43.876c0.493,0,0.955-0.051,1.365-0.135c0.478,0.205,1.058,0.328,1.69,0.328c1.614,0,2.923-0.789,2.923-1.764
			s-1.309-1.765-2.923-1.765c-0.607,0-1.168,0.112-1.637,0.303c-0.19-0.187-0.449-0.303-0.735-0.303h-0.423
			c-0.542,0-0.971,0.412-1.033,0.938c-1.311,0.135-2.281,0.607-2.281,1.174C55.185,43.328,56.552,43.876,58.239,43.876z"/>
		<polygon points="70.574,40.208 70.574,43.305 84.54,46.142 80.412,66.462 70.007,64.347 50.137,64.347 49.415,67.903 
			81.875,74.499 88.118,43.774 		"/>
		<polygon points="72.197,57.126 74.605,57.669 71.675,52.048 74.164,52.609 71.754,47.987 73.285,48.335 71.433,44.781 
			70.574,45.494 70.574,62.142 75.376,63.226 		"/>
	</g>
</g>
</svg>
