<?xml version="1.0" encoding="utf-8"?>
<!-- Generator: Adobe Illustrator 16.0.0, SVG Export Plug-In . SVG Version: 6.00 Build 0)  -->
<!DOCTYPE svg PUBLIC "-//W3C//DTD SVG 1.1//EN" "http://www.w3.org/Graphics/SVG/1.1/DTD/svg11.dtd">
<svg version="1.1" id="Layer_1" xmlns="http://www.w3.org/2000/svg" xmlns:xlink="http://www.w3.org/1999/xlink" x="0px" y="0px"
	 width="126px" height="126px" viewBox="0 0 126 126" enable-background="new 0 0 126 126" xml:space="preserve">
<path d="M99.98,36.443c-0.006-0.468-0.154-0.93-0.475-1.295L79.838,12.684c-0.004-0.006-0.01-0.008-0.016-0.014
	c-0.117-0.131-0.252-0.239-0.396-0.334c-0.043-0.028-0.086-0.053-0.131-0.078c-0.127-0.068-0.258-0.124-0.395-0.165
	c-0.037-0.011-0.07-0.026-0.107-0.036C78.643,12.021,78.49,12,78.334,12H30c-2.205,0-4,1.795-4,4v94c0,2.206,1.795,4,4,4h66
	c2.207,0,4-1.794,4-4V36.667C100,36.592,99.988,36.518,99.98,36.443z M45.201,108.484h-5.705V83.351h5.705V108.484z M62.99,104.158
	c1.715,0,3.617-0.373,4.736-0.82l0.857,4.438c-1.044,0.522-3.394,1.082-6.451,1.082c-8.689,0-13.164-5.408-13.164-12.567
	c0-8.577,6.116-13.351,13.723-13.351c2.946,0,5.184,0.597,6.19,1.119l-1.156,4.513c-1.156-0.485-2.76-0.933-4.773-0.933
	c-4.512,0-8.018,2.723-8.018,8.315C54.936,100.989,57.919,104.158,62.99,104.158z M78.469,108.857c-2.872,0-5.706-0.746-7.123-1.529
	l1.156-4.699c1.529,0.784,3.878,1.566,6.302,1.566c2.61,0,3.99-1.081,3.99-2.722c0-1.566-1.193-2.462-4.213-3.543
	c-4.177-1.454-6.899-3.767-6.899-7.421c0-4.288,3.58-7.57,9.51-7.57c2.834,0,4.922,0.597,6.414,1.268l-1.268,4.588
	c-1.007-0.485-2.797-1.193-5.258-1.193c-2.461,0-3.654,1.119-3.654,2.424c0,1.603,1.417,2.312,4.661,3.542
	c4.438,1.641,6.526,3.953,6.526,7.495C88.612,105.277,85.368,108.857,78.469,108.857z M30,79.917V16h46.334v20.466
	c0,1.104,0.895,2,2,2H96l0.002,41.451H30z"/>
<g>
	<path d="M80.873,34.977h-5.237v-3.589h-2.619v3.589h-4.98v-3.589h-2.521v3.589h-4.811v-3.589h-2.521v3.589h-5.194v-3.589h-0.097
		H50.37v3.589h-4.766v-3.589h-2.521v4.004c-1.279,0.635-2.169,1.942-2.169,3.465v28.126c0,2.139,1.741,3.88,3.879,3.88h36.08
		c2.139,0,3.88-1.741,3.88-3.88V38.856C84.752,36.717,83.012,34.977,80.873,34.977z M81.648,66.982c0,0.428-0.348,0.776-0.776,0.776
		h-36.08c-0.428,0-0.775-0.349-0.775-0.776V41.375h37.631V66.982z"/>
	<rect x="59.39" y="43.561" width="5.625" height="5.626"/>
	<rect x="68.992" y="43.561" width="5.625" height="5.626"/>
	<rect x="50.079" y="51.611" width="5.625" height="5.625"/>
	<rect x="59.39" y="51.611" width="5.625" height="5.625"/>
	<rect x="68.992" y="51.611" width="5.625" height="5.625"/>
	<rect x="50.079" y="59.672" width="5.625" height="5.625"/>
	<rect x="59.39" y="59.672" width="5.625" height="5.625"/>
	<rect x="68.992" y="59.672" width="5.625" height="5.625"/>
</g>
</svg>
