<?xml version="1.0" encoding="utf-8"?>
<!-- Generator: Adobe Illustrator 16.0.0, SVG Export Plug-In . SVG Version: 6.00 Build 0)  -->
<!DOCTYPE svg PUBLIC "-//W3C//DTD SVG 1.1//EN" "http://www.w3.org/Graphics/SVG/1.1/DTD/svg11.dtd">
<svg version="1.1" id="Layer_1" xmlns="http://www.w3.org/2000/svg" xmlns:xlink="http://www.w3.org/1999/xlink" x="0px" y="0px"
	 width="126px" height="126px" viewBox="0 0 126 126" enable-background="new 0 0 126 126" xml:space="preserve">
<g>
	<path d="M99.98,36.507c-0.006-0.468-0.154-0.93-0.475-1.295L79.838,12.747c-0.004-0.006-0.01-0.008-0.016-0.014
		c-0.117-0.131-0.252-0.239-0.396-0.334c-0.043-0.028-0.086-0.053-0.131-0.078c-0.127-0.068-0.258-0.124-0.395-0.165
		c-0.037-0.011-0.07-0.026-0.107-0.036c-0.15-0.035-0.303-0.057-0.459-0.057H30c-2.205,0-4,1.795-4,4v94c0,2.206,1.795,4,4,4h66
		c2.207,0,4-1.794,4-4V36.73C100,36.655,99.988,36.581,99.98,36.507z M47.918,107.657H33.631V84.784h5.192v18.529h9.095V107.657z
		 M69.908,107.657h-5.43l-4.887-8.823c-1.357-2.443-2.851-5.396-3.97-8.077l-0.102,0.034c0.136,3.021,0.204,6.244,0.204,9.978v6.889
		h-4.751V84.784h6.041l4.751,8.383c1.357,2.409,2.715,5.26,3.733,7.839h0.102c-0.339-3.021-0.441-6.108-0.441-9.536v-6.686h4.751
		V107.657z M87.078,107.657l-5.6-9.875l-1.968,2.409v7.466h-5.125V84.784h5.125v10.113h0.102c0.509-0.883,1.052-1.697,1.561-2.512
		l5.192-7.602h6.346l-7.568,9.74l7.975,13.133H87.078z M30,79.98V16.063h46.334v20.466c0,1.104,0.895,2,2,2H96l0.002,41.451H30z"/>
	<path d="M78.128,60.186l-6.747-9.275c-1.96-2.694-5.458-3.612-8.424-2.442l-0.277-0.38c2.026-2.463,2.23-6.072,0.27-8.767
		l-5.095-7.004c-2.325-3.195-6.815-3.904-10.011-1.581l-0.725,0.528c-3.196,2.324-3.903,6.816-1.579,10.011l5.094,7.003
		c1.896,2.608,5.235,3.557,8.137,2.559l0.368,0.504c-1.846,2.452-1.971,5.921-0.074,8.528l6.747,9.275
		c2.325,3.194,6.816,3.903,10.011,1.578l0.724-0.526C79.744,67.872,80.452,63.378,78.128,60.186z M56.231,43.285
		c-1.066,0.774-1.302,2.271-0.526,3.336l1.55,2.129c-1.74,0.304-3.583-0.354-4.689-1.874l-5.094-7.006
		c-1.551-2.128-1.078-5.123,1.053-6.674l0.725-0.528c2.13-1.548,5.125-1.077,6.674,1.055l5.095,7.001
		c1.176,1.618,1.182,3.73,0.187,5.335l-1.635-2.248C58.793,42.741,57.298,42.507,56.231,43.285z M75.143,68.265l-0.725,0.526
		c-2.13,1.55-5.125,1.078-6.674-1.051l-6.747-9.275c-1.108-1.524-1.165-3.478-0.342-5.04l1.549,2.129
		c0.776,1.068,2.27,1.306,3.337,0.528c1.066-0.777,1.303-2.271,0.526-3.337l-1.636-2.25c1.833-0.454,3.841,0.201,5.018,1.821
		l6.747,9.273C77.746,63.719,77.273,66.716,75.143,68.265z"/>
</g>
</svg>
