<?xml version="1.0" encoding="utf-8"?>
<!-- Generator: Adobe Illustrator 16.0.0, SVG Export Plug-In . SVG Version: 6.00 Build 0)  -->
<!DOCTYPE svg PUBLIC "-//W3C//DTD SVG 1.1//EN" "http://www.w3.org/Graphics/SVG/1.1/DTD/svg11.dtd">
<svg version="1.1" id="Layer_1" xmlns="http://www.w3.org/2000/svg" xmlns:xlink="http://www.w3.org/1999/xlink" x="0px" y="0px"
	 width="126px" height="126px" viewBox="0 0 126 126" enable-background="new 0 0 126 126" xml:space="preserve">
<path d="M99.98,36.352c-0.006-0.468-0.154-0.93-0.475-1.295L79.838,12.592c-0.004-0.006-0.01-0.008-0.016-0.014
	c-0.117-0.131-0.252-0.239-0.396-0.334c-0.043-0.028-0.086-0.053-0.131-0.078c-0.127-0.068-0.258-0.124-0.395-0.165
	c-0.037-0.011-0.07-0.026-0.107-0.036c-0.15-0.035-0.303-0.057-0.459-0.057H30c-2.205,0-4,1.795-4,4v94c0,2.206,1.795,4,4,4h66
	c2.207,0,4-1.794,4-4V36.575C100,36.5,99.988,36.426,99.98,36.352z M50.733,107.285l-0.316-8.158
	c-0.095-2.562-0.189-5.661-0.189-8.76h-0.095c-0.664,2.72-1.55,5.755-2.372,8.253l-2.593,8.317h-3.763l-2.277-8.254
	c-0.696-2.497-1.423-5.534-1.929-8.316h-0.063c-0.126,2.878-0.221,6.167-0.379,8.822l-0.38,8.096h-4.458l1.36-21.313h6.419
	l2.087,7.115c0.664,2.466,1.328,5.123,1.803,7.621h0.095c0.601-2.467,1.328-5.281,2.024-7.652l2.276-7.084h6.293l1.17,21.313H50.733
	z M64.359,107.633c-2.656,0-4.901-0.695-6.103-1.455l0.98-3.604c0.854,0.442,2.814,1.265,4.775,1.265
	c2.498,0,3.763-1.201,3.763-2.751c0-2.023-2.024-2.941-4.143-2.941h-1.96v-3.446h1.866c1.613-0.031,3.668-0.632,3.668-2.372
	c0-1.232-1.012-2.149-3.036-2.149c-1.676,0-3.447,0.727-4.3,1.233l-0.98-3.479c1.233-0.791,3.699-1.549,6.356-1.549
	c4.395,0,6.83,2.308,6.83,5.121c0,2.183-1.233,3.891-3.763,4.775v0.063c2.467,0.443,4.459,2.309,4.459,4.996
	C72.771,104.977,69.577,107.633,64.359,107.633z M94.081,97.925c0,6.577-3.32,9.708-8.886,9.708c-5.375,0-8.538-2.973-8.538-9.771
	v-11.89h4.838v12.27c0,3.668,1.391,5.534,3.858,5.534c2.53,0,3.921-1.771,3.921-5.534v-12.27h4.807V97.925z M30,79.825V15.908
	h46.334v20.466c0,1.104,0.895,2,2,2H96l0.002,41.451H30z"/>
<path d="M61.263,32.531c-10.422,0-18.9,8.479-18.9,18.902c0,10.422,8.479,18.9,18.9,18.9c10.424,0,18.902-8.479,18.902-18.9
	C80.166,41.011,71.687,32.531,61.263,32.531z M73.542,52.152L56.167,63.246c-0.095,0.074-0.207,0.114-0.324,0.114l-0.229-0.054
	c-0.181-0.084-0.295-0.27-0.295-0.468v-22.19c0-0.198,0.114-0.385,0.295-0.469c0.182-0.09,0.396-0.067,0.554,0.058l17.374,11.091
	c0.124,0.104,0.198,0.256,0.198,0.412C73.74,51.897,73.666,52.051,73.542,52.152z"/>
</svg>
