<?xml version="1.0" encoding="utf-8"?>
<!-- Generator: Adobe Illustrator 16.0.0, SVG Export Plug-In . SVG Version: 6.00 Build 0)  -->
<!DOCTYPE svg PUBLIC "-//W3C//DTD SVG 1.1//EN" "http://www.w3.org/Graphics/SVG/1.1/DTD/svg11.dtd">
<svg version="1.1" id="Layer_1" xmlns="http://www.w3.org/2000/svg" xmlns:xlink="http://www.w3.org/1999/xlink" x="0px" y="0px"
	 width="126px" height="126px" viewBox="0 0 126 126" enable-background="new 0 0 126 126" xml:space="preserve">
<g>
	<path d="M67.682,89.164c-0.98,0-1.645,0.096-1.992,0.19v6.293c0.41,0.095,0.917,0.126,1.613,0.126c2.561,0,4.142-1.296,4.142-3.479
		C71.444,90.334,70.084,89.164,67.682,89.164z"/>
	<path d="M85.355,89.291h-0.063c-0.316,1.265-0.633,2.878-0.98,4.111l-1.266,4.521h4.712l-1.327-4.521
		C86.051,92.137,85.672,90.556,85.355,89.291z"/>
	<path d="M99.98,36.352c-0.006-0.468-0.154-0.93-0.475-1.295L79.838,12.592c-0.004-0.006-0.01-0.008-0.016-0.014
		c-0.117-0.131-0.252-0.239-0.396-0.334c-0.043-0.028-0.086-0.053-0.131-0.078c-0.127-0.068-0.258-0.124-0.395-0.165
		c-0.037-0.011-0.07-0.026-0.107-0.036c-0.15-0.035-0.303-0.057-0.459-0.057H30c-2.205,0-4,1.795-4,4v94c0,2.206,1.795,4,4,4h66
		c2.207,0,4-1.794,4-4V36.575C100,36.5,99.988,36.426,99.98,36.352z M52.506,106.999l-0.316-8.158
		C52.095,96.279,52,93.181,52,90.081h-0.095c-0.664,2.72-1.55,5.755-2.372,8.254l-2.592,8.316h-3.764L40.9,98.397
		c-0.695-2.497-1.422-5.533-1.928-8.316h-0.064c-0.126,2.878-0.221,6.167-0.379,8.823l-0.379,8.095h-4.459l1.359-21.313h6.42
		l2.086,7.115c0.664,2.467,1.328,5.123,1.803,7.621h0.096c0.601-2.467,1.328-5.281,2.023-7.652l2.276-7.084h6.293l1.17,21.313
		H52.506z M67.334,99.473c-0.633,0-1.202-0.031-1.645-0.094v7.62h-4.775V85.971c1.486-0.253,3.573-0.442,6.514-0.442
		c2.973,0,5.092,0.569,6.515,1.708c1.36,1.074,2.276,2.845,2.276,4.933c0,2.087-0.695,3.857-1.96,5.059
		C72.614,98.777,70.18,99.473,67.334,99.473z M90.1,106.999l-1.645-5.471h-6.104l-1.518,5.471h-4.996l6.514-21.313h6.324
		l6.609,21.313H90.1z M30,79.825V15.908h46.334v20.466c0,1.104,0.895,2,2,2H96l0.002,41.451H30z"/>
</g>
<g>
	<path d="M61.37,30.926c-11.571,0-20.984,9.413-20.984,20.984s9.413,20.984,20.984,20.984s20.984-9.413,20.984-20.984
		S72.941,30.926,61.37,30.926z M61.37,69.895c-9.917,0-17.984-8.067-17.984-17.984s8.067-17.984,17.984-17.984
		s17.984,8.067,17.984,17.984S71.287,69.895,61.37,69.895z"/>
	<path d="M56.346,58.141c-0.624-0.219-1.368-0.257-2.129-0.068c-1.69,0.423-2.796,1.815-2.473,3.112
		c0.189,1.2,1.958,2.003,3.645,1.579c1.485-0.368,2.52-1.492,2.527-2.64h0.003l0.039-12.103l8.729-1.597v9.729
		c-0.634-0.224-1.394-0.263-2.165-0.072c-1.708,0.428-2.825,1.832-2.497,3.145c0.327,1.309,1.975,2.023,3.683,1.601
		c1.556-0.393,2.552-1.461,2.552-2.797V41.881l-11.914,1.933V58.141z"/>
</g>
</svg>
