<?xml version="1.0" encoding="utf-8"?>
<!-- Generator: Adobe Illustrator 16.0.0, SVG Export Plug-In . SVG Version: 6.00 Build 0)  -->
<!DOCTYPE svg PUBLIC "-//W3C//DTD SVG 1.1//EN" "http://www.w3.org/Graphics/SVG/1.1/DTD/svg11.dtd">
<svg version="1.1" id="Layer_1" xmlns="http://www.w3.org/2000/svg" xmlns:xlink="http://www.w3.org/1999/xlink" x="0px" y="0px"
	 width="126px" height="126px" viewBox="0 0 126 126" enable-background="new 0 0 126 126" xml:space="preserve">
<g>
	<path d="M67.646,97.801h-1.914v6.996c0.552,0.073,1.215,0.073,2.172,0.073c2.541,0,4.786-0.957,4.786-3.571
		C72.69,98.795,70.445,97.801,67.646,97.801z"/>
	<path d="M99.98,36.402c-0.006-0.468-0.154-0.93-0.475-1.295L79.838,12.643c-0.004-0.006-0.01-0.008-0.016-0.014
		c-0.117-0.131-0.252-0.239-0.396-0.334c-0.043-0.028-0.086-0.053-0.131-0.078c-0.127-0.068-0.258-0.124-0.395-0.165
		c-0.037-0.011-0.07-0.026-0.107-0.036c-0.15-0.035-0.303-0.057-0.459-0.057H30c-2.205,0-4,1.795-4,4v94c0,2.206,1.795,4,4,4h66
		c2.207,0,4-1.794,4-4V36.626C100,36.551,99.988,36.477,99.98,36.402z M44.306,109.179c-7.364,0-11.672-5.56-11.672-12.629
		c0-7.438,4.749-12.998,12.076-12.998c7.622,0,11.782,5.707,11.782,12.556C56.492,104.245,51.559,109.179,44.306,109.179z
		 M76.005,106.785c-1.805,1.436-4.823,2.246-9.758,2.246c-2.761,0-4.823-0.185-6.075-0.368V84.288
		c1.474-0.294,4.455-0.515,7.254-0.515c3.424,0,5.522,0.331,7.327,1.398c1.73,0.921,2.982,2.614,2.982,4.86
		c0,2.209-1.289,4.271-4.087,5.302v0.074c2.835,0.773,4.934,2.908,4.934,6.111C78.582,103.766,77.551,105.533,76.005,106.785z
		 M92.866,99.643c0,7.069-3.388,9.536-8.837,9.536c-1.288,0-2.982-0.221-4.087-0.59l0.626-4.528
		c0.773,0.258,1.768,0.441,2.872,0.441c2.356,0,3.829-1.067,3.829-4.934V83.957h5.597V99.643z M30,79.876V15.959h46.334v20.466
		c0,1.104,0.895,2,2,2H96l0.002,41.451H30z"/>
	<path d="M72.102,90.731c0-1.877-1.436-2.871-3.977-2.871c-1.215,0-1.914,0.073-2.393,0.146v5.781h1.841
		C70.519,93.788,72.102,92.573,72.102,90.731z"/>
	<path d="M44.563,88.007c-3.792,0-6.001,3.608-6.001,8.432c0,4.86,2.282,8.285,6.038,8.285c3.793,0,5.965-3.608,5.965-8.432
		C50.564,91.837,48.429,88.007,44.563,88.007z"/>
</g>
<g>
	<path fill="#231F20" d="M82.52,42.478c-0.101-0.068-0.229-0.082-0.34-0.036l-18.954,7.627c-0.138,0.056-0.229,0.189-0.229,0.339
		v22.767c0,0.121,0.061,0.234,0.161,0.303c0.061,0.041,0.132,0.063,0.204,0.063c0.046,0,0.093-0.009,0.136-0.026l18.954-7.628
		c0.138-0.056,0.229-0.189,0.229-0.339V42.78C82.681,42.659,82.62,42.546,82.52,42.478z M79.268,65.01l-14.27,5.74V59.207
		L79.268,65.01z M64.998,57.494v-5.981l15.681-6.31v18.665L64.998,57.494z"/>
	<path fill="#231F20" d="M61.274,50.068L42.32,42.441c-0.111-0.046-0.239-0.032-0.34,0.036s-0.161,0.182-0.161,0.303v22.766
		c0,0.149,0.091,0.283,0.229,0.339l18.954,7.628c0.043,0.018,0.09,0.026,0.136,0.026c0.072,0,0.144-0.021,0.204-0.063
		c0.101-0.068,0.161-0.182,0.161-0.303V50.407C61.503,50.258,61.412,50.124,61.274,50.068z M43.822,64.359V45.203l15.68,6.31v5.947
		L43.822,64.359z M59.502,59.193V70.75l-13.717-5.519L59.502,59.193z"/>
	<path fill="#231F20" d="M82.16,40.838c0-0.15-0.092-0.285-0.232-0.341l-19.464-7.598c-0.086-0.034-0.184-0.033-0.269,0.001
		l-18.953,7.627c-0.139,0.056-0.229,0.189-0.229,0.339c0,0.148,0.09,0.283,0.228,0.339l18.714,7.599
		c0.044,0.018,0.091,0.026,0.138,0.026c0.044,0,0.089-0.008,0.132-0.024l19.703-7.627C82.067,41.124,82.16,40.989,82.16,40.838z
		 M62.712,46.471V35.146l14.567,5.686L62.712,46.471z M61.123,35.489v10.815l-13.378-5.431L61.123,35.489z"/>
</g>
</svg>
