<?xml version="1.0" encoding="utf-8"?>
<!-- Generator: Adobe Illustrator 16.0.0, SVG Export Plug-In . SVG Version: 6.00 Build 0)  -->
<!DOCTYPE svg PUBLIC "-//W3C//DTD SVG 1.1//EN" "http://www.w3.org/Graphics/SVG/1.1/DTD/svg11.dtd">
<svg version="1.1" id="Layer_1" xmlns="http://www.w3.org/2000/svg" xmlns:xlink="http://www.w3.org/1999/xlink" x="0px" y="0px"
	 width="126px" height="126px" viewBox="0 0 126 126" enable-background="new 0 0 126 126" xml:space="preserve">
<g>
	<path d="M40.852,88.104c-3.313,0-5.242,3.152-5.242,7.365c0,4.246,1.994,7.238,5.275,7.238c3.313,0,5.21-3.152,5.21-7.365
		C46.095,91.449,44.229,88.104,40.852,88.104z"/>
	<path d="M61.633,88.168c-1.093,0-1.801,0.096-2.219,0.191v14.186c0.418,0.096,1.094,0.096,1.704,0.096
		c4.439,0.033,7.334-2.41,7.334-7.59C68.484,90.549,65.847,88.168,61.633,88.168z"/>
	<path d="M99.98,36.445c-0.006-0.469-0.156-0.93-0.477-1.295L79.838,12.686c-0.006-0.006-0.012-0.008-0.016-0.014
		c-0.117-0.131-0.254-0.24-0.398-0.334c-0.043-0.029-0.086-0.053-0.131-0.078c-0.125-0.068-0.256-0.125-0.395-0.166
		c-0.037-0.01-0.07-0.025-0.107-0.035c-0.148-0.035-0.303-0.057-0.459-0.057H30c-2.205,0-4,1.795-4,4v94c0,2.205,1.795,4,4,4h66
		c2.205,0,4-1.795,4-4V36.668C100,36.594,99.988,36.52,99.98,36.445z M40.627,106.598c-6.434,0-10.196-4.857-10.196-11.031
		c0-6.498,4.149-11.355,10.55-11.355c6.658,0,10.293,4.986,10.293,10.969C51.273,102.287,46.964,106.598,40.627,106.598z
		 M70.061,103.672c-2.284,1.896-5.758,2.797-10.003,2.797c-2.541,0-4.343-0.16-5.565-0.32V84.855
		c1.802-0.289,4.149-0.451,6.626-0.451c4.117,0,6.786,0.74,8.878,2.314c2.251,1.674,3.666,4.344,3.666,8.172
		C73.662,99.039,72.151,101.902,70.061,103.672z M94.99,105.248c-1.513,0.514-4.375,1.221-7.236,1.221
		c-3.957,0-6.819-0.996-8.813-2.926c-1.994-1.867-3.088-4.697-3.057-7.881c0.033-7.205,5.276-11.322,12.385-11.322
		c2.798,0,4.953,0.547,6.014,1.063l-1.029,3.924c-1.189-0.516-2.669-0.934-5.049-0.934c-4.086,0-7.173,2.316-7.173,7.012
		c0,4.471,2.798,7.107,6.818,7.107c1.126,0,2.026-0.127,2.412-0.32v-4.535h-3.344v-3.828h8.072V105.248z M96,79.918H30V16.002
		h46.332v20.465c0,1.105,0.896,2,2,2H96V79.918z"/>
	<path d="M71.231,60.609c-1.163,4.631,2.995,8.703,2.995,8.703c6.431,5.783,10.974,0,10.974,0c-2.359-1.238-2.478-5.957-2.478-5.957
		c-0.059-5.371-7.792-6.445-7.792-6.445L71.231,60.609z M71.924,62.012l0.904-1.313c0,0-1.493,2.094,4.23,9.008
		C77.059,69.707,72.869,68.211,71.924,62.012z"/>
	<path d="M72.122,52.482c-0.917-0.918-29.594-24.785-31.224-26.416c-2.016-1.469-3.184,0.033-1.608,1.607
		c1.573,1.574,26.615,29.271,27.492,30.148c0.876,0.875,3.544,1.961,3.544,1.961l3.7-3.699
		C74.026,56.084,73.04,53.398,72.122,52.482z"/>
</g>
</svg>
