<?xml version="1.0" encoding="utf-8"?>
<!-- Generator: Adobe Illustrator 16.0.0, SVG Export Plug-In . SVG Version: 6.00 Build 0)  -->
<!DOCTYPE svg PUBLIC "-//W3C//DTD SVG 1.1//EN" "http://www.w3.org/Graphics/SVG/1.1/DTD/svg11.dtd">
<svg version="1.1" id="Layer_1" xmlns="http://www.w3.org/2000/svg" xmlns:xlink="http://www.w3.org/1999/xlink" x="0px" y="0px"
	 width="126px" height="126px" viewBox="0 0 126 126" enable-background="new 0 0 126 126" xml:space="preserve">
<g>
	<path d="M64.447,89.098c-1.102,0-1.814,0.096-2.236,0.193v14.291c0.422,0.098,1.103,0.098,1.719,0.098
		c4.472,0.033,7.389-2.43,7.389-7.648C71.351,91.496,68.693,89.098,64.447,89.098z"/>
	<path d="M43.51,89.031c-3.338,0-5.281,3.176-5.281,7.422c0,4.277,2.009,7.291,5.314,7.291c3.338,0,5.25-3.176,5.25-7.42
		C48.793,92.402,46.913,89.031,43.51,89.031z"/>
	<path d="M99.979,36.445c-0.004-0.469-0.154-0.93-0.475-1.295L79.838,12.686c-0.006-0.006-0.012-0.008-0.016-0.014
		c-0.117-0.131-0.254-0.24-0.398-0.334c-0.043-0.029-0.086-0.053-0.131-0.078c-0.125-0.068-0.258-0.125-0.395-0.166
		c-0.037-0.01-0.07-0.025-0.107-0.035c-0.148-0.035-0.303-0.057-0.459-0.057H30c-2.207,0-4,1.795-4,4v94c0,2.205,1.793,4,4,4h66
		c2.205,0,4-1.795,4-4V36.668C100,36.594,99.988,36.52,99.979,36.445z M43.283,107.666c-6.48,0-10.272-4.895-10.272-11.115
		c0-6.547,4.181-11.439,10.63-11.439c6.707,0,10.369,5.023,10.369,11.049C54.01,103.322,49.668,107.666,43.283,107.666z
		 M72.938,104.717c-2.301,1.912-5.8,2.818-10.078,2.818c-2.56,0-4.374-0.162-5.605-0.324V85.76c1.814-0.291,4.18-0.455,6.676-0.455
		c4.147,0,6.838,0.744,8.943,2.332c2.269,1.688,3.695,4.375,3.695,8.234C76.568,100.051,75.045,102.934,72.938,104.717z
		 M85.158,107.635c-2.495,0-4.959-0.65-6.189-1.33l1.004-4.084c1.329,0.682,3.371,1.361,5.477,1.361c2.27,0,3.468-0.939,3.468-2.365
		c0-1.361-1.037-2.139-3.662-3.078c-3.629-1.264-5.995-3.273-5.995-6.449c0-3.727,3.111-6.578,8.264-6.578
		c2.463,0,4.277,0.518,5.574,1.102l-1.102,3.984c-0.875-0.42-2.431-1.035-4.57-1.035c-2.139,0-3.176,0.973-3.176,2.107
		c0,1.393,1.232,2.008,4.052,3.076c3.856,1.426,5.671,3.436,5.671,6.516C93.973,104.521,91.153,107.635,85.158,107.635z M96,79.918
		H30V16.002h46.332v20.465c0,1.105,0.896,2,2,2H96V79.918z"/>
	<path d="M39.723,40.658v31.668h46.555V40.658H39.723z M83.436,69.477H67.703v-3.248h15.732V69.477z M66.891,69.477h-7.611v-3.248
		h7.611V69.477z M58.467,69.477h-7.105v-3.248h7.105V69.477z M50.55,69.477h-7.985v-3.248h7.985V69.477z M67.703,49.48h15.732v3.654
		H67.703V49.48z M67.703,53.947h15.732v3.316H67.703V53.947z M67.703,58.076h15.732v3.652H67.703V58.076z M83.436,62.541v2.875
		H67.703v-2.875H83.436z M59.279,43.906h7.611v4.764h-7.611V43.906z M59.279,49.48h7.611v3.654h-7.611V49.48z M59.279,53.947h7.611
		v3.316h-7.611V53.947z M59.279,58.076h7.611v3.652h-7.611V58.076z M66.891,62.541v2.875h-7.611v-2.875H66.891z M51.361,49.48h7.105
		v3.654h-7.105V49.48z M51.361,53.947h7.105v3.316h-7.105V53.947z M51.361,58.076h7.105v3.652h-7.105V58.076z M58.467,62.541v2.875
		h-7.105v-2.875H58.467z M42.564,43.906h7.985v4.764h-7.985V43.906z M42.564,49.48h7.985v3.654h-7.985V49.48z M42.564,53.947h7.985
		v3.316h-7.985V53.947z M42.564,58.076h7.985v3.652h-7.985V58.076z M50.55,62.541v2.875h-7.985v-2.875H50.55z"/>
</g>
</svg>
