<?xml version="1.0" encoding="utf-8"?>
<!-- Generator: Adobe Illustrator 16.0.0, SVG Export Plug-In . SVG Version: 6.00 Build 0)  -->
<!DOCTYPE svg PUBLIC "-//W3C//DTD SVG 1.1//EN" "http://www.w3.org/Graphics/SVG/1.1/DTD/svg11.dtd">
<svg version="1.1" id="Layer_1" xmlns="http://www.w3.org/2000/svg" xmlns:xlink="http://www.w3.org/1999/xlink" x="0px" y="0px"
	 width="126px" height="126px" viewBox="0 0 126 126" enable-background="new 0 0 126 126" xml:space="preserve">
<g>
	<path d="M62.469,88.697c-1.076,0-1.773,0.096-2.186,0.191v13.959c0.412,0.096,1.076,0.096,1.678,0.096
		c4.369,0.031,7.219-2.375,7.219-7.471C69.211,91.041,66.615,88.697,62.469,88.697z"/>
	<path d="M99.979,36.443c-0.004-0.467-0.154-0.93-0.475-1.295L79.838,12.683c-0.006-0.006-0.012-0.008-0.016-0.014
		c-0.117-0.131-0.254-0.238-0.398-0.334c-0.043-0.027-0.086-0.053-0.131-0.078c-0.125-0.068-0.258-0.123-0.395-0.164
		c-0.037-0.012-0.07-0.027-0.107-0.037C78.643,12.021,78.488,12,78.332,12H30c-2.207,0-4,1.795-4,4v94c0,2.205,1.793,4,4,4h66
		c2.205,0,4-1.795,4-4V36.667C100,36.591,99.988,36.517,99.979,36.443z M41.795,106.835c-6.332,0-10.035-4.779-10.035-10.857
		c0-6.395,4.082-11.176,10.383-11.176c6.553,0,10.129,4.908,10.129,10.797C52.271,102.593,48.031,106.835,41.795,106.835z
		 M70.762,103.955c-2.248,1.869-5.666,2.754-9.846,2.754c-2.5,0-4.273-0.156-5.477-0.316V85.437
		c1.773-0.285,4.084-0.443,6.521-0.443c4.053,0,6.68,0.729,8.738,2.279c2.215,1.646,3.607,4.273,3.607,8.041
		C74.307,99.396,72.82,102.214,70.762,103.955z M87.668,106.488l-1.93-3.863c-0.791-1.486-1.299-2.596-1.9-3.83h-0.063
		c-0.443,1.234-0.982,2.344-1.646,3.83l-1.773,3.863h-5.508l6.174-10.795L75.07,85.152h5.539l1.867,3.895
		c0.633,1.297,1.109,2.342,1.615,3.545h0.063c0.508-1.361,0.918-2.311,1.457-3.545l1.805-3.895h5.508l-6.016,10.416l6.332,10.92
		H87.668z M30,79.917V16h46.332v20.467c0,1.104,0.896,2,2,2H96v41.451H30z"/>
	<path d="M42.016,88.634c-3.26,0-5.16,3.104-5.16,7.25c0,4.178,1.963,7.119,5.191,7.119c3.262,0,5.129-3.102,5.129-7.246
		C47.176,91.925,45.34,88.634,42.016,88.634z"/>
	<path d="M67.902,49.064h1.43l-5.266,2.443c-0.875-1.457-2.453-2.443-4.275-2.443c-0.467,0-0.912,0.086-1.34,0.205l-3.615-7.629
		h2.373v-5.166h-11.5v5.166h8.021l3.787,7.994c-1.611,0.83-2.727,2.492-2.727,4.43c0,1.266,0.484,2.406,1.26,3.287l-5.625,6.047
		h-8.178v5.166h11.5v-5.166h-1.957l4.99-5.363c0.84,0.637,1.875,1.029,3.01,1.029c2.762,0,5-2.238,5-5
		c0-0.582-0.119-1.131-0.301-1.65l7.219-3.35h7.693v-5.166h-11.5V49.064z"/>
</g>
</svg>
