<?xml version="1.0" encoding="utf-8"?>
<!-- Generator: Adobe Illustrator 16.0.0, SVG Export Plug-In . SVG Version: 6.00 Build 0)  -->
<!DOCTYPE svg PUBLIC "-//W3C//DTD SVG 1.1//EN" "http://www.w3.org/Graphics/SVG/1.1/DTD/svg11.dtd">
<svg version="1.1" id="Layer_1" xmlns="http://www.w3.org/2000/svg" xmlns:xlink="http://www.w3.org/1999/xlink" x="0px" y="0px"
	 width="126px" height="126px" viewBox="0 0 126 126" enable-background="new 0 0 126 126" xml:space="preserve">
<g>
	<path d="M88.488,91.211c0-1.814-1.387-2.774-3.842-2.774c-1.174,0-1.849,0.07-2.312,0.142v5.586h1.778
		C86.958,94.164,88.488,92.99,88.488,91.211z"/>
	<path d="M39.15,88.578c-1.103,0-1.85,0.107-2.241,0.214v7.079c0.462,0.107,1.031,0.142,1.813,0.142
		c2.881,0,4.661-1.458,4.661-3.913C43.384,89.895,41.854,88.578,39.15,88.578z"/>
	<path d="M60.101,88.649c-1.208,0-1.992,0.106-2.454,0.214v15.688c0.462,0.106,1.209,0.106,1.885,0.106
		c4.909,0.036,8.111-2.667,8.111-8.396C67.679,91.282,64.762,88.649,60.101,88.649z"/>
	<path d="M84.184,98.041h-1.849v6.759c0.533,0.071,1.174,0.071,2.099,0.071c2.455,0,4.624-0.925,4.624-3.451
		C89.057,99.001,86.888,98.041,84.184,98.041z"/>
	<path d="M99.874,36.544c-0.006-0.468-0.154-0.93-0.475-1.295L79.731,12.784c-0.004-0.006-0.01-0.008-0.016-0.014
		c-0.117-0.131-0.252-0.239-0.396-0.334c-0.043-0.028-0.086-0.053-0.131-0.078c-0.127-0.068-0.258-0.124-0.395-0.165
		c-0.037-0.011-0.07-0.026-0.107-0.036c-0.15-0.035-0.303-0.057-0.459-0.057H29.893c-2.205,0-4,1.795-4,4v94c0,2.206,1.795,4,4,4h66
		c2.207,0,4-1.794,4-4V36.768C99.893,36.692,99.881,36.618,99.874,36.544z M46.549,97.65c-1.85,1.742-4.589,2.525-7.791,2.525
		c-0.711,0-1.352-0.036-1.849-0.106v8.573h-5.373V84.985c1.672-0.284,4.021-0.497,7.329-0.497c3.344,0,5.727,0.639,7.328,1.921
		c1.53,1.208,2.562,3.201,2.562,5.549C48.755,94.307,47.972,96.298,46.549,97.65z M69.422,105.797
		c-2.526,2.098-6.368,3.095-11.064,3.095c-2.811,0-4.802-0.179-6.155-0.356v-23.55c1.993-0.32,4.589-0.497,7.329-0.497
		c4.553,0,7.507,0.817,9.818,2.561c2.491,1.85,4.055,4.803,4.055,9.036C73.406,100.673,71.734,103.84,69.422,105.797z
		 M92.259,106.721c-1.744,1.388-4.66,2.171-9.428,2.171c-2.667,0-4.66-0.179-5.87-0.356v-23.55c1.424-0.284,4.304-0.497,7.009-0.497
		c3.308,0,5.335,0.319,7.079,1.351c1.672,0.89,2.881,2.526,2.881,4.696c0,2.134-1.245,4.127-3.948,5.122v0.071
		c2.739,0.748,4.767,2.811,4.767,5.905C94.75,103.804,93.753,105.512,92.259,106.721z M29.893,80.018V16.101h46.334v20.466
		c0,1.104,0.895,2,2,2h17.666l0.002,41.451H29.893z"/>
	<path d="M77.905,44.479h-8.58v-0.631c0-0.566-0.164-1.141-0.494-1.707l-0.043-0.072c0.342-0.557,0.537-1.146,0.537-1.76v-3.984
		c0-0.539-0.15-1.088-0.447-1.631l-0.035-0.063c0.088-0.242,0.15-0.49,0.15-0.754c0-3.219-6.957-4.957-13.504-4.957
		c-6.541,0-13.496,1.738-13.496,4.957c0,0.264,0.061,0.512,0.15,0.754l-0.035,0.063c-0.299,0.543-0.447,1.092-0.447,1.631v3.984
		c0,0.613,0.193,1.201,0.535,1.758l-0.045,0.076c-0.326,0.566-0.49,1.139-0.49,1.705v3.984c0,0.594,0.182,1.162,0.506,1.705
		l-0.016,0.025c-0.326,0.564-0.49,1.139-0.49,1.703v3.984c0,3.539,6.074,6.313,13.828,6.313c1.721,0,3.351-0.144,4.858-0.394v12.272
		h21.986V49.027L77.905,44.479z M78.194,46.209l2.577,2.646h-2.577V46.209z M60.347,59.672c-1.464,0.26-3.094,0.411-4.858,0.411
		c-7.277,0-12.348-2.547-12.348-4.832v-3.748c2.271,2.08,6.943,3.408,12.348,3.408c1.716,0,3.344-0.147,4.858-0.396V59.672z
		 M60.347,52.254c-1.464,0.26-3.094,0.411-4.858,0.411c-7.277,0-12.348-2.547-12.348-4.832v-3.748
		c2.271,2.08,6.943,3.408,12.348,3.408c1.716,0,3.344-0.147,4.858-0.396V52.254z M60.347,44.64v0.09
		c-1.464,0.259-3.094,0.41-4.858,0.41c-7.277,0-12.348-2.545-12.348-4.83v-3.316c2.219,1.881,7.365,2.855,12.348,2.855
		c4.99,0,10.133-0.975,12.354-2.855v3.316c0,1.573-2.412,3.267-6.29,4.17h-1.206V44.64z M67.842,44.083v0.396h-0.499
		C67.52,44.351,67.692,44.221,67.842,44.083z M81.333,72.442H61.347V45.479h15.847v4.376h4.14V72.442z"/>
	<polygon points="63.838,60.964 68.992,64.033 68.992,62.574 65.094,60.386 65.094,60.358 68.992,58.17 68.992,56.711 63.838,59.78 
			"/>
	<polygon points="69.788,64.584 70.873,64.584 73.17,54.605 72.086,54.605 	"/>
	<polygon points="73.794,58.17 77.777,60.358 77.777,60.386 73.794,62.574 73.794,64.033 78.948,61.005 78.948,59.739 
		73.794,56.711 	"/>
</g>
</svg>
