<?xml version="1.0" encoding="utf-8"?>
<!-- Generator: Adobe Illustrator 16.0.0, SVG Export Plug-In . SVG Version: 6.00 Build 0)  -->
<!DOCTYPE svg PUBLIC "-//W3C//DTD SVG 1.1//EN" "http://www.w3.org/Graphics/SVG/1.1/DTD/svg11.dtd">
<svg version="1.1" id="Layer_1" xmlns="http://www.w3.org/2000/svg" xmlns:xlink="http://www.w3.org/1999/xlink" x="0px" y="0px"
	 width="126px" height="126px" viewBox="0 0 126 126" enable-background="new 0 0 126 126" xml:space="preserve">
<g>
	<path d="M44.588,89.105c-1.012,0-1.698,0.099-2.058,0.196v6.501c0.425,0.099,0.947,0.131,1.666,0.131
		c2.646,0,4.28-1.339,4.28-3.594C48.477,90.314,47.071,89.105,44.588,89.105z"/>
	<path d="M63.572,89.105c-1.012,0-1.698,0.099-2.058,0.196v6.501c0.425,0.099,0.947,0.131,1.666,0.131
		c2.646,0,4.28-1.339,4.28-3.594C67.461,90.314,66.056,89.105,63.572,89.105z"/>
	<path d="M99.98,36.45c-0.006-0.468-0.154-0.93-0.475-1.295L79.838,12.69c-0.004-0.006-0.01-0.008-0.016-0.014
		c-0.117-0.131-0.252-0.239-0.396-0.334c-0.043-0.028-0.086-0.053-0.131-0.078c-0.127-0.068-0.258-0.124-0.395-0.165
		c-0.037-0.011-0.07-0.026-0.107-0.036c-0.15-0.035-0.303-0.057-0.459-0.057H30c-2.205,0-4,1.795-4,4v94c0,2.206,1.795,4,4,4h66
		c2.207,0,4-1.794,4-4V36.674C100,36.599,99.988,36.524,99.98,36.45z M51.383,97.437c-1.698,1.601-4.214,2.319-7.154,2.319
		c-0.652,0-1.241-0.032-1.698-0.098v7.873h-4.933V85.807c1.535-0.262,3.691-0.458,6.729-0.458c3.072,0,5.26,0.588,6.73,1.765
		c1.404,1.11,2.352,2.94,2.352,5.096C53.408,94.365,52.689,96.195,51.383,97.437z M70.367,97.437
		c-1.698,1.601-4.214,2.319-7.154,2.319c-0.652,0-1.241-0.032-1.698-0.098v7.873h-4.933V85.807c1.535-0.262,3.691-0.458,6.729-0.458
		c3.072,0,5.26,0.588,6.73,1.765c1.404,1.11,2.352,2.94,2.352,5.096C72.393,94.365,71.674,96.195,70.367,97.437z M80.955,107.858
		c-2.514,0-4.997-0.654-6.238-1.34l1.012-4.116c1.34,0.686,3.398,1.372,5.521,1.372c2.287,0,3.496-0.947,3.496-2.385
		c0-1.372-1.047-2.156-3.691-3.104c-3.659-1.274-6.045-3.3-6.045-6.501c0-3.758,3.137-6.632,8.332-6.632
		c2.482,0,4.311,0.522,5.617,1.11l-1.109,4.019c-0.883-0.425-2.451-1.046-4.607-1.046s-3.201,0.98-3.201,2.124
		c0,1.404,1.242,2.025,4.084,3.104c3.887,1.438,5.717,3.463,5.717,6.566C89.842,104.722,87,107.858,80.955,107.858z M30,79.924
		V16.007h46.334v20.466c0,1.104,0.895,2,2,2H96l0.002,41.451H30z"/>
	<path d="M56.68,31.064c-9.539,0.645-17.083,8.566-17.083,18.27c0,2.266,0.431,4.427,1.183,6.43l15.9-6.973V31.064z"/>
	<path d="M72.895,59.901l-15.048-9.439L41.58,57.597c3.023,5.97,9.201,10.07,16.35,10.07C64.115,67.667,69.574,64.594,72.895,59.901
		z"/>
	<path d="M76.623,49.109c0-9.872-7.809-17.898-17.583-18.295v17.585l15.285,9.589C75.785,55.356,76.623,52.332,76.623,49.109z"/>
	<path d="M89.019,48.521c-0.452-0.346-1.104-0.266-1.454,0.186c-0.033,0.044-0.046,0.099-0.072,0.147
		c-0.334-0.071-0.642-0.03-0.856,0.247l-1.38,1.877c-0.324,0.148-0.621,0.366-0.852,0.671l-5.713,7.553
		c-0.297,0.392-0.437,0.85-0.442,1.306l-7.995,10.87c-0.508,0.665-2.188,3.836-1.523,4.347c0.666,0.507,3.424-1.836,3.933-2.502
		l8.371-10.549c0.46-0.122,0.886-0.385,1.196-0.795l5.713-7.553c0.197-0.26,0.323-0.55,0.391-0.85l1.409-1.775
		c0.225-0.295,0.2-0.646,0.049-0.988c0.058-0.05,0.122-0.086,0.172-0.148c0.35-0.451,0.266-1.102-0.187-1.452L89.019,48.521z"/>
</g>
</svg>
