<?xml version="1.0" encoding="utf-8"?>
<!-- Generator: Adobe Illustrator 16.0.0, SVG Export Plug-In . SVG Version: 6.00 Build 0)  -->
<!DOCTYPE svg PUBLIC "-//W3C//DTD SVG 1.1//EN" "http://www.w3.org/Graphics/SVG/1.1/DTD/svg11.dtd">
<svg version="1.1" id="Layer_1" xmlns="http://www.w3.org/2000/svg" xmlns:xlink="http://www.w3.org/1999/xlink" x="0px" y="0px"
	 width="126px" height="126px" viewBox="0 0 126 126" enable-background="new 0 0 126 126" xml:space="preserve">
<g>
	<path d="M52.379,87.277c-1.115,0-1.871,0.109-2.268,0.217v7.162c0.469,0.109,1.045,0.145,1.836,0.145
		c2.916,0,4.717-1.475,4.717-3.959C56.664,88.609,55.115,87.277,52.379,87.277z"/>
	<path d="M99.979,36.442c-0.004-0.468-0.154-0.929-0.475-1.295L79.838,12.682c-0.006-0.005-0.012-0.008-0.016-0.013
		c-0.117-0.132-0.254-0.239-0.398-0.334c-0.043-0.028-0.086-0.054-0.131-0.078c-0.125-0.069-0.258-0.124-0.395-0.165
		c-0.037-0.011-0.07-0.027-0.107-0.035C78.643,12.021,78.488,12,78.332,12H30c-2.207,0-4,1.794-4,4v94c0,2.205,1.793,4,4,4h66
		c2.205,0,4-1.795,4-4V36.666C100,36.591,99.988,36.517,99.979,36.442z M59.867,96.457c-1.873,1.764-4.645,2.555-7.883,2.555
		c-0.721,0-1.369-0.035-1.873-0.107v8.676h-5.436V83.643c1.693-0.287,4.068-0.504,7.416-0.504c3.383,0,5.795,0.648,7.416,1.943
		c1.547,1.225,2.59,3.24,2.59,5.615C62.098,93.074,61.307,95.09,59.867,96.457z M71.531,107.939c-2.771,0-5.506-0.721-6.875-1.477
		l1.117-4.535c1.475,0.756,3.742,1.512,6.082,1.512c2.52,0,3.852-1.043,3.852-2.627c0-1.512-1.152-2.375-4.066-3.42
		c-4.031-1.404-6.66-3.635-6.66-7.162c0-4.141,3.455-7.309,9.18-7.309c2.734,0,4.75,0.576,6.189,1.225l-1.223,4.428
		c-0.973-0.469-2.699-1.152-5.076-1.152c-2.375,0-3.527,1.08-3.527,2.34c0,1.549,1.369,2.232,4.5,3.42
		c4.283,1.584,6.299,3.814,6.299,7.234C81.322,104.484,78.191,107.939,71.531,107.939z M30,79.916V16h46.332v20.465
		c0,1.104,0.896,2,2,2H96v41.451H30z"/>
	<path d="M61.719,46.642c-3.205,0-5.813,2.607-5.813,5.813s2.607,5.813,5.813,5.813s5.813-2.607,5.813-5.813
		S64.924,46.642,61.719,46.642z M61.719,56.184c-2.059,0-3.73-1.673-3.73-3.73s1.672-3.73,3.73-3.73c2.057,0,3.73,1.673,3.73,3.73
		S63.775,56.184,61.719,56.184z"/>
	<path d="M62.76,38.278v-3.695h-2.082v3.695c-6.85,0.504-12.432,5.951-13.102,12.789h-3.729v2.082h3.66
		c0.352,7.104,6.068,12.958,13.17,13.482v3.695h2.082V66.63c7.102-0.524,12.818-6.378,13.17-13.482h3.66v-2.082h-3.729
		C75.191,44.229,69.609,38.782,62.76,38.278z M62.76,64.542v-3.586h-2.082v3.586c-5.955-0.517-10.738-5.43-11.084-11.394h3.623
		v-2.082H49.67c0.654-5.685,5.305-10.207,11.008-10.7v3.586h2.082v-3.586c5.703,0.494,10.352,5.015,11.008,10.7h-3.547v2.082h3.623
		C73.498,59.112,68.715,64.025,62.76,64.542z"/>
</g>
</svg>
