<?xml version="1.0" encoding="utf-8"?>
<!-- Generator: Adobe Illustrator 16.0.0, SVG Export Plug-In . SVG Version: 6.00 Build 0)  -->
<!DOCTYPE svg PUBLIC "-//W3C//DTD SVG 1.1//EN" "http://www.w3.org/Graphics/SVG/1.1/DTD/svg11.dtd">
<svg version="1.1" id="Layer_1" xmlns="http://www.w3.org/2000/svg" xmlns:xlink="http://www.w3.org/1999/xlink" x="0px" y="0px"
	 width="126px" height="126px" viewBox="0 0 126 126" enable-background="new 0 0 126 126" xml:space="preserve">
<g>
	<path d="M45.728,87.479c-1.45,0-2.272,0.117-2.703,0.196v7.285h2.351c2.977,0,4.739-1.488,4.739-3.8
		C50.115,88.733,48.47,87.519,45.728,87.479z"/>
	<path d="M99.98,36.402c-0.006-0.468-0.154-0.93-0.475-1.295L79.838,12.643c-0.004-0.006-0.01-0.008-0.016-0.014
		c-0.117-0.131-0.252-0.239-0.396-0.334c-0.043-0.028-0.086-0.053-0.131-0.078c-0.127-0.068-0.258-0.124-0.395-0.165
		c-0.037-0.011-0.07-0.026-0.107-0.036c-0.15-0.035-0.303-0.057-0.459-0.057H30c-2.205,0-4,1.795-4,4v94c0,2.206,1.795,4,4,4h66
		c2.207,0,4-1.794,4-4V36.626C100,36.551,99.988,36.477,99.98,36.402z M50.938,109.649c-0.431-0.744-1.058-2.898-1.841-6.149
		c-0.705-3.29-1.841-4.191-4.269-4.23h-1.802v10.38H37.11V83.602c1.919-0.313,4.779-0.548,7.952-0.548
		c3.917,0,6.659,0.587,8.539,2.076c1.566,1.253,2.428,3.094,2.428,5.522c0,3.368-2.389,5.68-4.661,6.502v0.117
		c1.841,0.745,2.859,2.507,3.525,4.936c0.822,2.978,1.645,6.424,2.154,7.442H50.938z M83.053,109.649l-0.392-10.105
		c-0.118-3.173-0.235-7.012-0.235-10.851h-0.118c-0.822,3.369-1.919,7.129-2.938,10.224l-3.212,10.302h-4.661l-2.82-10.224
		c-0.862-3.094-1.763-6.854-2.389-10.302H66.21c-0.157,3.564-0.274,7.639-0.47,10.929l-0.47,10.027h-5.523l1.685-26.4h7.951
		l2.585,8.813c0.823,3.055,1.646,6.346,2.233,9.439h0.118c0.744-3.055,1.645-6.541,2.507-9.479l2.82-8.774h7.795l1.449,26.4H83.053z
		 M30,79.876V15.959h46.334v20.466c0,1.104,0.895,2,2,2H96l0.002,41.451H30z"/>
</g>
<g>
	<path d="M58.71,42.981c-0.089-0.071-0.21-0.084-0.313-0.033c-0.103,0.048-0.167,0.153-0.167,0.266V55.78
		c0,0.112,0.064,0.218,0.167,0.265l0.13,0.031c0.066,0,0.13-0.023,0.184-0.065l9.839-6.282c0.07-0.058,0.112-0.145,0.112-0.233
		s-0.042-0.174-0.112-0.233L58.71,42.981z"/>
	<path d="M61.115,36.956c-11.171,0-20.228,5.496-20.228,12.276s9.057,12.276,20.228,12.276c0.796,0,1.581-0.031,2.354-0.085
		c-0.64,1.885-2.9,6.862-4.913,12.663l18.411-16.051c3.749-3.624,4.146-6.781,4.146-8.825
		C81.113,42.431,72.287,36.956,61.115,36.956z M75.266,56.187L64.549,65.53c0.583-1.42,1.042-2.545,1.297-3.299
		c0.271-0.796,0.125-1.675-0.389-2.34c-0.477-0.62-1.213-0.979-1.989-0.979c-0.058,0-0.117,0.002-0.175,0.006
		c-0.76,0.053-1.473,0.079-2.179,0.079c-9.604,0-17.717-4.472-17.717-9.766s8.113-9.766,17.717-9.766
		c9.479,0,17.487,4.462,17.487,9.744C78.602,50.949,78.221,53.311,75.266,56.187z"/>
</g>
</svg>
