<?xml version="1.0" encoding="utf-8"?>
<!-- Generator: Adobe Illustrator 16.0.0, SVG Export Plug-In . SVG Version: 6.00 Build 0)  -->
<!DOCTYPE svg PUBLIC "-//W3C//DTD SVG 1.1//EN" "http://www.w3.org/Graphics/SVG/1.1/DTD/svg11.dtd">
<svg version="1.1" id="Layer_1" xmlns="http://www.w3.org/2000/svg" xmlns:xlink="http://www.w3.org/1999/xlink" x="0px" y="0px"
	 width="126px" height="126px" viewBox="0 0 126 126" enable-background="new 0 0 126 126" xml:space="preserve">
<g>
	<path d="M99.98,36.446c-0.006-0.468-0.154-0.93-0.475-1.295L79.838,12.687c-0.004-0.006-0.01-0.008-0.016-0.014
		c-0.117-0.131-0.252-0.239-0.396-0.334c-0.043-0.028-0.086-0.053-0.131-0.078c-0.127-0.068-0.258-0.124-0.395-0.165
		c-0.037-0.011-0.07-0.026-0.107-0.036c-0.15-0.035-0.303-0.057-0.459-0.057H30c-2.205,0-4,1.795-4,4v94c0,2.206,1.795,4,4,4h66
		c2.207,0,4-1.794,4-4V36.67C100,36.595,99.988,36.521,99.98,36.446z M30,16.003h46.334v20.466c0,1.104,0.895,2,2,2H96l0.002,41.451
		H30V16.003z M36.553,108.3c-2.608,0-5.183-0.678-6.47-1.389l1.05-4.269c1.389,0.711,3.523,1.423,5.725,1.423
		c2.371,0,3.625-0.982,3.625-2.473c0-1.423-1.084-2.236-3.828-3.219c-3.794-1.32-6.267-3.421-6.267-6.74
		c0-3.896,3.252-6.877,8.638-6.877c2.574,0,4.472,0.542,5.826,1.151L43.7,90.075c-0.915-0.44-2.541-1.084-4.776-1.084
		s-3.32,1.017-3.32,2.202c0,1.456,1.287,2.1,4.234,3.218c4.031,1.49,5.928,3.591,5.928,6.809
		C45.767,105.048,42.819,108.3,36.553,108.3z M54.441,107.961h-5.183V85.13h5.183V107.961z M74.733,89.466H68.5v18.495h-5.183
		V89.466h-6.131V85.13h17.547V89.466z M90.114,107.961l-2.066-4.133c-0.847-1.592-1.389-2.777-2.032-4.099h-0.068
		c-0.474,1.321-1.05,2.507-1.762,4.099l-1.897,4.133h-5.894L83,96.41l-6.368-11.28h5.928l1.999,4.166
		c0.678,1.389,1.186,2.507,1.728,3.794h0.068c0.542-1.456,0.982-2.473,1.558-3.794l1.931-4.166h5.894l-6.436,11.145l6.775,11.687
		H90.114z"/>
	<g>
		<rect x="41.674" y="34.638" width="29.385" height="4.84"/>
		<polygon points="85.753,45.674 85.753,39.478 71.059,39.478 71.059,45.674 76.032,45.674 76.032,47.268 76.032,49.082 
			76.032,51.147 76.032,52.968 76.032,55.08 76.032,56.896 76.032,59.351 71.059,59.351 71.059,65.271 41.674,65.271 41.674,70.107 
			71.059,70.107 71.059,65.547 85.753,65.547 85.753,59.351 77.542,59.351 77.542,56.896 80.785,56.896 80.785,55.08 77.542,55.08 
			77.542,52.968 80.785,52.968 80.785,51.147 77.542,51.147 77.542,49.082 80.785,49.082 80.785,47.268 77.542,47.268 
			77.542,45.674 		"/>
		<rect x="45.454" y="41.967" width="21.827" height="21.096"/>
	</g>
</g>
</svg>
