<?xml version="1.0" encoding="utf-8"?>
<!-- Generator: Adobe Illustrator 16.0.0, SVG Export Plug-In . SVG Version: 6.00 Build 0)  -->
<!DOCTYPE svg PUBLIC "-//W3C//DTD SVG 1.1//EN" "http://www.w3.org/Graphics/SVG/1.1/DTD/svg11.dtd">
<svg version="1.1" id="Layer_1" xmlns="http://www.w3.org/2000/svg" xmlns:xlink="http://www.w3.org/1999/xlink" x="0px" y="0px"
	 width="126px" height="126px" viewBox="0 0 126 126" enable-background="new 0 0 126 126" xml:space="preserve">
<g>
	<path d="M99.98,36.442c-0.006-0.468-0.156-0.929-0.477-1.295L79.838,12.682c-0.006-0.005-0.012-0.008-0.016-0.013
		c-0.117-0.132-0.254-0.239-0.398-0.334c-0.043-0.028-0.086-0.054-0.131-0.078c-0.125-0.069-0.256-0.124-0.395-0.165
		c-0.037-0.011-0.07-0.027-0.107-0.035C78.643,12.021,78.488,12,78.332,12H30c-2.205,0-4,1.794-4,4v94c0,2.205,1.795,4,4,4h66
		c2.205,0,4-1.795,4-4V36.666C100,36.591,99.988,36.517,99.98,36.442z M48.832,88.467h-6.623v19.654h-5.506V88.467h-6.516v-4.607
		h18.645V88.467z M57.258,108.121H51.75V83.859h5.508V108.121z M76.84,88.359h-9.322v5.543h8.711v4.463h-8.711v9.756H62.01V83.859
		h14.83V88.359z M95.813,88.359h-9.324v5.543h8.711v4.463h-8.711v9.756h-5.506V83.859h14.83V88.359z M30,79.916V16h46.332v20.465
		c0,1.104,0.896,2,2,2H96v41.451H30z"/>
	<path d="M83.298,42.166H62.786l-1.496-3.012c-0.241-0.388-0.692-0.803-1.405-0.803h-9.176c-0.445,0-0.992,0.364-1.277,0.803
		l-1.406,3.012h-5.326c-2.218,0-4.017,1.8-4.017,4.02v24.117c0,2.22,1.799,4.02,4.017,4.02h40.599c2.221,0,4.02-1.799,4.02-4.02
		V46.186C87.317,43.966,85.519,42.166,83.298,42.166z M68.928,68.494h-6.022c-0.829-1.91-1.843-4.972-3.376-4.619
		c-1.691,0.385-2.597,4.1-2.713,4.619h-0.029c-0.116-0.56-1.086-4.844-3.481-6.992c-2.444-2.191-4.819,6.222-5.032,6.992h-5.271
		V48.196h25.926V68.494z M78.189,65.387c-3.99,0-7.236-3.247-7.236-7.235c0-3.99,3.246-7.235,7.236-7.235
		c3.988,0,7.232,3.245,7.232,7.235C85.422,62.141,82.178,65.387,78.189,65.387z"/>
	<path d="M78.189,51.721c-3.549,0-6.433,2.885-6.433,6.431c0,3.546,2.884,6.431,6.433,6.431c3.545,0,6.43-2.885,6.43-6.431
		C84.619,54.606,81.734,51.721,78.189,51.721z M74.47,60.262l-2.11-2.11l2.11-2.11V60.262z M78.189,63.746l-2.113-2.111h4.221
		L78.189,63.746z M76.076,54.668l2.113-2.11l2.107,2.11H76.076z M81.438,60.262v-4.221l2.11,2.11L81.438,60.262z"/>
	<path d="M56.426,55.423c0.551,0,1.057-0.049,1.508-0.131c0.533,0.204,1.174,0.326,1.875,0.326c1.787,0,3.233-0.785,3.233-1.749
		c0-0.965-1.446-1.747-3.233-1.747c-0.67,0-1.295,0.107-1.813,0.299c-0.21-0.183-0.495-0.299-0.812-0.299h-0.473
		c-0.594,0-1.07,0.407-1.141,0.926c-1.446,0.139-2.523,0.604-2.523,1.164C53.047,54.883,54.561,55.423,56.426,55.423z"/>
	<circle cx="49.633" cy="53.556" r="1.448"/>
</g>
</svg>
