<?xml version="1.0" encoding="utf-8"?>
<!-- Generator: Adobe Illustrator 16.0.0, SVG Export Plug-In . SVG Version: 6.00 Build 0)  -->
<!DOCTYPE svg PUBLIC "-//W3C//DTD SVG 1.1//EN" "http://www.w3.org/Graphics/SVG/1.1/DTD/svg11.dtd">
<svg version="1.1" id="Layer_1" xmlns="http://www.w3.org/2000/svg" xmlns:xlink="http://www.w3.org/1999/xlink" x="0px" y="0px"
	 width="126px" height="126px" viewBox="0 0 126 126" enable-background="new 0 0 126 126" xml:space="preserve">
<g>
	<path d="M99.98,36.507c-0.006-0.468-0.154-0.93-0.475-1.295L79.838,12.747c-0.004-0.006-0.01-0.008-0.016-0.014
		c-0.117-0.131-0.252-0.239-0.396-0.334c-0.043-0.028-0.086-0.053-0.131-0.078c-0.127-0.068-0.258-0.124-0.395-0.165
		c-0.037-0.011-0.07-0.026-0.107-0.036c-0.15-0.035-0.303-0.057-0.459-0.057H30c-2.205,0-4,1.795-4,4v94c0,2.206,1.795,4,4,4h66
		c2.207,0,4-1.794,4-4V36.73C100,36.655,99.988,36.581,99.98,36.507z M51.039,98.29c0,7.045-3.557,10.399-9.518,10.399
		c-5.76,0-9.146-3.185-9.146-10.468V85.485h5.182v13.143c0,3.93,1.49,5.929,4.133,5.929c2.711,0,4.201-1.897,4.201-5.929V85.485
		h5.148V98.29z M74.145,98.29c0,7.045-3.557,10.399-9.518,10.399c-5.76,0-9.146-3.185-9.146-10.468V85.485h5.182v13.143
		c0,3.93,1.49,5.929,4.133,5.929c2.711,0,4.201-1.897,4.201-5.929V85.485h5.148V98.29z M93.186,108.316H78.619V85.485h14.092v4.234
		h-8.908v4.742h8.4v4.2h-8.4v5.42h9.383V108.316z M30,79.98V16.063h46.334v20.466c0,1.104,0.895,2,2,2H96l0.002,41.451H30z"/>
	<g>
		<rect x="60.133" y="17.347" width="6.066" height="2.502"/>
		<rect x="54.066" y="13.954" width="6.066" height="1.875"/>
		<rect x="54.066" y="21.092" width="6.066" height="2.503"/>
		<rect x="60.133" y="25.19" width="6.066" height="2.504"/>
		<rect x="60.332" y="32.599" width="6.066" height="2.504"/>
		<rect x="54.066" y="29.079" width="6.066" height="2.504"/>
		<rect x="54.266" y="37.455" width="6.066" height="2.502"/>
		<rect x="60.332" y="41.2" width="6.066" height="2.503"/>
		<rect x="54.266" y="45.299" width="6.066" height="2.504"/>
		<path d="M60.133,49.896c-2.98,0-4.396,2.415-4.396,5.396l-0.998,9.039c0,2.98,2.414,5.396,5.395,5.396s5.395-2.416,5.395-5.396
			l-0.996-9.039C64.531,52.312,63.113,49.896,60.133,49.896z M61.92,67.357h-3.572v-7.546h3.572V67.357z"/>
	</g>
</g>
</svg>
