<?xml version="1.0" encoding="utf-8"?>
<!-- Generator: Adobe Illustrator 16.0.4, SVG Export Plug-In . SVG Version: 6.00 Build 0)  -->
<!DOCTYPE svg PUBLIC "-//W3C//DTD SVG 1.1//EN" "http://www.w3.org/Graphics/SVG/1.1/DTD/svg11.dtd">
<svg version="1.1" id="Layer_1" xmlns="http://www.w3.org/2000/svg" xmlns:xlink="http://www.w3.org/1999/xlink" x="0px" y="0px"
	 width="126px" height="126px" viewBox="0 0 126 126" enable-background="new 0 0 126 126" xml:space="preserve">
<g>
	<path d="M83.343,89.845c-1.015,0-1.671,0.091-2.06,0.181v13.156c0.389,0.09,1.014,0.09,1.58,0.09
		c4.119,0.029,6.804-2.238,6.804-7.041C89.697,92.053,87.25,89.845,83.343,89.845z"/>
	<path d="M99.98,36.443c-0.006-0.468-0.154-0.93-0.476-1.295L79.838,12.684c-0.004-0.006-0.01-0.008-0.016-0.014
		c-0.117-0.131-0.252-0.239-0.396-0.334c-0.043-0.028-0.086-0.053-0.131-0.078c-0.127-0.068-0.258-0.124-0.395-0.165
		c-0.037-0.011-0.07-0.026-0.107-0.036C78.643,12.021,78.49,12,78.334,12H30c-2.205,0-4,1.795-4,4v94c0,2.206,1.795,4,4,4h66
		c2.207,0,4-1.794,4-4V36.667C100,36.592,99.988,36.518,99.98,36.443z M51.829,106.611h-4.923l-1.7-8.651
		c-0.388-2.028-0.716-3.908-0.955-6.206h-0.059c-0.358,2.27-0.687,4.178-1.164,6.206l-1.909,8.651h-4.982l-4.773-20.107h4.863
		l1.521,8.294c0.447,2.388,0.865,4.981,1.193,7.011h0.06c0.328-2.178,0.806-4.595,1.312-7.069l1.702-8.234h4.832l1.612,8.474
		c0.446,2.355,0.774,4.504,1.073,6.742h0.059c0.299-2.238,0.747-4.595,1.165-6.98l1.64-8.234h4.624L51.829,106.611z M71.973,97.395
		c-1.553,1.461-3.85,2.117-6.533,2.117c-0.598,0-1.135-0.029-1.553-0.09v7.189h-4.504v-19.84c1.401-0.238,3.37-0.418,6.145-0.418
		c2.806,0,4.805,0.537,6.146,1.611c1.283,1.014,2.146,2.686,2.146,4.653C73.82,94.589,73.165,96.26,71.973,97.395z M91.158,104.227
		c-2.118,1.76-5.34,2.594-9.278,2.594c-2.356,0-4.026-0.147-5.161-0.297v-19.75c1.672-0.27,3.85-0.418,6.146-0.418
		c3.818,0,6.296,0.687,8.234,2.147c2.088,1.552,3.4,4.027,3.4,7.577C94.5,99.93,93.098,102.584,91.158,104.227z M30,79.917V16
		h46.334v20.466c0,1.104,0.895,2,2,2H96l0.002,41.451H30z"/>
	<path d="M65.768,89.785c-0.926,0-1.553,0.09-1.881,0.18v5.938c0.389,0.09,0.865,0.119,1.521,0.119c2.417,0,3.908-1.224,3.908-3.281
		C69.316,90.891,68.033,89.785,65.768,89.785z"/>
</g>
<g>
	<path d="M71.803,31.946h-2.324v-3.361l-5.752-5.754H39.868v40.596h8.076v9.115h29.611V37.7L71.803,31.946z M72.232,34.453
		l3.305,3.306h-3.305V34.453z M69.479,59.575c0.012,0.172,0.012,0.345,0,0.517V59.575z M64.157,25.338l3.304,3.306h-3.304V25.338z
		 M41.337,61.959v-37.66h21.352v5.813h5.323V61.96L41.337,61.959L41.337,61.959z M76.086,71.074H49.412v-7.647h20.066v-2.345h4.666
		v-2h-4.666v-4.499h4.666v-2h-4.666v-4.896h4.666v-2h-4.666V33.414h1.285v5.813h5.321L76.086,71.074L76.086,71.074z"/>
	<rect x="54.053" y="32.75" width="12.917" height="2"/>
	<rect x="54.053" y="37.833" width="12.917" height="2"/>
	<rect x="43.681" y="42.75" width="23.29" height="2"/>
	<rect x="43.681" y="47.583" width="10.039" height="2"/>
	<rect x="43.681" y="52.583" width="10.039" height="2"/>
	<rect x="43.681" y="57.688" width="23.018" height="2"/>
	<rect x="51.127" y="65.562" width="23.018" height="2"/>
	<path d="M61.864,54.163l-0.405-1.292c-3.375-9.094-5.637,1.042-5.637,1.042l-0.148,0.625h9.982h0.542
		C63.365,48.997,61.864,54.163,61.864,54.163z"/>
</g>
<g enable-background="new    ">
	<path d="M43.021,32.643h2.591v0.252c-0.242,0.014-0.4,0.056-0.474,0.126c-0.074,0.07-0.111,0.17-0.111,0.298
		c-0.007,0.074,0.001,0.151,0.025,0.231c0.024,0.081,0.056,0.172,0.096,0.272l1.321,3.559l1.331-2.894l-0.353-0.917
		c-0.04-0.114-0.085-0.212-0.136-0.293c-0.051-0.08-0.111-0.147-0.182-0.201s-0.16-0.096-0.267-0.126
		c-0.108-0.03-0.239-0.049-0.393-0.056v-0.252h2.944v0.252c-0.276,0.014-0.482,0.058-0.62,0.131
		c-0.138,0.074-0.207,0.205-0.207,0.394c0,0.094,0.02,0.185,0.061,0.272l1.401,3.559l1.3-3.428c0.094-0.249,0.141-0.443,0.141-0.585
		c0-0.087-0.043-0.163-0.131-0.227c-0.087-0.064-0.259-0.103-0.514-0.116v-0.252h1.946v0.252c-0.396,0.061-0.686,0.326-0.867,0.797
		l-2.067,5.333h-0.272l-1.542-3.952l-1.805,3.952h-0.252L44,33.822c-0.061-0.168-0.121-0.304-0.182-0.408s-0.128-0.19-0.202-0.257
		c-0.074-0.067-0.16-0.12-0.257-0.157c-0.098-0.036-0.21-0.071-0.338-0.105V32.643z"/>
</g>
</svg>
