<?xml version="1.0" encoding="utf-8"?>
<!-- Generator: Adobe Illustrator 16.0.0, SVG Export Plug-In . SVG Version: 6.00 Build 0)  -->
<!DOCTYPE svg PUBLIC "-//W3C//DTD SVG 1.1//EN" "http://www.w3.org/Graphics/SVG/1.1/DTD/svg11.dtd">
<svg version="1.1" id="Layer_1" xmlns="http://www.w3.org/2000/svg" xmlns:xlink="http://www.w3.org/1999/xlink" x="0px" y="0px"
	 width="126px" height="126px" viewBox="0 0 126 126" enable-background="new 0 0 126 126" xml:space="preserve">
<g>
	<path d="M100.124,36.531c-0.006-0.468-0.154-0.93-0.475-1.295L79.981,12.771c-0.004-0.006-0.01-0.008-0.016-0.014
		c-0.117-0.131-0.252-0.239-0.396-0.334c-0.043-0.028-0.086-0.053-0.131-0.078c-0.127-0.068-0.258-0.124-0.395-0.165
		c-0.037-0.011-0.07-0.026-0.107-0.036c-0.15-0.035-0.303-0.057-0.459-0.057H30.143c-2.205,0-4,1.795-4,4v94c0,2.206,1.795,4,4,4h66
		c2.207,0,4-1.794,4-4V36.755C100.143,36.68,100.131,36.605,100.124,36.531z M55.088,107.293h-5.202l-1.798-9.144
		c-0.41-2.145-0.756-4.131-1.009-6.559h-0.063c-0.378,2.396-0.724,4.414-1.229,6.559l-2.019,9.144h-5.266l-5.044-21.252h5.14
		l1.607,8.767c0.473,2.522,0.915,5.265,1.261,7.409h0.064c0.346-2.303,0.851-4.855,1.386-7.473l1.798-8.703h5.108l1.703,8.955
		c0.473,2.49,0.819,4.762,1.136,7.126h0.062c0.316-2.364,0.789-4.856,1.231-7.378l1.732-8.703h4.887L55.088,107.293z
		 M68.014,107.608c-2.427,0-4.824-0.631-6.021-1.293l0.977-3.973c1.293,0.662,3.28,1.324,5.329,1.324
		c2.208,0,3.374-0.914,3.374-2.302c0-1.324-1.008-2.081-3.563-2.995c-3.531-1.229-5.834-3.185-5.834-6.274
		c0-3.627,3.027-6.401,8.042-6.401c2.395,0,4.161,0.505,5.422,1.072l-1.072,3.879c-0.851-0.41-2.365-1.01-4.446-1.01
		c-2.081,0-3.089,0.946-3.089,2.05c0,1.355,1.197,1.955,3.94,2.995c3.751,1.388,5.518,3.342,5.518,6.338
		C76.59,104.582,73.848,107.608,68.014,107.608z M92.828,89.982h-8.167v4.855h7.63v3.91h-7.63v8.545h-4.824V86.041h12.991V89.982z
		 M30.143,80.005V16.088h46.334v20.466c0,1.104,0.895,2,2,2h17.666l0.002,41.451H30.143z"/>
	<g>
		<path d="M63.21,70.449c-0.012-0.013-0.022-0.027-0.034-0.04H44.372c-0.923,0-1.675-0.86-1.675-1.918
			c0-1.057,0.751-1.916,1.675-1.916h17.623c-0.842-0.49-1.352-1.361-1.352-2.325v-2.321c0-1.095,0.655-2.071,1.668-2.488
			c0.177-0.069,0.291-0.18,0.345-0.311c0.053-0.13,0.052-0.293-0.005-0.424c-0.441-0.963-0.232-2.165,0.536-2.955l1.051-1.05H48.691
			v-1.667h19.953c0.451-0.916,1.388-1.517,2.411-1.517h2.32c0.65,0,1.251,0.233,1.723,0.63V31.541
			c0.012-1.392,1.491-1.354,1.658-1.354h0.007c0.731,0,1.327,0.68,1.327,1.518c0,0.837-0.595,1.519-1.327,1.519
			c-0.476,0-0.863,0.441-0.863,0.987s0.387,0.988,0.863,0.988c1.684,0,3.053-1.567,3.053-3.494s-1.369-3.494-3.026-3.494
			c0,0,0,0-0.001,0H46.042c-1.428,0-2.589,1.329-2.589,2.964v33.551h0.008c0,0.007,0.004,0.011,0.005,0.019
			c-1.437,0.455-2.495,1.961-2.495,3.747c0,2.147,1.525,3.894,3.401,3.894h20.836c-0.121-0.086-0.238-0.177-0.346-0.283
			L63.21,70.449z M48.691,35.576h20.667v1.667H48.691V35.576z M48.691,39.743h20.667v1.667H48.691V39.743z M48.691,44.477h20.667
			v1.667H48.691V44.477z M48.691,48.644h20.667v1.667H48.691V48.644z"/>
		<path d="M76.515,65.479c0.136-0.054,0.245-0.16,0.298-0.287c0.052-0.127,0.051-0.277-0.004-0.403
			c-0.167-0.382-0.081-0.831,0.21-1.123l0.777-0.778c0.196-0.193,0.448-0.299,0.712-0.299h0.183l0.208,0.08
			c0.162,0.071,0.299,0.065,0.422,0.014c0.131-0.055,0.237-0.162,0.286-0.291c0.148-0.37,0.484-0.605,0.873-0.633v-0.724
			c0-0.075-0.049-0.146-0.12-0.176c-0.767-0.3-1.388-0.906-1.703-1.666c-0.315-0.762-0.307-1.632,0.025-2.385
			c0.03-0.068,0.014-0.152-0.039-0.207l-1.642-1.641c-0.09-0.091-0.157-0.062-0.208-0.041c-0.748,0.331-1.622,0.342-2.383,0.025
			c-0.76-0.313-1.368-0.936-1.668-1.703c-0.027-0.069-0.096-0.118-0.174-0.118h-2.32c-0.077,0-0.148,0.049-0.175,0.118
			c-0.299,0.768-0.907,1.39-1.667,1.703c-0.757,0.316-1.631,0.308-2.385-0.025c-0.047-0.019-0.115-0.05-0.207,0.041l-1.642,1.641
			c-0.053,0.055-0.069,0.139-0.038,0.208c0.33,0.754,0.339,1.622,0.025,2.384c-0.315,0.76-0.936,1.366-1.704,1.666
			c-0.071,0.029-0.118,0.097-0.118,0.176v2.321c0,0.077,0.047,0.145,0.118,0.174c0.769,0.3,1.388,0.906,1.704,1.666
			c0.314,0.762,0.305,1.631-0.026,2.386c-0.03,0.068-0.014,0.152,0.039,0.206l1.642,1.643c0.092,0.091,0.157,0.061,0.208,0.037
			c0.385-0.168,0.796-0.256,1.22-0.256c0.402,0,0.793,0.078,1.163,0.232c0.761,0.315,1.369,0.936,1.668,1.703
			c0.027,0.069,0.098,0.117,0.175,0.117h2.32c0.079,0,0.146-0.046,0.174-0.117c0.3-0.768,0.907-1.388,1.668-1.703
			c0.741-0.306,1.582-0.303,2.319-0.001c0.01-0.098,0.035-0.195,0.076-0.289c0.059-0.132,0.06-0.284,0.007-0.412
			c-0.052-0.126-0.161-0.231-0.29-0.282c-0.394-0.158-0.643-0.526-0.643-0.941v-1.1C75.878,66.002,76.128,65.633,76.515,65.479z
			 M71.407,66.707c-2.488,0-4.512-2.023-4.512-4.514c0-2.486,2.023-4.514,4.512-4.514c2.49,0,4.516,2.027,4.516,4.514
			C75.922,64.684,73.897,66.707,71.407,66.707z"/>
		<path d="M85.455,66.334c-0.364-0.142-0.658-0.43-0.807-0.789c-0.148-0.36-0.145-0.772,0.012-1.129
			c0.015-0.033,0.007-0.073-0.018-0.1l-0.777-0.777c-0.043-0.042-0.076-0.028-0.1-0.019c-0.354,0.156-0.769,0.162-1.128,0.012
			c-0.361-0.148-0.649-0.443-0.791-0.807c-0.013-0.033-0.045-0.056-0.082-0.056h-1.099c-0.037,0-0.071,0.022-0.083,0.056
			c-0.141,0.363-0.43,0.658-0.789,0.807c-0.359,0.15-0.773,0.146-1.13-0.012c-0.022-0.009-0.055-0.023-0.098,0.019l-0.778,0.777
			c-0.025,0.026-0.033,0.066-0.019,0.1c0.159,0.357,0.161,0.769,0.012,1.129c-0.149,0.359-0.443,0.647-0.806,0.789
			c-0.034,0.014-0.057,0.046-0.057,0.084v1.1c0,0.036,0.023,0.068,0.057,0.082c0.363,0.143,0.657,0.43,0.806,0.789
			c0.149,0.36,0.146,0.773-0.012,1.131c-0.014,0.032-0.006,0.071,0.019,0.098l0.778,0.778c0.043,0.042,0.075,0.028,0.098,0.018
			c0.183-0.08,0.377-0.122,0.578-0.122c0.19,0,0.375,0.037,0.55,0.11c0.361,0.149,0.65,0.443,0.791,0.807
			c0.013,0.033,0.047,0.056,0.083,0.056h1.099c0.037,0,0.069-0.021,0.082-0.056c0.142-0.363,0.43-0.657,0.791-0.807
			c0.36-0.149,0.773-0.144,1.129,0.012c0.023,0.011,0.055,0.023,0.098-0.018l0.777-0.778c0.025-0.026,0.033-0.065,0.018-0.098
			c-0.157-0.357-0.16-0.771-0.012-1.131c0.149-0.359,0.443-0.646,0.807-0.789c0.033-0.014,0.056-0.046,0.056-0.082v-1.1
			C85.511,66.382,85.488,66.348,85.455,66.334z M81.214,69.105c-1.18,0-2.137-0.959-2.137-2.139c0-1.178,0.957-2.139,2.137-2.139
			c1.179,0,2.138,0.961,2.138,2.139C83.352,68.146,82.393,69.105,81.214,69.105z"/>
	</g>
</g>
</svg>
