<?xml version="1.0" encoding="utf-8"?>
<!-- Generator: Adobe Illustrator 16.0.0, SVG Export Plug-In . SVG Version: 6.00 Build 0)  -->
<!DOCTYPE svg PUBLIC "-//W3C//DTD SVG 1.1//EN" "http://www.w3.org/Graphics/SVG/1.1/DTD/svg11.dtd">
<svg version="1.1" id="Layer_1" xmlns="http://www.w3.org/2000/svg" xmlns:xlink="http://www.w3.org/1999/xlink" x="0px" y="0px"
	 width="126px" height="126px" viewBox="0 0 126 126" enable-background="new 0 0 126 126" xml:space="preserve">
<g>
	<g>
		<path d="M83.234,87.761c-1.361,0-2.135,0.11-2.539,0.185v6.848h2.209c2.797,0,4.455-1.398,4.455-3.571
			C87.359,88.939,85.813,87.798,83.234,87.761z"/>
		<path d="M99.873,36.23c-0.006-0.468-0.154-0.93-0.475-1.295L79.73,12.471c-0.004-0.006-0.01-0.008-0.016-0.014
			c-0.117-0.131-0.252-0.239-0.396-0.334c-0.043-0.028-0.086-0.053-0.131-0.078c-0.127-0.068-0.258-0.124-0.395-0.165
			c-0.037-0.011-0.07-0.026-0.107-0.036c-0.15-0.035-0.303-0.057-0.459-0.057H29.893c-2.205,0-4,1.795-4,4v94c0,2.206,1.795,4,4,4
			h66c2.207,0,4-1.794,4-4V36.454C99.893,36.379,99.881,36.305,99.873,36.23z M46.824,108.601l-2.246-4.492
			c-0.92-1.73-1.51-3.019-2.209-4.455h-0.074c-0.516,1.437-1.141,2.725-1.914,4.455l-2.063,4.492h-6.406l7.18-12.556L32.17,83.784
			h6.443l2.172,4.529c0.736,1.509,1.289,2.725,1.879,4.123h0.072c0.59-1.583,1.068-2.688,1.693-4.123l2.1-4.529h6.406l-6.996,12.113
			l7.365,12.703H46.824z M71.822,108.601H56.32V83.784h5.635v20.104h9.867V108.601z M88.133,108.601
			c-0.406-0.699-0.994-2.725-1.73-5.78c-0.664-3.093-1.73-3.94-4.014-3.977h-1.693v9.757h-5.561V84.115
			c1.805-0.294,4.492-0.515,7.475-0.515c3.682,0,6.26,0.552,8.025,1.951c1.475,1.178,2.283,2.908,2.283,5.191
			c0,3.166-2.246,5.339-4.381,6.112v0.11c1.73,0.699,2.688,2.356,3.314,4.639c0.771,2.799,1.545,6.039,2.023,6.996H88.133z
			 M29.893,79.704V15.787h46.334v20.466c0,1.104,0.895,2,2,2h17.666l0.002,41.451H29.893z"/>
	</g>
	<g>
		<path d="M39.266,27.908v45.075h44.078V27.908H39.266z M81.76,71.399H40.85V29.492h40.91V71.399z"/>
		<rect x="44.018" y="32.6" width="17.287" height="2.376"/>
		<rect x="44.018" y="39.854" width="17.287" height="2.376"/>
		<rect x="44.018" y="46.692" width="17.287" height="2.376"/>
		<rect x="44.018" y="53.947" width="34.973" height="2.375"/>
		<rect x="44.018" y="59.917" width="34.973" height="2.376"/>
		<rect x="44.018" y="66.401" width="34.973" height="2.376"/>
		<rect x="63.549" y="32.6" width="3.432" height="15.281"/>
		<rect x="69.619" y="38.142" width="3.432" height="9.739"/>
		<rect x="75.559" y="34.314" width="3.432" height="13.566"/>
	</g>
</g>
</svg>
