<?xml version="1.0" encoding="utf-8"?>
<!-- Generator: Adobe Illustrator 16.0.0, SVG Export Plug-In . SVG Version: 6.00 Build 0)  -->
<!DOCTYPE svg PUBLIC "-//W3C//DTD SVG 1.1//EN" "http://www.w3.org/Graphics/SVG/1.1/DTD/svg11.dtd">
<svg version="1.1" id="Layer_1" xmlns="http://www.w3.org/2000/svg" xmlns:xlink="http://www.w3.org/1999/xlink" x="0px" y="0px"
	 width="126px" height="126px" viewBox="0 0 126 126" enable-background="new 0 0 126 126" xml:space="preserve">
<g>
	<path d="M99.874,36.23c-0.006-0.468-0.154-0.93-0.475-1.295L79.731,12.471c-0.004-0.006-0.01-0.008-0.016-0.014
		c-0.117-0.131-0.252-0.239-0.396-0.334c-0.043-0.028-0.086-0.053-0.131-0.078c-0.127-0.068-0.258-0.124-0.395-0.165
		c-0.037-0.011-0.07-0.026-0.107-0.036c-0.15-0.035-0.303-0.057-0.459-0.057H29.893c-2.205,0-4,1.795-4,4v94c0,2.206,1.795,4,4,4h66
		c2.207,0,4-1.794,4-4V36.454C99.893,36.379,99.881,36.305,99.874,36.23z M43.626,97.789v9.219H38.64v-9.054l-6.988-13.057h5.708
		l2.263,5.314c0.689,1.607,1.148,2.788,1.706,4.232h0.065c0.493-1.379,1.017-2.657,1.673-4.232l2.231-5.314h5.609L43.626,97.789z
		 M71.345,97.298c0,6.823-3.445,10.071-9.218,10.071c-5.577,0-8.857-3.084-8.857-10.138V84.897h5.019v12.729
		c0,3.805,1.443,5.741,4.002,5.741c2.624,0,4.068-1.837,4.068-5.741V84.897h4.986V97.298z M86.728,107.008h-5.839l-7.086-22.11
		h5.479l2.689,9.349c0.755,2.625,1.444,5.151,1.969,7.907h0.098c0.558-2.657,1.246-5.282,2.001-7.808l2.821-9.448h5.314
		L86.728,107.008z M29.893,79.704V15.787h46.334v20.466c0,1.104,0.895,2,2,2h17.666l0.002,41.451H29.893z"/>
	<path d="M77.595,44.451c0.035-0.404,0.058-0.791,0.058-1.157c0-8.345-6.789-15.134-15.134-15.134s-15.134,6.789-15.134,15.134
		c0,0.437,0.033,0.896,0.082,1.378c-5.725,2.286-9.522,7.821-9.522,14.034c0,8.345,6.789,15.134,15.134,15.134
		c3.592,0,7.013-1.277,9.748-3.593c2.734,2.315,6.155,3.593,9.748,3.593c8.345,0,15.133-6.789,15.133-15.134
		C87.707,52.303,83.586,46.564,77.595,44.451z M66.212,58.706c0,3.278-1.202,6.351-3.387,8.768
		c-2.185-2.417-3.387-5.489-3.387-8.768c0-0.191,0.012-0.396,0.023-0.601c1.014,0.212,2.038,0.322,3.057,0.322
		c1.229,0,2.457-0.154,3.663-0.458C66.199,58.223,66.212,58.47,66.212,58.706z M65.909,55.974c-2.035,0.55-4.135,0.6-6.2,0.144
		c0.462-2.299,1.543-4.447,3.116-6.194C64.361,51.631,65.432,53.729,65.909,55.974z M57.791,55.535
		c-4.116-1.592-7.178-5.175-8.098-9.503c1.114-0.3,2.249-0.459,3.386-0.459c3.046,0,5.953,1.057,8.298,2.98
		C59.591,50.525,58.348,52.941,57.791,55.535z M67.808,55.298c-0.581-2.506-1.807-4.839-3.536-6.749
		c3.073-2.514,7.152-3.533,11.109-2.665C74.542,50.042,71.683,53.583,67.808,55.298z M62.519,30.16
		c7.242,0,13.134,5.892,13.134,13.134c0,0.193-0.006,0.392-0.017,0.599c-4.574-0.953-9.281,0.281-12.788,3.235l-0.022-0.021
		l-0.022,0.021c-2.729-2.298-6.146-3.554-9.726-3.554c-1.232,0-2.46,0.153-3.667,0.458c-0.018-0.255-0.026-0.499-0.026-0.737
		C49.385,36.052,55.277,30.16,62.519,30.16z M53.078,71.84c-7.242,0-13.134-5.892-13.134-13.134c0-5.239,3.108-9.93,7.843-12.011
		c1.155,5.019,4.817,9.137,9.686,10.858l-0.003,0.025l0.02,0.006c-0.034,0.396-0.051,0.764-0.051,1.121
		c0,3.804,1.391,7.375,3.938,10.166C59.031,70.793,56.121,71.84,53.078,71.84z M72.573,71.84c-3.043,0-5.954-1.047-8.298-2.968
		c2.547-2.792,3.938-6.362,3.938-10.166c0-0.432-0.023-0.872-0.071-1.349l0.017-0.006l-0.003-0.023
		c4.641-1.869,8.101-5.989,9.149-10.865c4.999,1.936,8.402,6.818,8.402,12.243C85.707,65.948,79.815,71.84,72.573,71.84z"/>
</g>
</svg>
